<svg xmlns="http://www.w3.org/2000/svg" xmlns:xlink="http://www.w3.org/1999/xlink" contentStyleType="text/css" height="1052px" preserveAspectRatio="none" style="width:1295px;height:1052px;background:#FFFFFF;" version="1.1" viewBox="0 0 1295 1052" width="1295px" zoomAndPan="magnify"><defs/><g><!--cluster aerial_robot_control--><g id="cluster_aerial_robot_control"><path d="M8.5,6 L167.1436,6 A3.75,3.75 0 0 1 169.6436,8.5 L176.6436,28.2969 L1285.5,28.2969 A2.5,2.5 0 0 1 1288,30.7969 L1288,1043.35 A2.5,2.5 0 0 1 1285.5,1045.85 L8.5,1045.85 A2.5,2.5 0 0 1 6,1043.35 L6,8.5 A2.5,2.5 0 0 1 8.5,6 " fill="none" style="stroke:#000000;stroke-width:1.5;"/><line style="stroke:#000000;stroke-width:1.5;" x1="6" x2="176.6436" y1="28.2969" y2="28.2969"/><text fill="#000000" font-family="sans-serif" font-size="14" font-weight="bold" lengthAdjust="spacing" textLength="157.6436" x="10" y="20.9951">aerial_robot_control</text></g><!--class ControlBase--><g id="elem_ControlBase"><rect codeLine="5" fill="#F1F1F1" height="145.7813" id="ControlBase" rx="2.5" ry="2.5" style="stroke:#181818;stroke-width:0.5;" width="133.6592" x="531.17" y="41"/><ellipse cx="553.6644" cy="57" fill="#A9DCDF" rx="11" ry="11" style="stroke:#181818;stroke-width:1.0;"/><path d="M553.7738,52.3437 L552.6176,57.4219 L554.9457,57.4219 L553.7738,52.3437 Z M552.2894,50.1094 L555.2738,50.1094 L558.6332,62.5 L556.1801,62.5 L555.4144,59.4375 L552.1332,59.4375 L551.3832,62.5 L548.9457,62.5 L552.2894,50.1094 Z " fill="#000000"/><text fill="#000000" font-family="sans-serif" font-size="14" font-style="italic" lengthAdjust="spacing" textLength="85.0049" x="569.3299" y="61.8467">ControlBase</text><line style="stroke:#181818;stroke-width:0.5;" x1="532.17" x2="663.8292" y1="73" y2="73"/><line style="stroke:#181818;stroke-width:0.5;" x1="532.17" x2="663.8292" y1="81" y2="81"/><ellipse cx="542.17" cy="94.6484" fill="#84BE84" rx="3" ry="3" style="stroke:#038048;stroke-width:1.0;"/><text fill="#000000" font-family="sans-serif" font-size="14" lengthAdjust="spacing" textLength="95.9287" x="551.17" y="97.9951">ControlBase()</text><ellipse cx="542.17" cy="110.9453" fill="#84BE84" rx="3" ry="3" style="stroke:#038048;stroke-width:1.0;"/><text fill="#000000" font-family="sans-serif" font-size="14" lengthAdjust="spacing" textLength="107.6592" x="551.17" y="114.292">~ControlBase()</text><ellipse cx="542.17" cy="127.2422" fill="#84BE84" rx="3" ry="3" style="stroke:#038048;stroke-width:1.0;"/><text fill="#000000" font-family="sans-serif" font-size="14" lengthAdjust="spacing" textLength="69.2754" x="551.17" y="130.5889">initialize()</text><ellipse cx="542.17" cy="143.5391" fill="#84BE84" rx="3" ry="3" style="stroke:#038048;stroke-width:1.0;"/><text fill="#000000" font-family="sans-serif" font-size="14" lengthAdjust="spacing" textLength="60.252" x="551.17" y="146.8857">update()</text><ellipse cx="542.17" cy="159.8359" fill="#84BE84" rx="3" ry="3" style="stroke:#038048;stroke-width:1.0;"/><text fill="#000000" font-family="sans-serif" font-size="14" lengthAdjust="spacing" textLength="67.5459" x="551.17" y="163.1826">activate()</text><ellipse cx="542.17" cy="176.1328" fill="#84BE84" rx="3" ry="3" style="stroke:#038048;stroke-width:1.0;"/><text fill="#000000" font-family="sans-serif" font-size="14" lengthAdjust="spacing" textLength="46.6895" x="551.17" y="179.4795">reset()</text></g><!--class PoseLinearController--><g id="elem_PoseLinearController"><rect codeLine="14" fill="#F1F1F1" height="129.4844" id="PoseLinearController" rx="2.5" ry="2.5" style="stroke:#181818;stroke-width:0.5;" width="194.2529" x="500.87" y="246.78"/><ellipse cx="523.3644" cy="262.78" fill="#A9DCDF" rx="11" ry="11" style="stroke:#181818;stroke-width:1.0;"/><path d="M523.4738,258.1237 L522.3176,263.2019 L524.6457,263.2019 L523.4738,258.1237 Z M521.9894,255.8894 L524.9738,255.8894 L528.3332,268.28 L525.8801,268.28 L525.1144,265.2175 L521.8332,265.2175 L521.0832,268.28 L518.6457,268.28 L521.9894,255.8894 Z " fill="#000000"/><text fill="#000000" font-family="sans-serif" font-size="14" font-style="italic" lengthAdjust="spacing" textLength="145.5986" x="539.0299" y="267.6267">PoseLinearController</text><line style="stroke:#181818;stroke-width:0.5;" x1="501.87" x2="694.1229" y1="278.78" y2="278.78"/><line style="stroke:#181818;stroke-width:0.5;" x1="501.87" x2="694.1229" y1="286.78" y2="286.78"/><ellipse cx="511.87" cy="300.4284" fill="#84BE84" rx="3" ry="3" style="stroke:#038048;stroke-width:1.0;"/><text fill="#000000" font-family="sans-serif" font-size="14" lengthAdjust="spacing" textLength="156.5225" x="520.87" y="303.7751">PoseLinearController()</text><ellipse cx="511.87" cy="316.7253" fill="#84BE84" rx="3" ry="3" style="stroke:#038048;stroke-width:1.0;"/><text fill="#000000" font-family="sans-serif" font-size="14" lengthAdjust="spacing" textLength="168.2529" x="520.87" y="320.072">~PoseLinearController()</text><ellipse cx="511.87" cy="333.0222" fill="#84BE84" rx="3" ry="3" style="stroke:#038048;stroke-width:1.0;"/><text fill="#000000" font-family="sans-serif" font-size="14" lengthAdjust="spacing" textLength="69.2754" x="520.87" y="336.3689">initialize()</text><ellipse cx="511.87" cy="349.3191" fill="#84BE84" rx="3" ry="3" style="stroke:#038048;stroke-width:1.0;"/><text fill="#000000" font-family="sans-serif" font-size="14" lengthAdjust="spacing" textLength="60.252" x="520.87" y="352.6657">update()</text><ellipse cx="511.87" cy="365.6159" fill="#84BE84" rx="3" ry="3" style="stroke:#038048;stroke-width:1.0;"/><text fill="#000000" font-family="sans-serif" font-size="14" lengthAdjust="spacing" textLength="46.6895" x="520.87" y="368.9626">reset()</text></g><!--class FullyActuatedController--><g id="elem_FullyActuatedController"><rect codeLine="22" fill="#F1F1F1" height="145.7813" id="FullyActuatedController" rx="2.5" ry="2.5" style="stroke:#181818;stroke-width:0.5;" width="214.0225" x="79.99" y="436.26"/><ellipse cx="102.4844" cy="452.26" fill="#ADD1B2" rx="11" ry="11" style="stroke:#181818;stroke-width:1.0;"/><path d="M105.4532,457.9006 Q104.8751,458.1975 104.2344,458.3381 Q103.5938,458.4944 102.8907,458.4944 Q100.3907,458.4944 99.0626,456.8537 Q97.7501,455.1975 97.7501,452.0725 Q97.7501,448.9475 99.0626,447.2912 Q100.3907,445.635 102.8907,445.635 Q103.5938,445.635 104.2344,445.7912 Q104.8907,445.9475 105.4532,446.2444 L105.4532,448.9631 Q104.8282,448.385 104.2344,448.1194 Q103.6407,447.8381 103.0157,447.8381 Q101.6719,447.8381 100.9844,448.9162 Q100.2969,449.9787 100.2969,452.0725 Q100.2969,454.1662 100.9844,455.2444 Q101.6719,456.3069 103.0157,456.3069 Q103.6407,456.3069 104.2344,456.0412 Q104.8282,455.76 105.4532,455.1819 L105.4532,457.9006 Z " fill="#000000"/><text fill="#000000" font-family="sans-serif" font-size="14" lengthAdjust="spacing" textLength="165.3682" x="118.1499" y="457.1067">FullyActuatedController</text><line style="stroke:#181818;stroke-width:0.5;" x1="80.99" x2="293.0125" y1="468.26" y2="468.26"/><line style="stroke:#181818;stroke-width:0.5;" x1="80.99" x2="293.0125" y1="476.26" y2="476.26"/><ellipse cx="90.99" cy="489.9084" fill="#84BE84" rx="3" ry="3" style="stroke:#038048;stroke-width:1.0;"/><text fill="#000000" font-family="sans-serif" font-size="14" lengthAdjust="spacing" textLength="176.292" x="99.99" y="493.2551">FullyActuatedController()</text><ellipse cx="90.99" cy="506.2053" fill="#84BE84" rx="3" ry="3" style="stroke:#038048;stroke-width:1.0;"/><text fill="#000000" font-family="sans-serif" font-size="14" lengthAdjust="spacing" textLength="188.0225" x="99.99" y="509.552">~FullyActuatedController()</text><ellipse cx="90.99" cy="522.5022" fill="#84BE84" rx="3" ry="3" style="stroke:#038048;stroke-width:1.0;"/><text fill="#000000" font-family="sans-serif" font-size="14" lengthAdjust="spacing" textLength="69.2754" x="99.99" y="525.8489">initialize()</text><ellipse cx="90.99" cy="538.7991" fill="#84BE84" rx="3" ry="3" style="stroke:#038048;stroke-width:1.0;"/><text fill="#000000" font-family="sans-serif" font-size="14" lengthAdjust="spacing" textLength="46.6895" x="99.99" y="542.1457">reset()</text><ellipse cx="90.99" cy="555.0959" fill="#84BE84" rx="3" ry="3" style="stroke:#038048;stroke-width:1.0;"/><text fill="#000000" font-family="sans-serif" font-size="14" lengthAdjust="spacing" textLength="92.4697" x="99.99" y="558.4426">controlCore()</text><ellipse cx="90.99" cy="571.3928" fill="#84BE84" rx="3" ry="3" style="stroke:#038048;stroke-width:1.0;"/><text fill="#000000" font-family="sans-serif" font-size="14" lengthAdjust="spacing" textLength="76.8906" x="99.99" y="574.7395">sendCmd()</text></g><!--class UnderActuatedController--><g id="elem_UnderActuatedController"><rect codeLine="31" fill="#F1F1F1" height="113.1875" id="UnderActuatedController" rx="2.5" ry="2.5" style="stroke:#181818;stroke-width:0.5;" width="223.4082" x="625.3" y="452.56"/><ellipse cx="647.7944" cy="468.56" fill="#ADD1B2" rx="11" ry="11" style="stroke:#181818;stroke-width:1.0;"/><path d="M650.7632,474.2006 Q650.1851,474.4975 649.5444,474.6381 Q648.9038,474.7944 648.2007,474.7944 Q645.7007,474.7944 644.3726,473.1537 Q643.0601,471.4975 643.0601,468.3725 Q643.0601,465.2475 644.3726,463.5912 Q645.7007,461.935 648.2007,461.935 Q648.9038,461.935 649.5444,462.0912 Q650.2007,462.2475 650.7632,462.5444 L650.7632,465.2631 Q650.1382,464.685 649.5444,464.4194 Q648.9507,464.1381 648.3257,464.1381 Q646.9819,464.1381 646.2944,465.2162 Q645.6069,466.2787 645.6069,468.3725 Q645.6069,470.4662 646.2944,471.5444 Q646.9819,472.6069 648.3257,472.6069 Q648.9507,472.6069 649.5444,472.3412 Q650.1382,472.06 650.7632,471.4819 L650.7632,474.2006 Z " fill="#000000"/><text fill="#000000" font-family="sans-serif" font-size="14" lengthAdjust="spacing" textLength="174.7539" x="663.4599" y="473.4067">UnderActuatedController</text><line style="stroke:#181818;stroke-width:0.5;" x1="626.3" x2="847.7082" y1="484.56" y2="484.56"/><line style="stroke:#181818;stroke-width:0.5;" x1="626.3" x2="847.7082" y1="492.56" y2="492.56"/><ellipse cx="636.3" cy="506.2084" fill="#84BE84" rx="3" ry="3" style="stroke:#038048;stroke-width:1.0;"/><text fill="#000000" font-family="sans-serif" font-size="14" lengthAdjust="spacing" textLength="185.6777" x="645.3" y="509.5551">UnderActuatedController()</text><ellipse cx="636.3" cy="522.5053" fill="#84BE84" rx="3" ry="3" style="stroke:#038048;stroke-width:1.0;"/><text fill="#000000" font-family="sans-serif" font-size="14" lengthAdjust="spacing" textLength="197.4082" x="645.3" y="525.852">~UnderActuatedController()</text><ellipse cx="636.3" cy="538.8022" fill="#84BE84" rx="3" ry="3" style="stroke:#038048;stroke-width:1.0;"/><text fill="#000000" font-family="sans-serif" font-size="14" lengthAdjust="spacing" textLength="69.2754" x="645.3" y="542.1489">initialize()</text><ellipse cx="636.3" cy="555.0991" fill="#84BE84" rx="3" ry="3" style="stroke:#038048;stroke-width:1.0;"/><text fill="#000000" font-family="sans-serif" font-size="14" lengthAdjust="spacing" textLength="46.6895" x="645.3" y="558.4457">reset()</text></g><!--class UnderActuatedLQIController--><g id="elem_UnderActuatedLQIController"><rect codeLine="38" fill="#F1F1F1" height="113.1875" id="UnderActuatedLQIController" rx="2.5" ry="2.5" style="stroke:#181818;stroke-width:0.5;" width="246.3564" x="883.82" y="452.56"/><ellipse cx="906.3144" cy="468.56" fill="#ADD1B2" rx="11" ry="11" style="stroke:#181818;stroke-width:1.0;"/><path d="M909.2832,474.2006 Q908.7051,474.4975 908.0644,474.6381 Q907.4238,474.7944 906.7207,474.7944 Q904.2207,474.7944 902.8926,473.1537 Q901.5801,471.4975 901.5801,468.3725 Q901.5801,465.2475 902.8926,463.5912 Q904.2207,461.935 906.7207,461.935 Q907.4238,461.935 908.0644,462.0912 Q908.7207,462.2475 909.2832,462.5444 L909.2832,465.2631 Q908.6582,464.685 908.0644,464.4194 Q907.4707,464.1381 906.8457,464.1381 Q905.5019,464.1381 904.8144,465.2162 Q904.1269,466.2787 904.1269,468.3725 Q904.1269,470.4662 904.8144,471.5444 Q905.5019,472.6069 906.8457,472.6069 Q907.4707,472.6069 908.0644,472.3412 Q908.6582,472.06 909.2832,471.4819 L909.2832,474.2006 Z " fill="#000000"/><text fill="#000000" font-family="sans-serif" font-size="14" lengthAdjust="spacing" textLength="197.7021" x="921.9799" y="473.4067">UnderActuatedLQIController</text><line style="stroke:#181818;stroke-width:0.5;" x1="884.82" x2="1129.1764" y1="484.56" y2="484.56"/><line style="stroke:#181818;stroke-width:0.5;" x1="884.82" x2="1129.1764" y1="492.56" y2="492.56"/><ellipse cx="894.82" cy="506.2084" fill="#84BE84" rx="3" ry="3" style="stroke:#038048;stroke-width:1.0;"/><text fill="#000000" font-family="sans-serif" font-size="14" lengthAdjust="spacing" textLength="208.626" x="903.82" y="509.5551">UnderActuatedLQIController()</text><ellipse cx="894.82" cy="522.5053" fill="#84BE84" rx="3" ry="3" style="stroke:#038048;stroke-width:1.0;"/><text fill="#000000" font-family="sans-serif" font-size="14" lengthAdjust="spacing" textLength="220.3564" x="903.82" y="525.852">~UnderActuatedLQIController()</text><ellipse cx="894.82" cy="538.8022" fill="#84BE84" rx="3" ry="3" style="stroke:#038048;stroke-width:1.0;"/><text fill="#000000" font-family="sans-serif" font-size="14" lengthAdjust="spacing" textLength="69.2754" x="903.82" y="542.1489">initialize()</text><ellipse cx="894.82" cy="555.0991" fill="#84BE84" rx="3" ry="3" style="stroke:#038048;stroke-width:1.0;"/><text fill="#000000" font-family="sans-serif" font-size="14" lengthAdjust="spacing" textLength="67.5459" x="903.82" y="558.4457">activate()</text></g><!--class UnderActuatedTiltedLQIController--><g id="elem_UnderActuatedTiltedLQIController"><rect codeLine="45" fill="#F1F1F1" height="113.1875" id="UnderActuatedTiltedLQIController" rx="2.5" ry="2.5" style="stroke:#181818;stroke-width:0.5;" width="285.6768" x="986.16" y="642.05"/><ellipse cx="1008.6544" cy="658.05" fill="#ADD1B2" rx="11" ry="11" style="stroke:#181818;stroke-width:1.0;"/><path d="M1011.6232,663.6906 Q1011.0451,663.9875 1010.4044,664.1281 Q1009.7638,664.2844 1009.0607,664.2844 Q1006.5607,664.2844 1005.2326,662.6438 Q1003.9201,660.9875 1003.9201,657.8625 Q1003.9201,654.7375 1005.2326,653.0813 Q1006.5607,651.425 1009.0607,651.425 Q1009.7638,651.425 1010.4044,651.5813 Q1011.0607,651.7375 1011.6232,652.0344 L1011.6232,654.7531 Q1010.9982,654.175 1010.4044,653.9094 Q1009.8107,653.6281 1009.1857,653.6281 Q1007.8419,653.6281 1007.1544,654.7063 Q1006.4669,655.7688 1006.4669,657.8625 Q1006.4669,659.9563 1007.1544,661.0344 Q1007.8419,662.0969 1009.1857,662.0969 Q1009.8107,662.0969 1010.4044,661.8313 Q1010.9982,661.55 1011.6232,660.9719 L1011.6232,663.6906 Z " fill="#000000"/><text fill="#000000" font-family="sans-serif" font-size="14" lengthAdjust="spacing" textLength="237.0225" x="1024.3199" y="662.8967">UnderActuatedTiltedLQIController</text><line style="stroke:#181818;stroke-width:0.5;" x1="987.16" x2="1270.8368" y1="674.05" y2="674.05"/><line style="stroke:#181818;stroke-width:0.5;" x1="987.16" x2="1270.8368" y1="682.05" y2="682.05"/><ellipse cx="997.16" cy="695.6984" fill="#84BE84" rx="3" ry="3" style="stroke:#038048;stroke-width:1.0;"/><text fill="#000000" font-family="sans-serif" font-size="14" lengthAdjust="spacing" textLength="247.9463" x="1006.16" y="699.0451">UnderActuatedTiltedLQIController()</text><ellipse cx="997.16" cy="711.9953" fill="#84BE84" rx="3" ry="3" style="stroke:#038048;stroke-width:1.0;"/><text fill="#000000" font-family="sans-serif" font-size="14" lengthAdjust="spacing" textLength="259.6768" x="1006.16" y="715.342">~UnderActuatedTiltedLQIController()</text><ellipse cx="997.16" cy="728.2922" fill="#84BE84" rx="3" ry="3" style="stroke:#038048;stroke-width:1.0;"/><text fill="#000000" font-family="sans-serif" font-size="14" lengthAdjust="spacing" textLength="69.2754" x="1006.16" y="731.6389">initialize()</text><ellipse cx="997.16" cy="744.5891" fill="#84BE84" rx="3" ry="3" style="stroke:#038048;stroke-width:1.0;"/><text fill="#000000" font-family="sans-serif" font-size="14" lengthAdjust="spacing" textLength="67.5459" x="1006.16" y="747.9357">activate()</text></g><!--class HydrusLQIController--><g id="elem_HydrusLQIController"><rect codeLine="52" fill="#F1F1F1" height="96.8906" id="HydrusLQIController" rx="2.5" ry="2.5" style="stroke:#181818;stroke-width:0.5;" width="178.667" x="772.67" y="650.19"/><ellipse cx="789.8857" cy="666.19" fill="#ADD1B2" rx="11" ry="11" style="stroke:#181818;stroke-width:1.0;"/><path d="M792.8545,671.8306 Q792.2763,672.1275 791.6357,672.2681 Q790.9951,672.4244 790.292,672.4244 Q787.792,672.4244 786.4638,670.7837 Q785.1513,669.1275 785.1513,666.0025 Q785.1513,662.8775 786.4638,661.2212 Q787.792,659.565 790.292,659.565 Q790.9951,659.565 791.6357,659.7212 Q792.292,659.8775 792.8545,660.1744 L792.8545,662.8931 Q792.2295,662.315 791.6357,662.0494 Q791.042,661.7681 790.417,661.7681 Q789.0732,661.7681 788.3857,662.8462 Q787.6982,663.9087 787.6982,666.0025 Q787.6982,668.0962 788.3857,669.1744 Q789.0732,670.2369 790.417,670.2369 Q791.042,670.2369 791.6357,669.9712 Q792.2295,669.69 792.8545,669.1119 L792.8545,671.8306 Z " fill="#000000"/><text fill="#000000" font-family="sans-serif" font-size="14" lengthAdjust="spacing" textLength="141.7432" x="804.3781" y="671.0367">HydrusLQIController</text><line style="stroke:#181818;stroke-width:0.5;" x1="773.67" x2="950.337" y1="682.19" y2="682.19"/><line style="stroke:#181818;stroke-width:0.5;" x1="773.67" x2="950.337" y1="690.19" y2="690.19"/><ellipse cx="783.67" cy="703.8384" fill="#84BE84" rx="3" ry="3" style="stroke:#038048;stroke-width:1.0;"/><text fill="#000000" font-family="sans-serif" font-size="14" lengthAdjust="spacing" textLength="152.667" x="792.67" y="707.1851">HydrusLQIController()</text><ellipse cx="783.67" cy="720.1353" fill="#84BE84" rx="3" ry="3" style="stroke:#038048;stroke-width:1.0;"/><text fill="#000000" font-family="sans-serif" font-size="14" lengthAdjust="spacing" textLength="69.2754" x="792.67" y="723.482">initialize()</text><ellipse cx="783.67" cy="736.4322" fill="#84BE84" rx="3" ry="3" style="stroke:#038048;stroke-width:1.0;"/><text fill="#000000" font-family="sans-serif" font-size="14" lengthAdjust="spacing" textLength="135.1807" x="792.67" y="739.7789">checkRobotModel()</text></g><!--class HydrusTiltedLQIController--><g id="elem_HydrusTiltedLQIController"><rect codeLine="58" fill="#F1F1F1" height="96.8906" id="HydrusTiltedLQIController" rx="2.5" ry="2.5" style="stroke:#181818;stroke-width:0.5;" width="217.9873" x="1054.01" y="831.53"/><ellipse cx="1071.2257" cy="847.53" fill="#ADD1B2" rx="11" ry="11" style="stroke:#181818;stroke-width:1.0;"/><path d="M1074.1945,853.1706 Q1073.6163,853.4675 1072.9757,853.6081 Q1072.3351,853.7644 1071.632,853.7644 Q1069.132,853.7644 1067.8038,852.1238 Q1066.4913,850.4675 1066.4913,847.3425 Q1066.4913,844.2175 1067.8038,842.5613 Q1069.132,840.905 1071.632,840.905 Q1072.3351,840.905 1072.9757,841.0613 Q1073.632,841.2175 1074.1945,841.5144 L1074.1945,844.2331 Q1073.5695,843.655 1072.9757,843.3894 Q1072.382,843.1081 1071.757,843.1081 Q1070.4132,843.1081 1069.7257,844.1863 Q1069.0382,845.2488 1069.0382,847.3425 Q1069.0382,849.4363 1069.7257,850.5144 Q1070.4132,851.5769 1071.757,851.5769 Q1072.382,851.5769 1072.9757,851.3113 Q1073.5695,851.03 1074.1945,850.4519 L1074.1945,853.1706 Z " fill="#000000"/><text fill="#000000" font-family="sans-serif" font-size="14" lengthAdjust="spacing" textLength="181.0635" x="1085.7181" y="852.3767">HydrusTiltedLQIController</text><line style="stroke:#181818;stroke-width:0.5;" x1="1055.01" x2="1270.9973" y1="863.53" y2="863.53"/><line style="stroke:#181818;stroke-width:0.5;" x1="1055.01" x2="1270.9973" y1="871.53" y2="871.53"/><ellipse cx="1065.01" cy="885.1784" fill="#84BE84" rx="3" ry="3" style="stroke:#038048;stroke-width:1.0;"/><text fill="#000000" font-family="sans-serif" font-size="14" lengthAdjust="spacing" textLength="191.9873" x="1074.01" y="888.5251">HydrusTiltedLQIController()</text><ellipse cx="1065.01" cy="901.4753" fill="#84BE84" rx="3" ry="3" style="stroke:#038048;stroke-width:1.0;"/><text fill="#000000" font-family="sans-serif" font-size="14" lengthAdjust="spacing" textLength="69.2754" x="1074.01" y="904.822">initialize()</text><ellipse cx="1065.01" cy="917.7722" fill="#84BE84" rx="3" ry="3" style="stroke:#038048;stroke-width:1.0;"/><text fill="#000000" font-family="sans-serif" font-size="14" lengthAdjust="spacing" textLength="135.1807" x="1074.01" y="921.1189">checkRobotModel()</text></g><!--class DragonLQIGimbalController--><g id="elem_DragonLQIGimbalController"><rect codeLine="64" fill="#F1F1F1" height="129.4844" id="DragonLQIGimbalController" rx="2.5" ry="2.5" style="stroke:#181818;stroke-width:0.5;" width="241.9473" x="600.03" y="815.23"/><ellipse cx="622.5244" cy="831.23" fill="#ADD1B2" rx="11" ry="11" style="stroke:#181818;stroke-width:1.0;"/><path d="M625.4932,836.8706 Q624.9151,837.1675 624.2744,837.3081 Q623.6338,837.4644 622.9307,837.4644 Q620.4307,837.4644 619.1026,835.8237 Q617.7901,834.1675 617.7901,831.0425 Q617.7901,827.9175 619.1026,826.2612 Q620.4307,824.605 622.9307,824.605 Q623.6338,824.605 624.2744,824.7612 Q624.9307,824.9175 625.4932,825.2144 L625.4932,827.9331 Q624.8682,827.355 624.2744,827.0894 Q623.6807,826.8081 623.0557,826.8081 Q621.7119,826.8081 621.0244,827.8862 Q620.3369,828.9487 620.3369,831.0425 Q620.3369,833.1362 621.0244,834.2144 Q621.7119,835.2769 623.0557,835.2769 Q623.6807,835.2769 624.2744,835.0112 Q624.8682,834.73 625.4932,834.1519 L625.4932,836.8706 Z " fill="#000000"/><text fill="#000000" font-family="sans-serif" font-size="14" lengthAdjust="spacing" textLength="193.293" x="638.1899" y="836.0767">DragonLQIGimbalController</text><line style="stroke:#181818;stroke-width:0.5;" x1="601.03" x2="840.9773" y1="847.23" y2="847.23"/><line style="stroke:#181818;stroke-width:0.5;" x1="601.03" x2="840.9773" y1="855.23" y2="855.23"/><ellipse cx="611.03" cy="868.8784" fill="#84BE84" rx="3" ry="3" style="stroke:#038048;stroke-width:1.0;"/><text fill="#000000" font-family="sans-serif" font-size="14" lengthAdjust="spacing" textLength="204.2168" x="620.03" y="872.2251">DragonLQIGimbalController()</text><ellipse cx="611.03" cy="885.1753" fill="#84BE84" rx="3" ry="3" style="stroke:#038048;stroke-width:1.0;"/><text fill="#000000" font-family="sans-serif" font-size="14" lengthAdjust="spacing" textLength="215.9473" x="620.03" y="888.522">~DragonLQIGimbalController()</text><ellipse cx="611.03" cy="901.4722" fill="#84BE84" rx="3" ry="3" style="stroke:#038048;stroke-width:1.0;"/><text fill="#000000" font-family="sans-serif" font-size="14" lengthAdjust="spacing" textLength="69.2754" x="620.03" y="904.8189">initialize()</text><ellipse cx="611.03" cy="917.7691" fill="#84BE84" rx="3" ry="3" style="stroke:#038048;stroke-width:1.0;"/><text fill="#000000" font-family="sans-serif" font-size="14" lengthAdjust="spacing" textLength="60.252" x="620.03" y="921.1157">update()</text><ellipse cx="611.03" cy="934.0659" fill="#84BE84" rx="3" ry="3" style="stroke:#038048;stroke-width:1.0;"/><text fill="#000000" font-family="sans-serif" font-size="14" lengthAdjust="spacing" textLength="46.6895" x="620.03" y="937.4126">reset()</text></g><!--class DragonFullVectoringController--><g id="elem_DragonFullVectoringController"><rect codeLine="72" fill="#F1F1F1" height="96.8906" id="DragonFullVectoringController" rx="2.5" ry="2.5" style="stroke:#181818;stroke-width:0.5;" width="261.3203" x="329.34" y="460.71"/><ellipse cx="351.8344" cy="476.71" fill="#ADD1B2" rx="11" ry="11" style="stroke:#181818;stroke-width:1.0;"/><path d="M354.8032,482.3506 Q354.2251,482.6475 353.5844,482.7881 Q352.9438,482.9444 352.2407,482.9444 Q349.7407,482.9444 348.4126,481.3037 Q347.1001,479.6475 347.1001,476.5225 Q347.1001,473.3975 348.4126,471.7412 Q349.7407,470.085 352.2407,470.085 Q352.9438,470.085 353.5844,470.2412 Q354.2407,470.3975 354.8032,470.6944 L354.8032,473.4131 Q354.1782,472.835 353.5844,472.5694 Q352.9907,472.2881 352.3657,472.2881 Q351.0219,472.2881 350.3344,473.3662 Q349.6469,474.4287 349.6469,476.5225 Q349.6469,478.6162 350.3344,479.6944 Q351.0219,480.7569 352.3657,480.7569 Q352.9907,480.7569 353.5844,480.4912 Q354.1782,480.21 354.8032,479.6319 L354.8032,482.3506 Z " fill="#000000"/><text fill="#000000" font-family="sans-serif" font-size="14" lengthAdjust="spacing" textLength="212.666" x="367.4999" y="481.5567">DragonFullVectoringController</text><line style="stroke:#181818;stroke-width:0.5;" x1="330.34" x2="589.6603" y1="492.71" y2="492.71"/><line style="stroke:#181818;stroke-width:0.5;" x1="330.34" x2="589.6603" y1="500.71" y2="500.71"/><ellipse cx="340.34" cy="514.3584" fill="#84BE84" rx="3" ry="3" style="stroke:#038048;stroke-width:1.0;"/><text fill="#000000" font-family="sans-serif" font-size="14" lengthAdjust="spacing" textLength="223.5898" x="349.34" y="517.7051">DragonFullVectoringController()</text><ellipse cx="340.34" cy="530.6553" fill="#84BE84" rx="3" ry="3" style="stroke:#038048;stroke-width:1.0;"/><text fill="#000000" font-family="sans-serif" font-size="14" lengthAdjust="spacing" textLength="235.3203" x="349.34" y="534.002">~DragonFullVectoringController()</text><ellipse cx="340.34" cy="546.9522" fill="#84BE84" rx="3" ry="3" style="stroke:#038048;stroke-width:1.0;"/><text fill="#000000" font-family="sans-serif" font-size="14" lengthAdjust="spacing" textLength="69.2754" x="349.34" y="550.2989">initialize()</text></g><g id="elem_ud_mr"><path d="M286.68,867.41 L286.68,892.5428 L565.3187,892.5428 L565.3187,877.41 L555.3187,867.41 L286.68,867.41 " fill="#FEFFDD" style="stroke:#181818;stroke-width:0.5;"/><path d="M555.3187,867.41 L555.3187,877.41 L565.3187,877.41 L555.3187,867.41 " fill="#FEFFDD" style="stroke:#181818;stroke-width:1.0;"/><text fill="#000000" font-family="sans-serif" font-size="13" lengthAdjust="spacing" textLength="257.6387" x="292.68" y="884.4769">under-actuated multi-rotor (quad-rotor)</text></g><g id="elem_hy"><path d="M580.54,686.07 L580.54,711.2028 A0,0 0 0 0 580.54,711.2028 L701.4648,711.2028 A0,0 0 0 0 701.4648,711.2028 L701.4648,696.07 L691.4648,686.07 L651.16,686.07 L708.33,566.15 L643.16,686.07 L580.54,686.07 A0,0 0 0 0 580.54,686.07 " fill="#FEFFDD" style="stroke:#181818;stroke-width:0.5;"/><path d="M691.4648,686.07 L691.4648,696.07 L701.4648,696.07 L691.4648,686.07 " fill="#FEFFDD" style="stroke:#181818;stroke-width:0.5;"/><text fill="#000000" font-family="sans-serif" font-size="13" lengthAdjust="spacing" textLength="99.9248" x="586.54" y="703.1369">hydrus (option)</text></g><g id="elem_fu_mr"><path d="M22.34,686.07 L22.34,711.2028 A0,0 0 0 0 22.34,711.2028 L319.6598,711.2028 A0,0 0 0 0 319.6598,711.2028 L319.6598,696.07 L309.6598,686.07 L176.01,686.07 L180.84,582.37 L168.01,686.07 L22.34,686.07 A0,0 0 0 0 22.34,686.07 " fill="#FEFFDD" style="stroke:#181818;stroke-width:0.5;"/><path d="M309.6598,686.07 L309.6598,696.07 L319.6598,696.07 L309.6598,686.07 " fill="#FEFFDD" style="stroke:#181818;stroke-width:0.5;"/><text fill="#000000" font-family="sans-serif" font-size="13" lengthAdjust="spacing" textLength="276.3198" x="28.34" y="703.1369">fully-actuated multi-rotor (tilted hex-rotor)</text></g><g id="elem_hy_xi"><path d="M354.64,686.07 L354.64,711.2028 A0,0 0 0 0 354.64,711.2028 L509.3661,711.2028 A0,0 0 0 0 509.3661,711.2028 L509.3661,696.07 L499.3661,686.07 L420.49,686.07 L281.37,582.37 L412.49,686.07 L354.64,686.07 A0,0 0 0 0 354.64,686.07 " fill="#FEFFDD" style="stroke:#181818;stroke-width:0.5;"/><path d="M499.3661,686.07 L499.3661,696.07 L509.3661,696.07 L499.3661,686.07 " fill="#FEFFDD" style="stroke:#181818;stroke-width:0.5;"/><text fill="#000000" font-family="sans-serif" font-size="13" lengthAdjust="spacing" textLength="133.7261" x="360.64" y="703.1369">hydrus_xi (hex type)</text></g><g id="elem_hy_nt"><path d="M876.98,867.41 L876.98,892.5428 A0,0 0 0 0 876.98,892.5428 L1019.0298,892.5428 A0,0 0 0 0 1019.0298,892.5428 L1019.0298,877.41 L1009.0298,867.41 L946.25,867.41 L884.82,747.23 L938.25,867.41 L876.98,867.41 A0,0 0 0 0 876.98,867.41 " fill="#FEFFDD" style="stroke:#181818;stroke-width:0.5;"/><path d="M1009.0298,867.41 L1009.0298,877.41 L1019.0298,877.41 L1009.0298,867.41 " fill="#FEFFDD" style="stroke:#181818;stroke-width:0.5;"/><text fill="#000000" font-family="sans-serif" font-size="13" lengthAdjust="spacing" textLength="121.0498" x="882.98" y="884.4769">hydrus (non tilted)</text></g><g id="elem_dragon"><path d="M452.5,1004.72 L452.5,1029.8528 L519.5078,1029.8528 L519.5078,1014.72 L509.5078,1004.72 L452.5,1004.72 " fill="#FEFFDD" style="stroke:#181818;stroke-width:0.5;"/><path d="M509.5078,1004.72 L509.5078,1014.72 L519.5078,1014.72 L509.5078,1004.72 " fill="#FEFFDD" style="stroke:#181818;stroke-width:1.0;"/><text fill="#000000" font-family="sans-serif" font-size="13" lengthAdjust="spacing" textLength="46.0078" x="458.5" y="1021.7869">dragon</text></g><g id="elem_hy_all"><path d="M1070.88,1004.72 L1070.88,1029.8528 A0,0 0 0 0 1070.88,1029.8528 L1255.11,1029.8528 A0,0 0 0 0 1255.11,1029.8528 L1255.11,1014.72 L1245.11,1004.72 L1167,1004.72 L1163,928.68 L1159,1004.72 L1070.88,1004.72 A0,0 0 0 0 1070.88,1004.72 " fill="#FEFFDD" style="stroke:#181818;stroke-width:0.5;"/><path d="M1245.11,1004.72 L1245.11,1014.72 L1255.11,1014.72 L1245.11,1004.72 " fill="#FEFFDD" style="stroke:#181818;stroke-width:0.5;"/><text fill="#000000" font-family="sans-serif" font-size="13" lengthAdjust="spacing" textLength="163.23" x="1076.88" y="1021.7869">hydrus (non tilted/ tilted)</text></g><!--reverse link ControlBase to PoseLinearController--><g id="link_ControlBase_PoseLinearController"><path d="M598,205.18 C598,224.66 598,227.6 598,246.59 " fill="none" id="ControlBase-backto-PoseLinearController" style="stroke:#181818;stroke-width:1.0;"/><polygon fill="none" points="598,187.18,592,205.18,604,205.18,598,187.18" style="stroke:#181818;stroke-width:1.0;"/></g><!--reverse link PoseLinearController to FullyActuatedController--><g id="link_PoseLinearController_FullyActuatedController"><path d="M483.7985,358.3842 C427.9185,381.5142 373.53,405.38 312,436.26 C306.18,439.18 300.26,442.25 294.31,445.41 " fill="none" id="PoseLinearController-backto-FullyActuatedController" style="stroke:#181818;stroke-width:1.0;"/><polygon fill="none" points="500.43,351.5,481.5037,352.8403,486.0932,363.928,500.43,351.5" style="stroke:#181818;stroke-width:1.0;"/></g><!--reverse link PoseLinearController to UnderActuatedController--><g id="link_PoseLinearController_UnderActuatedController"><path d="M653.937,391.2524 C671.277,415.6524 680.46,428.58 697.23,452.18 " fill="none" id="PoseLinearController-backto-UnderActuatedController" style="stroke:#181818;stroke-width:1.0;"/><polygon fill="none" points="643.51,376.58,649.0462,394.728,658.8278,387.7767,643.51,376.58" style="stroke:#181818;stroke-width:1.0;"/></g><!--reverse link PoseLinearController to UnderActuatedLQIController--><g id="link_PoseLinearController_UnderActuatedLQIController"><path d="M711.8794,363.9042 C762.8994,387.1542 809.87,409.01 866,436.26 C876.5,441.36 887.41,446.75 898.29,452.19 " fill="none" id="PoseLinearController-backto-UnderActuatedLQIController" style="stroke:#181818;stroke-width:1.0;"/><polygon fill="none" points="695.5,356.44,709.3914,369.364,714.3675,358.4444,695.5,356.44" style="stroke:#181818;stroke-width:1.0;"/></g><!--reverse link UnderActuatedLQIController to UnderActuatedTiltedLQIController--><g id="link_UnderActuatedLQIController_UnderActuatedTiltedLQIController"><path d="M1053.2576,581.2369 C1068.7776,605.0869 1077.02,617.76 1092.54,641.61 " fill="none" id="UnderActuatedLQIController-backto-UnderActuatedTiltedLQIController" style="stroke:#181818;stroke-width:1.0;"/><polygon fill="none" points="1043.44,566.15,1048.2286,584.5094,1058.2865,577.9644,1043.44,566.15" style="stroke:#181818;stroke-width:1.0;"/></g><!--reverse link UnderActuatedLQIController to HydrusLQIController--><g id="link_UnderActuatedLQIController_HydrusLQIController"><path d="M952.6783,580.3888 C932.0683,607.0388 918.69,624.34 898.96,649.85 " fill="none" id="UnderActuatedLQIController-backto-HydrusLQIController" style="stroke:#181818;stroke-width:1.0;"/><polygon fill="none" points="963.69,566.15,947.9321,576.7182,957.4246,584.0593,963.69,566.15" style="stroke:#181818;stroke-width:1.0;"/></g><!--reverse link UnderActuatedTiltedLQIController to HydrusTiltedLQIController--><g id="link_UnderActuatedTiltedLQIController_HydrusTiltedLQIController"><path d="M1142.9233,773.0849 C1147.5233,797.3449 1149.51,807.82 1153.93,831.12 " fill="none" id="UnderActuatedTiltedLQIController-backto-HydrusTiltedLQIController" style="stroke:#181818;stroke-width:1.0;"/><polygon fill="none" points="1139.57,755.4,1137.0283,774.2027,1148.8182,771.9671,1139.57,755.4" style="stroke:#181818;stroke-width:1.0;"/></g><!--reverse link HydrusLQIController to DragonLQIGimbalController--><g id="link_HydrusLQIController_DragonLQIGimbalController"><path d="M813.4565,761.3816 C797.1465,782.1316 788.89,792.62 771.34,814.95 " fill="none" id="HydrusLQIController-backto-DragonLQIGimbalController" style="stroke:#181818;stroke-width:1.0;"/><polygon fill="none" points="824.58,747.23,808.7393,757.6738,818.1737,765.0894,824.58,747.23" style="stroke:#181818;stroke-width:1.0;"/></g><!--reverse link PoseLinearController to DragonFullVectoringController--><g id="link_PoseLinearController_DragonFullVectoringController"><path d="M542.4371,391.2906 C523.1871,418.5906 511.48,435.18 493.68,460.4 " fill="none" id="PoseLinearController-backto-DragonFullVectoringController" style="stroke:#181818;stroke-width:1.0;"/><polygon fill="none" points="552.81,376.58,537.5336,387.833,547.3407,394.7483,552.81,376.58" style="stroke:#181818;stroke-width:1.0;"/></g><!--link UnderActuatedController to ud_mr--><g id="link_UnderActuatedController_ud_mr"><path codeLine="87" d="M748.34,566.07 C755.93,619.69 758.35,700.37 719,755.23 C714.87,760.99 529.02,837.06 455.49,866.99 " fill="none" id="UnderActuatedController-ud_mr" style="stroke:#181818;stroke-width:1.0;stroke-dasharray:7.0,7.0;"/></g><!--link HydrusLQIController to ud_mr--><g id="link_HydrusLQIController_ud_mr"><path codeLine="92" d="M772.45,743.58 C763.57,747.63 754.64,751.58 746,755.23 C674.89,785.28 655,787.38 583,815.23 C538.01,832.64 486.23,853.91 454.82,866.94 " fill="none" id="HydrusLQIController-ud_mr" style="stroke:#181818;stroke-width:1.0;stroke-dasharray:7.0,7.0;"/></g><!--link DragonLQIGimbalController to dragon--><g id="link_DragonLQIGimbalController_dragon"><path codeLine="94" d="M609.69,945.06 C570.54,967.6 530.48,990.67 506.94,1004.23 " fill="none" id="DragonLQIGimbalController-dragon" style="stroke:#181818;stroke-width:1.0;stroke-dasharray:7.0,7.0;"/></g><!--link DragonFullVectoringController to dragon--><g id="link_DragonFullVectoringController_dragon"><path codeLine="95" d="M495.59,557.99 C530.59,611.35 572.67,697.72 527,755.23 C453.79,847.43 342.21,723.04 269,815.23 C233.21,860.3 235.28,898.08 269,944.72 C311.19,1003.06 402.63,1014.65 452.28,1016.45 " fill="none" id="DragonFullVectoringController-dragon" style="stroke:#181818;stroke-width:1.0;stroke-dasharray:7.0,7.0;"/></g><!--SRC=[jPRBRjim44Nt_ef1Dd5GsDvhrpf8Mo15-aYxDMXoR1EbI8MFm6xHVdifKOwKWAGinDLA8Y_lp1dnTRcpjZB5Ob498gqhnPogSa45CMR6EDbgKauc1Yr8KgAf2CLlM15DhD9G59C9MHkh2RNG3062cXEnqcgjx8egQRKIHR4CB- -8GVWz0V-yWLxRzAfj-njhv99Rxyb_TKskOiHsdpuyV-mtQFGP-wy_9-RtMHcyvHA9RXCGg07t5YKRWnIpwTYolSEGFQOSoeqJul2MMkV7ifDfeWKuOYKiEx8XGGJkI1E-sZoMIdSAuzDTbcoO-BjagCzBdB3iY8S46U8nDBTVFlu7e6Uk2QQu9eBLMtjZoEwv6CcNAKoKCX8XmPfJlehumu5fPyuC6J7DPKjtI7z-hQDyKWp5gKc_yl_4XZy765dqqHZNccoLzFxlURacucICs3yxPfxqx2RMiEHiEtq8LU-zFv3wuvZBxNasYwpnIzGXsJDSJ_HqZOXcrkOWbKMuSFMCcf5sIa7fXEKphUgRn_J14HRUhow0671iLUhUs5tp6s6gAikL39hTeIVOr6TMmjmsSnDskE-7sBXOYDMUmzGhmHugFCRnZP5Sf98Gh9zqqlPqh2beqnLUinwBbrv425_Wr6audxSroWXyWLBN1zyR-3E2m1rRGA7JmoOwGsRfdIUChm7Jozfhsghb5qQdyy_b_TtrNG5R_kZd8pZ97nnsDrsm2fhf2QP2oZUS7cygtiZy0m00]--></g></svg>