<?xml version="1.0" encoding="us-ascii" standalone="no"?><svg xmlns="http://www.w3.org/2000/svg" xmlns:xlink="http://www.w3.org/1999/xlink" contentStyleType="text/css" height="1052px" preserveAspectRatio="none" style="width:1299px;height:1052px;background:#FFFFFF;" version="1.1" viewBox="0 0 1299 1052" width="1299px" zoomAndPan="magnify"><defs/><g><!--cluster aerial_robot_control--><g id="cluster_aerial_robot_control"><path d="M8.5,6 L173.5,6 A3.75,3.75 0 0 1 176,8.5 L183,28.2969 L1289.5,28.2969 A2.5,2.5 0 0 1 1292,30.7969 L1292,1042.5 A2.5,2.5 0 0 1 1289.5,1045 L8.5,1045 A2.5,2.5 0 0 1 6,1042.5 L6,8.5 A2.5,2.5 0 0 1 8.5,6 " fill="none" style="stroke:#000000;stroke-width:1.5;"/><line style="stroke:#000000;stroke-width:1.5;" x1="6" x2="183" y1="28.2969" y2="28.2969"/><text fill="#000000" font-family="sans-serif" font-size="14" font-weight="bold" lengthAdjust="spacing" textLength="164" x="10" y="20.9951">aerial_robot_control</text></g><!--class ControlBase--><g id="elem_ControlBase"><rect codeLine="5" fill="#F1F1F1" height="145.7813" id="ControlBase" rx="2.5" ry="2.5" style="stroke:#181818;stroke-width:0.5;" width="135" x="521.5" y="41"/><ellipse cx="543.7" cy="57" fill="#A9DCDF" rx="11" ry="11" style="stroke:#181818;stroke-width:1.0;"/><path d="M545.7781,58.8125 L546.1688,59.7969 L545.7781,59.7969 C545.325,59.7969 545.2156,59.8125 545.0594,59.9219 C544.8094,60.0781 544.6531,60.3594 544.6531,60.6563 C544.6531,60.9219 544.7938,61.1719 545.0125,61.3281 C545.1531,61.4531 545.3563,61.5 545.7781,61.5 L548.1375,61.5 C548.4969,61.5 548.7156,61.4688 548.8563,61.375 C549.1063,61.2344 549.2625,60.9375 549.2625,60.6563 C549.2625,60.375 549.1219,60.125 548.9031,59.9688 C548.7313,59.8281 548.575,59.7969 548.1063,59.7969 L544.7156,51.5938 L541.0438,51.5938 C540.5906,51.5938 540.4656,51.6094 540.3094,51.7031 C540.0594,51.875 539.9031,52.1563 539.9031,52.4375 C539.9031,52.7188 540.0438,52.9688 540.2625,53.1406 C540.4344,53.25 540.6063,53.2813 541.0438,53.2813 L542.1219,53.2813 L539.4813,59.7969 C539.0594,59.7969 538.9031,59.8125 538.7469,59.9219 C538.4969,60.0781 538.3406,60.3594 538.3406,60.6563 C538.3406,61.2188 538.7156,61.5 539.4656,61.5 L541.7313,61.5 C542.0906,61.5 542.3094,61.4688 542.4344,61.375 C542.7,61.2344 542.8406,60.9375 542.8406,60.6563 C542.8406,60.375 542.7156,60.125 542.4969,59.9531 C542.325,59.8281 542.1844,59.7969 541.7313,59.7969 L541.3406,59.7969 L541.7313,58.8125 L545.7781,58.8125 Z M545.075,57.1094 L542.4031,57.1094 L543.7469,53.8438 L545.075,57.1094 Z " fill="#000000"/><text fill="#000000" font-family="sans-serif" font-size="14" font-style="italic" lengthAdjust="spacing" textLength="87" x="559.3" y="61.8467">ControlBase</text><line style="stroke:#181818;stroke-width:0.5;" x1="522.5" x2="655.5" y1="73" y2="73"/><line style="stroke:#181818;stroke-width:0.5;" x1="522.5" x2="655.5" y1="81" y2="81"/><ellipse cx="532.5" cy="94.6484" fill="#84BE84" rx="3" ry="3" style="stroke:#038048;stroke-width:1.0;"/><text fill="#000000" font-family="sans-serif" font-size="14" lengthAdjust="spacing" textLength="98" x="541.5" y="97.9951">ControlBase()</text><ellipse cx="532.5" cy="110.9453" fill="#84BE84" rx="3" ry="3" style="stroke:#038048;stroke-width:1.0;"/><text fill="#000000" font-family="sans-serif" font-size="14" lengthAdjust="spacing" textLength="109" x="541.5" y="114.292">~ControlBase()</text><ellipse cx="532.5" cy="127.2422" fill="#84BE84" rx="3" ry="3" style="stroke:#038048;stroke-width:1.0;"/><text fill="#000000" font-family="sans-serif" font-size="14" lengthAdjust="spacing" textLength="71" x="541.5" y="130.5889">initialize()</text><ellipse cx="532.5" cy="143.5391" fill="#84BE84" rx="3" ry="3" style="stroke:#038048;stroke-width:1.0;"/><text fill="#000000" font-family="sans-serif" font-size="14" lengthAdjust="spacing" textLength="61" x="541.5" y="146.8857">update()</text><ellipse cx="532.5" cy="159.8359" fill="#84BE84" rx="3" ry="3" style="stroke:#038048;stroke-width:1.0;"/><text fill="#000000" font-family="sans-serif" font-size="14" lengthAdjust="spacing" textLength="69" x="541.5" y="163.1826">activate()</text><ellipse cx="532.5" cy="176.1328" fill="#84BE84" rx="3" ry="3" style="stroke:#038048;stroke-width:1.0;"/><text fill="#000000" font-family="sans-serif" font-size="14" lengthAdjust="spacing" textLength="48" x="541.5" y="179.4795">reset()</text></g><!--class PoseLinearController--><g id="elem_PoseLinearController"><rect codeLine="14" fill="#F1F1F1" height="129.4844" id="PoseLinearController" rx="2.5" ry="2.5" style="stroke:#181818;stroke-width:0.5;" width="198" x="490" y="247"/><ellipse cx="512.65" cy="263" fill="#A9DCDF" rx="11" ry="11" style="stroke:#181818;stroke-width:1.0;"/><path d="M514.7281,264.8125 L515.1188,265.7969 L514.7281,265.7969 C514.275,265.7969 514.1656,265.8125 514.0094,265.9219 C513.7594,266.0781 513.6031,266.3594 513.6031,266.6563 C513.6031,266.9219 513.7438,267.1719 513.9625,267.3281 C514.1031,267.4531 514.3063,267.5 514.7281,267.5 L517.0875,267.5 C517.4469,267.5 517.6656,267.4688 517.8063,267.375 C518.0563,267.2344 518.2125,266.9375 518.2125,266.6563 C518.2125,266.375 518.0719,266.125 517.8531,265.9688 C517.6813,265.8281 517.525,265.7969 517.0563,265.7969 L513.6656,257.5938 L509.9938,257.5938 C509.5406,257.5938 509.4156,257.6094 509.2594,257.7031 C509.0094,257.875 508.8531,258.1563 508.8531,258.4375 C508.8531,258.7188 508.9938,258.9688 509.2125,259.1406 C509.3844,259.25 509.5563,259.2813 509.9938,259.2813 L511.0719,259.2813 L508.4313,265.7969 C508.0094,265.7969 507.8531,265.8125 507.6969,265.9219 C507.4469,266.0781 507.2906,266.3594 507.2906,266.6563 C507.2906,267.2188 507.6656,267.5 508.4156,267.5 L510.6813,267.5 C511.0406,267.5 511.2594,267.4688 511.3844,267.375 C511.65,267.2344 511.7906,266.9375 511.7906,266.6563 C511.7906,266.375 511.6656,266.125 511.4469,265.9531 C511.275,265.8281 511.1344,265.7969 510.6813,265.7969 L510.2906,265.7969 L510.6813,264.8125 L514.7281,264.8125 Z M514.025,263.1094 L511.3531,263.1094 L512.6969,259.8438 L514.025,263.1094 Z " fill="#000000"/><text fill="#000000" font-family="sans-serif" font-size="14" font-style="italic" lengthAdjust="spacing" textLength="149" x="528.35" y="267.8467">PoseLinearController</text><line style="stroke:#181818;stroke-width:0.5;" x1="491" x2="687" y1="279" y2="279"/><line style="stroke:#181818;stroke-width:0.5;" x1="491" x2="687" y1="287" y2="287"/><ellipse cx="501" cy="300.6484" fill="#84BE84" rx="3" ry="3" style="stroke:#038048;stroke-width:1.0;"/><text fill="#000000" font-family="sans-serif" font-size="14" lengthAdjust="spacing" textLength="161" x="510" y="303.9951">PoseLinearController()</text><ellipse cx="501" cy="316.9453" fill="#84BE84" rx="3" ry="3" style="stroke:#038048;stroke-width:1.0;"/><text fill="#000000" font-family="sans-serif" font-size="14" lengthAdjust="spacing" textLength="172" x="510" y="320.292">~PoseLinearController()</text><ellipse cx="501" cy="333.2422" fill="#84BE84" rx="3" ry="3" style="stroke:#038048;stroke-width:1.0;"/><text fill="#000000" font-family="sans-serif" font-size="14" lengthAdjust="spacing" textLength="71" x="510" y="336.5889">initialize()</text><ellipse cx="501" cy="349.5391" fill="#84BE84" rx="3" ry="3" style="stroke:#038048;stroke-width:1.0;"/><text fill="#000000" font-family="sans-serif" font-size="14" lengthAdjust="spacing" textLength="61" x="510" y="352.8857">update()</text><ellipse cx="501" cy="365.8359" fill="#84BE84" rx="3" ry="3" style="stroke:#038048;stroke-width:1.0;"/><text fill="#000000" font-family="sans-serif" font-size="14" lengthAdjust="spacing" textLength="48" x="510" y="369.1826">reset()</text></g><!--class FullyActuatedController--><g id="elem_FullyActuatedController"><rect codeLine="22" fill="#F1F1F1" height="145.7813" id="FullyActuatedController" rx="2.5" ry="2.5" style="stroke:#181818;stroke-width:0.5;" width="218" x="61" y="436"/><ellipse cx="82.75" cy="452" fill="#ADD1B2" rx="11" ry="11" style="stroke:#181818;stroke-width:1.0;"/><path d="M85.0938,447.6719 C84.1563,447.2344 83.5625,447.0938 82.6875,447.0938 C80.0625,447.0938 78.0625,449.1719 78.0625,451.8906 L78.0625,453.0156 C78.0625,455.5938 80.1719,457.4844 83.0625,457.4844 C84.2813,457.4844 85.4375,457.1875 86.1875,456.6406 C86.7656,456.2344 87.0938,455.7813 87.0938,455.3906 C87.0938,454.9375 86.7031,454.5469 86.2344,454.5469 C86.0156,454.5469 85.8125,454.625 85.625,454.8125 C85.1719,455.2969 85.1719,455.2969 84.9844,455.3906 C84.5625,455.6563 83.875,455.7813 83.1094,455.7813 C81.0625,455.7813 79.7656,454.6875 79.7656,452.9844 L79.7656,451.8906 C79.7656,450.1094 81.0156,448.7969 82.75,448.7969 C83.3281,448.7969 83.9375,448.9531 84.4063,449.2031 C84.8906,449.4844 85.0625,449.7031 85.1563,450.1094 C85.2188,450.5156 85.25,450.6406 85.3906,450.7656 C85.5313,450.9063 85.7656,451.0156 85.9844,451.0156 C86.25,451.0156 86.5156,450.875 86.6875,450.6563 C86.7969,450.5 86.8281,450.3125 86.8281,449.8906 L86.8281,448.4688 C86.8281,448.0313 86.8125,447.9063 86.7188,447.75 C86.5625,447.4844 86.2813,447.3438 85.9844,447.3438 C85.6875,447.3438 85.4844,447.4375 85.2656,447.75 L85.0938,447.6719 Z " fill="#000000"/><text fill="#000000" font-family="sans-serif" font-size="14" lengthAdjust="spacing" textLength="171" x="98.25" y="456.8467">FullyActuatedController</text><line style="stroke:#181818;stroke-width:0.5;" x1="62" x2="278" y1="468" y2="468"/><line style="stroke:#181818;stroke-width:0.5;" x1="62" x2="278" y1="476" y2="476"/><ellipse cx="72" cy="489.6484" fill="#84BE84" rx="3" ry="3" style="stroke:#038048;stroke-width:1.0;"/><text fill="#000000" font-family="sans-serif" font-size="14" lengthAdjust="spacing" textLength="181" x="81" y="492.9951">FullyActuatedController()</text><ellipse cx="72" cy="505.9453" fill="#84BE84" rx="3" ry="3" style="stroke:#038048;stroke-width:1.0;"/><text fill="#000000" font-family="sans-serif" font-size="14" lengthAdjust="spacing" textLength="192" x="81" y="509.292">~FullyActuatedController()</text><ellipse cx="72" cy="522.2422" fill="#84BE84" rx="3" ry="3" style="stroke:#038048;stroke-width:1.0;"/><text fill="#000000" font-family="sans-serif" font-size="14" lengthAdjust="spacing" textLength="71" x="81" y="525.5889">initialize()</text><ellipse cx="72" cy="538.5391" fill="#84BE84" rx="3" ry="3" style="stroke:#038048;stroke-width:1.0;"/><text fill="#000000" font-family="sans-serif" font-size="14" lengthAdjust="spacing" textLength="48" x="81" y="541.8857">reset()</text><ellipse cx="72" cy="554.8359" fill="#84BE84" rx="3" ry="3" style="stroke:#038048;stroke-width:1.0;"/><text fill="#000000" font-family="sans-serif" font-size="14" lengthAdjust="spacing" textLength="96" x="81" y="558.1826">controlCore()</text><ellipse cx="72" cy="571.1328" fill="#84BE84" rx="3" ry="3" style="stroke:#038048;stroke-width:1.0;"/><text fill="#000000" font-family="sans-serif" font-size="14" lengthAdjust="spacing" textLength="77" x="81" y="574.4795">sendCmd()</text></g><!--class UnderActuatedController--><g id="elem_UnderActuatedController"><rect codeLine="31" fill="#F1F1F1" height="113.1875" id="UnderActuatedController" rx="2.5" ry="2.5" style="stroke:#181818;stroke-width:0.5;" width="228" x="617" y="452.5"/><ellipse cx="638.75" cy="468.5" fill="#ADD1B2" rx="11" ry="11" style="stroke:#181818;stroke-width:1.0;"/><path d="M641.0938,464.1719 C640.1563,463.7344 639.5625,463.5938 638.6875,463.5938 C636.0625,463.5938 634.0625,465.6719 634.0625,468.3906 L634.0625,469.5156 C634.0625,472.0938 636.1719,473.9844 639.0625,473.9844 C640.2813,473.9844 641.4375,473.6875 642.1875,473.1406 C642.7656,472.7344 643.0938,472.2813 643.0938,471.8906 C643.0938,471.4375 642.7031,471.0469 642.2344,471.0469 C642.0156,471.0469 641.8125,471.125 641.625,471.3125 C641.1719,471.7969 641.1719,471.7969 640.9844,471.8906 C640.5625,472.1563 639.875,472.2813 639.1094,472.2813 C637.0625,472.2813 635.7656,471.1875 635.7656,469.4844 L635.7656,468.3906 C635.7656,466.6094 637.0156,465.2969 638.75,465.2969 C639.3281,465.2969 639.9375,465.4531 640.4063,465.7031 C640.8906,465.9844 641.0625,466.2031 641.1563,466.6094 C641.2188,467.0156 641.25,467.1406 641.3906,467.2656 C641.5313,467.4063 641.7656,467.5156 641.9844,467.5156 C642.25,467.5156 642.5156,467.375 642.6875,467.1563 C642.7969,467 642.8281,466.8125 642.8281,466.3906 L642.8281,464.9688 C642.8281,464.5313 642.8125,464.4063 642.7188,464.25 C642.5625,463.9844 642.2813,463.8438 641.9844,463.8438 C641.6875,463.8438 641.4844,463.9375 641.2656,464.25 L641.0938,464.1719 Z " fill="#000000"/><text fill="#000000" font-family="sans-serif" font-size="14" lengthAdjust="spacing" textLength="181" x="654.25" y="473.3467">UnderActuatedController</text><line style="stroke:#181818;stroke-width:0.5;" x1="618" x2="844" y1="484.5" y2="484.5"/><line style="stroke:#181818;stroke-width:0.5;" x1="618" x2="844" y1="492.5" y2="492.5"/><ellipse cx="628" cy="506.1484" fill="#84BE84" rx="3" ry="3" style="stroke:#038048;stroke-width:1.0;"/><text fill="#000000" font-family="sans-serif" font-size="14" lengthAdjust="spacing" textLength="191" x="637" y="509.4951">UnderActuatedController()</text><ellipse cx="628" cy="522.4453" fill="#84BE84" rx="3" ry="3" style="stroke:#038048;stroke-width:1.0;"/><text fill="#000000" font-family="sans-serif" font-size="14" lengthAdjust="spacing" textLength="202" x="637" y="525.792">~UnderActuatedController()</text><ellipse cx="628" cy="538.7422" fill="#84BE84" rx="3" ry="3" style="stroke:#038048;stroke-width:1.0;"/><text fill="#000000" font-family="sans-serif" font-size="14" lengthAdjust="spacing" textLength="71" x="637" y="542.0889">initialize()</text><ellipse cx="628" cy="555.0391" fill="#84BE84" rx="3" ry="3" style="stroke:#038048;stroke-width:1.0;"/><text fill="#000000" font-family="sans-serif" font-size="14" lengthAdjust="spacing" textLength="48" x="637" y="558.3857">reset()</text></g><!--class UnderActuatedLQIController--><g id="elem_UnderActuatedLQIController"><rect codeLine="38" fill="#F1F1F1" height="113.1875" id="UnderActuatedLQIController" rx="2.5" ry="2.5" style="stroke:#181818;stroke-width:0.5;" width="251" x="880.5" y="452.5"/><ellipse cx="902.25" cy="468.5" fill="#ADD1B2" rx="11" ry="11" style="stroke:#181818;stroke-width:1.0;"/><path d="M904.5938,464.1719 C903.6563,463.7344 903.0625,463.5938 902.1875,463.5938 C899.5625,463.5938 897.5625,465.6719 897.5625,468.3906 L897.5625,469.5156 C897.5625,472.0938 899.6719,473.9844 902.5625,473.9844 C903.7813,473.9844 904.9375,473.6875 905.6875,473.1406 C906.2656,472.7344 906.5938,472.2813 906.5938,471.8906 C906.5938,471.4375 906.2031,471.0469 905.7344,471.0469 C905.5156,471.0469 905.3125,471.125 905.125,471.3125 C904.6719,471.7969 904.6719,471.7969 904.4844,471.8906 C904.0625,472.1563 903.375,472.2813 902.6094,472.2813 C900.5625,472.2813 899.2656,471.1875 899.2656,469.4844 L899.2656,468.3906 C899.2656,466.6094 900.5156,465.2969 902.25,465.2969 C902.8281,465.2969 903.4375,465.4531 903.9063,465.7031 C904.3906,465.9844 904.5625,466.2031 904.6563,466.6094 C904.7188,467.0156 904.75,467.1406 904.8906,467.2656 C905.0313,467.4063 905.2656,467.5156 905.4844,467.5156 C905.75,467.5156 906.0156,467.375 906.1875,467.1563 C906.2969,467 906.3281,466.8125 906.3281,466.3906 L906.3281,464.9688 C906.3281,464.5313 906.3125,464.4063 906.2188,464.25 C906.0625,463.9844 905.7813,463.8438 905.4844,463.8438 C905.1875,463.8438 904.9844,463.9375 904.7656,464.25 L904.5938,464.1719 Z " fill="#000000"/><text fill="#000000" font-family="sans-serif" font-size="14" lengthAdjust="spacing" textLength="204" x="917.75" y="473.3467">UnderActuatedLQIController</text><line style="stroke:#181818;stroke-width:0.5;" x1="881.5" x2="1130.5" y1="484.5" y2="484.5"/><line style="stroke:#181818;stroke-width:0.5;" x1="881.5" x2="1130.5" y1="492.5" y2="492.5"/><ellipse cx="891.5" cy="506.1484" fill="#84BE84" rx="3" ry="3" style="stroke:#038048;stroke-width:1.0;"/><text fill="#000000" font-family="sans-serif" font-size="14" lengthAdjust="spacing" textLength="214" x="900.5" y="509.4951">UnderActuatedLQIController()</text><ellipse cx="891.5" cy="522.4453" fill="#84BE84" rx="3" ry="3" style="stroke:#038048;stroke-width:1.0;"/><text fill="#000000" font-family="sans-serif" font-size="14" lengthAdjust="spacing" textLength="225" x="900.5" y="525.792">~UnderActuatedLQIController()</text><ellipse cx="891.5" cy="538.7422" fill="#84BE84" rx="3" ry="3" style="stroke:#038048;stroke-width:1.0;"/><text fill="#000000" font-family="sans-serif" font-size="14" lengthAdjust="spacing" textLength="71" x="900.5" y="542.0889">initialize()</text><ellipse cx="891.5" cy="555.0391" fill="#84BE84" rx="3" ry="3" style="stroke:#038048;stroke-width:1.0;"/><text fill="#000000" font-family="sans-serif" font-size="14" lengthAdjust="spacing" textLength="69" x="900.5" y="558.3857">activate()</text></g><!--class UnderActuatedTiltedLQIController--><g id="elem_UnderActuatedTiltedLQIController"><rect codeLine="45" fill="#F1F1F1" height="113.1875" id="UnderActuatedTiltedLQIController" rx="2.5" ry="2.5" style="stroke:#181818;stroke-width:0.5;" width="293" x="982.5" y="642"/><ellipse cx="1004.25" cy="658" fill="#ADD1B2" rx="11" ry="11" style="stroke:#181818;stroke-width:1.0;"/><path d="M1006.5938,653.6719 C1005.6563,653.2344 1005.0625,653.0938 1004.1875,653.0938 C1001.5625,653.0938 999.5625,655.1719 999.5625,657.8906 L999.5625,659.0156 C999.5625,661.5938 1001.6719,663.4844 1004.5625,663.4844 C1005.7813,663.4844 1006.9375,663.1875 1007.6875,662.6406 C1008.2656,662.2344 1008.5938,661.7813 1008.5938,661.3906 C1008.5938,660.9375 1008.2031,660.5469 1007.7344,660.5469 C1007.5156,660.5469 1007.3125,660.625 1007.125,660.8125 C1006.6719,661.2969 1006.6719,661.2969 1006.4844,661.3906 C1006.0625,661.6563 1005.375,661.7813 1004.6094,661.7813 C1002.5625,661.7813 1001.2656,660.6875 1001.2656,658.9844 L1001.2656,657.8906 C1001.2656,656.1094 1002.5156,654.7969 1004.25,654.7969 C1004.8281,654.7969 1005.4375,654.9531 1005.9063,655.2031 C1006.3906,655.4844 1006.5625,655.7031 1006.6563,656.1094 C1006.7188,656.5156 1006.75,656.6406 1006.8906,656.7656 C1007.0313,656.9063 1007.2656,657.0156 1007.4844,657.0156 C1007.75,657.0156 1008.0156,656.875 1008.1875,656.6563 C1008.2969,656.5 1008.3281,656.3125 1008.3281,655.8906 L1008.3281,654.4688 C1008.3281,654.0313 1008.3125,653.9063 1008.2188,653.75 C1008.0625,653.4844 1007.7813,653.3438 1007.4844,653.3438 C1007.1875,653.3438 1006.9844,653.4375 1006.7656,653.75 L1006.5938,653.6719 Z " fill="#000000"/><text fill="#000000" font-family="sans-serif" font-size="14" lengthAdjust="spacing" textLength="246" x="1019.75" y="662.8467">UnderActuatedTiltedLQIController</text><line style="stroke:#181818;stroke-width:0.5;" x1="983.5" x2="1274.5" y1="674" y2="674"/><line style="stroke:#181818;stroke-width:0.5;" x1="983.5" x2="1274.5" y1="682" y2="682"/><ellipse cx="993.5" cy="695.6484" fill="#84BE84" rx="3" ry="3" style="stroke:#038048;stroke-width:1.0;"/><text fill="#000000" font-family="sans-serif" font-size="14" lengthAdjust="spacing" textLength="256" x="1002.5" y="698.9951">UnderActuatedTiltedLQIController()</text><ellipse cx="993.5" cy="711.9453" fill="#84BE84" rx="3" ry="3" style="stroke:#038048;stroke-width:1.0;"/><text fill="#000000" font-family="sans-serif" font-size="14" lengthAdjust="spacing" textLength="267" x="1002.5" y="715.292">~UnderActuatedTiltedLQIController()</text><ellipse cx="993.5" cy="728.2422" fill="#84BE84" rx="3" ry="3" style="stroke:#038048;stroke-width:1.0;"/><text fill="#000000" font-family="sans-serif" font-size="14" lengthAdjust="spacing" textLength="71" x="1002.5" y="731.5889">initialize()</text><ellipse cx="993.5" cy="744.5391" fill="#84BE84" rx="3" ry="3" style="stroke:#038048;stroke-width:1.0;"/><text fill="#000000" font-family="sans-serif" font-size="14" lengthAdjust="spacing" textLength="69" x="1002.5" y="747.8857">activate()</text></g><!--class HydrusLQIController--><g id="elem_HydrusLQIController"><rect codeLine="52" fill="#F1F1F1" height="96.8906" id="HydrusLQIController" rx="2.5" ry="2.5" style="stroke:#181818;stroke-width:0.5;" width="180" x="767" y="650"/><ellipse cx="783.8" cy="666" fill="#ADD1B2" rx="11" ry="11" style="stroke:#181818;stroke-width:1.0;"/><path d="M786.1438,661.6719 C785.2063,661.2344 784.6125,661.0938 783.7375,661.0938 C781.1125,661.0938 779.1125,663.1719 779.1125,665.8906 L779.1125,667.0156 C779.1125,669.5938 781.2219,671.4844 784.1125,671.4844 C785.3313,671.4844 786.4875,671.1875 787.2375,670.6406 C787.8156,670.2344 788.1438,669.7813 788.1438,669.3906 C788.1438,668.9375 787.7531,668.5469 787.2844,668.5469 C787.0656,668.5469 786.8625,668.625 786.675,668.8125 C786.2219,669.2969 786.2219,669.2969 786.0344,669.3906 C785.6125,669.6563 784.925,669.7813 784.1594,669.7813 C782.1125,669.7813 780.8156,668.6875 780.8156,666.9844 L780.8156,665.8906 C780.8156,664.1094 782.0656,662.7969 783.8,662.7969 C784.3781,662.7969 784.9875,662.9531 785.4563,663.2031 C785.9406,663.4844 786.1125,663.7031 786.2063,664.1094 C786.2688,664.5156 786.3,664.6406 786.4406,664.7656 C786.5813,664.9063 786.8156,665.0156 787.0344,665.0156 C787.3,665.0156 787.5656,664.875 787.7375,664.6563 C787.8469,664.5 787.8781,664.3125 787.8781,663.8906 L787.8781,662.4688 C787.8781,662.0313 787.8625,661.9063 787.7688,661.75 C787.6125,661.4844 787.3313,661.3438 787.0344,661.3438 C786.7375,661.3438 786.5344,661.4375 786.3156,661.75 L786.1438,661.6719 Z " fill="#000000"/><text fill="#000000" font-family="sans-serif" font-size="14" lengthAdjust="spacing" textLength="144" x="798.2" y="670.8467">HydrusLQIController</text><line style="stroke:#181818;stroke-width:0.5;" x1="768" x2="946" y1="682" y2="682"/><line style="stroke:#181818;stroke-width:0.5;" x1="768" x2="946" y1="690" y2="690"/><ellipse cx="778" cy="703.6484" fill="#84BE84" rx="3" ry="3" style="stroke:#038048;stroke-width:1.0;"/><text fill="#000000" font-family="sans-serif" font-size="14" lengthAdjust="spacing" textLength="154" x="787" y="706.9951">HydrusLQIController()</text><ellipse cx="778" cy="719.9453" fill="#84BE84" rx="3" ry="3" style="stroke:#038048;stroke-width:1.0;"/><text fill="#000000" font-family="sans-serif" font-size="14" lengthAdjust="spacing" textLength="71" x="787" y="723.292">initialize()</text><ellipse cx="778" cy="736.2422" fill="#84BE84" rx="3" ry="3" style="stroke:#038048;stroke-width:1.0;"/><text fill="#000000" font-family="sans-serif" font-size="14" lengthAdjust="spacing" textLength="141" x="787" y="739.5889">checkRobotModel()</text></g><!--class HydrusTiltedLQIController--><g id="elem_HydrusTiltedLQIController"><rect codeLine="58" fill="#F1F1F1" height="96.8906" id="HydrusTiltedLQIController" rx="2.5" ry="2.5" style="stroke:#181818;stroke-width:0.5;" width="222" x="1054" y="831"/><ellipse cx="1070.8" cy="847" fill="#ADD1B2" rx="11" ry="11" style="stroke:#181818;stroke-width:1.0;"/><path d="M1073.1438,842.6719 C1072.2063,842.2344 1071.6125,842.0938 1070.7375,842.0938 C1068.1125,842.0938 1066.1125,844.1719 1066.1125,846.8906 L1066.1125,848.0156 C1066.1125,850.5938 1068.2219,852.4844 1071.1125,852.4844 C1072.3313,852.4844 1073.4875,852.1875 1074.2375,851.6406 C1074.8156,851.2344 1075.1438,850.7813 1075.1438,850.3906 C1075.1438,849.9375 1074.7531,849.5469 1074.2844,849.5469 C1074.0656,849.5469 1073.8625,849.625 1073.675,849.8125 C1073.2219,850.2969 1073.2219,850.2969 1073.0344,850.3906 C1072.6125,850.6563 1071.925,850.7813 1071.1594,850.7813 C1069.1125,850.7813 1067.8156,849.6875 1067.8156,847.9844 L1067.8156,846.8906 C1067.8156,845.1094 1069.0656,843.7969 1070.8,843.7969 C1071.3781,843.7969 1071.9875,843.9531 1072.4563,844.2031 C1072.9406,844.4844 1073.1125,844.7031 1073.2063,845.1094 C1073.2688,845.5156 1073.3,845.6406 1073.4406,845.7656 C1073.5813,845.9063 1073.8156,846.0156 1074.0344,846.0156 C1074.3,846.0156 1074.5656,845.875 1074.7375,845.6563 C1074.8469,845.5 1074.8781,845.3125 1074.8781,844.8906 L1074.8781,843.4688 C1074.8781,843.0313 1074.8625,842.9063 1074.7688,842.75 C1074.6125,842.4844 1074.3313,842.3438 1074.0344,842.3438 C1073.7375,842.3438 1073.5344,842.4375 1073.3156,842.75 L1073.1438,842.6719 Z " fill="#000000"/><text fill="#000000" font-family="sans-serif" font-size="14" lengthAdjust="spacing" textLength="186" x="1085.2" y="851.8467">HydrusTiltedLQIController</text><line style="stroke:#181818;stroke-width:0.5;" x1="1055" x2="1275" y1="863" y2="863"/><line style="stroke:#181818;stroke-width:0.5;" x1="1055" x2="1275" y1="871" y2="871"/><ellipse cx="1065" cy="884.6484" fill="#84BE84" rx="3" ry="3" style="stroke:#038048;stroke-width:1.0;"/><text fill="#000000" font-family="sans-serif" font-size="14" lengthAdjust="spacing" textLength="196" x="1074" y="887.9951">HydrusTiltedLQIController()</text><ellipse cx="1065" cy="900.9453" fill="#84BE84" rx="3" ry="3" style="stroke:#038048;stroke-width:1.0;"/><text fill="#000000" font-family="sans-serif" font-size="14" lengthAdjust="spacing" textLength="71" x="1074" y="904.292">initialize()</text><ellipse cx="1065" cy="917.2422" fill="#84BE84" rx="3" ry="3" style="stroke:#038048;stroke-width:1.0;"/><text fill="#000000" font-family="sans-serif" font-size="14" lengthAdjust="spacing" textLength="141" x="1074" y="920.5889">checkRobotModel()</text></g><!--class DragonLQIGimbalController--><g id="elem_DragonLQIGimbalController"><rect codeLine="64" fill="#F1F1F1" height="129.4844" id="DragonLQIGimbalController" rx="2.5" ry="2.5" style="stroke:#181818;stroke-width:0.5;" width="246" x="598" y="815"/><ellipse cx="619.75" cy="831" fill="#ADD1B2" rx="11" ry="11" style="stroke:#181818;stroke-width:1.0;"/><path d="M622.0938,826.6719 C621.1563,826.2344 620.5625,826.0938 619.6875,826.0938 C617.0625,826.0938 615.0625,828.1719 615.0625,830.8906 L615.0625,832.0156 C615.0625,834.5938 617.1719,836.4844 620.0625,836.4844 C621.2813,836.4844 622.4375,836.1875 623.1875,835.6406 C623.7656,835.2344 624.0938,834.7813 624.0938,834.3906 C624.0938,833.9375 623.7031,833.5469 623.2344,833.5469 C623.0156,833.5469 622.8125,833.625 622.625,833.8125 C622.1719,834.2969 622.1719,834.2969 621.9844,834.3906 C621.5625,834.6563 620.875,834.7813 620.1094,834.7813 C618.0625,834.7813 616.7656,833.6875 616.7656,831.9844 L616.7656,830.8906 C616.7656,829.1094 618.0156,827.7969 619.75,827.7969 C620.3281,827.7969 620.9375,827.9531 621.4063,828.2031 C621.8906,828.4844 622.0625,828.7031 622.1563,829.1094 C622.2188,829.5156 622.25,829.6406 622.3906,829.7656 C622.5313,829.9063 622.7656,830.0156 622.9844,830.0156 C623.25,830.0156 623.5156,829.875 623.6875,829.6563 C623.7969,829.5 623.8281,829.3125 623.8281,828.8906 L623.8281,827.4688 C623.8281,827.0313 623.8125,826.9063 623.7188,826.75 C623.5625,826.4844 623.2813,826.3438 622.9844,826.3438 C622.6875,826.3438 622.4844,826.4375 622.2656,826.75 L622.0938,826.6719 Z " fill="#000000"/><text fill="#000000" font-family="sans-serif" font-size="14" lengthAdjust="spacing" textLength="199" x="635.25" y="835.8467">DragonLQIGimbalController</text><line style="stroke:#181818;stroke-width:0.5;" x1="599" x2="843" y1="847" y2="847"/><line style="stroke:#181818;stroke-width:0.5;" x1="599" x2="843" y1="855" y2="855"/><ellipse cx="609" cy="868.6484" fill="#84BE84" rx="3" ry="3" style="stroke:#038048;stroke-width:1.0;"/><text fill="#000000" font-family="sans-serif" font-size="14" lengthAdjust="spacing" textLength="209" x="618" y="871.9951">DragonLQIGimbalController()</text><ellipse cx="609" cy="884.9453" fill="#84BE84" rx="3" ry="3" style="stroke:#038048;stroke-width:1.0;"/><text fill="#000000" font-family="sans-serif" font-size="14" lengthAdjust="spacing" textLength="220" x="618" y="888.292">~DragonLQIGimbalController()</text><ellipse cx="609" cy="901.2422" fill="#84BE84" rx="3" ry="3" style="stroke:#038048;stroke-width:1.0;"/><text fill="#000000" font-family="sans-serif" font-size="14" lengthAdjust="spacing" textLength="71" x="618" y="904.5889">initialize()</text><ellipse cx="609" cy="917.5391" fill="#84BE84" rx="3" ry="3" style="stroke:#038048;stroke-width:1.0;"/><text fill="#000000" font-family="sans-serif" font-size="14" lengthAdjust="spacing" textLength="61" x="618" y="920.8857">update()</text><ellipse cx="609" cy="933.8359" fill="#84BE84" rx="3" ry="3" style="stroke:#038048;stroke-width:1.0;"/><text fill="#000000" font-family="sans-serif" font-size="14" lengthAdjust="spacing" textLength="48" x="618" y="937.1826">reset()</text></g><!--class DragonFullVectoringController--><g id="elem_DragonFullVectoringController"><rect codeLine="72" fill="#F1F1F1" height="96.8906" id="DragonFullVectoringController" rx="2.5" ry="2.5" style="stroke:#181818;stroke-width:0.5;" width="267" x="314.5" y="460.5"/><ellipse cx="336.25" cy="476.5" fill="#ADD1B2" rx="11" ry="11" style="stroke:#181818;stroke-width:1.0;"/><path d="M338.5938,472.1719 C337.6563,471.7344 337.0625,471.5938 336.1875,471.5938 C333.5625,471.5938 331.5625,473.6719 331.5625,476.3906 L331.5625,477.5156 C331.5625,480.0938 333.6719,481.9844 336.5625,481.9844 C337.7813,481.9844 338.9375,481.6875 339.6875,481.1406 C340.2656,480.7344 340.5938,480.2813 340.5938,479.8906 C340.5938,479.4375 340.2031,479.0469 339.7344,479.0469 C339.5156,479.0469 339.3125,479.125 339.125,479.3125 C338.6719,479.7969 338.6719,479.7969 338.4844,479.8906 C338.0625,480.1563 337.375,480.2813 336.6094,480.2813 C334.5625,480.2813 333.2656,479.1875 333.2656,477.4844 L333.2656,476.3906 C333.2656,474.6094 334.5156,473.2969 336.25,473.2969 C336.8281,473.2969 337.4375,473.4531 337.9063,473.7031 C338.3906,473.9844 338.5625,474.2031 338.6563,474.6094 C338.7188,475.0156 338.75,475.1406 338.8906,475.2656 C339.0313,475.4063 339.2656,475.5156 339.4844,475.5156 C339.75,475.5156 340.0156,475.375 340.1875,475.1563 C340.2969,475 340.3281,474.8125 340.3281,474.3906 L340.3281,472.9688 C340.3281,472.5313 340.3125,472.4063 340.2188,472.25 C340.0625,471.9844 339.7813,471.8438 339.4844,471.8438 C339.1875,471.8438 338.9844,471.9375 338.7656,472.25 L338.5938,472.1719 Z " fill="#000000"/><text fill="#000000" font-family="sans-serif" font-size="14" lengthAdjust="spacing" textLength="220" x="351.75" y="481.3467">DragonFullVectoringController</text><line style="stroke:#181818;stroke-width:0.5;" x1="315.5" x2="580.5" y1="492.5" y2="492.5"/><line style="stroke:#181818;stroke-width:0.5;" x1="315.5" x2="580.5" y1="500.5" y2="500.5"/><ellipse cx="325.5" cy="514.1484" fill="#84BE84" rx="3" ry="3" style="stroke:#038048;stroke-width:1.0;"/><text fill="#000000" font-family="sans-serif" font-size="14" lengthAdjust="spacing" textLength="230" x="334.5" y="517.4951">DragonFullVectoringController()</text><ellipse cx="325.5" cy="530.4453" fill="#84BE84" rx="3" ry="3" style="stroke:#038048;stroke-width:1.0;"/><text fill="#000000" font-family="sans-serif" font-size="14" lengthAdjust="spacing" textLength="241" x="334.5" y="533.792">~DragonFullVectoringController()</text><ellipse cx="325.5" cy="546.7422" fill="#84BE84" rx="3" ry="3" style="stroke:#038048;stroke-width:1.0;"/><text fill="#000000" font-family="sans-serif" font-size="14" lengthAdjust="spacing" textLength="71" x="334.5" y="550.0889">initialize()</text></g><g id="elem_ud_mr"><path d="M289,867 L289,892.1328 L563,892.1328 L563,877 L553,867 L289,867 " fill="#FEFFDD" style="stroke:#181818;stroke-width:0.5;"/><path d="M553,867 L553,877 L563,877 L553,867 " fill="#FEFFDD" style="stroke:#181818;stroke-width:1.0;"/><text fill="#000000" font-family="sans-serif" font-size="13" lengthAdjust="spacing" textLength="253" x="295" y="884.0669">under-actuated multi-rotor (quad-rotor)</text></g><g id="elem_hy"><path d="M575.5,686 L575.5,711.1328 A0,0 0 0 0 575.5,711.1328 L694.5,711.1328 A0,0 0 0 0 694.5,711.1328 L694.5,696 L684.5,686 L644.993,686 L702.457,565.749 L636.993,686 L575.5,686 A0,0 0 0 0 575.5,686 " fill="#FEFFDD" style="stroke:#181818;stroke-width:0.5;"/><path d="M684.5,686 L684.5,696 L694.5,696 L684.5,686 " fill="#FEFFDD" style="stroke:#181818;stroke-width:0.5;"/><text fill="#000000" font-family="sans-serif" font-size="13" lengthAdjust="spacing" textLength="98" x="581.5" y="703.0669">hydrus (option)</text></g><g id="elem_fu_mr"><path d="M22,686 L22,711.1328 A0,0 0 0 0 22,711.1328 L314,711.1328 A0,0 0 0 0 314,711.1328 L314,696 L304,686 L172.123,686 L169.23,582.224 L164.123,686 L22,686 A0,0 0 0 0 22,686 " fill="#FEFFDD" style="stroke:#181818;stroke-width:0.5;"/><path d="M304,686 L304,696 L314,696 L304,686 " fill="#FEFFDD" style="stroke:#181818;stroke-width:0.5;"/><text fill="#000000" font-family="sans-serif" font-size="13" lengthAdjust="spacing" textLength="271" x="28" y="703.0669">fully-actuated multi-rotor (tilted hex-rotor)</text></g><g id="elem_hy_xi"><path d="M349,686 L349,711.1328 A0,0 0 0 0 349,711.1328 L503,711.1328 A0,0 0 0 0 503,711.1328 L503,696 L493,686 L414.242,686 L268.61,582.224 L406.242,686 L349,686 A0,0 0 0 0 349,686 " fill="#FEFFDD" style="stroke:#181818;stroke-width:0.5;"/><path d="M493,686 L493,696 L503,696 L493,686 " fill="#FEFFDD" style="stroke:#181818;stroke-width:0.5;"/><text fill="#000000" font-family="sans-serif" font-size="13" lengthAdjust="spacing" textLength="133" x="355" y="703.0669">hydrus_xi (hex type)</text></g><g id="elem_hy_nt"><path d="M879.5,867 L879.5,892.1328 A0,0 0 0 0 879.5,892.1328 L1018.5,892.1328 A0,0 0 0 0 1018.5,892.1328 L1018.5,877 L1008.5,867 L947.074,867 L881.654,747.469 L939.074,867 L879.5,867 A0,0 0 0 0 879.5,867 " fill="#FEFFDD" style="stroke:#181818;stroke-width:0.5;"/><path d="M1008.5,867 L1008.5,877 L1018.5,877 L1008.5,867 " fill="#FEFFDD" style="stroke:#181818;stroke-width:0.5;"/><text fill="#000000" font-family="sans-serif" font-size="13" lengthAdjust="spacing" textLength="118" x="885.5" y="884.0669">hydrus (non tilted)</text></g><g id="elem_dragon"><path d="M454,1004 L454,1029.1328 L520,1029.1328 L520,1014 L510,1004 L454,1004 " fill="#FEFFDD" style="stroke:#181818;stroke-width:0.5;"/><path d="M510,1004 L510,1014 L520,1014 L510,1004 " fill="#FEFFDD" style="stroke:#181818;stroke-width:1.0;"/><text fill="#000000" font-family="sans-serif" font-size="13" lengthAdjust="spacing" textLength="45" x="460" y="1021.0669">dragon</text></g><g id="elem_hy_all"><path d="M1075.5,1004 L1075.5,1029.1328 A0,0 0 0 0 1075.5,1029.1328 L1254.5,1029.1328 A0,0 0 0 0 1254.5,1029.1328 L1254.5,1014 L1244.5,1004 L1169,1004 L1165,928.096 L1161,1004 L1075.5,1004 A0,0 0 0 0 1075.5,1004 " fill="#FEFFDD" style="stroke:#181818;stroke-width:0.5;"/><path d="M1244.5,1004 L1244.5,1014 L1254.5,1014 L1244.5,1004 " fill="#FEFFDD" style="stroke:#181818;stroke-width:0.5;"/><text fill="#000000" font-family="sans-serif" font-size="13" lengthAdjust="spacing" textLength="158" x="1081.5" y="1021.0669">hydrus (non tilted/ tilted)</text></g><!--reverse link ControlBase to PoseLinearController--><g id="link_ControlBase_PoseLinearController"><path d="M589,205.242 C589,224.82 589,227.867 589,246.93 " fill="none" id="ControlBase-backto-PoseLinearController" style="stroke:#181818;stroke-width:1.0;"/><polygon fill="none" points="589,187.242,583,205.242,595,205.242,589,187.242" style="stroke:#181818;stroke-width:1.0;"/></g><!--reverse link PoseLinearController to FullyActuatedController--><g id="link_PoseLinearController_FullyActuatedController"><path d="M473.0346,357.9002 C415.9346,380.9592 359.948,404.974 297,436 C291.089,438.913 285.069,441.978 279.023,445.132 " fill="none" id="PoseLinearController-backto-FullyActuatedController" style="stroke:#181818;stroke-width:1.0;"/><polygon fill="none" points="489.725,351.16,470.7879,352.3367,475.2813,363.4637,489.725,351.16" style="stroke:#181818;stroke-width:1.0;"/></g><!--reverse link PoseLinearController to UnderActuatedController--><g id="link_PoseLinearController_UnderActuatedController"><path d="M645.878,390.8068 C663.683,415.3208 673.278,428.531 690.497,452.237 " fill="none" id="PoseLinearController-backto-UnderActuatedController" style="stroke:#181818;stroke-width:1.0;"/><polygon fill="none" points="635.3,376.243,641.0234,394.3329,650.7326,387.2808,635.3,376.243" style="stroke:#181818;stroke-width:1.0;"/></g><!--reverse link PoseLinearController to UnderActuatedLQIController--><g id="link_PoseLinearController_UnderActuatedLQIController"><path d="M704.7446,363.6518 C756.7086,386.8578 804.813,408.781 862,436 C872.978,441.225 884.384,446.754 895.754,452.332 " fill="none" id="PoseLinearController-backto-UnderActuatedLQIController" style="stroke:#181818;stroke-width:1.0;"/><polygon fill="none" points="688.309,356.312,702.298,369.1303,707.1912,358.1732,688.309,356.312" style="stroke:#181818;stroke-width:1.0;"/></g><!--reverse link UnderActuatedLQIController to UnderActuatedTiltedLQIController--><g id="link_UnderActuatedLQIController_UnderActuatedTiltedLQIController"><path d="M1052.4426,580.7999 C1068.2326,604.8719 1076.79,617.918 1092.57,641.966 " fill="none" id="UnderActuatedLQIController-backto-UnderActuatedTiltedLQIController" style="stroke:#181818;stroke-width:1.0;"/><polygon fill="none" points="1042.57,565.749,1047.4257,584.0908,1057.4596,577.5091,1042.57,565.749" style="stroke:#181818;stroke-width:1.0;"/></g><!--reverse link UnderActuatedLQIController to HydrusLQIController--><g id="link_UnderActuatedLQIController_HydrusLQIController"><path d="M950.5001,579.841 C929.2251,606.612 915.195,624.268 894.834,649.89 " fill="none" id="UnderActuatedLQIController-backto-HydrusLQIController" style="stroke:#181818;stroke-width:1.0;"/><polygon fill="none" points="961.699,565.749,945.8027,576.108,955.1974,583.574,961.699,565.749" style="stroke:#181818;stroke-width:1.0;"/></g><!--reverse link UnderActuatedTiltedLQIController to HydrusTiltedLQIController--><g id="link_UnderActuatedTiltedLQIController_HydrusTiltedLQIController"><path d="M1143.7383,772.8028 C1148.6083,797.0228 1150.72,807.474 1155.39,830.73 " fill="none" id="UnderActuatedTiltedLQIController-backto-HydrusTiltedLQIController" style="stroke:#181818;stroke-width:1.0;"/><polygon fill="none" points="1140.19,755.156,1137.856,773.9856,1149.6206,771.62,1140.19,755.156" style="stroke:#181818;stroke-width:1.0;"/></g><!--reverse link HydrusLQIController to DragonLQIGimbalController--><g id="link_HydrusLQIController_DragonLQIGimbalController"><path d="M809.6644,761.8014 C793.9284,782.5124 786.185,792.705 769.319,814.903 " fill="none" id="HydrusLQIController-backto-DragonLQIGimbalController" style="stroke:#181818;stroke-width:1.0;"/><polygon fill="none" points="820.554,747.469,804.887,758.1715,814.4419,765.4312,820.554,747.469" style="stroke:#181818;stroke-width:1.0;"/></g><!--reverse link PoseLinearController to DragonFullVectoringController--><g id="link_PoseLinearController_DragonFullVectoringController"><path d="M532.4972,390.8424 C512.7282,418.2544 500.548,435.141 482.288,460.459 " fill="none" id="PoseLinearController-backto-DragonFullVectoringController" style="stroke:#181818;stroke-width:1.0;"/><polygon fill="none" points="543.026,376.243,527.6307,387.3328,537.3636,394.3521,543.026,376.243" style="stroke:#181818;stroke-width:1.0;"/></g><!--link UnderActuatedController to ud_mr--><g id="link_UnderActuatedController_ud_mr"><path codeLine="87" d="M741.935,565.6 C749.223,619.171 751.305,699.977 712,755 C707.948,760.673 524.784,837.368 453.746,866.963 " fill="none" id="UnderActuatedController-ud_mr" style="stroke:#181818;stroke-width:1.0;stroke-dasharray:7.0,7.0;"/></g><!--link HydrusLQIController to ud_mr--><g id="link_HydrusLQIController_ud_mr"><path codeLine="92" d="M766.96,743.14 C757.898,747.252 748.797,751.272 740,755 C670.074,784.634 650.671,787.187 580,815 C535.328,832.581 483.837,854.061 453.154,866.992 " fill="none" id="HydrusLQIController-ud_mr" style="stroke:#181818;stroke-width:1.0;stroke-dasharray:7.0,7.0;"/></g><!--link DragonLQIGimbalController to dragon--><g id="link_DragonLQIGimbalController_dragon"><path codeLine="94" d="M610.852,944.047 C571.26,966.8887 530.617,990.3361 507.144,1003.8786 " fill="none" id="DragonLQIGimbalController-dragon" style="stroke:#181818;stroke-width:1.0;stroke-dasharray:7.0,7.0;"/></g><!--link DragonFullVectoringController to dragon--><g id="link_DragonFullVectoringController_dragon"><path codeLine="95" d="M484.995,557.635 C521.48,610.817 565.674,697.013 520,755 C449.563,844.425 341.437,725.575 271,815 C235.524,860.04 237.428,897.524 271,944 C313.097,1002.278 404.511,1013.8304 453.842,1015.6395 " fill="none" id="DragonFullVectoringController-dragon" style="stroke:#181818;stroke-width:1.0;stroke-dasharray:7.0,7.0;"/></g><!--SRC=[jPRBRjim44Nt_ef1Dd5GsDvhrpf8Mo15-aYxDMXoR1EbI8MFm6xHVdifKOwKWAGinDLA8Y_lp1dnTRcpjZB5Ob498gqhnPogSa45CMR6EDbgKauc1Yr8KgAf2CLlM15DhD9G59C9MHkh2RNG3062cXEnqcgjx8egQRKIHR4CB- -8GVWz0V-yWLxRzAfj-njhv99Rxyb_TKskOiHsdpuyV-mtQFGP-wy_9-RtMHcyvHA9RXCGg07t5YKRWnIpwTYolSEGFQOSoeqJul2MMkV7ifDfeWKuOYKiEx8XGGJkI1E-sZoMIdSAuzDTbcoO-BjagCzBdB3iY8S46U8nDBTVFlu7e6Uk2QQu9eBLMtjZoEwv6CcNAKoKCX8XmPfJlehumu5fPyuC6J7DPKjtI7z-hQDyKWp5gKc_yl_4XZy765dqqHZNccoLzFxlURacucICs3yxPfxqx2RMiEHiEtq8LU-zFv3wuvZBxNasYwpnIzGXsJDSJ_HqZOXcrkOWbKMuSFMCcf5sIa7fXEKphUgRn_J14HRUhow0671iLUhUs5tp6s6gAikL39hTeIVOr6TMmjmsSnDskE-7sBXOYDMUmzGhmHugFCRnZP5Sf98Gh9zqqlPqh2beqnLUinwBbrv425_Wr6audxSroWXyWLBN1zyR-3E2m1rRGA7JmoOwGsRfdIUChm7Jozfhsghb5qQdyy_b_TtrNG5R_kZd8pZ97nnsDrsm2fhf2QP2oZUS7cygtiZy0m00]--></g></svg>