<?xml version="1.0" encoding="us-ascii" standalone="no"?><svg xmlns="http://www.w3.org/2000/svg" xmlns:xlink="http://www.w3.org/1999/xlink" contentStyleType="text/css" height="901px" preserveAspectRatio="none" style="width:1832px;height:901px;background:#FFFFFF;" version="1.1" viewBox="0 0 1832 901" width="1832px" zoomAndPan="magnify"><defs/><g><!--cluster jsk_aerial_robot--><g id="cluster_jsk_aerial_robot"><path d="M8.5,84.066 L137.5,84.066 A3.75,3.75 0 0 1 140,86.566 L147,106.3629 L1822.5,106.3629 A2.5,2.5 0 0 1 1825,108.8629 L1825,891.566 A2.5,2.5 0 0 1 1822.5,894.066 L8.5,894.066 A2.5,2.5 0 0 1 6,891.566 L6,86.566 A2.5,2.5 0 0 1 8.5,84.066 " fill="none" style="stroke:#000000;stroke-width:1.5;"/><line style="stroke:#000000;stroke-width:1.5;" x1="6" x2="147" y1="106.3629" y2="106.3629"/><text fill="#000000" font-family="sans-serif" font-size="14" font-weight="bold" lengthAdjust="spacing" textLength="128" x="10" y="99.0611">jsk_aerial_robot</text></g><!--cluster robots--><g id="cluster_robots"><path d="M1008.5,135.066 L1063.5,135.066 A3.75,3.75 0 0 1 1066,137.566 L1073,157.3629 L1790.5,157.3629 A2.5,2.5 0 0 1 1793,159.8629 L1793,535.066 A2.5,2.5 0 0 1 1790.5,537.566 L1008.5,537.566 A2.5,2.5 0 0 1 1006,535.066 L1006,137.566 A2.5,2.5 0 0 1 1008.5,135.066 " fill="none" style="stroke:#000000;stroke-width:1.5;"/><line style="stroke:#000000;stroke-width:1.5;" x1="1006" x2="1073" y1="157.3629" y2="157.3629"/><text fill="#000000" font-family="sans-serif" font-size="14" font-weight="bold" lengthAdjust="spacing" textLength="54" x="1010" y="150.0611">robots</text></g><!--cluster aerial_robot_nerve--><g id="cluster_aerial_robot_nerve"><path d="M531.5,155.566 L681.5,155.566 A3.75,3.75 0 0 1 684,158.066 L691,177.8629 L971.5,177.8629 A2.5,2.5 0 0 1 974,180.3629 L974,539.566 A2.5,2.5 0 0 1 971.5,542.066 L531.5,542.066 A2.5,2.5 0 0 1 529,539.566 L529,158.066 A2.5,2.5 0 0 1 531.5,155.566 " fill="none" style="stroke:#000000;stroke-width:1.5;"/><line style="stroke:#000000;stroke-width:1.5;" x1="529" x2="691" y1="177.8629" y2="177.8629"/><text fill="#000000" font-family="sans-serif" font-size="14" font-weight="bold" lengthAdjust="spacing" textLength="149" x="533" y="170.5611">aerial_robot_nerve</text></g><!--entity aerial_robot_base--><g id="elem_aerial_robot_base"><rect fill="#ADD8E6" height="46.2969" rx="2.5" ry="2.5" style="stroke:#181818;stroke-width:0.5;" width="168" x="22" y="190.566"/><rect fill="#ADD8E6" height="10" style="stroke:#181818;stroke-width:0.5;" width="15" x="170" y="195.566"/><rect fill="#ADD8E6" height="2" style="stroke:#181818;stroke-width:0.5;" width="4" x="168" y="197.566"/><rect fill="#ADD8E6" height="2" style="stroke:#181818;stroke-width:0.5;" width="4" x="168" y="201.566"/><text fill="#000000" font-family="sans-serif" font-size="14" lengthAdjust="spacing" textLength="128" x="37" y="223.5611">aerial_robot_base</text></g><g id="elem_GMN4"><path d="M225.5,193.566 L225.5,209.566 L190.178,213.566 L225.5,217.566 L225.5,233.8316 A0,0 0 0 0 225.5,233.8316 L510.5,233.8316 A0,0 0 0 0 510.5,233.8316 L510.5,203.566 L500.5,193.566 L225.5,193.566 A0,0 0 0 0 225.5,193.566 " fill="#FEFFDD" style="stroke:#181818;stroke-width:0.5;"/><path d="M500.5,193.566 L500.5,203.566 L510.5,203.566 L500.5,193.566 " fill="#FEFFDD" style="stroke:#181818;stroke-width:0.5;"/><ellipse cx="237" cy="206.1988" fill="#000000" rx="2.5" ry="2.5" style="stroke:#000000;stroke-width:0.0;"/><text fill="#000000" font-family="sans-serif" font-size="13" lengthAdjust="spacing" textLength="103" x="243.5" y="210.6329">standalone core</text><text fill="#000000" font-family="sans-serif" font-size="13" lengthAdjust="spacing" textLength="264" x="231.5" y="225.7657">- execute functions from following blocks</text></g><!--entity aerial_robot_model--><g id="elem_aerial_robot_model"><rect fill="#ADD8E6" height="46.2969" rx="2.5" ry="2.5" style="stroke:#181818;stroke-width:0.5;" width="179" x="30.5" y="329.066"/><rect fill="#ADD8E6" height="10" style="stroke:#181818;stroke-width:0.5;" width="15" x="189.5" y="334.066"/><rect fill="#ADD8E6" height="2" style="stroke:#181818;stroke-width:0.5;" width="4" x="187.5" y="336.066"/><rect fill="#ADD8E6" height="2" style="stroke:#181818;stroke-width:0.5;" width="4" x="187.5" y="340.066"/><text fill="#000000" font-family="sans-serif" font-size="14" lengthAdjust="spacing" textLength="139" x="45.5" y="362.0611">aerial_robot_model</text></g><g id="elem_GMN8"><path d="M244.5,309.066 L244.5,348.066 L209.805,352.066 L244.5,356.066 L244.5,394.7301 A0,0 0 0 0 244.5,394.7301 L479.5,394.7301 A0,0 0 0 0 479.5,394.7301 L479.5,319.066 L469.5,309.066 L244.5,309.066 A0,0 0 0 0 244.5,309.066 " fill="#FEFFDD" style="stroke:#181818;stroke-width:0.5;"/><path d="M469.5,309.066 L469.5,319.066 L479.5,319.066 L469.5,309.066 " fill="#FEFFDD" style="stroke:#181818;stroke-width:0.5;"/><ellipse cx="256" cy="321.6988" fill="#000000" rx="2.5" ry="2.5" style="stroke:#000000;stroke-width:0.0;"/><text fill="#000000" font-family="sans-serif" font-size="13" lengthAdjust="spacing" textLength="136" x="262.5" y="326.1329">joint based modelling</text><text fill="#000000" font-family="sans-serif" font-size="13" lengthAdjust="spacing" textLength="186" x="250.5" y="341.2657">- kinematics, statics, stability</text><text fill="#000000" font-family="sans-serif" font-size="13" lengthAdjust="spacing" textLength="62" x="250.5" y="356.3985">- jacobian</text><text fill="#000000" font-family="sans-serif" font-size="13" lengthAdjust="spacing" textLength="214" x="250.5" y="371.5313">- derive model class as ros plugin</text><text fill="#000000" font-family="sans-serif" font-size="13" lengthAdjust="spacing" textLength="203" x="250.5" y="386.6641">- servo motor interface (bridge)</text></g><!--entity aerial_robot_estimation--><g id="elem_aerial_robot_estimation"><rect fill="#ADD8E6" height="46.2969" rx="2.5" ry="2.5" style="stroke:#181818;stroke-width:0.5;" width="212" x="22" y="467.566"/><rect fill="#ADD8E6" height="10" style="stroke:#181818;stroke-width:0.5;" width="15" x="214" y="472.566"/><rect fill="#ADD8E6" height="2" style="stroke:#181818;stroke-width:0.5;" width="4" x="212" y="474.566"/><rect fill="#ADD8E6" height="2" style="stroke:#181818;stroke-width:0.5;" width="4" x="212" y="478.566"/><text fill="#000000" font-family="sans-serif" font-size="14" lengthAdjust="spacing" textLength="172" x="37" y="500.5611">aerial_robot_estimation</text></g><g id="elem_GMN12"><path d="M269.5,455.066 L269.5,486.566 L234.381,490.566 L269.5,494.566 L269.5,525.5973 A0,0 0 0 0 269.5,525.5973 L488.5,525.5973 A0,0 0 0 0 488.5,525.5973 L488.5,465.066 L478.5,455.066 L269.5,455.066 A0,0 0 0 0 269.5,455.066 " fill="#FEFFDD" style="stroke:#181818;stroke-width:0.5;"/><path d="M478.5,455.066 L478.5,465.066 L488.5,465.066 L478.5,455.066 " fill="#FEFFDD" style="stroke:#181818;stroke-width:0.5;"/><ellipse cx="281" cy="467.6988" fill="#000000" rx="2.5" ry="2.5" style="stroke:#000000;stroke-width:0.0;"/><text fill="#000000" font-family="sans-serif" font-size="13" lengthAdjust="spacing" textLength="86" x="287.5" y="472.1329">sensor fusion</text><text fill="#000000" font-family="sans-serif" font-size="13" lengthAdjust="spacing" textLength="153" x="275.5" y="487.2657">- cog motion estimation</text><text fill="#000000" font-family="sans-serif" font-size="13" lengthAdjust="spacing" textLength="198" x="275.5" y="502.3985">- sensor interface as ros plugin</text><text fill="#000000" font-family="sans-serif" font-size="13" lengthAdjust="spacing" textLength="174" x="275.5" y="517.5313">- kalman filter as ros plugin</text></g><!--entity aerial_robot_control--><g id="elem_aerial_robot_control"><rect fill="#ADD8E6" height="46.2969" rx="2.5" ry="2.5" style="stroke:#181818;stroke-width:0.5;" width="186" x="35" y="598.566"/><rect fill="#ADD8E6" height="10" style="stroke:#181818;stroke-width:0.5;" width="15" x="201" y="603.566"/><rect fill="#ADD8E6" height="2" style="stroke:#181818;stroke-width:0.5;" width="4" x="199" y="605.566"/><rect fill="#ADD8E6" height="2" style="stroke:#181818;stroke-width:0.5;" width="4" x="199" y="609.566"/><text fill="#000000" font-family="sans-serif" font-size="14" lengthAdjust="spacing" textLength="146" x="50" y="631.5611">aerial_robot_control</text></g><g id="elem_GMN16"><path d="M256,586.066 L256,617.566 L221.136,621.566 L256,625.566 L256,656.5973 A0,0 0 0 0 256,656.5973 L566,656.5973 A0,0 0 0 0 566,656.5973 L566,596.066 L556,586.066 L256,586.066 A0,0 0 0 0 256,586.066 " fill="#FEFFDD" style="stroke:#181818;stroke-width:0.5;"/><path d="M556,586.066 L556,596.066 L566,596.066 L556,586.066 " fill="#FEFFDD" style="stroke:#181818;stroke-width:0.5;"/><ellipse cx="267.5" cy="598.6988" fill="#000000" rx="2.5" ry="2.5" style="stroke:#000000;stroke-width:0.0;"/><text fill="#000000" font-family="sans-serif" font-size="13" lengthAdjust="spacing" textLength="159" x="274" y="603.1329">flight control / navigation</text><text fill="#000000" font-family="sans-serif" font-size="13" lengthAdjust="spacing" textLength="192" x="262" y="618.2657">- control based on cog motion</text><text fill="#000000" font-family="sans-serif" font-size="13" lengthAdjust="spacing" textLength="233" x="262" y="633.3985">- navigation for cog and joint motion</text><text fill="#000000" font-family="sans-serif" font-size="13" lengthAdjust="spacing" textLength="289" x="262" y="648.5313">- derive control/navigation class as ros plugin</text></g><!--entity aerial_robot_msgs--><g id="elem_aerial_robot_msgs"><rect fill="#ADD8E6" height="46.2969" rx="2.5" ry="2.5" style="stroke:#181818;stroke-width:0.5;" width="171" x="42.5" y="717.066"/><rect fill="#ADD8E6" height="10" style="stroke:#181818;stroke-width:0.5;" width="15" x="193.5" y="722.066"/><rect fill="#ADD8E6" height="2" style="stroke:#181818;stroke-width:0.5;" width="4" x="191.5" y="724.066"/><rect fill="#ADD8E6" height="2" style="stroke:#181818;stroke-width:0.5;" width="4" x="191.5" y="728.066"/><text fill="#000000" font-family="sans-serif" font-size="14" lengthAdjust="spacing" textLength="131" x="57.5" y="750.0611">aerial_robot_msgs</text></g><g id="elem_GMN20"><path d="M248.5,720.066 L248.5,736.066 L213.547,740.066 L248.5,744.066 L248.5,760.3316 A0,0 0 0 0 248.5,760.3316 L445.5,760.3316 A0,0 0 0 0 445.5,760.3316 L445.5,730.066 L435.5,720.066 L248.5,720.066 A0,0 0 0 0 248.5,720.066 " fill="#FEFFDD" style="stroke:#181818;stroke-width:0.5;"/><path d="M435.5,720.066 L435.5,730.066 L445.5,730.066 L435.5,720.066 " fill="#FEFFDD" style="stroke:#181818;stroke-width:0.5;"/><ellipse cx="260" cy="732.6988" fill="#000000" rx="2.5" ry="2.5" style="stroke:#000000;stroke-width:0.0;"/><text fill="#000000" font-family="sans-serif" font-size="13" lengthAdjust="spacing" textLength="90" x="266.5" y="737.1329">ros messages</text><text fill="#000000" font-family="sans-serif" font-size="13" lengthAdjust="spacing" textLength="176" x="254.5" y="752.2657">- aerial_robot_msgs/XXXXX</text></g><!--entity aerial_robot_simulation--><g id="elem_aerial_robot_simulation"><rect fill="#FFA500" height="46.2969" rx="2.5" ry="2.5" style="stroke:#181818;stroke-width:0.5;" width="208" x="24" y="827.566"/><rect fill="#FFA500" height="10" style="stroke:#181818;stroke-width:0.5;" width="15" x="212" y="832.566"/><rect fill="#FFA500" height="2" style="stroke:#181818;stroke-width:0.5;" width="4" x="210" y="834.566"/><rect fill="#FFA500" height="2" style="stroke:#181818;stroke-width:0.5;" width="4" x="210" y="838.566"/><text fill="#000000" font-family="sans-serif" font-size="14" lengthAdjust="spacing" textLength="168" x="39" y="860.5611">aerial_robot_simulation</text></g><g id="elem_GMN46"><path d="M267,823.066 L267,846.566 L232.316,850.566 L267,854.566 L267,878.4644 A0,0 0 0 0 267,878.4644 L479,878.4644 A0,0 0 0 0 479,878.4644 L479,833.066 L469,823.066 L267,823.066 A0,0 0 0 0 267,823.066 " fill="#FEFFDD" style="stroke:#181818;stroke-width:0.5;"/><path d="M469,823.066 L469,833.066 L479,833.066 L469,823.066 " fill="#FEFFDD" style="stroke:#181818;stroke-width:0.5;"/><ellipse cx="278.5" cy="835.6988" fill="#000000" rx="2.5" ry="2.5" style="stroke:#000000;stroke-width:0.0;"/><text fill="#000000" font-family="sans-serif" font-size="13" lengthAdjust="spacing" textLength="130" x="285" y="840.1329">interface for gazebo</text><text fill="#000000" font-family="sans-serif" font-size="13" lengthAdjust="spacing" textLength="131" x="273" y="855.2657">- hardware interface</text><text fill="#000000" font-family="sans-serif" font-size="13" lengthAdjust="spacing" textLength="191" x="273" y="870.3985">- controller interface as plugin</text></g><g id="elem_GMN28"><path d="M1447.5,178.066 L1447.5,248.5973 L1768.5,248.5973 L1768.5,188.066 L1758.5,178.066 L1447.5,178.066 " fill="#FEFFDD" style="stroke:#181818;stroke-width:0.5;"/><path d="M1758.5,178.066 L1758.5,188.066 L1768.5,188.066 L1758.5,178.066 " fill="#FEFFDD" style="stroke:#181818;stroke-width:1.0;"/><ellipse cx="1459" cy="190.6988" fill="#000000" rx="2.5" ry="2.5" style="stroke:#000000;stroke-width:0.0;"/><text fill="#000000" font-family="sans-serif" font-size="13" lengthAdjust="spacing" textLength="164" x="1465.5" y="195.1329">derive class as plugin for:</text><text fill="#000000" font-family="sans-serif" font-size="13" lengthAdjust="spacing" textLength="215" x="1453.5" y="210.2657">- model  from aerial_robot_model</text><text fill="#000000" font-family="sans-serif" font-size="13" lengthAdjust="spacing" textLength="223" x="1453.5" y="225.3985">- control  from aerial_robot_control</text><text fill="#000000" font-family="sans-serif" font-size="13" lengthAdjust="spacing" textLength="300" x="1453.5" y="240.5313">- navigation  from aerial_robot_control (option)</text></g><!--entity hydrus--><g id="elem_hydrus"><rect fill="#ADD8E6" height="46.2969" rx="2.5" ry="2.5" style="stroke:#181818;stroke-width:0.5;" width="87" x="1049.5" y="190.566"/><rect fill="#ADD8E6" height="10" style="stroke:#181818;stroke-width:0.5;" width="15" x="1116.5" y="195.566"/><rect fill="#ADD8E6" height="2" style="stroke:#181818;stroke-width:0.5;" width="4" x="1114.5" y="197.566"/><rect fill="#ADD8E6" height="2" style="stroke:#181818;stroke-width:0.5;" width="4" x="1114.5" y="201.566"/><text fill="#000000" font-family="sans-serif" font-size="14" lengthAdjust="spacing" textLength="47" x="1064.5" y="223.5611">hydrus</text></g><g id="elem_GMN32"><path d="M1171.5,193.566 L1171.5,209.566 L1136.53,213.566 L1171.5,217.566 L1171.5,233.8316 A0,0 0 0 0 1171.5,233.8316 L1412.5,233.8316 A0,0 0 0 0 1412.5,233.8316 L1412.5,203.566 L1402.5,193.566 L1171.5,193.566 A0,0 0 0 0 1171.5,193.566 " fill="#FEFFDD" style="stroke:#181818;stroke-width:0.5;"/><path d="M1402.5,193.566 L1402.5,203.566 L1412.5,203.566 L1402.5,193.566 " fill="#FEFFDD" style="stroke:#181818;stroke-width:0.5;"/><text fill="#000000" font-family="sans-serif" font-size="13" lengthAdjust="spacing" textLength="220" x="1177.5" y="210.6329">- two dimensional multilinked type</text><text fill="#000000" font-family="sans-serif" font-size="13" lengthAdjust="spacing" textLength="98" x="1177.5" y="225.7657">- vertical thrust</text></g><!--entity hydrus_xi--><g id="elem_hydrus_xi"><rect fill="#ADD8E6" height="46.2969" rx="2.5" ry="2.5" style="stroke:#181818;stroke-width:0.5;" width="106" x="1049" y="329.066"/><rect fill="#ADD8E6" height="10" style="stroke:#181818;stroke-width:0.5;" width="15" x="1135" y="334.066"/><rect fill="#ADD8E6" height="2" style="stroke:#181818;stroke-width:0.5;" width="4" x="1133" y="336.066"/><rect fill="#ADD8E6" height="2" style="stroke:#181818;stroke-width:0.5;" width="4" x="1133" y="340.066"/><text fill="#000000" font-family="sans-serif" font-size="14" lengthAdjust="spacing" textLength="66" x="1064" y="362.0611">hydrus_xi</text></g><g id="elem_GMN36"><path d="M1190.5,332.066 L1190.5,348.066 L1155.07,352.066 L1190.5,356.066 L1190.5,372.3316 A0,0 0 0 0 1190.5,372.3316 L1431.5,372.3316 A0,0 0 0 0 1431.5,372.3316 L1431.5,342.066 L1421.5,332.066 L1190.5,332.066 A0,0 0 0 0 1190.5,332.066 " fill="#FEFFDD" style="stroke:#181818;stroke-width:0.5;"/><path d="M1421.5,332.066 L1421.5,342.066 L1431.5,342.066 L1421.5,332.066 " fill="#FEFFDD" style="stroke:#181818;stroke-width:0.5;"/><text fill="#000000" font-family="sans-serif" font-size="13" lengthAdjust="spacing" textLength="220" x="1196.5" y="349.1329">- two dimensional multilinked type</text><text fill="#000000" font-family="sans-serif" font-size="13" lengthAdjust="spacing" textLength="141" x="1196.5" y="364.2657">- 1D vectorable thrust</text></g><!--entity dragon--><g id="elem_dragon"><rect fill="#ADD8E6" height="46.2969" rx="2.5" ry="2.5" style="stroke:#181818;stroke-width:0.5;" width="90" x="1057" y="467.566"/><rect fill="#ADD8E6" height="10" style="stroke:#181818;stroke-width:0.5;" width="15" x="1127" y="472.566"/><rect fill="#ADD8E6" height="2" style="stroke:#181818;stroke-width:0.5;" width="4" x="1125" y="474.566"/><rect fill="#ADD8E6" height="2" style="stroke:#181818;stroke-width:0.5;" width="4" x="1125" y="478.566"/><text fill="#000000" font-family="sans-serif" font-size="14" lengthAdjust="spacing" textLength="50" x="1072" y="500.5611">dragon</text></g><g id="elem_GMN40"><path d="M1182.5,470.566 L1182.5,486.566 L1147.06,490.566 L1182.5,494.566 L1182.5,510.8316 A0,0 0 0 0 1182.5,510.8316 L1433.5,510.8316 A0,0 0 0 0 1433.5,510.8316 L1433.5,480.566 L1423.5,470.566 L1182.5,470.566 A0,0 0 0 0 1182.5,470.566 " fill="#FEFFDD" style="stroke:#181818;stroke-width:0.5;"/><path d="M1423.5,470.566 L1423.5,480.566 L1433.5,480.566 L1423.5,470.566 " fill="#FEFFDD" style="stroke:#181818;stroke-width:0.5;"/><text fill="#000000" font-family="sans-serif" font-size="13" lengthAdjust="spacing" textLength="230" x="1188.5" y="487.6329">- three dimensional multilinked type</text><text fill="#000000" font-family="sans-serif" font-size="13" lengthAdjust="spacing" textLength="141" x="1188.5" y="502.7657">- 2D vectorable thrust</text></g><!--entity spinal_ros_bridge--><g id="elem_spinal_ros_bridge"><rect fill="#90EE90" height="46.2969" rx="2.5" ry="2.5" style="stroke:#181818;stroke-width:0.5;" width="165" x="545.5" y="190.566"/><rect fill="#90EE90" height="10" style="stroke:#181818;stroke-width:0.5;" width="15" x="690.5" y="195.566"/><rect fill="#90EE90" height="2" style="stroke:#181818;stroke-width:0.5;" width="4" x="688.5" y="197.566"/><rect fill="#90EE90" height="2" style="stroke:#181818;stroke-width:0.5;" width="4" x="688.5" y="201.566"/><text fill="#000000" font-family="sans-serif" font-size="14" lengthAdjust="spacing" textLength="125" x="560.5" y="223.5611">spinal_ros_bridge</text></g><g id="elem_GMN52"><path d="M746,193.566 L746,209.566 L710.688,213.566 L746,217.566 L746,233.8316 A0,0 0 0 0 746,233.8316 L958,233.8316 A0,0 0 0 0 958,233.8316 L958,203.566 L948,193.566 L746,193.566 A0,0 0 0 0 746,193.566 " fill="#FEFFDD" style="stroke:#181818;stroke-width:0.5;"/><path d="M948,193.566 L948,203.566 L958,203.566 L948,193.566 " fill="#FEFFDD" style="stroke:#181818;stroke-width:0.5;"/><ellipse cx="757.5" cy="206.1988" fill="#000000" rx="2.5" ry="2.5" style="stroke:#000000;stroke-width:0.0;"/><text fill="#000000" font-family="sans-serif" font-size="13" lengthAdjust="spacing" textLength="179" x="764" y="210.6329">uart between ros and spinal</text><text fill="#000000" font-family="sans-serif" font-size="13" lengthAdjust="spacing" textLength="106" x="752" y="225.7657">- rosserial based</text></g><!--entity spinal--><g id="elem_spinal"><rect fill="#90EE90" height="46.2969" rx="2.5" ry="2.5" style="stroke:#181818;stroke-width:0.5;" width="82" x="587" y="329.066"/><rect fill="#90EE90" height="10" style="stroke:#181818;stroke-width:0.5;" width="15" x="649" y="334.066"/><rect fill="#90EE90" height="2" style="stroke:#181818;stroke-width:0.5;" width="4" x="647" y="336.066"/><rect fill="#90EE90" height="2" style="stroke:#181818;stroke-width:0.5;" width="4" x="647" y="340.066"/><text fill="#000000" font-family="sans-serif" font-size="14" lengthAdjust="spacing" textLength="42" x="602" y="362.0611">spinal</text></g><g id="elem_GMN56"><path d="M704,316.566 L704,348.066 L669.098,352.066 L704,356.066 L704,387.0973 A0,0 0 0 0 704,387.0973 L886,387.0973 A0,0 0 0 0 886,387.0973 L886,326.566 L876,316.566 L704,316.566 A0,0 0 0 0 704,316.566 " fill="#FEFFDD" style="stroke:#181818;stroke-width:0.5;"/><path d="M876,316.566 L876,326.566 L886,326.566 L876,316.566 " fill="#FEFFDD" style="stroke:#181818;stroke-width:0.5;"/><ellipse cx="715.5" cy="329.1988" fill="#000000" rx="2.5" ry="2.5" style="stroke:#000000;stroke-width:0.0;"/><text fill="#000000" font-family="sans-serif" font-size="13" lengthAdjust="spacing" textLength="143" x="722" y="333.6329">project for stm32 mcu</text><text fill="#000000" font-family="sans-serif" font-size="13" lengthAdjust="spacing" textLength="131" x="710" y="348.7657">- attitude estimation</text><text fill="#000000" font-family="sans-serif" font-size="13" lengthAdjust="spacing" textLength="107" x="710" y="363.8985">- attitude control</text><text fill="#000000" font-family="sans-serif" font-size="13" lengthAdjust="spacing" textLength="161" x="710" y="379.0313">- CAN comm with neuron</text></g><!--entity neuron--><g id="elem_neuron"><rect fill="#90EE90" height="46.2969" rx="2.5" ry="2.5" style="stroke:#181818;stroke-width:0.5;" width="90" x="583" y="467.566"/><rect fill="#90EE90" height="10" style="stroke:#181818;stroke-width:0.5;" width="15" x="653" y="472.566"/><rect fill="#90EE90" height="2" style="stroke:#181818;stroke-width:0.5;" width="4" x="651" y="474.566"/><rect fill="#90EE90" height="2" style="stroke:#181818;stroke-width:0.5;" width="4" x="651" y="478.566"/><text fill="#000000" font-family="sans-serif" font-size="14" lengthAdjust="spacing" textLength="50" x="598" y="500.5611">neuron</text></g><g id="elem_GMN60"><path d="M708.5,455.066 L708.5,486.566 L673.145,490.566 L708.5,494.566 L708.5,525.5973 A0,0 0 0 0 708.5,525.5973 L911.5,525.5973 A0,0 0 0 0 911.5,525.5973 L911.5,465.066 L901.5,455.066 L708.5,455.066 A0,0 0 0 0 708.5,455.066 " fill="#FEFFDD" style="stroke:#181818;stroke-width:0.5;"/><path d="M901.5,455.066 L901.5,465.066 L911.5,465.066 L901.5,455.066 " fill="#FEFFDD" style="stroke:#181818;stroke-width:0.5;"/><ellipse cx="720" cy="467.6988" fill="#000000" rx="2.5" ry="2.5" style="stroke:#000000;stroke-width:0.0;"/><text fill="#000000" font-family="sans-serif" font-size="13" lengthAdjust="spacing" textLength="143" x="726.5" y="472.1329">project for stm32 mcu</text><text fill="#000000" font-family="sans-serif" font-size="13" lengthAdjust="spacing" textLength="171" x="714.5" y="487.2657">- sensor interface via GPIO</text><text fill="#000000" font-family="sans-serif" font-size="13" lengthAdjust="spacing" textLength="182" x="714.5" y="502.3985">- actuator interface via GPIO</text><text fill="#000000" font-family="sans-serif" font-size="13" lengthAdjust="spacing" textLength="153" x="714.5" y="517.5313">- CAN comm with spinal</text></g><!--link aerial_robot_base to aerial_robot_model--><!--link aerial_robot_model to aerial_robot_estimation--><!--link aerial_robot_estimation to aerial_robot_control--><!--link aerial_robot_control to aerial_robot_msgs--><!--link robots to GMN28--><g id="link_robots_GMN28"><path d="M1007.8802,134.5792 C1007.8982,134.2936 1007.9166,134.0079 1007.9357,133.7221 C1008.0878,131.4353 1008.2756,129.1404 1008.5023,126.8435 C1008.9558,122.2498 1009.5654,117.6483 1010.3588,113.0881 C1011.9456,103.9676 1014.2678,95.0123 1017.5478,86.6149 C1024.1079,69.82 1034.499,55.2565 1050.5,46.066 C1120.26,6 1337.05,18.164 1412.5,46.066 C1483.35,72.265 1545.85,136.871 1580.16,177.756 " fill="none" id="robots-GMN28" style="stroke:#181818;stroke-width:1.0;stroke-dasharray:7.0,7.0;"/></g><!--link hydrus to hydrus_xi--><!--link hydrus_xi to dragon--><!--link aerial_robot_msgs to aerial_robot_simulation--><!--link spinal_ros_bridge to spinal--><!--link spinal to neuron--><!--SRC=[bLPTQzim57tthxXq3st7ih3kBG-3VK0Pb7MFWrA2R5_RIcJ9I7BIRFI_xqgMOpkECwyGg7NFzJttwyZNXRMLMIsNbM3IrgLudwXoIRzAIPHsaNAMQrP6qVK3vYZJw1eMy4NKk082bKf2nP8joz5uowDcCYURak80cT9WU5aBPhcItdwl4MNFh949A5bIS8bH55u5LnkpNJFKd8crLh6oL_0dYfxw9-kO6No6DmyyBwpZ4qbb4RHx19N121i1l0LZcKoPeDI8lNPd2y0NJ6fopMgPE9u6CgrAOYU4sdEPGonKiZKH9GyknYcHKgKeBZ0vX_PaDefB2uvR2lvOK3HFQKlLAAbeYNddA1__YRdWzk0X6vQec3Ff7rAAiCFc9P08PWmm0rePg4ITymPaKEyKOIoLdGAZpbY2S1DhdkPuEvaU6ijBty3PEVPScggZD1GqguqR0ySbKRbZGe_GWGDBZ-q8ZXFPCb4o2HaNX3cnJsMHA6crcj-c5k_vPyA3mXaiGR8TpplEhQ5f9UNKfUVj7TpFlBFI68R-zt2XZU5rovxRkPvEpgF9pVnnT62Vf7jpYSRuLNPiHhZbB_St6RTPoCLJmTCKvVFYq_d9FxiyqrxzMPeUp6d_OoCdvk42Nr-QJfFygV5A132iQMiZWojbsyUsQKt3NEzN7h48cze8pRWU0TIErHbOC0LWRr2ciN2ZAWUv9QUkXG1FnI7LzN1YJlDhCI6UtIj8UKcRIkzp-bqBIyeajpJzzb1XWErGatAHtHRaRC_7NR_mEQ4TxF-YV_X6118IEnOBdA2GQfQVwDeeVi2qmGkwmEQ4lviHlgtyO0O7-VQBD42rh5vFjx2xRocjvZQ-A00zl9U1JdYTLENiDyRAoq71TBfd6Zj4N_i4dcZsB96QNhu-hTuE3Z2IBZHq-qXrCXMNtc3MpONMDjL_S8oxEiQ7tQsPfZiPxPxSl2OwfMxGeRDqQ3oDHkzFczfWPuLlOrPQRMXMckybMtwyWpAfGpHcBRTrYiDxSc0PYi7Npp_ybndikIr0Ogsznu1ZS_eFZW4qW-Fepjvn1lS_lp-sJ1DRCti9CIHzBFUPmWvQF9YVVasFNHWWseneQLx_0W00]--></g></svg>