<svg xmlns="http://www.w3.org/2000/svg" xmlns:xlink="http://www.w3.org/1999/xlink" contentStyleType="text/css" height="900px" preserveAspectRatio="none" style="width:1842px;height:900px;background:#FFFFFF;" version="1.1" viewBox="0 0 1842 900" width="1842px" zoomAndPan="magnify"><defs/><g><!--cluster jsk_aerial_robot--><g id="cluster_jsk_aerial_robot"><path d="M8.5,84.62 L133.6885,84.62 A3.75,3.75 0 0 1 136.1885,87.12 L143.1885,106.9169 L1832.5,106.9169 A2.5,2.5 0 0 1 1835,109.4169 L1835,891.07 A2.5,2.5 0 0 1 1832.5,893.57 L8.5,893.57 A2.5,2.5 0 0 1 6,891.07 L6,87.12 A2.5,2.5 0 0 1 8.5,84.62 " fill="none" style="stroke:#000000;stroke-width:1.5;"/><line style="stroke:#000000;stroke-width:1.5;" x1="6" x2="143.1885" y1="106.9169" y2="106.9169"/><text fill="#000000" font-family="sans-serif" font-size="14" font-weight="bold" lengthAdjust="spacing" textLength="124.1885" x="10" y="99.6151">jsk_aerial_robot</text></g><!--cluster robots--><g id="cluster_robots"><path d="M40.5,135.62 L92.6875,135.62 A3.75,3.75 0 0 1 95.1875,138.12 L102.1875,157.9169 L833.5,157.9169 A2.5,2.5 0 0 1 836,160.4169 L836,534.73 A2.5,2.5 0 0 1 833.5,537.23 L40.5,537.23 A2.5,2.5 0 0 1 38,534.73 L38,138.12 A2.5,2.5 0 0 1 40.5,135.62 " fill="none" style="stroke:#000000;stroke-width:1.5;"/><line style="stroke:#000000;stroke-width:1.5;" x1="38" x2="102.1875" y1="157.9169" y2="157.9169"/><text fill="#000000" font-family="sans-serif" font-size="14" font-weight="bold" lengthAdjust="spacing" textLength="51.1875" x="42" y="150.6151">robots</text></g><!--cluster aerial_robot_nerve--><g id="cluster_aerial_robot_nerve"><path d="M870.5,155.73 L1018.2334,155.73 A3.75,3.75 0 0 1 1020.7334,158.23 L1027.7334,178.0269 L1310.5,178.0269 A2.5,2.5 0 0 1 1313,180.5269 L1313,538.84 A2.5,2.5 0 0 1 1310.5,541.34 L870.5,541.34 A2.5,2.5 0 0 1 868,538.84 L868,158.23 A2.5,2.5 0 0 1 870.5,155.73 " fill="none" style="stroke:#000000;stroke-width:1.5;"/><line style="stroke:#000000;stroke-width:1.5;" x1="868" x2="1027.7334" y1="178.0269" y2="178.0269"/><text fill="#000000" font-family="sans-serif" font-size="14" font-weight="bold" lengthAdjust="spacing" textLength="146.7334" x="872" y="170.7251">aerial_robot_nerve</text></g><!--entity aerial_robot_base--><g id="elem_aerial_robot_base"><rect fill="#ADD8E6" height="46.2969" rx="2.5" ry="2.5" style="stroke:#181818;stroke-width:0.5;" width="163.9424" x="1332.03" y="190.73"/><rect fill="#ADD8E6" height="10" style="stroke:#181818;stroke-width:0.5;" width="15" x="1475.9724" y="195.73"/><rect fill="#ADD8E6" height="2" style="stroke:#181818;stroke-width:0.5;" width="4" x="1473.9724" y="197.73"/><rect fill="#ADD8E6" height="2" style="stroke:#181818;stroke-width:0.5;" width="4" x="1473.9724" y="201.73"/><text fill="#000000" font-family="sans-serif" font-size="14" lengthAdjust="spacing" textLength="123.9424" x="1347.03" y="223.7251">aerial_robot_base</text></g><g id="elem_GMN4"><path d="M1530.68,193.75 L1530.68,209.88 L1496.33,213.88 L1530.68,217.88 L1530.68,234.0156 A0,0 0 0 0 1530.68,234.0156 L1819.3289,234.0156 A0,0 0 0 0 1819.3289,234.0156 L1819.3289,203.75 L1809.3289,193.75 L1530.68,193.75 A0,0 0 0 0 1530.68,193.75 " fill="#FEFFDD" style="stroke:#181818;stroke-width:0.5;"/><path d="M1809.3289,193.75 L1809.3289,203.75 L1819.3289,203.75 L1809.3289,193.75 " fill="#FEFFDD" style="stroke:#181818;stroke-width:0.5;"/><ellipse cx="1542.18" cy="206.3828" fill="#000000" rx="2.5" ry="2.5" style="stroke:#000000;stroke-width:0.0;"/><text fill="#000000" font-family="sans-serif" font-size="13" lengthAdjust="spacing" textLength="104.6729" x="1548.68" y="210.8169">standalone core</text><text fill="#000000" font-family="sans-serif" font-size="13" lengthAdjust="spacing" textLength="267.6489" x="1536.68" y="225.9497">- execute functions from following blocks</text></g><!--entity aerial_robot_model--><g id="elem_aerial_robot_model"><rect fill="#ADD8E6" height="46.2969" rx="2.5" ry="2.5" style="stroke:#181818;stroke-width:0.5;" width="174.1621" x="1335.92" y="328.83"/><rect fill="#ADD8E6" height="10" style="stroke:#181818;stroke-width:0.5;" width="15" x="1490.0821" y="333.83"/><rect fill="#ADD8E6" height="2" style="stroke:#181818;stroke-width:0.5;" width="4" x="1488.0821" y="335.83"/><rect fill="#ADD8E6" height="2" style="stroke:#181818;stroke-width:0.5;" width="4" x="1488.0821" y="339.83"/><text fill="#000000" font-family="sans-serif" font-size="14" lengthAdjust="spacing" textLength="134.1621" x="1350.92" y="361.8251">aerial_robot_model</text></g><g id="elem_GMN8"><path d="M1545.43,309.15 L1545.43,347.98 L1510.44,351.98 L1545.43,355.98 L1545.43,394.8141 A0,0 0 0 0 1545.43,394.8141 L1784.5799,394.8141 A0,0 0 0 0 1784.5799,394.8141 L1784.5799,319.15 L1774.5799,309.15 L1545.43,309.15 A0,0 0 0 0 1545.43,309.15 " fill="#FEFFDD" style="stroke:#181818;stroke-width:0.5;"/><path d="M1774.5799,309.15 L1774.5799,319.15 L1784.5799,319.15 L1774.5799,309.15 " fill="#FEFFDD" style="stroke:#181818;stroke-width:0.5;"/><ellipse cx="1556.93" cy="321.7828" fill="#000000" rx="2.5" ry="2.5" style="stroke:#000000;stroke-width:0.0;"/><text fill="#000000" font-family="sans-serif" font-size="13" lengthAdjust="spacing" textLength="140.2134" x="1563.43" y="326.2169">joint based modelling</text><text fill="#000000" font-family="sans-serif" font-size="13" lengthAdjust="spacing" textLength="190.1694" x="1551.43" y="341.3497">- kinematics, statics, stability</text><text fill="#000000" font-family="sans-serif" font-size="13" lengthAdjust="spacing" textLength="63.5718" x="1551.43" y="356.4825">- jacobian</text><text fill="#000000" font-family="sans-serif" font-size="13" lengthAdjust="spacing" textLength="218.1499" x="1551.43" y="371.6153">- derive model class as ros plugin</text><text fill="#000000" font-family="sans-serif" font-size="13" lengthAdjust="spacing" textLength="205.8291" x="1551.43" y="386.7481">- servo motor interface (bridge)</text></g><!--entity aerial_robot_estimation--><g id="elem_aerial_robot_estimation"><rect fill="#ADD8E6" height="46.2969" rx="2.5" ry="2.5" style="stroke:#181818;stroke-width:0.5;" width="204.8896" x="1328.56" y="466.93"/><rect fill="#ADD8E6" height="10" style="stroke:#181818;stroke-width:0.5;" width="15" x="1513.4496" y="471.93"/><rect fill="#ADD8E6" height="2" style="stroke:#181818;stroke-width:0.5;" width="4" x="1511.4496" y="473.93"/><rect fill="#ADD8E6" height="2" style="stroke:#181818;stroke-width:0.5;" width="4" x="1511.4496" y="477.93"/><text fill="#000000" font-family="sans-serif" font-size="14" lengthAdjust="spacing" textLength="164.8896" x="1343.56" y="499.9251">aerial_robot_estimation</text></g><g id="elem_GMN12"><path d="M1568.78,454.81 L1568.78,486.08 L1533.62,490.08 L1568.78,494.08 L1568.78,525.3413 A0,0 0 0 0 1568.78,525.3413 L1791.2102,525.3413 A0,0 0 0 0 1791.2102,525.3413 L1791.2102,464.81 L1781.2102,454.81 L1568.78,454.81 A0,0 0 0 0 1568.78,454.81 " fill="#FEFFDD" style="stroke:#181818;stroke-width:0.5;"/><path d="M1781.2102,454.81 L1781.2102,464.81 L1791.2102,464.81 L1781.2102,454.81 " fill="#FEFFDD" style="stroke:#181818;stroke-width:0.5;"/><ellipse cx="1580.28" cy="467.4428" fill="#000000" rx="2.5" ry="2.5" style="stroke:#000000;stroke-width:0.0;"/><text fill="#000000" font-family="sans-serif" font-size="13" lengthAdjust="spacing" textLength="86.6074" x="1586.78" y="471.8769">sensor fusion</text><text fill="#000000" font-family="sans-serif" font-size="13" lengthAdjust="spacing" textLength="154.9717" x="1574.78" y="487.0097">- cog motion estimation</text><text fill="#000000" font-family="sans-serif" font-size="13" lengthAdjust="spacing" textLength="201.4302" x="1574.78" y="502.1425">- sensor interface as ros plugin</text><text fill="#000000" font-family="sans-serif" font-size="13" lengthAdjust="spacing" textLength="178.585" x="1574.78" y="517.2753">- kalman filter as ros plugin</text></g><!--entity aerial_robot_control--><g id="elem_aerial_robot_control"><rect fill="#ADD8E6" height="46.2969" rx="2.5" ry="2.5" style="stroke:#181818;stroke-width:0.5;" width="179.4053" x="1287.3" y="597.46"/><rect fill="#ADD8E6" height="10" style="stroke:#181818;stroke-width:0.5;" width="15" x="1446.7053" y="602.46"/><rect fill="#ADD8E6" height="2" style="stroke:#181818;stroke-width:0.5;" width="4" x="1444.7053" y="604.46"/><rect fill="#ADD8E6" height="2" style="stroke:#181818;stroke-width:0.5;" width="4" x="1444.7053" y="608.46"/><text fill="#000000" font-family="sans-serif" font-size="14" lengthAdjust="spacing" textLength="139.4053" x="1302.3" y="630.4551">aerial_robot_control</text></g><g id="elem_GMN16"><path d="M1501.49,585.34 L1501.49,616.61 L1467.1,620.61 L1501.49,624.61 L1501.49,655.8713 A0,0 0 0 0 1501.49,655.8713 L1818.5193,655.8713 A0,0 0 0 0 1818.5193,655.8713 L1818.5193,595.34 L1808.5193,585.34 L1501.49,585.34 A0,0 0 0 0 1501.49,585.34 " fill="#FEFFDD" style="stroke:#181818;stroke-width:0.5;"/><path d="M1808.5193,585.34 L1808.5193,595.34 L1818.5193,595.34 L1808.5193,585.34 " fill="#FEFFDD" style="stroke:#181818;stroke-width:0.5;"/><ellipse cx="1512.99" cy="597.9728" fill="#000000" rx="2.5" ry="2.5" style="stroke:#000000;stroke-width:0.0;"/><text fill="#000000" font-family="sans-serif" font-size="13" lengthAdjust="spacing" textLength="164.144" x="1519.49" y="602.4069">flight control / navigation</text><text fill="#000000" font-family="sans-serif" font-size="13" lengthAdjust="spacing" textLength="195.0063" x="1507.49" y="617.5397">- control based on cog motion</text><text fill="#000000" font-family="sans-serif" font-size="13" lengthAdjust="spacing" textLength="237.834" x="1507.49" y="632.6725">- navigation for cog and joint motion</text><text fill="#000000" font-family="sans-serif" font-size="13" lengthAdjust="spacing" textLength="296.0293" x="1507.49" y="647.8053">- derive control/navigation class as ros plugin</text></g><!--entity aerial_robot_msgs--><g id="elem_aerial_robot_msgs"><rect fill="#ADD8E6" height="46.2969" rx="2.5" ry="2.5" style="stroke:#181818;stroke-width:0.5;" width="167.6816" x="1293.16" y="715.87"/><rect fill="#ADD8E6" height="10" style="stroke:#181818;stroke-width:0.5;" width="15" x="1440.8416" y="720.87"/><rect fill="#ADD8E6" height="2" style="stroke:#181818;stroke-width:0.5;" width="4" x="1438.8416" y="722.87"/><rect fill="#ADD8E6" height="2" style="stroke:#181818;stroke-width:0.5;" width="4" x="1438.8416" y="726.87"/><text fill="#000000" font-family="sans-serif" font-size="14" lengthAdjust="spacing" textLength="127.6816" x="1308.16" y="748.8651">aerial_robot_msgs</text></g><g id="elem_GMN20"><path d="M1495.35,718.89 L1495.35,735.02 L1460.92,739.02 L1495.35,743.02 L1495.35,759.1556 A0,0 0 0 0 1495.35,759.1556 L1692.6435,759.1556 A0,0 0 0 0 1692.6435,759.1556 L1692.6435,728.89 L1682.6435,718.89 L1495.35,718.89 A0,0 0 0 0 1495.35,718.89 " fill="#FEFFDD" style="stroke:#181818;stroke-width:0.5;"/><path d="M1682.6435,718.89 L1682.6435,728.89 L1692.6435,728.89 L1682.6435,718.89 " fill="#FEFFDD" style="stroke:#181818;stroke-width:0.5;"/><ellipse cx="1506.85" cy="731.5228" fill="#000000" rx="2.5" ry="2.5" style="stroke:#000000;stroke-width:0.0;"/><text fill="#000000" font-family="sans-serif" font-size="13" lengthAdjust="spacing" textLength="89.4004" x="1513.35" y="735.9569">ros messages</text><text fill="#000000" font-family="sans-serif" font-size="13" lengthAdjust="spacing" textLength="176.2935" x="1501.35" y="751.0897">- aerial_robot_msgs/XXXXX</text></g><!--entity aerial_robot_simulation--><g id="elem_aerial_robot_simulation"><rect fill="#FFA500" height="46.2969" rx="2.5" ry="2.5" style="stroke:#181818;stroke-width:0.5;" width="203.5498" x="1275.23" y="826.72"/><rect fill="#FFA500" height="10" style="stroke:#181818;stroke-width:0.5;" width="15" x="1458.7798" y="831.72"/><rect fill="#FFA500" height="2" style="stroke:#181818;stroke-width:0.5;" width="4" x="1456.7798" y="833.72"/><rect fill="#FFA500" height="2" style="stroke:#181818;stroke-width:0.5;" width="4" x="1456.7798" y="837.72"/><text fill="#000000" font-family="sans-serif" font-size="14" lengthAdjust="spacing" textLength="163.5498" x="1290.23" y="859.7151">aerial_robot_simulation</text></g><g id="elem_GMN46"><path d="M1513.28,822.17 L1513.28,845.87 L1478.92,849.87 L1513.28,853.87 L1513.28,877.5684 A0,0 0 0 0 1513.28,877.5684 L1730.7273,877.5684 A0,0 0 0 0 1730.7273,877.5684 L1730.7273,832.17 L1720.7273,822.17 L1513.28,822.17 A0,0 0 0 0 1513.28,822.17 " fill="#FEFFDD" style="stroke:#181818;stroke-width:0.5;"/><path d="M1720.7273,822.17 L1720.7273,832.17 L1730.7273,832.17 L1720.7273,822.17 " fill="#FEFFDD" style="stroke:#181818;stroke-width:0.5;"/><ellipse cx="1524.78" cy="834.8028" fill="#000000" rx="2.5" ry="2.5" style="stroke:#000000;stroke-width:0.0;"/><text fill="#000000" font-family="sans-serif" font-size="13" lengthAdjust="spacing" textLength="131.3647" x="1531.28" y="839.2369">interface for gazebo</text><text fill="#000000" font-family="sans-serif" font-size="13" lengthAdjust="spacing" textLength="132.6787" x="1519.28" y="854.3697">- hardware interface</text><text fill="#000000" font-family="sans-serif" font-size="13" lengthAdjust="spacing" textLength="196.4473" x="1519.28" y="869.5025">- controller interface as plugin</text></g><g id="elem_GMN28"><path d="M61.89,178.62 L61.89,249.1513 L388.1107,249.1513 L388.1107,188.62 L378.1107,178.62 L61.89,178.62 " fill="#FEFFDD" style="stroke:#181818;stroke-width:0.5;"/><path d="M378.1107,178.62 L378.1107,188.62 L388.1107,188.62 L378.1107,178.62 " fill="#FEFFDD" style="stroke:#181818;stroke-width:1.0;"/><ellipse cx="73.39" cy="191.2528" fill="#000000" rx="2.5" ry="2.5" style="stroke:#000000;stroke-width:0.0;"/><text fill="#000000" font-family="sans-serif" font-size="13" lengthAdjust="spacing" textLength="166.8989" x="79.89" y="195.6869">derive class as plugin for:</text><text fill="#000000" font-family="sans-serif" font-size="13" lengthAdjust="spacing" textLength="216.8169" x="67.89" y="210.8197">- model  from aerial_robot_model</text><text fill="#000000" font-family="sans-serif" font-size="13" lengthAdjust="spacing" textLength="226.5542" x="67.89" y="225.9525">- control  from aerial_robot_control</text><text fill="#000000" font-family="sans-serif" font-size="13" lengthAdjust="spacing" textLength="305.2207" x="67.89" y="241.0853">- navigation  from aerial_robot_control (option)</text></g><!--entity hydrus--><g id="elem_hydrus"><rect fill="#ADD8E6" height="46.2969" rx="2.5" ry="2.5" style="stroke:#181818;stroke-width:0.5;" width="87.9678" x="423.02" y="190.73"/><rect fill="#ADD8E6" height="10" style="stroke:#181818;stroke-width:0.5;" width="15" x="490.9878" y="195.73"/><rect fill="#ADD8E6" height="2" style="stroke:#181818;stroke-width:0.5;" width="4" x="488.9878" y="197.73"/><rect fill="#ADD8E6" height="2" style="stroke:#181818;stroke-width:0.5;" width="4" x="488.9878" y="201.73"/><text fill="#000000" font-family="sans-serif" font-size="14" lengthAdjust="spacing" textLength="47.9678" x="438.02" y="223.7251">hydrus</text></g><g id="elem_GMN32"><path d="M545.84,193.75 L545.84,209.88 L511.19,213.88 L545.84,217.88 L545.84,234.0156 A0,0 0 0 0 545.84,234.0156 L792.1691,234.0156 A0,0 0 0 0 792.1691,234.0156 L792.1691,203.75 L782.1691,193.75 L545.84,193.75 A0,0 0 0 0 545.84,193.75 " fill="#FEFFDD" style="stroke:#181818;stroke-width:0.5;"/><path d="M782.1691,193.75 L782.1691,203.75 L792.1691,203.75 L782.1691,193.75 " fill="#FEFFDD" style="stroke:#181818;stroke-width:0.5;"/><text fill="#000000" font-family="sans-serif" font-size="13" lengthAdjust="spacing" textLength="225.3291" x="551.84" y="210.8169">- two dimensional multilinked type</text><text fill="#000000" font-family="sans-serif" font-size="13" lengthAdjust="spacing" textLength="100.2168" x="551.84" y="225.9497">- vertical thrust</text></g><!--entity hydrus_xi--><g id="elem_hydrus_xi"><rect fill="#ADD8E6" height="46.2969" rx="2.5" ry="2.5" style="stroke:#181818;stroke-width:0.5;" width="107.1426" x="402.43" y="328.83"/><rect fill="#ADD8E6" height="10" style="stroke:#181818;stroke-width:0.5;" width="15" x="489.5726" y="333.83"/><rect fill="#ADD8E6" height="2" style="stroke:#181818;stroke-width:0.5;" width="4" x="487.5726" y="335.83"/><rect fill="#ADD8E6" height="2" style="stroke:#181818;stroke-width:0.5;" width="4" x="487.5726" y="339.83"/><text fill="#000000" font-family="sans-serif" font-size="14" lengthAdjust="spacing" textLength="67.1426" x="417.43" y="361.8251">hydrus_xi</text></g><g id="elem_GMN36"><path d="M544.84,331.85 L544.84,347.98 L509.83,351.98 L544.84,355.98 L544.84,372.1156 A0,0 0 0 0 544.84,372.1156 L791.1691,372.1156 A0,0 0 0 0 791.1691,372.1156 L791.1691,341.85 L781.1691,331.85 L544.84,331.85 A0,0 0 0 0 544.84,331.85 " fill="#FEFFDD" style="stroke:#181818;stroke-width:0.5;"/><path d="M781.1691,331.85 L781.1691,341.85 L791.1691,341.85 L781.1691,331.85 " fill="#FEFFDD" style="stroke:#181818;stroke-width:0.5;"/><text fill="#000000" font-family="sans-serif" font-size="13" lengthAdjust="spacing" textLength="225.3291" x="550.84" y="348.9169">- two dimensional multilinked type</text><text fill="#000000" font-family="sans-serif" font-size="13" lengthAdjust="spacing" textLength="143.2222" x="550.84" y="364.0497">- 1D vectorable thrust</text></g><!--entity dragon--><g id="elem_dragon"><rect fill="#ADD8E6" height="46.2969" rx="2.5" ry="2.5" style="stroke:#181818;stroke-width:0.5;" width="89.5469" x="410.23" y="466.93"/><rect fill="#ADD8E6" height="10" style="stroke:#181818;stroke-width:0.5;" width="15" x="479.7769" y="471.93"/><rect fill="#ADD8E6" height="2" style="stroke:#181818;stroke-width:0.5;" width="4" x="477.7769" y="473.93"/><rect fill="#ADD8E6" height="2" style="stroke:#181818;stroke-width:0.5;" width="4" x="477.7769" y="477.93"/><text fill="#000000" font-family="sans-serif" font-size="14" lengthAdjust="spacing" textLength="49.5469" x="425.23" y="499.9251">dragon</text></g><g id="elem_GMN40"><path d="M534.34,469.94 L534.34,486.08 L500.09,490.08 L534.34,494.08 L534.34,510.2056 A0,0 0 0 0 534.34,510.2056 L791.6632,510.2056 A0,0 0 0 0 791.6632,510.2056 L791.6632,479.94 L781.6632,469.94 L534.34,469.94 A0,0 0 0 0 534.34,469.94 " fill="#FEFFDD" style="stroke:#181818;stroke-width:0.5;"/><path d="M781.6632,469.94 L781.6632,479.94 L791.6632,479.94 L781.6632,469.94 " fill="#FEFFDD" style="stroke:#181818;stroke-width:0.5;"/><text fill="#000000" font-family="sans-serif" font-size="13" lengthAdjust="spacing" textLength="236.3232" x="540.34" y="487.0069">- three dimensional multilinked type</text><text fill="#000000" font-family="sans-serif" font-size="13" lengthAdjust="spacing" textLength="143.2222" x="540.34" y="502.1397">- 2D vectorable thrust</text></g><!--entity spinal_ros_bridge--><g id="elem_spinal_ros_bridge"><rect fill="#90EE90" height="46.2969" rx="2.5" ry="2.5" style="stroke:#181818;stroke-width:0.5;" width="161.9463" x="884.03" y="190.73"/><rect fill="#90EE90" height="10" style="stroke:#181818;stroke-width:0.5;" width="15" x="1025.9763" y="195.73"/><rect fill="#90EE90" height="2" style="stroke:#181818;stroke-width:0.5;" width="4" x="1023.9763" y="197.73"/><rect fill="#90EE90" height="2" style="stroke:#181818;stroke-width:0.5;" width="4" x="1023.9763" y="201.73"/><text fill="#000000" font-family="sans-serif" font-size="14" lengthAdjust="spacing" textLength="121.9463" x="899.03" y="223.7251">spinal_ros_bridge</text></g><g id="elem_GMN52"><path d="M1081.31,193.75 L1081.31,209.88 L1046.38,213.88 L1081.31,217.88 L1081.31,234.0156 A0,0 0 0 0 1081.31,234.0156 L1296.6845,234.0156 A0,0 0 0 0 1296.6845,234.0156 L1296.6845,203.75 L1286.6845,193.75 L1081.31,193.75 A0,0 0 0 0 1081.31,193.75 " fill="#FEFFDD" style="stroke:#181818;stroke-width:0.5;"/><path d="M1286.6845,193.75 L1286.6845,203.75 L1296.6845,203.75 L1286.6845,193.75 " fill="#FEFFDD" style="stroke:#181818;stroke-width:0.5;"/><ellipse cx="1092.81" cy="206.3828" fill="#000000" rx="2.5" ry="2.5" style="stroke:#000000;stroke-width:0.0;"/><text fill="#000000" font-family="sans-serif" font-size="13" lengthAdjust="spacing" textLength="182.3745" x="1099.31" y="210.8169">uart between ros and spinal</text><text fill="#000000" font-family="sans-serif" font-size="13" lengthAdjust="spacing" textLength="107.5737" x="1087.31" y="225.9497">- rosserial based</text></g><!--entity spinal--><g id="elem_spinal"><rect fill="#90EE90" height="46.2969" rx="2.5" ry="2.5" style="stroke:#181818;stroke-width:0.5;" width="81.4121" x="924.29" y="328.83"/><rect fill="#90EE90" height="10" style="stroke:#181818;stroke-width:0.5;" width="15" x="985.7021" y="333.83"/><rect fill="#90EE90" height="2" style="stroke:#181818;stroke-width:0.5;" width="4" x="983.7021" y="335.83"/><rect fill="#90EE90" height="2" style="stroke:#181818;stroke-width:0.5;" width="4" x="983.7021" y="339.83"/><text fill="#000000" font-family="sans-serif" font-size="14" lengthAdjust="spacing" textLength="41.4121" x="939.29" y="361.8251">spinal</text></g><g id="elem_GMN56"><path d="M1041.03,316.71 L1041.03,347.98 L1006.02,351.98 L1041.03,355.98 L1041.03,387.2413 A0,0 0 0 0 1041.03,387.2413 L1224.968,387.2413 A0,0 0 0 0 1224.968,387.2413 L1224.968,326.71 L1214.968,316.71 L1041.03,316.71 A0,0 0 0 0 1041.03,316.71 " fill="#FEFFDD" style="stroke:#181818;stroke-width:0.5;"/><path d="M1214.968,316.71 L1214.968,326.71 L1224.968,326.71 L1214.968,316.71 " fill="#FEFFDD" style="stroke:#181818;stroke-width:0.5;"/><ellipse cx="1052.53" cy="329.3428" fill="#000000" rx="2.5" ry="2.5" style="stroke:#000000;stroke-width:0.0;"/><text fill="#000000" font-family="sans-serif" font-size="13" lengthAdjust="spacing" textLength="144.8027" x="1059.03" y="333.7769">project for stm32 mcu</text><text fill="#000000" font-family="sans-serif" font-size="13" lengthAdjust="spacing" textLength="133.3262" x="1047.03" y="348.9097">- attitude estimation</text><text fill="#000000" font-family="sans-serif" font-size="13" lengthAdjust="spacing" textLength="109.6621" x="1047.03" y="364.0425">- attitude control</text><text fill="#000000" font-family="sans-serif" font-size="13" lengthAdjust="spacing" textLength="162.938" x="1047.03" y="379.1753">- CAN comm with neuron</text></g><!--entity neuron--><g id="elem_neuron"><rect fill="#90EE90" height="46.2969" rx="2.5" ry="2.5" style="stroke:#181818;stroke-width:0.5;" width="89.5537" x="920.22" y="466.93"/><rect fill="#90EE90" height="10" style="stroke:#181818;stroke-width:0.5;" width="15" x="989.7737" y="471.93"/><rect fill="#90EE90" height="2" style="stroke:#181818;stroke-width:0.5;" width="4" x="987.7737" y="473.93"/><rect fill="#90EE90" height="2" style="stroke:#181818;stroke-width:0.5;" width="4" x="987.7737" y="477.93"/><text fill="#000000" font-family="sans-serif" font-size="14" lengthAdjust="spacing" textLength="49.5537" x="935.22" y="499.9251">neuron</text></g><g id="elem_GMN60"><path d="M1044.87,454.81 L1044.87,486.08 L1010.04,490.08 L1044.87,494.08 L1044.87,525.3413 A0,0 0 0 0 1044.87,525.3413 L1251.1327,525.3413 A0,0 0 0 0 1251.1327,525.3413 L1251.1327,464.81 L1241.1327,454.81 L1044.87,454.81 A0,0 0 0 0 1044.87,454.81 " fill="#FEFFDD" style="stroke:#181818;stroke-width:0.5;"/><path d="M1241.1327,454.81 L1241.1327,464.81 L1251.1327,464.81 L1241.1327,454.81 " fill="#FEFFDD" style="stroke:#181818;stroke-width:0.5;"/><ellipse cx="1056.37" cy="467.4428" fill="#000000" rx="2.5" ry="2.5" style="stroke:#000000;stroke-width:0.0;"/><text fill="#000000" font-family="sans-serif" font-size="13" lengthAdjust="spacing" textLength="144.8027" x="1062.87" y="471.8769">project for stm32 mcu</text><text fill="#000000" font-family="sans-serif" font-size="13" lengthAdjust="spacing" textLength="173.5322" x="1050.87" y="487.0097">- sensor interface via GPIO</text><text fill="#000000" font-family="sans-serif" font-size="13" lengthAdjust="spacing" textLength="185.2627" x="1050.87" y="502.1425">- actuator interface via GPIO</text><text fill="#000000" font-family="sans-serif" font-size="13" lengthAdjust="spacing" textLength="155.3779" x="1050.87" y="517.2753">- CAN comm with spinal</text></g><!--link aerial_robot_base to aerial_robot_model--><!--link aerial_robot_model to aerial_robot_estimation--><!--link aerial_robot_estimation to aerial_robot_control--><!--link aerial_robot_control to aerial_robot_msgs--><!--link robots to GMN28--><g id="link_robots_GMN28"><path d="M833.5593,157.3365 C833.5182,156.7749 833.415,133.0739 833.3696,132.5114 C833.1879,130.2614 832.9711,128.005 832.7159,125.748 C832.2056,121.2341 831.5418,116.7179 830.6984,112.246 C829.0116,103.3022 826.6066,94.5359 823.275,86.3202 C816.6119,69.8888 806.2425,55.66 790.5,46.62 C719.78,6 500.11,18.64 423.5,46.62 C351.75,72.82 287.99,137.65 253.1,178.47 " fill="none" id="robots-GMN28" style="stroke:#181818;stroke-width:1.0;stroke-dasharray:7.0,7.0;"/></g><!--link hydrus to hydrus_xi--><!--link hydrus_xi to dragon--><!--link aerial_robot_msgs to aerial_robot_simulation--><!--link spinal_ros_bridge to spinal--><!--link spinal to neuron--><!--SRC=[bLPTQzim57tthxXq3st7ih3kBG-3VK0Pb7MFWrA2R5_RIcJ9I7BIRFI_xqgMOpkECwyGg7NFzJttwyZNXRMLMIsNbM3IrgLudwXoIRzAIPHsaNAMQrP6qVK3vYZJw1eMy4NKk082bKf2nP8joz5uowDcCYURak80cT9WU5aBPhcItdwl4MNFh949A5bIS8bH55u5LnkpNJFKd8crLh6oL_0dYfxw9-kO6No6DmyyBwpZ4qbb4RHx19N121i1l0LZcKoPeDI8lNPd2y0NJ6fopMgPE9u6CgrAOYU4sdEPGonKiZKH9GyknYcHKgKeBZ0vX_PaDefB2uvR2lvOK3HFQKlLAAbeYNddA1__YRdWzk0X6vQec3Ff7rAAiCFc9P08PWmm0rePg4ITymPaKEyKOIoLdGAZpbY2S1DhdkPuEvaU6ijBty3PEVPScggZD1GqguqR0ySbKRbZGe_GWGDBZ-q8ZXFPCb4o2HaNX3cnJsMHA6crcj-c5k_vPyA3mXaiGR8TpplEhQ5f9UNKfUVj7TpFlBFI68R-zt2XZU5rovxRkPvEpgF9pVnnT62Vf7jpYSRuLNPiHhZbB_St6RTPoCLJmTCKvVFYq_d9FxiyqrxzMPeUp6d_OoCdvk42Nr-QJfFygV5A132iQMiZWojbsyUsQKt3NEzN7h48cze8pRWU0TIErHbOC0LWRr2ciN2ZAWUv9QUkXG1FnI7LzN1YJlDhCI6UtIj8UKcRIkzp-bqBIyeajpJzzb1XWErGatAHtHRaRC_7NR_mEQ4TxF-YV_X6118IEnOBdA2GQfQVwDeeVi2qmGkwmEQ4lviHlgtyO0O7-VQBD42rh5vFjx2xRocjvZQ-A00zl9U1JdYTLENiDyRAoq71TBfd6Zj4N_i4dcZsB96QNhu-hTuE3Z2IBZHq-qXrCXMNtc3MpONMDjL_S8oxEiQ7tQsPfZiPxPxSl2OwfMxGeRDqQ3oDHkzFczfWPuLlOrPQRMXMckybMtwyWpAfGpHcBRTrYiDxSc0PYi7Npp_ybndikIr0Ogsznu1ZS_eFZW4qW-Fepjvn1lS_lp-sJ1DRCti9CIHzBFUPmWvQF9YVVasFNHWWseneQLx_0W00]--></g></svg>