<svg xmlns="http://www.w3.org/2000/svg" xmlns:xlink="http://www.w3.org/1999/xlink" contentStyleType="text/css" height="1464px" preserveAspectRatio="none" style="width:1092px;height:1464px;background:#FFFFFF;" version="1.1" viewBox="0 0 1092 1464" width="1092px" zoomAndPan="magnify"><defs/><g><!--cluster aerial_robot_control--><g id="cluster_aerial_robot_control"><path d="M8.5,6 L167.1436,6 A3.75,3.75 0 0 1 169.6436,8.5 L176.6436,28.2969 L1082.5,28.2969 A2.5,2.5 0 0 1 1085,30.7969 L1085,1454.83 A2.5,2.5 0 0 1 1082.5,1457.33 L8.5,1457.33 A2.5,2.5 0 0 1 6,1454.83 L6,8.5 A2.5,2.5 0 0 1 8.5,6 " fill="none" style="stroke:#000000;stroke-width:1.5;"/><line style="stroke:#000000;stroke-width:1.5;" x1="6" x2="176.6436" y1="28.2969" y2="28.2969"/><text fill="#000000" font-family="sans-serif" font-size="14" font-weight="bold" lengthAdjust="spacing" textLength="157.6436" x="10" y="20.9951">aerial_robot_control</text></g><!--cluster nmpc--><g id="cluster_nmpc"><path d="M32.5,228.08 L76.375,228.08 A3.75,3.75 0 0 1 78.875,230.58 L85.875,250.3769 L1058.5,250.3769 A2.5,2.5 0 0 1 1061,252.8769 L1061,1430.83 A2.5,2.5 0 0 1 1058.5,1433.33 L32.5,1433.33 A2.5,2.5 0 0 1 30,1430.83 L30,230.58 A2.5,2.5 0 0 1 32.5,228.08 " fill="none" style="stroke:#000000;stroke-width:1.5;"/><line style="stroke:#000000;stroke-width:1.5;" x1="30" x2="85.875" y1="250.3769" y2="250.3769"/><text fill="#000000" font-family="sans-serif" font-size="14" font-weight="bold" lengthAdjust="spacing" textLength="42.875" x="34" y="243.0751">nmpc</text></g><!--class ControlBase--><g id="elem_ControlBase"><rect codeLine="5" fill="#F1F1F1" height="162.0781" id="ControlBase" rx="2.5" ry="2.5" style="stroke:#181818;stroke-width:0.5;" width="277.8496" x="433.08" y="41"/><ellipse cx="525.2524" cy="57" fill="#A9DCDF" rx="11" ry="11" style="stroke:#181818;stroke-width:1.0;"/><path d="M525.3617,52.3438 L524.2055,57.4219 L526.5336,57.4219 L525.3617,52.3438 Z M523.8774,50.1094 L526.8617,50.1094 L530.2211,62.5 L527.768,62.5 L527.0024,59.4375 L523.7211,59.4375 L522.9711,62.5 L520.5336,62.5 L523.8774,50.1094 Z " fill="#000000"/><text fill="#000000" font-family="sans-serif" font-size="14" font-style="italic" lengthAdjust="spacing" textLength="85.0049" x="545.7524" y="61.8467">ControlBase</text><line style="stroke:#181818;stroke-width:0.5;" x1="434.08" x2="709.9296" y1="73" y2="73"/><line style="stroke:#181818;stroke-width:0.5;" x1="434.08" x2="709.9296" y1="81" y2="81"/><ellipse cx="444.08" cy="94.6484" fill="#84BE84" rx="3" ry="3" style="stroke:#038048;stroke-width:1.0;"/><text fill="#000000" font-family="sans-serif" font-size="14" lengthAdjust="spacing" textLength="95.9287" x="453.08" y="97.9951">ControlBase()</text><ellipse cx="444.08" cy="110.9453" fill="#84BE84" rx="3" ry="3" style="stroke:#038048;stroke-width:1.0;"/><text fill="#000000" font-family="sans-serif" font-size="14" lengthAdjust="spacing" textLength="107.6592" x="453.08" y="114.292">~ControlBase()</text><ellipse cx="444.08" cy="127.2422" fill="#84BE84" rx="3" ry="3" style="stroke:#038048;stroke-width:1.0;"/><text fill="#000000" font-family="sans-serif" font-size="14" lengthAdjust="spacing" textLength="69.2754" x="453.08" y="130.5889">initialize()</text><ellipse cx="444.08" cy="143.5391" fill="#84BE84" rx="3" ry="3" style="stroke:#038048;stroke-width:1.0;"/><text fill="#000000" font-family="sans-serif" font-size="14" lengthAdjust="spacing" textLength="60.252" x="453.08" y="146.8857">update()</text><ellipse cx="444.08" cy="159.8359" fill="#84BE84" rx="3" ry="3" style="stroke:#038048;stroke-width:1.0;"/><text fill="#000000" font-family="sans-serif" font-size="14" lengthAdjust="spacing" textLength="67.5459" x="453.08" y="163.1826">activate()</text><ellipse cx="444.08" cy="176.1328" fill="#84BE84" rx="3" ry="3" style="stroke:#038048;stroke-width:1.0;"/><text fill="#000000" font-family="sans-serif" font-size="14" lengthAdjust="spacing" textLength="46.6895" x="453.08" y="179.4795">reset()</text><polygon fill="#FFFF44" points="444.08,187.4297,448.08,191.4297,444.08,195.4297,440.08,191.4297" style="stroke:#B38D22;stroke-width:1.0;"/><text fill="#000000" font-family="sans-serif" font-size="14" lengthAdjust="spacing" textLength="251.8496" x="453.08" y="195.7764">template&lt;class T&gt; void getParam()</text></g><!--class BaseMPC--><g id="elem_BaseMPC"><rect codeLine="15" fill="#F1F1F1" height="194.6719" id="BaseMPC" rx="2.5" ry="2.5" style="stroke:#181818;stroke-width:0.5;" width="167.2852" x="488.36" y="263.08"/><ellipse cx="535.5587" cy="279.08" fill="#A9DCDF" rx="11" ry="11" style="stroke:#181818;stroke-width:1.0;"/><path d="M535.6681,274.4237 L534.5119,279.5019 L536.84,279.5019 L535.6681,274.4237 Z M534.1837,272.1894 L537.1681,272.1894 L540.5275,284.58 L538.0744,284.58 L537.3087,281.5175 L534.0275,281.5175 L533.2775,284.58 L530.84,284.58 L534.1837,272.1894 Z " fill="#000000"/><text fill="#000000" font-family="sans-serif" font-size="14" font-style="italic" lengthAdjust="spacing" textLength="64.3877" x="556.0587" y="283.9267">BaseMPC</text><line style="stroke:#181818;stroke-width:0.5;" x1="489.36" x2="654.6452" y1="295.08" y2="295.08"/><polygon fill="none" points="499.36,303.7284,503.36,307.7284,499.36,311.7284,495.36,307.7284" style="stroke:#B38D22;stroke-width:1.0;"/><text fill="#000000" font-family="sans-serif" font-size="14" lengthAdjust="spacing" textLength="113.7568" x="508.36" y="312.0751">mpc_solver_ptr_</text><line style="stroke:#181818;stroke-width:0.5;" x1="489.36" x2="654.6452" y1="319.3769" y2="319.3769"/><polygon fill="#FFFF44" points="499.36,328.0253,503.36,332.0253,499.36,336.0253,495.36,332.0253" style="stroke:#B38D22;stroke-width:1.0;"/><text fill="#000000" font-family="sans-serif" font-size="14" lengthAdjust="spacing" textLength="84.6016" x="508.36" y="336.372">initPredXU()</text><polygon fill="#FFFF44" points="499.36,344.3222,503.36,348.3222,499.36,352.3222,495.36,348.3222" style="stroke:#B38D22;stroke-width:1.0;"/><text fill="#000000" font-family="sans-serif" font-size="14" lengthAdjust="spacing" textLength="127.0459" x="508.36" y="352.6689">initMPCSolverPtr()</text><polygon fill="#FFFF44" points="499.36,360.6191,503.36,364.6191,499.36,368.6191,495.36,364.6191" style="stroke:#B38D22;stroke-width:1.0;"/><text fill="#000000" font-family="sans-serif" font-size="14" lengthAdjust="spacing" textLength="141.2852" x="508.36" y="368.9657">callbackSetRefTraj()</text><polygon fill="#FFFF44" points="499.36,376.9159,503.36,380.9159,499.36,384.9159,495.36,380.9159" style="stroke:#B38D22;stroke-width:1.0;"/><text fill="#000000" font-family="sans-serif" font-size="14" lengthAdjust="spacing" textLength="107.0098" x="508.36" y="385.2626">rosXU2VecXU()</text><polygon fill="#FFFF44" points="499.36,393.2128,503.36,397.2128,499.36,401.2128,495.36,397.2128" style="stroke:#B38D22;stroke-width:1.0;"/><text fill="#000000" font-family="sans-serif" font-size="14" lengthAdjust="spacing" textLength="93.4336" x="508.36" y="401.5595">meas2VecX()</text><polygon fill="#FFFF44" points="499.36,409.5097,503.36,413.5097,499.36,417.5097,495.36,413.5097" style="stroke:#B38D22;stroke-width:1.0;"/><text fill="#000000" font-family="sans-serif" font-size="14" lengthAdjust="spacing" textLength="92.4697" x="508.36" y="417.8564">controlCore()</text><polygon fill="#FFFF44" points="499.36,425.8066,503.36,429.8066,499.36,433.8066,495.36,429.8066" style="stroke:#B38D22;stroke-width:1.0;"/><text fill="#000000" font-family="sans-serif" font-size="14" lengthAdjust="spacing" textLength="76.8906" x="508.36" y="434.1532">sendCmd()</text><polygon fill="#FFFF44" points="499.36,442.1034,503.36,446.1034,499.36,450.1034,495.36,446.1034" style="stroke:#B38D22;stroke-width:1.0;"/><text fill="#000000" font-family="sans-serif" font-size="14" lengthAdjust="spacing" textLength="89.0654" x="508.36" y="450.4501">callbackViz()</text></g><!--class FixQdNMPC--><g id="elem_FixQdNMPC"><rect codeLine="27" fill="#F1F1F1" height="80.5938" id="FixQdNMPC" rx="2.5" ry="2.5" style="stroke:#181818;stroke-width:0.5;" width="153.0459" x="46.48" y="1090.21"/><ellipse cx="79.5442" cy="1106.21" fill="#ADD1B2" rx="11" ry="11" style="stroke:#181818;stroke-width:1.0;"/><path d="M82.5129,1111.8506 Q81.9348,1112.1475 81.2942,1112.2881 Q80.6535,1112.4444 79.9504,1112.4444 Q77.4504,1112.4444 76.1223,1110.8038 Q74.8098,1109.1475 74.8098,1106.0225 Q74.8098,1102.8975 76.1223,1101.2413 Q77.4504,1099.585 79.9504,1099.585 Q80.6535,1099.585 81.2942,1099.7413 Q81.9504,1099.8975 82.5129,1100.1944 L82.5129,1102.9131 Q81.8879,1102.335 81.2942,1102.0694 Q80.7004,1101.7881 80.0754,1101.7881 Q78.7317,1101.7881 78.0442,1102.8663 Q77.3567,1103.9288 77.3567,1106.0225 Q77.3567,1108.1163 78.0442,1109.1944 Q78.7317,1110.2569 80.0754,1110.2569 Q80.7004,1110.2569 81.2942,1109.9913 Q81.8879,1109.71 82.5129,1109.1319 L82.5129,1111.8506 Z " fill="#000000"/><text fill="#000000" font-family="sans-serif" font-size="14" lengthAdjust="spacing" textLength="80.9033" x="97.5584" y="1111.0567">FixQdNMPC</text><line style="stroke:#181818;stroke-width:0.5;" x1="47.48" x2="198.5259" y1="1122.21" y2="1122.21"/><line style="stroke:#181818;stroke-width:0.5;" x1="47.48" x2="198.5259" y1="1130.21" y2="1130.21"/><polygon fill="#FFFF44" points="57.48,1138.8584,61.48,1142.8584,57.48,1146.8584,53.48,1142.8584" style="stroke:#B38D22;stroke-width:1.0;"/><text fill="#000000" font-family="sans-serif" font-size="14" lengthAdjust="spacing" textLength="127.0459" x="66.48" y="1147.2051">initMPCSolverPtr()</text><polygon fill="#FFFF44" points="57.48,1155.1553,61.48,1159.1553,57.48,1163.1553,53.48,1159.1553" style="stroke:#B38D22;stroke-width:1.0;"/><text fill="#000000" font-family="sans-serif" font-size="14" lengthAdjust="spacing" textLength="92.832" x="66.48" y="1163.502">initAllocMat()</text></g><!--class TiltQdServoNMPC--><g id="elem_TiltQdServoNMPC"><rect codeLine="42" fill="#F1F1F1" height="471.7188" id="TiltQdServoNMPC" rx="2.5" ry="2.5" style="stroke:#181818;stroke-width:0.5;" width="185.0723" x="479.46" y="517.75"/><ellipse cx="508.1714" cy="533.75" fill="#ADD1B2" rx="11" ry="11" style="stroke:#181818;stroke-width:1.0;"/><path d="M511.1401,539.3906 Q510.562,539.6875 509.9214,539.8281 Q509.2808,539.9844 508.5776,539.9844 Q506.0776,539.9844 504.7495,538.3437 Q503.437,536.6875 503.437,533.5625 Q503.437,530.4375 504.7495,528.7812 Q506.0776,527.125 508.5776,527.125 Q509.2808,527.125 509.9214,527.2812 Q510.5776,527.4375 511.1401,527.7344 L511.1401,530.4531 Q510.5151,529.875 509.9214,529.6094 Q509.3276,529.3281 508.7026,529.3281 Q507.3589,529.3281 506.6714,530.4062 Q505.9839,531.4687 505.9839,533.5625 Q505.9839,535.6562 506.6714,536.7344 Q507.3589,537.7969 508.7026,537.7969 Q509.3276,537.7969 509.9214,537.5312 Q510.5151,537.25 511.1401,536.6719 L511.1401,539.3906 Z " fill="#000000"/><text fill="#000000" font-family="sans-serif" font-size="14" lengthAdjust="spacing" textLength="122.6025" x="525.2183" y="538.5967">TiltQdServoNMPC</text><line style="stroke:#181818;stroke-width:0.5;" x1="480.46" x2="663.5323" y1="549.75" y2="549.75"/><line style="stroke:#181818;stroke-width:0.5;" x1="480.46" x2="663.5323" y1="557.75" y2="557.75"/><ellipse cx="490.46" cy="571.3984" fill="#84BE84" rx="3" ry="3" style="stroke:#038048;stroke-width:1.0;"/><text fill="#000000" font-family="sans-serif" font-size="14" lengthAdjust="spacing" textLength="133.5264" x="499.46" y="574.7451">TiltQdServoNMPC()</text><ellipse cx="490.46" cy="587.6953" fill="#84BE84" rx="3" ry="3" style="stroke:#038048;stroke-width:1.0;"/><text fill="#000000" font-family="sans-serif" font-size="14" lengthAdjust="spacing" textLength="145.2568" x="499.46" y="591.042">~TiltQdServoNMPC()</text><ellipse cx="490.46" cy="603.9922" fill="#84BE84" rx="3" ry="3" style="stroke:#038048;stroke-width:1.0;"/><text fill="#000000" font-family="sans-serif" font-size="14" lengthAdjust="spacing" textLength="69.2754" x="499.46" y="607.3389">initialize()</text><ellipse cx="490.46" cy="620.2891" fill="#84BE84" rx="3" ry="3" style="stroke:#038048;stroke-width:1.0;"/><text fill="#000000" font-family="sans-serif" font-size="14" lengthAdjust="spacing" textLength="60.252" x="499.46" y="623.6357">update()</text><ellipse cx="490.46" cy="636.5859" fill="#84BE84" rx="3" ry="3" style="stroke:#038048;stroke-width:1.0;"/><text fill="#000000" font-family="sans-serif" font-size="14" lengthAdjust="spacing" textLength="46.6895" x="499.46" y="639.9326">reset()</text><polygon fill="#FFFF44" points="490.46,647.8828,494.46,651.8828,490.46,655.8828,486.46,651.8828" style="stroke:#B38D22;stroke-width:1.0;"/><text fill="#000000" font-family="sans-serif" font-size="14" lengthAdjust="spacing" textLength="127.0459" x="499.46" y="656.2295">initMPCSolverPtr()</text><polygon fill="#FFFF44" points="490.46,664.1797,494.46,668.1797,490.46,672.1797,486.46,668.1797" style="stroke:#B38D22;stroke-width:1.0;"/><text fill="#000000" font-family="sans-serif" font-size="14" lengthAdjust="spacing" textLength="92.832" x="499.46" y="672.5264">initAllocMat()</text><polygon fill="#FFFF44" points="490.46,680.4766,494.46,684.4766,490.46,688.4766,486.46,684.4766" style="stroke:#B38D22;stroke-width:1.0;"/><text fill="#000000" font-family="sans-serif" font-size="14" lengthAdjust="spacing" textLength="85.3535" x="499.46" y="688.8232">initParams()</text><polygon fill="#FFFF44" points="490.46,696.7734,494.46,700.7734,490.46,704.7734,486.46,700.7734" style="stroke:#B38D22;stroke-width:1.0;"/><text fill="#000000" font-family="sans-serif" font-size="14" lengthAdjust="spacing" textLength="78.0322" x="499.46" y="705.1201">initCostW()</text><polygon fill="#FFFF44" points="490.46,713.0703,494.46,717.0703,490.46,721.0703,486.46,717.0703" style="stroke:#B38D22;stroke-width:1.0;"/><text fill="#000000" font-family="sans-serif" font-size="14" lengthAdjust="spacing" textLength="121.3789" x="499.46" y="721.417">setControlMode()</text><polygon fill="#FFFF44" points="490.46,729.3672,494.46,733.3672,490.46,737.3672,486.46,733.3672" style="stroke:#B38D22;stroke-width:1.0;"/><text fill="#000000" font-family="sans-serif" font-size="14" lengthAdjust="spacing" textLength="108.3633" x="499.46" y="737.7139">initJointStates()</text><polygon fill="#FFFF44" points="490.46,745.6641,494.46,749.6641,490.46,753.6641,486.46,749.6641" style="stroke:#B38D22;stroke-width:1.0;"/><text fill="#000000" font-family="sans-serif" font-size="14" lengthAdjust="spacing" textLength="92.4697" x="499.46" y="754.0107">controlCore()</text><polygon fill="#FFFF44" points="490.46,761.9609,494.46,765.9609,490.46,769.9609,486.46,765.9609" style="stroke:#B38D22;stroke-width:1.0;"/><text fill="#000000" font-family="sans-serif" font-size="14" lengthAdjust="spacing" textLength="76.8906" x="499.46" y="770.3076">sendCmd()</text><polygon fill="#FFFF44" points="490.46,778.2578,494.46,782.2578,490.46,786.2578,486.46,782.2578" style="stroke:#B38D22;stroke-width:1.0;"/><text fill="#000000" font-family="sans-serif" font-size="14" lengthAdjust="spacing" textLength="130.0537" x="499.46" y="786.6045">prepareNMPCRef()</text><polygon fill="#FFFF44" points="490.46,794.5547,494.46,798.5547,490.46,802.5547,486.46,798.5547" style="stroke:#B38D22;stroke-width:1.0;"/><text fill="#000000" font-family="sans-serif" font-size="14" lengthAdjust="spacing" textLength="159.0723" x="499.46" y="802.9014">prepareNMPCParams()</text><polygon fill="#FFFF44" points="490.46,810.8516,494.46,814.8516,490.46,818.8516,486.46,814.8516" style="stroke:#B38D22;stroke-width:1.0;"/><text fill="#000000" font-family="sans-serif" font-size="14" lengthAdjust="spacing" textLength="89.0654" x="499.46" y="819.1982">callbackViz()</text><polygon fill="#FFFF44" points="490.46,827.1484,494.46,831.1484,490.46,835.1484,486.46,831.1484" style="stroke:#B38D22;stroke-width:1.0;"/><text fill="#000000" font-family="sans-serif" font-size="14" lengthAdjust="spacing" textLength="143.5479" x="499.46" y="835.4951">callbackJointStates()</text><polygon fill="#FFFF44" points="490.46,843.4453,494.46,847.4453,490.46,851.4453,486.46,847.4453" style="stroke:#B38D22;stroke-width:1.0;"/><text fill="#000000" font-family="sans-serif" font-size="14" lengthAdjust="spacing" textLength="117.9609" x="499.46" y="851.792">callbackSetRPY()</text><polygon fill="#FFFF44" points="490.46,859.7422,494.46,863.7422,490.46,867.7422,486.46,863.7422" style="stroke:#B38D22;stroke-width:1.0;"/><text fill="#000000" font-family="sans-serif" font-size="14" lengthAdjust="spacing" textLength="141.2852" x="499.46" y="868.0889">callbackSetRefTraj()</text><polygon fill="#FFFF44" points="490.46,876.0391,494.46,880.0391,490.46,884.0391,486.46,880.0391" style="stroke:#B38D22;stroke-width:1.0;"/><text fill="#000000" font-family="sans-serif" font-size="14" lengthAdjust="spacing" textLength="132.6104" x="499.46" y="884.3857">cfgNMPCCallback()</text><polygon fill="#FFFF44" points="490.46,892.3359,494.46,896.3359,490.46,900.3359,486.46,896.3359" style="stroke:#B38D22;stroke-width:1.0;"/><text fill="#000000" font-family="sans-serif" font-size="14" lengthAdjust="spacing" textLength="76.0225" x="499.46" y="900.6826">getOdom()</text><polygon fill="#FFFF44" points="490.46,908.6328,494.46,912.6328,490.46,916.6328,486.46,912.6328" style="stroke:#B38D22;stroke-width:1.0;"/><text fill="#000000" font-family="sans-serif" font-size="14" lengthAdjust="spacing" textLength="105.8682" x="499.46" y="916.9795">getCommand()</text><polygon fill="#FFFF44" points="490.46,924.9297,494.46,928.9297,490.46,932.9297,486.46,928.9297" style="stroke:#B38D22;stroke-width:1.0;"/><text fill="#000000" font-family="sans-serif" font-size="14" lengthAdjust="spacing" textLength="93.4336" x="499.46" y="933.2764">meas2VecX()</text><polygon fill="#FFFF44" points="490.46,941.2266,494.46,945.2266,490.46,949.2266,486.46,945.2266" style="stroke:#B38D22;stroke-width:1.0;"/><text fill="#000000" font-family="sans-serif" font-size="14" lengthAdjust="spacing" textLength="153.0566" x="499.46" y="949.5732">printPhysicalParams()</text><polygon fill="#FFFF44" points="490.46,957.5234,494.46,961.5234,490.46,965.5234,486.46,961.5234" style="stroke:#B38D22;stroke-width:1.0;"/><text fill="#000000" font-family="sans-serif" font-size="14" lengthAdjust="spacing" textLength="86.9395" x="499.46" y="965.8701">setXrUrRef()</text><polygon fill="#FFFF44" points="490.46,973.8203,494.46,977.8203,490.46,981.8203,486.46,977.8203" style="stroke:#B38D22;stroke-width:1.0;"/><text fill="#000000" font-family="sans-serif" font-size="14" lengthAdjust="spacing" textLength="103.1816" x="499.46" y="982.167">allocateToXU()</text></g><!--class TiltQdServoNMPCwITerm--><g id="elem_TiltQdServoNMPCwITerm"><rect codeLine="72" fill="#F1F1F1" height="162.0781" id="TiltQdServoNMPCwITerm" rx="2.5" ry="2.5" style="stroke:#181818;stroke-width:0.5;" width="206.7402" x="234.63" y="1049.47"/><ellipse cx="249.63" cy="1065.47" fill="#ADD1B2" rx="11" ry="11" style="stroke:#181818;stroke-width:1.0;"/><path d="M252.5988,1071.1106 Q252.0206,1071.4075 251.38,1071.5481 Q250.7394,1071.7044 250.0363,1071.7044 Q247.5363,1071.7044 246.2081,1070.0637 Q244.8956,1068.4075 244.8956,1065.2825 Q244.8956,1062.1575 246.2081,1060.5012 Q247.5363,1058.845 250.0363,1058.845 Q250.7394,1058.845 251.38,1059.0012 Q252.0363,1059.1575 252.5988,1059.4544 L252.5988,1062.1731 Q251.9738,1061.595 251.38,1061.3294 Q250.7863,1061.0481 250.1613,1061.0481 Q248.8175,1061.0481 248.13,1062.1262 Q247.4425,1063.1887 247.4425,1065.2825 Q247.4425,1067.3762 248.13,1068.4544 Q248.8175,1069.5169 250.1613,1069.5169 Q250.7863,1069.5169 251.38,1069.2512 Q251.9738,1068.97 252.5988,1068.3919 L252.5988,1071.1106 Z " fill="#000000"/><text fill="#000000" font-family="sans-serif" font-size="14" lengthAdjust="spacing" textLength="174.7402" x="263.63" y="1070.3167">TiltQdServoNMPCwITerm</text><line style="stroke:#181818;stroke-width:0.5;" x1="235.63" x2="440.3702" y1="1081.47" y2="1081.47"/><line style="stroke:#181818;stroke-width:0.5;" x1="235.63" x2="440.3702" y1="1089.47" y2="1089.47"/><ellipse cx="245.63" cy="1103.1184" fill="#84BE84" rx="3" ry="3" style="stroke:#038048;stroke-width:1.0;"/><text fill="#000000" font-family="sans-serif" font-size="14" lengthAdjust="spacing" textLength="69.2754" x="254.63" y="1106.4651">initialize()</text><polygon fill="#FFFF44" points="245.63,1114.4153,249.63,1118.4153,245.63,1122.4153,241.63,1118.4153" style="stroke:#B38D22;stroke-width:1.0;"/><text fill="#000000" font-family="sans-serif" font-size="14" lengthAdjust="spacing" textLength="85.3535" x="254.63" y="1122.762">initParams()</text><polygon fill="#FFFF44" points="245.63,1130.7122,249.63,1134.7122,245.63,1138.7122,241.63,1134.7122" style="stroke:#B38D22;stroke-width:1.0;"/><text fill="#000000" font-family="sans-serif" font-size="14" lengthAdjust="spacing" textLength="127.0459" x="254.63" y="1139.0589">initMPCSolverPtr()</text><polygon fill="#FFFF44" points="245.63,1147.0091,249.63,1151.0091,245.63,1155.0091,241.63,1151.0091" style="stroke:#B38D22;stroke-width:1.0;"/><text fill="#000000" font-family="sans-serif" font-size="14" lengthAdjust="spacing" textLength="159.0723" x="254.63" y="1155.3557">prepareNMPCParams()</text><polygon fill="#FFFF44" points="245.63,1163.3059,249.63,1167.3059,245.63,1171.3059,241.63,1167.3059" style="stroke:#B38D22;stroke-width:1.0;"/><text fill="#000000" font-family="sans-serif" font-size="14" lengthAdjust="spacing" textLength="143.4111" x="254.63" y="1171.6526">calcDisturbWrench()</text><polygon fill="#FFFF44" points="245.63,1179.6028,249.63,1183.6028,245.63,1187.6028,241.63,1183.6028" style="stroke:#B38D22;stroke-width:1.0;"/><text fill="#000000" font-family="sans-serif" font-size="14" lengthAdjust="spacing" textLength="89.0654" x="254.63" y="1187.9495">callbackViz()</text><polygon fill="#FFFF44" points="245.63,1195.8997,249.63,1199.8997,245.63,1203.8997,241.63,1199.8997" style="stroke:#B38D22;stroke-width:1.0;"/><text fill="#000000" font-family="sans-serif" font-size="14" lengthAdjust="spacing" textLength="132.6104" x="254.63" y="1204.2464">cfgNMPCCallback()</text></g><!--class TiltQdServoNMPCwEKF--><g id="elem_TiltQdServoNMPCwEKF"><rect codeLine="83" fill="#F1F1F1" height="113.1875" id="TiltQdServoNMPCwEKF" rx="2.5" ry="2.5" style="stroke:#181818;stroke-width:0.5;" width="192.1318" x="475.93" y="1073.92"/><ellipse cx="490.93" cy="1089.92" fill="#ADD1B2" rx="11" ry="11" style="stroke:#181818;stroke-width:1.0;"/><path d="M493.8988,1095.5606 Q493.3206,1095.8575 492.68,1095.9981 Q492.0394,1096.1544 491.3363,1096.1544 Q488.8363,1096.1544 487.5081,1094.5137 Q486.1956,1092.8575 486.1956,1089.7325 Q486.1956,1086.6075 487.5081,1084.9512 Q488.8363,1083.295 491.3363,1083.295 Q492.0394,1083.295 492.68,1083.4512 Q493.3363,1083.6075 493.8988,1083.9044 L493.8988,1086.6231 Q493.2738,1086.045 492.68,1085.7794 Q492.0863,1085.4981 491.4613,1085.4981 Q490.1175,1085.4981 489.43,1086.5762 Q488.7425,1087.6387 488.7425,1089.7325 Q488.7425,1091.8262 489.43,1092.9044 Q490.1175,1093.9669 491.4613,1093.9669 Q492.0863,1093.9669 492.68,1093.7012 Q493.2738,1093.42 493.8988,1092.8419 L493.8988,1095.5606 Z " fill="#000000"/><text fill="#000000" font-family="sans-serif" font-size="14" lengthAdjust="spacing" textLength="160.1318" x="504.93" y="1094.7667">TiltQdServoNMPCwEKF</text><line style="stroke:#181818;stroke-width:0.5;" x1="476.93" x2="667.0618" y1="1105.92" y2="1105.92"/><text fill="#000000" font-family="sans-serif" font-size="14" lengthAdjust="spacing" textLength="72.9941" x="481.93" y="1122.9151">unfinished</text><line style="stroke:#181818;stroke-width:0.5;" x1="476.93" x2="667.0618" y1="1130.2169" y2="1130.2169"/><ellipse cx="486.93" cy="1143.8653" fill="#84BE84" rx="3" ry="3" style="stroke:#038048;stroke-width:1.0;"/><text fill="#000000" font-family="sans-serif" font-size="14" lengthAdjust="spacing" textLength="69.2754" x="495.93" y="1147.212">initialize()</text><ellipse cx="486.93" cy="1160.1622" fill="#84BE84" rx="3" ry="3" style="stroke:#038048;stroke-width:1.0;"/><text fill="#000000" font-family="sans-serif" font-size="14" lengthAdjust="spacing" textLength="60.252" x="495.93" y="1163.5089">update()</text><ellipse cx="486.93" cy="1176.4591" fill="#84BE84" rx="3" ry="3" style="stroke:#038048;stroke-width:1.0;"/><text fill="#000000" font-family="sans-serif" font-size="14" lengthAdjust="spacing" textLength="46.6895" x="495.93" y="1179.8057">reset()</text></g><!--class TiltQdServoNMPCwMHE--><g id="elem_TiltQdServoNMPCwMHE"><rect codeLine="91" fill="#F1F1F1" height="145.7813" id="TiltQdServoNMPCwMHE" rx="2.5" ry="2.5" style="stroke:#181818;stroke-width:0.5;" width="214.1592" x="259.92" y="1271.55"/><ellipse cx="282.4144" cy="1287.55" fill="#ADD1B2" rx="11" ry="11" style="stroke:#181818;stroke-width:1.0;"/><path d="M285.3832,1293.1906 Q284.8051,1293.4875 284.1644,1293.6281 Q283.5238,1293.7844 282.8207,1293.7844 Q280.3207,1293.7844 278.9926,1292.1438 Q277.6801,1290.4875 277.6801,1287.3625 Q277.6801,1284.2375 278.9926,1282.5813 Q280.3207,1280.925 282.8207,1280.925 Q283.5238,1280.925 284.1644,1281.0813 Q284.8207,1281.2375 285.3832,1281.5344 L285.3832,1284.2531 Q284.7582,1283.675 284.1644,1283.4094 Q283.5707,1283.1281 282.9457,1283.1281 Q281.6019,1283.1281 280.9144,1284.2063 Q280.2269,1285.2688 280.2269,1287.3625 Q280.2269,1289.4563 280.9144,1290.5344 Q281.6019,1291.5969 282.9457,1291.5969 Q283.5707,1291.5969 284.1644,1291.3313 Q284.7582,1291.05 285.3832,1290.4719 L285.3832,1293.1906 Z " fill="#000000"/><text fill="#000000" font-family="sans-serif" font-size="14" lengthAdjust="spacing" textLength="165.5049" x="298.0799" y="1292.3967">TiltQdServoNMPCwMHE</text><line style="stroke:#181818;stroke-width:0.5;" x1="260.92" x2="473.0792" y1="1303.55" y2="1303.55"/><text fill="#000000" font-family="sans-serif" font-size="14" lengthAdjust="spacing" textLength="72.9941" x="265.92" y="1320.5451">unfinished</text><line style="stroke:#181818;stroke-width:0.5;" x1="260.92" x2="473.0792" y1="1327.8469" y2="1327.8469"/><ellipse cx="270.92" cy="1341.4953" fill="#84BE84" rx="3" ry="3" style="stroke:#038048;stroke-width:1.0;"/><text fill="#000000" font-family="sans-serif" font-size="14" lengthAdjust="spacing" textLength="176.4287" x="279.92" y="1344.842">TiltQdServoNMPCwMHE()</text><ellipse cx="270.92" cy="1357.7922" fill="#84BE84" rx="3" ry="3" style="stroke:#038048;stroke-width:1.0;"/><text fill="#000000" font-family="sans-serif" font-size="14" lengthAdjust="spacing" textLength="188.1592" x="279.92" y="1361.1389">~TiltQdServoNMPCwMHE()</text><ellipse cx="270.92" cy="1374.0891" fill="#84BE84" rx="3" ry="3" style="stroke:#038048;stroke-width:1.0;"/><text fill="#000000" font-family="sans-serif" font-size="14" lengthAdjust="spacing" textLength="69.2754" x="279.92" y="1377.4357">initialize()</text><ellipse cx="270.92" cy="1390.3859" fill="#84BE84" rx="3" ry="3" style="stroke:#038048;stroke-width:1.0;"/><text fill="#000000" font-family="sans-serif" font-size="14" lengthAdjust="spacing" textLength="60.252" x="279.92" y="1393.7326">update()</text><ellipse cx="270.92" cy="1406.6828" fill="#84BE84" rx="3" ry="3" style="stroke:#038048;stroke-width:1.0;"/><text fill="#000000" font-family="sans-serif" font-size="14" lengthAdjust="spacing" textLength="46.6895" x="279.92" y="1410.0295">reset()</text></g><!--class TiltQdServoThrustNMPCwEKF--><g id="elem_TiltQdServoThrustNMPCwEKF"><rect codeLine="101" fill="#F1F1F1" height="145.7813" id="TiltQdServoThrustNMPCwEKF" rx="2.5" ry="2.5" style="stroke:#181818;stroke-width:0.5;" width="253.623" x="509.19" y="1271.55"/><ellipse cx="531.6844" cy="1287.55" fill="#ADD1B2" rx="11" ry="11" style="stroke:#181818;stroke-width:1.0;"/><path d="M534.6532,1293.1906 Q534.0751,1293.4875 533.4344,1293.6281 Q532.7938,1293.7844 532.0907,1293.7844 Q529.5907,1293.7844 528.2626,1292.1438 Q526.9501,1290.4875 526.9501,1287.3625 Q526.9501,1284.2375 528.2626,1282.5813 Q529.5907,1280.925 532.0907,1280.925 Q532.7938,1280.925 533.4344,1281.0813 Q534.0907,1281.2375 534.6532,1281.5344 L534.6532,1284.2531 Q534.0282,1283.675 533.4344,1283.4094 Q532.8407,1283.1281 532.2157,1283.1281 Q530.8719,1283.1281 530.1844,1284.2063 Q529.4969,1285.2688 529.4969,1287.3625 Q529.4969,1289.4563 530.1844,1290.5344 Q530.8719,1291.5969 532.2157,1291.5969 Q532.8407,1291.5969 533.4344,1291.3313 Q534.0282,1291.05 534.6532,1290.4719 L534.6532,1293.1906 Z " fill="#000000"/><text fill="#000000" font-family="sans-serif" font-size="14" lengthAdjust="spacing" textLength="204.9688" x="547.3499" y="1292.3967">TiltQdServoThrustNMPCwEKF</text><line style="stroke:#181818;stroke-width:0.5;" x1="510.19" x2="761.813" y1="1303.55" y2="1303.55"/><text fill="#000000" font-family="sans-serif" font-size="14" lengthAdjust="spacing" textLength="72.9941" x="515.19" y="1320.5451">unfinished</text><line style="stroke:#181818;stroke-width:0.5;" x1="510.19" x2="761.813" y1="1327.8469" y2="1327.8469"/><ellipse cx="520.19" cy="1341.4953" fill="#84BE84" rx="3" ry="3" style="stroke:#038048;stroke-width:1.0;"/><text fill="#000000" font-family="sans-serif" font-size="14" lengthAdjust="spacing" textLength="215.8926" x="529.19" y="1344.842">TiltQdServoThrustNMPCwEKF()</text><ellipse cx="520.19" cy="1357.7922" fill="#84BE84" rx="3" ry="3" style="stroke:#038048;stroke-width:1.0;"/><text fill="#000000" font-family="sans-serif" font-size="14" lengthAdjust="spacing" textLength="227.623" x="529.19" y="1361.1389">~TiltQdServoThrustNMPCwEKF()</text><ellipse cx="520.19" cy="1374.0891" fill="#84BE84" rx="3" ry="3" style="stroke:#038048;stroke-width:1.0;"/><text fill="#000000" font-family="sans-serif" font-size="14" lengthAdjust="spacing" textLength="69.2754" x="529.19" y="1377.4357">initialize()</text><ellipse cx="520.19" cy="1390.3859" fill="#84BE84" rx="3" ry="3" style="stroke:#038048;stroke-width:1.0;"/><text fill="#000000" font-family="sans-serif" font-size="14" lengthAdjust="spacing" textLength="60.252" x="529.19" y="1393.7326">update()</text><ellipse cx="520.19" cy="1406.6828" fill="#84BE84" rx="3" ry="3" style="stroke:#038048;stroke-width:1.0;"/><text fill="#000000" font-family="sans-serif" font-size="14" lengthAdjust="spacing" textLength="46.6895" x="529.19" y="1410.0295">reset()</text></g><!--class TiltTriServoNMPC--><g id="elem_TiltTriServoNMPC"><rect codeLine="111" fill="#F1F1F1" height="80.5938" id="TiltTriServoNMPC" rx="2.5" ry="2.5" style="stroke:#181818;stroke-width:0.5;" width="153.0459" x="703.48" y="1090.21"/><ellipse cx="718.5486" cy="1106.21" fill="#ADD1B2" rx="11" ry="11" style="stroke:#181818;stroke-width:1.0;"/><path d="M721.5173,1111.8506 Q720.9392,1112.1475 720.2986,1112.2881 Q719.6579,1112.4444 718.9548,1112.4444 Q716.4548,1112.4444 715.1267,1110.8038 Q713.8142,1109.1475 713.8142,1106.0225 Q713.8142,1102.8975 715.1267,1101.2413 Q716.4548,1099.585 718.9548,1099.585 Q719.6579,1099.585 720.2986,1099.7413 Q720.9548,1099.8975 721.5173,1100.1944 L721.5173,1102.9131 Q720.8923,1102.335 720.2986,1102.0694 Q719.7048,1101.7881 719.0798,1101.7881 Q717.7361,1101.7881 717.0486,1102.8663 Q716.3611,1103.9288 716.3611,1106.0225 Q716.3611,1108.1163 717.0486,1109.1944 Q717.7361,1110.2569 719.0798,1110.2569 Q719.7048,1110.2569 720.2986,1109.9913 Q720.8923,1109.71 721.5173,1109.1319 L721.5173,1111.8506 Z " fill="#000000"/><text fill="#000000" font-family="sans-serif" font-size="14" lengthAdjust="spacing" textLength="120.8936" x="732.5638" y="1111.0567">TiltTriServoNMPC</text><line style="stroke:#181818;stroke-width:0.5;" x1="704.48" x2="855.5259" y1="1122.21" y2="1122.21"/><line style="stroke:#181818;stroke-width:0.5;" x1="704.48" x2="855.5259" y1="1130.21" y2="1130.21"/><polygon fill="#FFFF44" points="714.48,1138.8584,718.48,1142.8584,714.48,1146.8584,710.48,1142.8584" style="stroke:#B38D22;stroke-width:1.0;"/><text fill="#000000" font-family="sans-serif" font-size="14" lengthAdjust="spacing" textLength="127.0459" x="723.48" y="1147.2051">initMPCSolverPtr()</text><polygon fill="#FFFF44" points="714.48,1155.1553,718.48,1159.1553,714.48,1163.1553,710.48,1159.1553" style="stroke:#B38D22;stroke-width:1.0;"/><text fill="#000000" font-family="sans-serif" font-size="14" lengthAdjust="spacing" textLength="92.832" x="723.48" y="1163.502">initAllocMat()</text></g><!--class TiltBiServoNMPC--><g id="elem_TiltBiServoNMPC"><rect codeLine="117" fill="#F1F1F1" height="80.5938" id="TiltBiServoNMPC" rx="2.5" ry="2.5" style="stroke:#181818;stroke-width:0.5;" width="153.0459" x="891.48" y="1090.21"/><ellipse cx="908.665" cy="1106.21" fill="#ADD1B2" rx="11" ry="11" style="stroke:#181818;stroke-width:1.0;"/><path d="M911.6337,1111.8506 Q911.0556,1112.1475 910.415,1112.2881 Q909.7743,1112.4444 909.0712,1112.4444 Q906.5712,1112.4444 905.2431,1110.8038 Q903.9306,1109.1475 903.9306,1106.0225 Q903.9306,1102.8975 905.2431,1101.2413 Q906.5712,1099.585 909.0712,1099.585 Q909.7743,1099.585 910.415,1099.7413 Q911.0712,1099.8975 911.6337,1100.1944 L911.6337,1102.9131 Q911.0087,1102.335 910.415,1102.0694 Q909.8212,1101.7881 909.1962,1101.7881 Q907.8525,1101.7881 907.165,1102.8663 Q906.4775,1103.9288 906.4775,1106.0225 Q906.4775,1108.1163 907.165,1109.1944 Q907.8525,1110.2569 909.1962,1110.2569 Q909.8212,1110.2569 910.415,1109.9913 Q911.0087,1109.71 911.6337,1109.1319 L911.6337,1111.8506 Z " fill="#000000"/><text fill="#000000" font-family="sans-serif" font-size="14" lengthAdjust="spacing" textLength="116.1904" x="923.1505" y="1111.0567">TiltBiServoNMPC</text><line style="stroke:#181818;stroke-width:0.5;" x1="892.48" x2="1043.5259" y1="1122.21" y2="1122.21"/><line style="stroke:#181818;stroke-width:0.5;" x1="892.48" x2="1043.5259" y1="1130.21" y2="1130.21"/><polygon fill="#FFFF44" points="902.48,1138.8584,906.48,1142.8584,902.48,1146.8584,898.48,1142.8584" style="stroke:#B38D22;stroke-width:1.0;"/><text fill="#000000" font-family="sans-serif" font-size="14" lengthAdjust="spacing" textLength="127.0459" x="911.48" y="1147.2051">initMPCSolverPtr()</text><polygon fill="#FFFF44" points="902.48,1155.1553,906.48,1159.1553,902.48,1163.1553,898.48,1159.1553" style="stroke:#B38D22;stroke-width:1.0;"/><text fill="#000000" font-family="sans-serif" font-size="14" lengthAdjust="spacing" textLength="92.832" x="911.48" y="1163.502">initAllocMat()</text></g><!--class TiltBi2OrdServoNMPC--><g id="elem_TiltBi2OrdServoNMPC"><rect codeLine="123" fill="#F1F1F1" height="145.7813" id="TiltBi2OrdServoNMPC" rx="2.5" ry="2.5" style="stroke:#181818;stroke-width:0.5;" width="182.7598" x="862.62" y="1271.55"/><ellipse cx="877.62" cy="1287.55" fill="#ADD1B2" rx="11" ry="11" style="stroke:#181818;stroke-width:1.0;"/><path d="M880.5888,1293.1906 Q880.0106,1293.4875 879.37,1293.6281 Q878.7294,1293.7844 878.0263,1293.7844 Q875.5263,1293.7844 874.1981,1292.1438 Q872.8856,1290.4875 872.8856,1287.3625 Q872.8856,1284.2375 874.1981,1282.5813 Q875.5263,1280.925 878.0263,1280.925 Q878.7294,1280.925 879.37,1281.0813 Q880.0263,1281.2375 880.5888,1281.5344 L880.5888,1284.2531 Q879.9638,1283.675 879.37,1283.4094 Q878.7763,1283.1281 878.1513,1283.1281 Q876.8075,1283.1281 876.12,1284.2063 Q875.4325,1285.2688 875.4325,1287.3625 Q875.4325,1289.4563 876.12,1290.5344 Q876.8075,1291.5969 878.1513,1291.5969 Q878.7763,1291.5969 879.37,1291.3313 Q879.9638,1291.05 880.5888,1290.4719 L880.5888,1293.1906 Z " fill="#000000"/><text fill="#000000" font-family="sans-serif" font-size="14" lengthAdjust="spacing" textLength="150.7598" x="891.62" y="1292.3967">TiltBi2OrdServoNMPC</text><line style="stroke:#181818;stroke-width:0.5;" x1="863.62" x2="1044.3798" y1="1303.55" y2="1303.55"/><line style="stroke:#181818;stroke-width:0.5;" x1="863.62" x2="1044.3798" y1="1311.55" y2="1311.55"/><polygon fill="#FFFF44" points="873.62,1320.1984,877.62,1324.1984,873.62,1328.1984,869.62,1324.1984" style="stroke:#B38D22;stroke-width:1.0;"/><text fill="#000000" font-family="sans-serif" font-size="14" lengthAdjust="spacing" textLength="127.0459" x="882.62" y="1328.5451">initMPCSolverPtr()</text><polygon fill="#FFFF44" points="873.62,1336.4953,877.62,1340.4953,873.62,1344.4953,869.62,1340.4953" style="stroke:#B38D22;stroke-width:1.0;"/><text fill="#000000" font-family="sans-serif" font-size="14" lengthAdjust="spacing" textLength="78.0322" x="882.62" y="1344.842">initCostW()</text><polygon fill="#FFFF44" points="873.62,1352.7922,877.62,1356.7922,873.62,1360.7922,869.62,1356.7922" style="stroke:#B38D22;stroke-width:1.0;"/><text fill="#000000" font-family="sans-serif" font-size="14" lengthAdjust="spacing" textLength="108.3633" x="882.62" y="1361.1389">initJointStates()</text><polygon fill="#FFFF44" points="873.62,1369.0891,877.62,1373.0891,873.62,1377.0891,869.62,1373.0891" style="stroke:#B38D22;stroke-width:1.0;"/><text fill="#000000" font-family="sans-serif" font-size="14" lengthAdjust="spacing" textLength="93.4336" x="882.62" y="1377.4357">meas2VecX()</text><polygon fill="#FFFF44" points="873.62,1385.3859,877.62,1389.3859,873.62,1393.3859,869.62,1389.3859" style="stroke:#B38D22;stroke-width:1.0;"/><text fill="#000000" font-family="sans-serif" font-size="14" lengthAdjust="spacing" textLength="143.5479" x="882.62" y="1393.7326">callbackJointStates()</text><polygon fill="#FFFF44" points="873.62,1401.6828,877.62,1405.6828,873.62,1409.6828,869.62,1405.6828" style="stroke:#B38D22;stroke-width:1.0;"/><text fill="#000000" font-family="sans-serif" font-size="14" lengthAdjust="spacing" textLength="132.6104" x="882.62" y="1410.0295">cfgNMPCCallback()</text></g><!--reverse link ControlBase to BaseMPC--><g id="link_ControlBase_BaseMPC"><path d="M572,221.4 C572,240.54 572,243.15 572,262.93 " fill="none" id="ControlBase-backto-BaseMPC" style="stroke:#181818;stroke-width:1.0;"/><polygon fill="none" points="572,203.4,566,221.4,578,221.4,572,203.4" style="stroke:#181818;stroke-width:1.0;"/></g><!--reverse link TiltQdServoNMPC to FixQdNMPC--><g id="link_TiltQdServoNMPC_FixQdNMPC"><path d="M465.1867,842.7587 C393.4167,902.0887 305.6,974.96 217,1049.47 C201.42,1062.58 184.45,1076.98 169.28,1089.91 " fill="none" id="TiltQdServoNMPC-backto-FixQdNMPC" style="stroke:#181818;stroke-width:1.0;"/><polygon fill="none" points="479.06,831.29,461.3638,838.1342,469.0095,847.3831,479.06,831.29" style="stroke:#181818;stroke-width:1.0;"/></g><!--reverse link BaseMPC to TiltQdServoNMPC--><g id="link_BaseMPC_TiltQdServoNMPC"><path d="M572,476.12 C572,494.67 572,496.83 572,517.62 " fill="none" id="BaseMPC-backto-TiltQdServoNMPC" style="stroke:#181818;stroke-width:1.0;"/><polygon fill="none" points="572,458.12,566,476.12,578,476.12,572,458.12" style="stroke:#181818;stroke-width:1.0;"/></g><!--reverse link TiltQdServoNMPC to TiltQdServoNMPCwITerm--><g id="link_TiltQdServoNMPC_TiltQdServoNMPCwITerm"><path d="M469.4791,918.8597 C438.4891,968.5097 414.69,1006.65 388.21,1049.07 " fill="none" id="TiltQdServoNMPC-backto-TiltQdServoNMPCwITerm" style="stroke:#181818;stroke-width:1.0;"/><polygon fill="none" points="479.01,903.59,464.3893,915.6827,474.569,922.0366,479.01,903.59" style="stroke:#181818;stroke-width:1.0;"/></g><!--reverse link TiltQdServoNMPC to TiltQdServoNMPCwEKF--><g id="link_TiltQdServoNMPC_TiltQdServoNMPCwEKF"><path d="M572,1007.91 C572,1038.95 572,1050.12 572,1073.68 " fill="none" id="TiltQdServoNMPC-backto-TiltQdServoNMPCwEKF" style="stroke:#181818;stroke-width:1.0;"/><polygon fill="none" points="572,989.91,566,1007.91,578,1007.91,572,989.91" style="stroke:#181818;stroke-width:1.0;"/></g><!--reverse link TiltQdServoNMPCwEKF to TiltQdServoNMPCwMHE--><g id="link_TiltQdServoNMPCwEKF_TiltQdServoNMPCwMHE"><path d="M505.3559,1200.4082 C480.5659,1226.0382 463.39,1243.79 436.93,1271.15 " fill="none" id="TiltQdServoNMPCwEKF-backto-TiltQdServoNMPCwMHE" style="stroke:#181818;stroke-width:1.0;"/><polygon fill="none" points="517.87,1187.47,501.0431,1196.2368,509.6686,1204.5796,517.87,1187.47" style="stroke:#181818;stroke-width:1.0;"/></g><!--reverse link TiltQdServoNMPCwEKF to TiltQdServoThrustNMPCwEKF--><g id="link_TiltQdServoNMPCwEKF_TiltQdServoThrustNMPCwEKF"><path d="M594.1037,1204.7014 C601.8437,1230.3314 605.91,1243.79 614.17,1271.15 " fill="none" id="TiltQdServoNMPCwEKF-backto-TiltQdServoThrustNMPCwEKF" style="stroke:#181818;stroke-width:1.0;"/><polygon fill="none" points="588.9,1187.47,588.3599,1206.436,599.8475,1202.9668,588.9,1187.47" style="stroke:#181818;stroke-width:1.0;"/></g><!--reverse link TiltQdServoNMPC to TiltTriServoNMPC--><g id="link_TiltQdServoNMPC_TiltTriServoNMPC"><path d="M673.6323,937.79 C708.1623,1000.03 735.61,1049.51 757.98,1089.83 " fill="none" id="TiltQdServoNMPC-backto-TiltTriServoNMPC" style="stroke:#181818;stroke-width:1.0;"/><polygon fill="none" points="664.9,922.05,668.3857,940.7007,678.879,934.8792,664.9,922.05" style="stroke:#181818;stroke-width:1.0;"/></g><!--reverse link TiltQdServoNMPC to TiltBiServoNMPC--><g id="link_TiltQdServoNMPC_TiltBiServoNMPC"><path d="M677.9116,854.8847 C760.4416,933.0147 864.23,1031.27 925.98,1089.73 " fill="none" id="TiltQdServoNMPC-backto-TiltBiServoNMPC" style="stroke:#181818;stroke-width:1.0;"/><polygon fill="none" points="664.84,842.51,673.7867,859.2419,682.0365,850.5275,664.84,842.51" style="stroke:#181818;stroke-width:1.0;"/></g><!--reverse link TiltBiServoNMPC to TiltBi2OrdServoNMPC--><g id="link_TiltBiServoNMPC_TiltBi2OrdServoNMPC"><path d="M964.2124,1188.8408 C962.3524,1216.9708 960.99,1237.67 958.77,1271.27 " fill="none" id="TiltBiServoNMPC-backto-TiltBi2OrdServoNMPC" style="stroke:#181818;stroke-width:1.0;"/><polygon fill="none" points="965.4,1170.88,958.2255,1188.4449,970.1993,1189.2366,965.4,1170.88" style="stroke:#181818;stroke-width:1.0;"/></g><!--SRC=[jLPRSjCm5FttAZJJ3yDGA6sXPJp033Njy9ZGbBWFlZAAfIG2o_9StOJG3bq1Is9FR04vTlr8xCH9Md_PHx9qphaFoHuYHjhPsOa26k981izy9NVyW6hzb0aw02ejItCa8PLSHzJd7HvHeAY0E8vbqPv6e3wIwI-4SX0qw8BgAUpwAaHGWUEuoSiHrPpSMCGyJqW1U_GunMwhG14AD6kAwnmQHOnY_ccs5-CY0DmmJh-s279fn25_dL3qtfAn4emCEBQD46dc_Mwe8vIHxpWnkrRR9No2F6JDDMyHytjNgs3CeHiXT5Cq5jW6pgxECyenPBReJEUs4R81dmP1Z_e_EXo_yhu7z7is14fVdUzTSB-mZkHKJw5yWOIMgu1dc3OoNCdcDhaGruavopqv4PCpzcMvAybiJmHunZeSnchwpurbJxfCIFA6xEvlar7w_cARH7UlzZ9due5tGQ3y5iM4jRsSTaAaCUzSfM5SIVcLRTb93kPB6pOfTbi5blBRdabmkvpGTgDWpDhRHDfTKXT3SLZGDHUAEuNPDdaLrmqih-HouJQDTQ6CueBM9SXL6YyBgOvfOROKuwM9dvG8iOE6ZbwfMYA86oAFbPgIh89dM9NBgunLaYZKVFjRarRWzmVnlcuw8yDDopjbIXQ_NIKb3Tc2ZX61eTGU_jB2x3WZnTXv1UTGr4tZk1Z-dfhseNKIzkT7ZuFSk9CKq_VVtpzP0ky-j-iIiZQBAjDmOOZzzqBZ27gNm4D_k3ZuS-5QoxNZpoURUhQtNrVoex1lVD13pbOkvhN4j3uShoDcQi9wWYeOrBQqqk33EU4DOQHna-3E-N6uZXzb7fMkr4nv06yy4AiTROjwn45kny5cjurcv8_kaVlBUxifDUM-TmfiTVv5pJNzUMN-vLEzxlYkkFukEcVds_1_]--></g></svg>