<svg xmlns="http://www.w3.org/2000/svg" xmlns:xlink="http://www.w3.org/1999/xlink" contentStyleType="text/css" height="1464px" preserveAspectRatio="none" style="width:903px;height:1464px;background:#FFFFFF;" version="1.1" viewBox="0 0 903 1464" width="903px" zoomAndPan="magnify"><defs/><g><!--cluster aerial_robot_control--><g id="cluster_aerial_robot_control"><path d="M8.5,6 L167.1436,6 A3.75,3.75 0 0 1 169.6436,8.5 L176.6436,28.2969 L893.5,28.2969 A2.5,2.5 0 0 1 896,30.7969 L896,1454.83 A2.5,2.5 0 0 1 893.5,1457.33 L8.5,1457.33 A2.5,2.5 0 0 1 6,1454.83 L6,8.5 A2.5,2.5 0 0 1 8.5,6 " fill="none" style="stroke:#000000;stroke-width:1.5;"/><line style="stroke:#000000;stroke-width:1.5;" x1="6" x2="176.6436" y1="28.2969" y2="28.2969"/><text fill="#000000" font-family="sans-serif" font-size="14" font-weight="bold" lengthAdjust="spacing" textLength="157.6436" x="10" y="20.9951">aerial_robot_control</text></g><!--cluster nmpc--><g id="cluster_nmpc"><path d="M32.5,228.08 L76.375,228.08 A3.75,3.75 0 0 1 78.875,230.58 L85.875,250.3769 L869.5,250.3769 A2.5,2.5 0 0 1 872,252.8769 L872,1430.83 A2.5,2.5 0 0 1 869.5,1433.33 L32.5,1433.33 A2.5,2.5 0 0 1 30,1430.83 L30,230.58 A2.5,2.5 0 0 1 32.5,228.08 " fill="none" style="stroke:#000000;stroke-width:1.5;"/><line style="stroke:#000000;stroke-width:1.5;" x1="30" x2="85.875" y1="250.3769" y2="250.3769"/><text fill="#000000" font-family="sans-serif" font-size="14" font-weight="bold" lengthAdjust="spacing" textLength="42.875" x="34" y="243.0751">nmpc</text></g><!--class ControlBase--><g id="elem_ControlBase"><rect codeLine="5" fill="#F1F1F1" height="162.0781" id="ControlBase" rx="2.5" ry="2.5" style="stroke:#181818;stroke-width:0.5;" width="277.8496" x="252.08" y="41"/><ellipse cx="344.2524" cy="57" fill="#A9DCDF" rx="11" ry="11" style="stroke:#181818;stroke-width:1.0;"/><path d="M344.3617,52.3438 L343.2055,57.4219 L345.5336,57.4219 L344.3617,52.3438 Z M342.8774,50.1094 L345.8617,50.1094 L349.2211,62.5 L346.768,62.5 L346.0024,59.4375 L342.7211,59.4375 L341.9711,62.5 L339.5336,62.5 L342.8774,50.1094 Z " fill="#000000"/><text fill="#000000" font-family="sans-serif" font-size="14" font-style="italic" lengthAdjust="spacing" textLength="85.0049" x="364.7524" y="61.8467">ControlBase</text><line style="stroke:#181818;stroke-width:0.5;" x1="253.08" x2="528.9296" y1="73" y2="73"/><line style="stroke:#181818;stroke-width:0.5;" x1="253.08" x2="528.9296" y1="81" y2="81"/><ellipse cx="263.08" cy="94.6484" fill="#84BE84" rx="3" ry="3" style="stroke:#038048;stroke-width:1.0;"/><text fill="#000000" font-family="sans-serif" font-size="14" lengthAdjust="spacing" textLength="95.9287" x="272.08" y="97.9951">ControlBase()</text><ellipse cx="263.08" cy="110.9453" fill="#84BE84" rx="3" ry="3" style="stroke:#038048;stroke-width:1.0;"/><text fill="#000000" font-family="sans-serif" font-size="14" lengthAdjust="spacing" textLength="107.6592" x="272.08" y="114.292">~ControlBase()</text><ellipse cx="263.08" cy="127.2422" fill="#84BE84" rx="3" ry="3" style="stroke:#038048;stroke-width:1.0;"/><text fill="#000000" font-family="sans-serif" font-size="14" lengthAdjust="spacing" textLength="69.2754" x="272.08" y="130.5889">initialize()</text><ellipse cx="263.08" cy="143.5391" fill="#84BE84" rx="3" ry="3" style="stroke:#038048;stroke-width:1.0;"/><text fill="#000000" font-family="sans-serif" font-size="14" lengthAdjust="spacing" textLength="60.252" x="272.08" y="146.8857">update()</text><ellipse cx="263.08" cy="159.8359" fill="#84BE84" rx="3" ry="3" style="stroke:#038048;stroke-width:1.0;"/><text fill="#000000" font-family="sans-serif" font-size="14" lengthAdjust="spacing" textLength="67.5459" x="272.08" y="163.1826">activate()</text><ellipse cx="263.08" cy="176.1328" fill="#84BE84" rx="3" ry="3" style="stroke:#038048;stroke-width:1.0;"/><text fill="#000000" font-family="sans-serif" font-size="14" lengthAdjust="spacing" textLength="46.6895" x="272.08" y="179.4795">reset()</text><polygon fill="#FFFF44" points="263.08,187.4297,267.08,191.4297,263.08,195.4297,259.08,191.4297" style="stroke:#B38D22;stroke-width:1.0;"/><text fill="#000000" font-family="sans-serif" font-size="14" lengthAdjust="spacing" textLength="251.8496" x="272.08" y="195.7764">template&lt;class T&gt; void getParam()</text></g><!--class BaseMPC--><g id="elem_BaseMPC"><rect codeLine="15" fill="#F1F1F1" height="194.6719" id="BaseMPC" rx="2.5" ry="2.5" style="stroke:#181818;stroke-width:0.5;" width="167.2852" x="307.36" y="263.08"/><ellipse cx="354.5587" cy="279.08" fill="#A9DCDF" rx="11" ry="11" style="stroke:#181818;stroke-width:1.0;"/><path d="M354.6681,274.4237 L353.5119,279.5019 L355.84,279.5019 L354.6681,274.4237 Z M353.1837,272.1894 L356.1681,272.1894 L359.5275,284.58 L357.0744,284.58 L356.3087,281.5175 L353.0275,281.5175 L352.2775,284.58 L349.84,284.58 L353.1837,272.1894 Z " fill="#000000"/><text fill="#000000" font-family="sans-serif" font-size="14" font-style="italic" lengthAdjust="spacing" textLength="64.3877" x="375.0587" y="283.9267">BaseMPC</text><line style="stroke:#181818;stroke-width:0.5;" x1="308.36" x2="473.6452" y1="295.08" y2="295.08"/><polygon fill="none" points="318.36,303.7284,322.36,307.7284,318.36,311.7284,314.36,307.7284" style="stroke:#B38D22;stroke-width:1.0;"/><text fill="#000000" font-family="sans-serif" font-size="14" lengthAdjust="spacing" textLength="113.7568" x="327.36" y="312.0751">mpc_solver_ptr_</text><line style="stroke:#181818;stroke-width:0.5;" x1="308.36" x2="473.6452" y1="319.3769" y2="319.3769"/><polygon fill="#FFFF44" points="318.36,328.0253,322.36,332.0253,318.36,336.0253,314.36,332.0253" style="stroke:#B38D22;stroke-width:1.0;"/><text fill="#000000" font-family="sans-serif" font-size="14" lengthAdjust="spacing" textLength="84.6016" x="327.36" y="336.372">initPredXU()</text><polygon fill="#FFFF44" points="318.36,344.3222,322.36,348.3222,318.36,352.3222,314.36,348.3222" style="stroke:#B38D22;stroke-width:1.0;"/><text fill="#000000" font-family="sans-serif" font-size="14" lengthAdjust="spacing" textLength="127.0459" x="327.36" y="352.6689">initMPCSolverPtr()</text><polygon fill="#FFFF44" points="318.36,360.6191,322.36,364.6191,318.36,368.6191,314.36,364.6191" style="stroke:#B38D22;stroke-width:1.0;"/><text fill="#000000" font-family="sans-serif" font-size="14" lengthAdjust="spacing" textLength="141.2852" x="327.36" y="368.9657">callbackSetRefTraj()</text><polygon fill="#FFFF44" points="318.36,376.9159,322.36,380.9159,318.36,384.9159,314.36,380.9159" style="stroke:#B38D22;stroke-width:1.0;"/><text fill="#000000" font-family="sans-serif" font-size="14" lengthAdjust="spacing" textLength="107.0098" x="327.36" y="385.2626">rosXU2VecXU()</text><polygon fill="#FFFF44" points="318.36,393.2128,322.36,397.2128,318.36,401.2128,314.36,397.2128" style="stroke:#B38D22;stroke-width:1.0;"/><text fill="#000000" font-family="sans-serif" font-size="14" lengthAdjust="spacing" textLength="93.4336" x="327.36" y="401.5595">meas2VecX()</text><polygon fill="#FFFF44" points="318.36,409.5097,322.36,413.5097,318.36,417.5097,314.36,413.5097" style="stroke:#B38D22;stroke-width:1.0;"/><text fill="#000000" font-family="sans-serif" font-size="14" lengthAdjust="spacing" textLength="92.4697" x="327.36" y="417.8564">controlCore()</text><polygon fill="#FFFF44" points="318.36,425.8066,322.36,429.8066,318.36,433.8066,314.36,429.8066" style="stroke:#B38D22;stroke-width:1.0;"/><text fill="#000000" font-family="sans-serif" font-size="14" lengthAdjust="spacing" textLength="76.8906" x="327.36" y="434.1532">sendCmd()</text><polygon fill="#FFFF44" points="318.36,442.1034,322.36,446.1034,318.36,450.1034,314.36,446.1034" style="stroke:#B38D22;stroke-width:1.0;"/><text fill="#000000" font-family="sans-serif" font-size="14" lengthAdjust="spacing" textLength="89.0654" x="327.36" y="450.4501">callbackViz()</text></g><!--class FixQdNMPC--><g id="elem_FixQdNMPC"><rect codeLine="27" fill="#F1F1F1" height="145.7813" id="FixQdNMPC" rx="2.5" ry="2.5" style="stroke:#181818;stroke-width:0.5;" width="129.5576" x="230.22" y="680.72"/><ellipse cx="252.7144" cy="696.72" fill="#ADD1B2" rx="11" ry="11" style="stroke:#181818;stroke-width:1.0;"/><path d="M255.6832,702.3606 Q255.1051,702.6575 254.4644,702.7981 Q253.8238,702.9544 253.1207,702.9544 Q250.6207,702.9544 249.2926,701.3137 Q247.9801,699.6575 247.9801,696.5325 Q247.9801,693.4075 249.2926,691.7512 Q250.6207,690.095 253.1207,690.095 Q253.8238,690.095 254.4644,690.2512 Q255.1207,690.4075 255.6832,690.7044 L255.6832,693.4231 Q255.0582,692.845 254.4644,692.5794 Q253.8707,692.2981 253.2457,692.2981 Q251.9019,692.2981 251.2144,693.3762 Q250.5269,694.4387 250.5269,696.5325 Q250.5269,698.6262 251.2144,699.7044 Q251.9019,700.7669 253.2457,700.7669 Q253.8707,700.7669 254.4644,700.5012 Q255.0582,700.22 255.6832,699.6419 L255.6832,702.3606 Z " fill="#000000"/><text fill="#000000" font-family="sans-serif" font-size="14" lengthAdjust="spacing" textLength="80.9033" x="268.3799" y="701.5667">FixQdNMPC</text><line style="stroke:#181818;stroke-width:0.5;" x1="231.22" x2="358.7776" y1="712.72" y2="712.72"/><text fill="#000000" font-family="sans-serif" font-size="14" lengthAdjust="spacing" textLength="72.9941" x="236.22" y="729.7151">unfinished</text><line style="stroke:#181818;stroke-width:0.5;" x1="231.22" x2="358.7776" y1="737.0169" y2="737.0169"/><ellipse cx="241.22" cy="750.6653" fill="#84BE84" rx="3" ry="3" style="stroke:#038048;stroke-width:1.0;"/><text fill="#000000" font-family="sans-serif" font-size="14" lengthAdjust="spacing" textLength="91.8271" x="250.22" y="754.012">FixQdNMPC()</text><ellipse cx="241.22" cy="766.9622" fill="#84BE84" rx="3" ry="3" style="stroke:#038048;stroke-width:1.0;"/><text fill="#000000" font-family="sans-serif" font-size="14" lengthAdjust="spacing" textLength="103.5576" x="250.22" y="770.3089">~FixQdNMPC()</text><ellipse cx="241.22" cy="783.2591" fill="#84BE84" rx="3" ry="3" style="stroke:#038048;stroke-width:1.0;"/><text fill="#000000" font-family="sans-serif" font-size="14" lengthAdjust="spacing" textLength="69.2754" x="250.22" y="786.6057">initialize()</text><ellipse cx="241.22" cy="799.5559" fill="#84BE84" rx="3" ry="3" style="stroke:#038048;stroke-width:1.0;"/><text fill="#000000" font-family="sans-serif" font-size="14" lengthAdjust="spacing" textLength="60.252" x="250.22" y="802.9026">update()</text><ellipse cx="241.22" cy="815.8528" fill="#84BE84" rx="3" ry="3" style="stroke:#038048;stroke-width:1.0;"/><text fill="#000000" font-family="sans-serif" font-size="14" lengthAdjust="spacing" textLength="46.6895" x="250.22" y="819.1995">reset()</text></g><!--class TiltQdServoNMPC--><g id="elem_TiltQdServoNMPC"><rect codeLine="46" fill="#F1F1F1" height="471.7188" id="TiltQdServoNMPC" rx="2.5" ry="2.5" style="stroke:#181818;stroke-width:0.5;" width="185.0723" x="394.46" y="517.75"/><ellipse cx="423.1714" cy="533.75" fill="#ADD1B2" rx="11" ry="11" style="stroke:#181818;stroke-width:1.0;"/><path d="M426.1401,539.3906 Q425.562,539.6875 424.9214,539.8281 Q424.2808,539.9844 423.5776,539.9844 Q421.0776,539.9844 419.7495,538.3437 Q418.437,536.6875 418.437,533.5625 Q418.437,530.4375 419.7495,528.7812 Q421.0776,527.125 423.5776,527.125 Q424.2808,527.125 424.9214,527.2812 Q425.5776,527.4375 426.1401,527.7344 L426.1401,530.4531 Q425.5151,529.875 424.9214,529.6094 Q424.3276,529.3281 423.7026,529.3281 Q422.3589,529.3281 421.6714,530.4062 Q420.9839,531.4687 420.9839,533.5625 Q420.9839,535.6562 421.6714,536.7344 Q422.3589,537.7969 423.7026,537.7969 Q424.3276,537.7969 424.9214,537.5312 Q425.5151,537.25 426.1401,536.6719 L426.1401,539.3906 Z " fill="#000000"/><text fill="#000000" font-family="sans-serif" font-size="14" lengthAdjust="spacing" textLength="122.6025" x="440.2183" y="538.5967">TiltQdServoNMPC</text><line style="stroke:#181818;stroke-width:0.5;" x1="395.46" x2="578.5323" y1="549.75" y2="549.75"/><line style="stroke:#181818;stroke-width:0.5;" x1="395.46" x2="578.5323" y1="557.75" y2="557.75"/><ellipse cx="405.46" cy="571.3984" fill="#84BE84" rx="3" ry="3" style="stroke:#038048;stroke-width:1.0;"/><text fill="#000000" font-family="sans-serif" font-size="14" lengthAdjust="spacing" textLength="133.5264" x="414.46" y="574.7451">TiltQdServoNMPC()</text><ellipse cx="405.46" cy="587.6953" fill="#84BE84" rx="3" ry="3" style="stroke:#038048;stroke-width:1.0;"/><text fill="#000000" font-family="sans-serif" font-size="14" lengthAdjust="spacing" textLength="145.2568" x="414.46" y="591.042">~TiltQdServoNMPC()</text><ellipse cx="405.46" cy="603.9922" fill="#84BE84" rx="3" ry="3" style="stroke:#038048;stroke-width:1.0;"/><text fill="#000000" font-family="sans-serif" font-size="14" lengthAdjust="spacing" textLength="69.2754" x="414.46" y="607.3389">initialize()</text><ellipse cx="405.46" cy="620.2891" fill="#84BE84" rx="3" ry="3" style="stroke:#038048;stroke-width:1.0;"/><text fill="#000000" font-family="sans-serif" font-size="14" lengthAdjust="spacing" textLength="60.252" x="414.46" y="623.6357">update()</text><ellipse cx="405.46" cy="636.5859" fill="#84BE84" rx="3" ry="3" style="stroke:#038048;stroke-width:1.0;"/><text fill="#000000" font-family="sans-serif" font-size="14" lengthAdjust="spacing" textLength="46.6895" x="414.46" y="639.9326">reset()</text><polygon fill="#FFFF44" points="405.46,647.8828,409.46,651.8828,405.46,655.8828,401.46,651.8828" style="stroke:#B38D22;stroke-width:1.0;"/><text fill="#000000" font-family="sans-serif" font-size="14" lengthAdjust="spacing" textLength="127.0459" x="414.46" y="656.2295">initMPCSolverPtr()</text><polygon fill="#FFFF44" points="405.46,664.1797,409.46,668.1797,405.46,672.1797,401.46,668.1797" style="stroke:#B38D22;stroke-width:1.0;"/><text fill="#000000" font-family="sans-serif" font-size="14" lengthAdjust="spacing" textLength="92.832" x="414.46" y="672.5264">initAllocMat()</text><polygon fill="#FFFF44" points="405.46,680.4766,409.46,684.4766,405.46,688.4766,401.46,684.4766" style="stroke:#B38D22;stroke-width:1.0;"/><text fill="#000000" font-family="sans-serif" font-size="14" lengthAdjust="spacing" textLength="85.3535" x="414.46" y="688.8232">initParams()</text><polygon fill="#FFFF44" points="405.46,696.7734,409.46,700.7734,405.46,704.7734,401.46,700.7734" style="stroke:#B38D22;stroke-width:1.0;"/><text fill="#000000" font-family="sans-serif" font-size="14" lengthAdjust="spacing" textLength="78.0322" x="414.46" y="705.1201">initCostW()</text><polygon fill="#FFFF44" points="405.46,713.0703,409.46,717.0703,405.46,721.0703,401.46,717.0703" style="stroke:#B38D22;stroke-width:1.0;"/><text fill="#000000" font-family="sans-serif" font-size="14" lengthAdjust="spacing" textLength="121.3789" x="414.46" y="721.417">setControlMode()</text><polygon fill="#FFFF44" points="405.46,729.3672,409.46,733.3672,405.46,737.3672,401.46,733.3672" style="stroke:#B38D22;stroke-width:1.0;"/><text fill="#000000" font-family="sans-serif" font-size="14" lengthAdjust="spacing" textLength="108.3633" x="414.46" y="737.7139">initJointStates()</text><polygon fill="#FFFF44" points="405.46,745.6641,409.46,749.6641,405.46,753.6641,401.46,749.6641" style="stroke:#B38D22;stroke-width:1.0;"/><text fill="#000000" font-family="sans-serif" font-size="14" lengthAdjust="spacing" textLength="92.4697" x="414.46" y="754.0107">controlCore()</text><polygon fill="#FFFF44" points="405.46,761.9609,409.46,765.9609,405.46,769.9609,401.46,765.9609" style="stroke:#B38D22;stroke-width:1.0;"/><text fill="#000000" font-family="sans-serif" font-size="14" lengthAdjust="spacing" textLength="76.8906" x="414.46" y="770.3076">sendCmd()</text><polygon fill="#FFFF44" points="405.46,778.2578,409.46,782.2578,405.46,786.2578,401.46,782.2578" style="stroke:#B38D22;stroke-width:1.0;"/><text fill="#000000" font-family="sans-serif" font-size="14" lengthAdjust="spacing" textLength="130.0537" x="414.46" y="786.6045">prepareNMPCRef()</text><polygon fill="#FFFF44" points="405.46,794.5547,409.46,798.5547,405.46,802.5547,401.46,798.5547" style="stroke:#B38D22;stroke-width:1.0;"/><text fill="#000000" font-family="sans-serif" font-size="14" lengthAdjust="spacing" textLength="159.0723" x="414.46" y="802.9014">prepareNMPCParams()</text><polygon fill="#FFFF44" points="405.46,810.8516,409.46,814.8516,405.46,818.8516,401.46,814.8516" style="stroke:#B38D22;stroke-width:1.0;"/><text fill="#000000" font-family="sans-serif" font-size="14" lengthAdjust="spacing" textLength="89.0654" x="414.46" y="819.1982">callbackViz()</text><polygon fill="#FFFF44" points="405.46,827.1484,409.46,831.1484,405.46,835.1484,401.46,831.1484" style="stroke:#B38D22;stroke-width:1.0;"/><text fill="#000000" font-family="sans-serif" font-size="14" lengthAdjust="spacing" textLength="143.5479" x="414.46" y="835.4951">callbackJointStates()</text><polygon fill="#FFFF44" points="405.46,843.4453,409.46,847.4453,405.46,851.4453,401.46,847.4453" style="stroke:#B38D22;stroke-width:1.0;"/><text fill="#000000" font-family="sans-serif" font-size="14" lengthAdjust="spacing" textLength="117.9609" x="414.46" y="851.792">callbackSetRPY()</text><polygon fill="#FFFF44" points="405.46,859.7422,409.46,863.7422,405.46,867.7422,401.46,863.7422" style="stroke:#B38D22;stroke-width:1.0;"/><text fill="#000000" font-family="sans-serif" font-size="14" lengthAdjust="spacing" textLength="141.2852" x="414.46" y="868.0889">callbackSetRefTraj()</text><polygon fill="#FFFF44" points="405.46,876.0391,409.46,880.0391,405.46,884.0391,401.46,880.0391" style="stroke:#B38D22;stroke-width:1.0;"/><text fill="#000000" font-family="sans-serif" font-size="14" lengthAdjust="spacing" textLength="132.6104" x="414.46" y="884.3857">cfgNMPCCallback()</text><polygon fill="#FFFF44" points="405.46,892.3359,409.46,896.3359,405.46,900.3359,401.46,896.3359" style="stroke:#B38D22;stroke-width:1.0;"/><text fill="#000000" font-family="sans-serif" font-size="14" lengthAdjust="spacing" textLength="76.0225" x="414.46" y="900.6826">getOdom()</text><polygon fill="#FFFF44" points="405.46,908.6328,409.46,912.6328,405.46,916.6328,401.46,912.6328" style="stroke:#B38D22;stroke-width:1.0;"/><text fill="#000000" font-family="sans-serif" font-size="14" lengthAdjust="spacing" textLength="105.8682" x="414.46" y="916.9795">getCommand()</text><polygon fill="#FFFF44" points="405.46,924.9297,409.46,928.9297,405.46,932.9297,401.46,928.9297" style="stroke:#B38D22;stroke-width:1.0;"/><text fill="#000000" font-family="sans-serif" font-size="14" lengthAdjust="spacing" textLength="93.4336" x="414.46" y="933.2764">meas2VecX()</text><polygon fill="#FFFF44" points="405.46,941.2266,409.46,945.2266,405.46,949.2266,401.46,945.2266" style="stroke:#B38D22;stroke-width:1.0;"/><text fill="#000000" font-family="sans-serif" font-size="14" lengthAdjust="spacing" textLength="153.0566" x="414.46" y="949.5732">printPhysicalParams()</text><polygon fill="#FFFF44" points="405.46,957.5234,409.46,961.5234,405.46,965.5234,401.46,961.5234" style="stroke:#B38D22;stroke-width:1.0;"/><text fill="#000000" font-family="sans-serif" font-size="14" lengthAdjust="spacing" textLength="86.9395" x="414.46" y="965.8701">setXrUrRef()</text><polygon fill="#FFFF44" points="405.46,973.8203,409.46,977.8203,405.46,981.8203,401.46,977.8203" style="stroke:#B38D22;stroke-width:1.0;"/><text fill="#000000" font-family="sans-serif" font-size="14" lengthAdjust="spacing" textLength="103.1816" x="414.46" y="982.167">allocateToXU()</text></g><!--class TiltQdServoNMPCwITerm--><g id="elem_TiltQdServoNMPCwITerm"><rect codeLine="76" fill="#F1F1F1" height="162.0781" id="TiltQdServoNMPCwITerm" rx="2.5" ry="2.5" style="stroke:#181818;stroke-width:0.5;" width="206.7402" x="45.63" y="1049.47"/><ellipse cx="60.63" cy="1065.47" fill="#ADD1B2" rx="11" ry="11" style="stroke:#181818;stroke-width:1.0;"/><path d="M63.5988,1071.1106 Q63.0206,1071.4075 62.38,1071.5481 Q61.7394,1071.7044 61.0363,1071.7044 Q58.5363,1071.7044 57.2081,1070.0637 Q55.8956,1068.4075 55.8956,1065.2825 Q55.8956,1062.1575 57.2081,1060.5012 Q58.5363,1058.845 61.0363,1058.845 Q61.7394,1058.845 62.38,1059.0012 Q63.0363,1059.1575 63.5988,1059.4544 L63.5988,1062.1731 Q62.9738,1061.595 62.38,1061.3294 Q61.7863,1061.0481 61.1613,1061.0481 Q59.8175,1061.0481 59.13,1062.1262 Q58.4425,1063.1887 58.4425,1065.2825 Q58.4425,1067.3762 59.13,1068.4544 Q59.8175,1069.5169 61.1613,1069.5169 Q61.7863,1069.5169 62.38,1069.2512 Q62.9738,1068.97 63.5988,1068.3919 L63.5988,1071.1106 Z " fill="#000000"/><text fill="#000000" font-family="sans-serif" font-size="14" lengthAdjust="spacing" textLength="174.7402" x="74.63" y="1070.3167">TiltQdServoNMPCwITerm</text><line style="stroke:#181818;stroke-width:0.5;" x1="46.63" x2="251.3702" y1="1081.47" y2="1081.47"/><line style="stroke:#181818;stroke-width:0.5;" x1="46.63" x2="251.3702" y1="1089.47" y2="1089.47"/><ellipse cx="56.63" cy="1103.1184" fill="#84BE84" rx="3" ry="3" style="stroke:#038048;stroke-width:1.0;"/><text fill="#000000" font-family="sans-serif" font-size="14" lengthAdjust="spacing" textLength="69.2754" x="65.63" y="1106.4651">initialize()</text><polygon fill="#FFFF44" points="56.63,1114.4153,60.63,1118.4153,56.63,1122.4153,52.63,1118.4153" style="stroke:#B38D22;stroke-width:1.0;"/><text fill="#000000" font-family="sans-serif" font-size="14" lengthAdjust="spacing" textLength="85.3535" x="65.63" y="1122.762">initParams()</text><polygon fill="#FFFF44" points="56.63,1130.7122,60.63,1134.7122,56.63,1138.7122,52.63,1134.7122" style="stroke:#B38D22;stroke-width:1.0;"/><text fill="#000000" font-family="sans-serif" font-size="14" lengthAdjust="spacing" textLength="127.0459" x="65.63" y="1139.0589">initMPCSolverPtr()</text><polygon fill="#FFFF44" points="56.63,1147.0091,60.63,1151.0091,56.63,1155.0091,52.63,1151.0091" style="stroke:#B38D22;stroke-width:1.0;"/><text fill="#000000" font-family="sans-serif" font-size="14" lengthAdjust="spacing" textLength="159.0723" x="65.63" y="1155.3557">prepareNMPCParams()</text><polygon fill="#FFFF44" points="56.63,1163.3059,60.63,1167.3059,56.63,1171.3059,52.63,1167.3059" style="stroke:#B38D22;stroke-width:1.0;"/><text fill="#000000" font-family="sans-serif" font-size="14" lengthAdjust="spacing" textLength="143.4111" x="65.63" y="1171.6526">calcDisturbWrench()</text><polygon fill="#FFFF44" points="56.63,1179.6028,60.63,1183.6028,56.63,1187.6028,52.63,1183.6028" style="stroke:#B38D22;stroke-width:1.0;"/><text fill="#000000" font-family="sans-serif" font-size="14" lengthAdjust="spacing" textLength="89.0654" x="65.63" y="1187.9495">callbackViz()</text><polygon fill="#FFFF44" points="56.63,1195.8997,60.63,1199.8997,56.63,1203.8997,52.63,1199.8997" style="stroke:#B38D22;stroke-width:1.0;"/><text fill="#000000" font-family="sans-serif" font-size="14" lengthAdjust="spacing" textLength="132.6104" x="65.63" y="1204.2464">cfgNMPCCallback()</text></g><!--class TiltQdServoNMPCwEKF--><g id="elem_TiltQdServoNMPCwEKF"><rect codeLine="87" fill="#F1F1F1" height="113.1875" id="TiltQdServoNMPCwEKF" rx="2.5" ry="2.5" style="stroke:#181818;stroke-width:0.5;" width="192.1318" x="286.93" y="1073.92"/><ellipse cx="301.93" cy="1089.92" fill="#ADD1B2" rx="11" ry="11" style="stroke:#181818;stroke-width:1.0;"/><path d="M304.8988,1095.5606 Q304.3206,1095.8575 303.68,1095.9981 Q303.0394,1096.1544 302.3363,1096.1544 Q299.8363,1096.1544 298.5081,1094.5137 Q297.1956,1092.8575 297.1956,1089.7325 Q297.1956,1086.6075 298.5081,1084.9512 Q299.8363,1083.295 302.3363,1083.295 Q303.0394,1083.295 303.68,1083.4512 Q304.3363,1083.6075 304.8988,1083.9044 L304.8988,1086.6231 Q304.2738,1086.045 303.68,1085.7794 Q303.0863,1085.4981 302.4613,1085.4981 Q301.1175,1085.4981 300.43,1086.5762 Q299.7425,1087.6387 299.7425,1089.7325 Q299.7425,1091.8262 300.43,1092.9044 Q301.1175,1093.9669 302.4613,1093.9669 Q303.0863,1093.9669 303.68,1093.7012 Q304.2738,1093.42 304.8988,1092.8419 L304.8988,1095.5606 Z " fill="#000000"/><text fill="#000000" font-family="sans-serif" font-size="14" lengthAdjust="spacing" textLength="160.1318" x="315.93" y="1094.7667">TiltQdServoNMPCwEKF</text><line style="stroke:#181818;stroke-width:0.5;" x1="287.93" x2="478.0618" y1="1105.92" y2="1105.92"/><text fill="#000000" font-family="sans-serif" font-size="14" lengthAdjust="spacing" textLength="72.9941" x="292.93" y="1122.9151">unfinished</text><line style="stroke:#181818;stroke-width:0.5;" x1="287.93" x2="478.0618" y1="1130.2169" y2="1130.2169"/><ellipse cx="297.93" cy="1143.8653" fill="#84BE84" rx="3" ry="3" style="stroke:#038048;stroke-width:1.0;"/><text fill="#000000" font-family="sans-serif" font-size="14" lengthAdjust="spacing" textLength="69.2754" x="306.93" y="1147.212">initialize()</text><ellipse cx="297.93" cy="1160.1622" fill="#84BE84" rx="3" ry="3" style="stroke:#038048;stroke-width:1.0;"/><text fill="#000000" font-family="sans-serif" font-size="14" lengthAdjust="spacing" textLength="60.252" x="306.93" y="1163.5089">update()</text><ellipse cx="297.93" cy="1176.4591" fill="#84BE84" rx="3" ry="3" style="stroke:#038048;stroke-width:1.0;"/><text fill="#000000" font-family="sans-serif" font-size="14" lengthAdjust="spacing" textLength="46.6895" x="306.93" y="1179.8057">reset()</text></g><!--class TiltQdServoNMPCwMHE--><g id="elem_TiltQdServoNMPCwMHE"><rect codeLine="95" fill="#F1F1F1" height="145.7813" id="TiltQdServoNMPCwMHE" rx="2.5" ry="2.5" style="stroke:#181818;stroke-width:0.5;" width="214.1592" x="90.92" y="1271.55"/><ellipse cx="113.4144" cy="1287.55" fill="#ADD1B2" rx="11" ry="11" style="stroke:#181818;stroke-width:1.0;"/><path d="M116.3832,1293.1906 Q115.8051,1293.4875 115.1644,1293.6281 Q114.5238,1293.7844 113.8207,1293.7844 Q111.3207,1293.7844 109.9926,1292.1438 Q108.6801,1290.4875 108.6801,1287.3625 Q108.6801,1284.2375 109.9926,1282.5813 Q111.3207,1280.925 113.8207,1280.925 Q114.5238,1280.925 115.1644,1281.0813 Q115.8207,1281.2375 116.3832,1281.5344 L116.3832,1284.2531 Q115.7582,1283.675 115.1644,1283.4094 Q114.5707,1283.1281 113.9457,1283.1281 Q112.6019,1283.1281 111.9144,1284.2063 Q111.2269,1285.2688 111.2269,1287.3625 Q111.2269,1289.4563 111.9144,1290.5344 Q112.6019,1291.5969 113.9457,1291.5969 Q114.5707,1291.5969 115.1644,1291.3313 Q115.7582,1291.05 116.3832,1290.4719 L116.3832,1293.1906 Z " fill="#000000"/><text fill="#000000" font-family="sans-serif" font-size="14" lengthAdjust="spacing" textLength="165.5049" x="129.0799" y="1292.3967">TiltQdServoNMPCwMHE</text><line style="stroke:#181818;stroke-width:0.5;" x1="91.92" x2="304.0792" y1="1303.55" y2="1303.55"/><text fill="#000000" font-family="sans-serif" font-size="14" lengthAdjust="spacing" textLength="72.9941" x="96.92" y="1320.5451">unfinished</text><line style="stroke:#181818;stroke-width:0.5;" x1="91.92" x2="304.0792" y1="1327.8469" y2="1327.8469"/><ellipse cx="101.92" cy="1341.4953" fill="#84BE84" rx="3" ry="3" style="stroke:#038048;stroke-width:1.0;"/><text fill="#000000" font-family="sans-serif" font-size="14" lengthAdjust="spacing" textLength="176.4287" x="110.92" y="1344.842">TiltQdServoNMPCwMHE()</text><ellipse cx="101.92" cy="1357.7922" fill="#84BE84" rx="3" ry="3" style="stroke:#038048;stroke-width:1.0;"/><text fill="#000000" font-family="sans-serif" font-size="14" lengthAdjust="spacing" textLength="188.1592" x="110.92" y="1361.1389">~TiltQdServoNMPCwMHE()</text><ellipse cx="101.92" cy="1374.0891" fill="#84BE84" rx="3" ry="3" style="stroke:#038048;stroke-width:1.0;"/><text fill="#000000" font-family="sans-serif" font-size="14" lengthAdjust="spacing" textLength="69.2754" x="110.92" y="1377.4357">initialize()</text><ellipse cx="101.92" cy="1390.3859" fill="#84BE84" rx="3" ry="3" style="stroke:#038048;stroke-width:1.0;"/><text fill="#000000" font-family="sans-serif" font-size="14" lengthAdjust="spacing" textLength="60.252" x="110.92" y="1393.7326">update()</text><ellipse cx="101.92" cy="1406.6828" fill="#84BE84" rx="3" ry="3" style="stroke:#038048;stroke-width:1.0;"/><text fill="#000000" font-family="sans-serif" font-size="14" lengthAdjust="spacing" textLength="46.6895" x="110.92" y="1410.0295">reset()</text></g><!--class TiltQdServoThrustNMPCwEKF--><g id="elem_TiltQdServoThrustNMPCwEKF"><rect codeLine="105" fill="#F1F1F1" height="145.7813" id="TiltQdServoThrustNMPCwEKF" rx="2.5" ry="2.5" style="stroke:#181818;stroke-width:0.5;" width="253.623" x="340.19" y="1271.55"/><ellipse cx="362.6844" cy="1287.55" fill="#ADD1B2" rx="11" ry="11" style="stroke:#181818;stroke-width:1.0;"/><path d="M365.6532,1293.1906 Q365.0751,1293.4875 364.4344,1293.6281 Q363.7938,1293.7844 363.0907,1293.7844 Q360.5907,1293.7844 359.2626,1292.1438 Q357.9501,1290.4875 357.9501,1287.3625 Q357.9501,1284.2375 359.2626,1282.5813 Q360.5907,1280.925 363.0907,1280.925 Q363.7938,1280.925 364.4344,1281.0813 Q365.0907,1281.2375 365.6532,1281.5344 L365.6532,1284.2531 Q365.0282,1283.675 364.4344,1283.4094 Q363.8407,1283.1281 363.2157,1283.1281 Q361.8719,1283.1281 361.1844,1284.2063 Q360.4969,1285.2688 360.4969,1287.3625 Q360.4969,1289.4563 361.1844,1290.5344 Q361.8719,1291.5969 363.2157,1291.5969 Q363.8407,1291.5969 364.4344,1291.3313 Q365.0282,1291.05 365.6532,1290.4719 L365.6532,1293.1906 Z " fill="#000000"/><text fill="#000000" font-family="sans-serif" font-size="14" lengthAdjust="spacing" textLength="204.9688" x="378.3499" y="1292.3967">TiltQdServoThrustNMPCwEKF</text><line style="stroke:#181818;stroke-width:0.5;" x1="341.19" x2="592.813" y1="1303.55" y2="1303.55"/><text fill="#000000" font-family="sans-serif" font-size="14" lengthAdjust="spacing" textLength="72.9941" x="346.19" y="1320.5451">unfinished</text><line style="stroke:#181818;stroke-width:0.5;" x1="341.19" x2="592.813" y1="1327.8469" y2="1327.8469"/><ellipse cx="351.19" cy="1341.4953" fill="#84BE84" rx="3" ry="3" style="stroke:#038048;stroke-width:1.0;"/><text fill="#000000" font-family="sans-serif" font-size="14" lengthAdjust="spacing" textLength="215.8926" x="360.19" y="1344.842">TiltQdServoThrustNMPCwEKF()</text><ellipse cx="351.19" cy="1357.7922" fill="#84BE84" rx="3" ry="3" style="stroke:#038048;stroke-width:1.0;"/><text fill="#000000" font-family="sans-serif" font-size="14" lengthAdjust="spacing" textLength="227.623" x="360.19" y="1361.1389">~TiltQdServoThrustNMPCwEKF()</text><ellipse cx="351.19" cy="1374.0891" fill="#84BE84" rx="3" ry="3" style="stroke:#038048;stroke-width:1.0;"/><text fill="#000000" font-family="sans-serif" font-size="14" lengthAdjust="spacing" textLength="69.2754" x="360.19" y="1377.4357">initialize()</text><ellipse cx="351.19" cy="1390.3859" fill="#84BE84" rx="3" ry="3" style="stroke:#038048;stroke-width:1.0;"/><text fill="#000000" font-family="sans-serif" font-size="14" lengthAdjust="spacing" textLength="60.252" x="360.19" y="1393.7326">update()</text><ellipse cx="351.19" cy="1406.6828" fill="#84BE84" rx="3" ry="3" style="stroke:#038048;stroke-width:1.0;"/><text fill="#000000" font-family="sans-serif" font-size="14" lengthAdjust="spacing" textLength="46.6895" x="360.19" y="1410.0295">reset()</text></g><!--class TiltTriServoNMPC--><g id="elem_TiltTriServoNMPC"><rect codeLine="115" fill="#F1F1F1" height="80.5938" id="TiltTriServoNMPC" rx="2.5" ry="2.5" style="stroke:#181818;stroke-width:0.5;" width="153.0459" x="514.48" y="1090.21"/><ellipse cx="529.5486" cy="1106.21" fill="#ADD1B2" rx="11" ry="11" style="stroke:#181818;stroke-width:1.0;"/><path d="M532.5173,1111.8506 Q531.9392,1112.1475 531.2986,1112.2881 Q530.6579,1112.4444 529.9548,1112.4444 Q527.4548,1112.4444 526.1267,1110.8038 Q524.8142,1109.1475 524.8142,1106.0225 Q524.8142,1102.8975 526.1267,1101.2413 Q527.4548,1099.585 529.9548,1099.585 Q530.6579,1099.585 531.2986,1099.7413 Q531.9548,1099.8975 532.5173,1100.1944 L532.5173,1102.9131 Q531.8923,1102.335 531.2986,1102.0694 Q530.7048,1101.7881 530.0798,1101.7881 Q528.7361,1101.7881 528.0486,1102.8663 Q527.3611,1103.9288 527.3611,1106.0225 Q527.3611,1108.1163 528.0486,1109.1944 Q528.7361,1110.2569 530.0798,1110.2569 Q530.7048,1110.2569 531.2986,1109.9913 Q531.8923,1109.71 532.5173,1109.1319 L532.5173,1111.8506 Z " fill="#000000"/><text fill="#000000" font-family="sans-serif" font-size="14" lengthAdjust="spacing" textLength="120.8936" x="543.5638" y="1111.0567">TiltTriServoNMPC</text><line style="stroke:#181818;stroke-width:0.5;" x1="515.48" x2="666.5259" y1="1122.21" y2="1122.21"/><line style="stroke:#181818;stroke-width:0.5;" x1="515.48" x2="666.5259" y1="1130.21" y2="1130.21"/><polygon fill="#FFFF44" points="525.48,1138.8584,529.48,1142.8584,525.48,1146.8584,521.48,1142.8584" style="stroke:#B38D22;stroke-width:1.0;"/><text fill="#000000" font-family="sans-serif" font-size="14" lengthAdjust="spacing" textLength="127.0459" x="534.48" y="1147.2051">initMPCSolverPtr()</text><polygon fill="#FFFF44" points="525.48,1155.1553,529.48,1159.1553,525.48,1163.1553,521.48,1159.1553" style="stroke:#B38D22;stroke-width:1.0;"/><text fill="#000000" font-family="sans-serif" font-size="14" lengthAdjust="spacing" textLength="92.832" x="534.48" y="1163.502">initAllocMat()</text></g><!--class TiltBiServoNMPC--><g id="elem_TiltBiServoNMPC"><rect codeLine="121" fill="#F1F1F1" height="80.5938" id="TiltBiServoNMPC" rx="2.5" ry="2.5" style="stroke:#181818;stroke-width:0.5;" width="153.0459" x="702.48" y="1090.21"/><ellipse cx="719.665" cy="1106.21" fill="#ADD1B2" rx="11" ry="11" style="stroke:#181818;stroke-width:1.0;"/><path d="M722.6337,1111.8506 Q722.0556,1112.1475 721.415,1112.2881 Q720.7743,1112.4444 720.0712,1112.4444 Q717.5712,1112.4444 716.2431,1110.8038 Q714.9306,1109.1475 714.9306,1106.0225 Q714.9306,1102.8975 716.2431,1101.2413 Q717.5712,1099.585 720.0712,1099.585 Q720.7743,1099.585 721.415,1099.7413 Q722.0712,1099.8975 722.6337,1100.1944 L722.6337,1102.9131 Q722.0087,1102.335 721.415,1102.0694 Q720.8212,1101.7881 720.1962,1101.7881 Q718.8525,1101.7881 718.165,1102.8663 Q717.4775,1103.9288 717.4775,1106.0225 Q717.4775,1108.1163 718.165,1109.1944 Q718.8525,1110.2569 720.1962,1110.2569 Q720.8212,1110.2569 721.415,1109.9913 Q722.0087,1109.71 722.6337,1109.1319 L722.6337,1111.8506 Z " fill="#000000"/><text fill="#000000" font-family="sans-serif" font-size="14" lengthAdjust="spacing" textLength="116.1904" x="734.1505" y="1111.0567">TiltBiServoNMPC</text><line style="stroke:#181818;stroke-width:0.5;" x1="703.48" x2="854.5259" y1="1122.21" y2="1122.21"/><line style="stroke:#181818;stroke-width:0.5;" x1="703.48" x2="854.5259" y1="1130.21" y2="1130.21"/><polygon fill="#FFFF44" points="713.48,1138.8584,717.48,1142.8584,713.48,1146.8584,709.48,1142.8584" style="stroke:#B38D22;stroke-width:1.0;"/><text fill="#000000" font-family="sans-serif" font-size="14" lengthAdjust="spacing" textLength="127.0459" x="722.48" y="1147.2051">initMPCSolverPtr()</text><polygon fill="#FFFF44" points="713.48,1155.1553,717.48,1159.1553,713.48,1163.1553,709.48,1159.1553" style="stroke:#B38D22;stroke-width:1.0;"/><text fill="#000000" font-family="sans-serif" font-size="14" lengthAdjust="spacing" textLength="92.832" x="722.48" y="1163.502">initAllocMat()</text></g><!--class TiltBi2OrdServoNMPC--><g id="elem_TiltBi2OrdServoNMPC"><rect codeLine="127" fill="#F1F1F1" height="145.7813" id="TiltBi2OrdServoNMPC" rx="2.5" ry="2.5" style="stroke:#181818;stroke-width:0.5;" width="182.7598" x="673.62" y="1271.55"/><ellipse cx="688.62" cy="1287.55" fill="#ADD1B2" rx="11" ry="11" style="stroke:#181818;stroke-width:1.0;"/><path d="M691.5888,1293.1906 Q691.0106,1293.4875 690.37,1293.6281 Q689.7294,1293.7844 689.0263,1293.7844 Q686.5263,1293.7844 685.1981,1292.1438 Q683.8856,1290.4875 683.8856,1287.3625 Q683.8856,1284.2375 685.1981,1282.5813 Q686.5263,1280.925 689.0263,1280.925 Q689.7294,1280.925 690.37,1281.0813 Q691.0263,1281.2375 691.5888,1281.5344 L691.5888,1284.2531 Q690.9638,1283.675 690.37,1283.4094 Q689.7763,1283.1281 689.1513,1283.1281 Q687.8075,1283.1281 687.12,1284.2063 Q686.4325,1285.2688 686.4325,1287.3625 Q686.4325,1289.4563 687.12,1290.5344 Q687.8075,1291.5969 689.1513,1291.5969 Q689.7763,1291.5969 690.37,1291.3313 Q690.9638,1291.05 691.5888,1290.4719 L691.5888,1293.1906 Z " fill="#000000"/><text fill="#000000" font-family="sans-serif" font-size="14" lengthAdjust="spacing" textLength="150.7598" x="702.62" y="1292.3967">TiltBi2OrdServoNMPC</text><line style="stroke:#181818;stroke-width:0.5;" x1="674.62" x2="855.3798" y1="1303.55" y2="1303.55"/><line style="stroke:#181818;stroke-width:0.5;" x1="674.62" x2="855.3798" y1="1311.55" y2="1311.55"/><polygon fill="#FFFF44" points="684.62,1320.1984,688.62,1324.1984,684.62,1328.1984,680.62,1324.1984" style="stroke:#B38D22;stroke-width:1.0;"/><text fill="#000000" font-family="sans-serif" font-size="14" lengthAdjust="spacing" textLength="127.0459" x="693.62" y="1328.5451">initMPCSolverPtr()</text><polygon fill="#FFFF44" points="684.62,1336.4953,688.62,1340.4953,684.62,1344.4953,680.62,1340.4953" style="stroke:#B38D22;stroke-width:1.0;"/><text fill="#000000" font-family="sans-serif" font-size="14" lengthAdjust="spacing" textLength="78.0322" x="693.62" y="1344.842">initCostW()</text><polygon fill="#FFFF44" points="684.62,1352.7922,688.62,1356.7922,684.62,1360.7922,680.62,1356.7922" style="stroke:#B38D22;stroke-width:1.0;"/><text fill="#000000" font-family="sans-serif" font-size="14" lengthAdjust="spacing" textLength="108.3633" x="693.62" y="1361.1389">initJointStates()</text><polygon fill="#FFFF44" points="684.62,1369.0891,688.62,1373.0891,684.62,1377.0891,680.62,1373.0891" style="stroke:#B38D22;stroke-width:1.0;"/><text fill="#000000" font-family="sans-serif" font-size="14" lengthAdjust="spacing" textLength="93.4336" x="693.62" y="1377.4357">meas2VecX()</text><polygon fill="#FFFF44" points="684.62,1385.3859,688.62,1389.3859,684.62,1393.3859,680.62,1389.3859" style="stroke:#B38D22;stroke-width:1.0;"/><text fill="#000000" font-family="sans-serif" font-size="14" lengthAdjust="spacing" textLength="143.5479" x="693.62" y="1393.7326">callbackJointStates()</text><polygon fill="#FFFF44" points="684.62,1401.6828,688.62,1405.6828,684.62,1409.6828,680.62,1405.6828" style="stroke:#B38D22;stroke-width:1.0;"/><text fill="#000000" font-family="sans-serif" font-size="14" lengthAdjust="spacing" textLength="132.6104" x="693.62" y="1410.0295">cfgNMPCCallback()</text></g><!--reverse link ControlBase to BaseMPC--><g id="link_ControlBase_BaseMPC"><path d="M391,221.4 C391,240.54 391,243.15 391,262.93 " fill="none" id="ControlBase-backto-BaseMPC" style="stroke:#181818;stroke-width:1.0;"/><polygon fill="none" points="391,203.4,385,221.4,397,221.4,391,203.4" style="stroke:#181818;stroke-width:1.0;"/></g><!--reverse link BaseMPC to FixQdNMPC--><g id="link_BaseMPC_FixQdNMPC"><path d="M362.9798,475.6012 C346.0998,544.3812 328.08,617.82 312.73,680.35 " fill="none" id="BaseMPC-backto-FixQdNMPC" style="stroke:#181818;stroke-width:1.0;"/><polygon fill="none" points="367.27,458.12,357.1527,474.1712,368.8068,477.0313,367.27,458.12" style="stroke:#181818;stroke-width:1.0;"/></g><!--reverse link BaseMPC to TiltQdServoNMPC--><g id="link_BaseMPC_TiltQdServoNMPC"><path d="M419.018,475.6018 C423.568,494.1518 424.23,496.83 429.33,517.62 " fill="none" id="BaseMPC-backto-TiltQdServoNMPC" style="stroke:#181818;stroke-width:1.0;"/><polygon fill="none" points="414.73,458.12,413.1907,477.0311,424.8453,474.1725,414.73,458.12" style="stroke:#181818;stroke-width:1.0;"/></g><!--reverse link TiltQdServoNMPC to TiltQdServoNMPCwITerm--><g id="link_TiltQdServoNMPC_TiltQdServoNMPCwITerm"><path d="M383.1927,983.4407 C377.7527,990.5307 382.99,983.05 377,989.47 C339.54,1029.62 315.88,1020.88 269,1049.47 C263.66,1052.73 258.21,1056.12 252.73,1059.57 " fill="none" id="TiltQdServoNMPC-backto-TiltQdServoNMPCwITerm" style="stroke:#181818;stroke-width:1.0;"/><polygon fill="none" points="394.15,969.16,378.4325,979.7883,387.953,987.0931,394.15,969.16" style="stroke:#181818;stroke-width:1.0;"/></g><!--reverse link TiltQdServoNMPC to TiltQdServoNMPCwEKF--><g id="link_TiltQdServoNMPC_TiltQdServoNMPCwEKF"><path d="M416.9136,1007.2536 C408.2936,1038.2936 405.02,1050.12 398.49,1073.68 " fill="none" id="TiltQdServoNMPC-backto-TiltQdServoNMPCwEKF" style="stroke:#181818;stroke-width:1.0;"/><polygon fill="none" points="421.73,989.91,411.1323,1005.6482,422.6948,1008.8591,421.73,989.91" style="stroke:#181818;stroke-width:1.0;"/></g><!--reverse link TiltQdServoNMPCwEKF to TiltQdServoNMPCwMHE--><g id="link_TiltQdServoNMPCwEKF_TiltQdServoNMPCwMHE"><path d="M322.3138,1201.0311 C299.9438,1226.6611 284.98,1243.79 261.11,1271.15 " fill="none" id="TiltQdServoNMPCwEKF-backto-TiltQdServoNMPCwMHE" style="stroke:#181818;stroke-width:1.0;"/><polygon fill="none" points="334.15,1187.47,317.7934,1197.0857,326.8342,1204.9765,334.15,1187.47" style="stroke:#181818;stroke-width:1.0;"/></g><!--reverse link TiltQdServoNMPCwEKF to TiltQdServoThrustNMPCwEKF--><g id="link_TiltQdServoNMPCwEKF_TiltQdServoThrustNMPCwEKF"><path d="M411.8132,1204.2032 C421.9732,1229.8332 427.5,1243.79 438.35,1271.15 " fill="none" id="TiltQdServoNMPCwEKF-backto-TiltQdServoThrustNMPCwEKF" style="stroke:#181818;stroke-width:1.0;"/><polygon fill="none" points="405.18,1187.47,406.2355,1206.4143,417.391,1201.9921,405.18,1187.47" style="stroke:#181818;stroke-width:1.0;"/></g><!--reverse link TiltQdServoNMPC to TiltTriServoNMPC--><g id="link_TiltQdServoNMPC_TiltTriServoNMPC"><path d="M557.0841,1007.2543 C567.7841,1045.8043 572.86,1064.11 579.97,1089.73 " fill="none" id="TiltQdServoNMPC-backto-TiltTriServoNMPC" style="stroke:#181818;stroke-width:1.0;"/><polygon fill="none" points="552.27,989.91,551.3027,1008.859,562.8655,1005.6496,552.27,989.91" style="stroke:#181818;stroke-width:1.0;"/></g><!--reverse link TiltQdServoNMPC to TiltBiServoNMPC--><g id="link_TiltQdServoNMPC_TiltBiServoNMPC"><path d="M591.0507,888.2007 C648.8207,962.3707 708.33,1038.78 748.02,1089.74 " fill="none" id="TiltQdServoNMPC-backto-TiltBiServoNMPC" style="stroke:#181818;stroke-width:1.0;"/><polygon fill="none" points="579.99,874,586.3172,891.8876,595.7843,884.5138,579.99,874" style="stroke:#181818;stroke-width:1.0;"/></g><!--reverse link TiltBiServoNMPC to TiltBi2OrdServoNMPC--><g id="link_TiltBiServoNMPC_TiltBi2OrdServoNMPC"><path d="M775.2124,1188.8408 C773.3524,1216.9708 771.99,1237.67 769.77,1271.27 " fill="none" id="TiltBiServoNMPC-backto-TiltBi2OrdServoNMPC" style="stroke:#181818;stroke-width:1.0;"/><polygon fill="none" points="776.4,1170.88,769.2255,1188.4449,781.1993,1189.2366,776.4,1170.88" style="stroke:#181818;stroke-width:1.0;"/></g><!--SRC=[jLRTRjCm6BtFKrZQHK0CoZhOK0H8B6pYHsM5fbkvgbpRQmrn77rsIzd4de17ufru1Pmsoq-Jj4dBUfKSk_xEET-FOq-q3fNJQeK-3lHK-4-852tYOwKUKux7W8LbAQPHW0LJ8IQinq8CM4j0ZcDPUAGqOABHuYy8C-3O7u8SIJqaCj0WVSTnbmydM35qOo7pUuGos8E7CNPR1lA0QtCclqwXQKYnJbzDU3xB0i0Cu_Xj3sacZ3ZDNYufUg_HJ7AAnantZH1XzlsggICG8N6SY5sdwo8srooWzJNl8VFtePB-ZC4mr32CqKXW5nWTz1FA4MH2z1PxkngI1O9zVuJ9znxJNzYL1_XRiWHI3Vhj2qOovmY6rG9A3rZISYMm15D6XYje8SW5lrwQizcJCpx_J3zjTYNlu8rbpuUK2_GA7Hpkesdy_6mVXNUFjZKDhemTQi9edDqaLbetHMXprTmLYT5dRnReSLytK9ZwOJIMYdnXM_QII7gqOHDZjsLWJfEz8ihEgx9hfMqPfSTW9dTAtd56LovvMOL9c3HlLGlrixUXNwA5DxulIGVdTozQN-KWLofzcMaA7RTmHrAMs_X1ya3tjA6Z6lLL2D7eP95Iqxnby0ghV2FciL8IcUdG_LfdQ92hSHJNZNSak1cEvrIAxBihXS01NJDRGZ2KkfEVYfk8ArACdGFeGrOtZl9Y-7joCR6sATWVxpq6ebRPhfPwLVd-_VCxAU23ftPLGLPMKMaPhaqnUSkLdiBe4bX09kkJNqZNLgwTVZpRrRFsOLNB5-Prer7SN4pdtUasOXOcR2UeX47bICijtfyJtWIcIk-It88VnzluaUTHwah5bdlmnWFUx6fRDoEEKZkE2bTS_HkeDlcJ_yZzUTMtrRrnRvy3RSu_gxbYFZVcdx_LgwxlaW_bTVTiSGp_0m00]--></g></svg>