<svg xmlns="http://www.w3.org/2000/svg" xmlns:xlink="http://www.w3.org/1999/xlink" contentStyleType="text/css" height="1464px" preserveAspectRatio="none" style="width:903px;height:1464px;background:#FFFFFF;" version="1.1" viewBox="0 0 903 1464" width="903px" zoomAndPan="magnify"><defs/><g><!--cluster aerial_robot_control--><g id="cluster_aerial_robot_control"><path d="M8.5,6 L167.1436,6 A3.75,3.75 0 0 1 169.6436,8.5 L176.6436,28.2969 L893.5,28.2969 A2.5,2.5 0 0 1 896,30.7969 L896,1454.83 A2.5,2.5 0 0 1 893.5,1457.33 L8.5,1457.33 A2.5,2.5 0 0 1 6,1454.83 L6,8.5 A2.5,2.5 0 0 1 8.5,6 " fill="none" style="stroke:#000000;stroke-width:1.5;"/><line style="stroke:#000000;stroke-width:1.5;" x1="6" x2="176.6436" y1="28.2969" y2="28.2969"/><text fill="#000000" font-family="sans-serif" font-size="14" font-weight="bold" lengthAdjust="spacing" textLength="157.6436" x="10" y="20.9951">aerial_robot_control</text></g><!--cluster nmpc--><g id="cluster_nmpc"><path d="M32.5,228.08 L76.375,228.08 A3.75,3.75 0 0 1 78.875,230.58 L85.875,250.3769 L869.5,250.3769 A2.5,2.5 0 0 1 872,252.8769 L872,1430.83 A2.5,2.5 0 0 1 869.5,1433.33 L32.5,1433.33 A2.5,2.5 0 0 1 30,1430.83 L30,230.58 A2.5,2.5 0 0 1 32.5,228.08 " fill="none" style="stroke:#000000;stroke-width:1.5;"/><line style="stroke:#000000;stroke-width:1.5;" x1="30" x2="85.875" y1="250.3769" y2="250.3769"/><text fill="#000000" font-family="sans-serif" font-size="14" font-weight="bold" lengthAdjust="spacing" textLength="42.875" x="34" y="243.0751">nmpc</text></g><!--class ControlBase--><g id="elem_ControlBase"><rect codeLine="5" fill="#F1F1F1" height="162.0781" id="ControlBase" rx="2.5" ry="2.5" style="stroke:#181818;stroke-width:0.5;" width="277.8496" x="252.08" y="41"/><ellipse cx="344.2524" cy="57" fill="#A9DCDF" rx="11" ry="11" style="stroke:#181818;stroke-width:1.0;"/><path d="M344.3617,52.3438 L343.2055,57.4219 L345.5336,57.4219 L344.3617,52.3438 Z M342.8774,50.1094 L345.8617,50.1094 L349.2211,62.5 L346.768,62.5 L346.0024,59.4375 L342.7211,59.4375 L341.9711,62.5 L339.5336,62.5 L342.8774,50.1094 Z " fill="#000000"/><text fill="#000000" font-family="sans-serif" font-size="14" font-style="italic" lengthAdjust="spacing" textLength="85.0049" x="364.7524" y="61.8467">ControlBase</text><line style="stroke:#181818;stroke-width:0.5;" x1="253.08" x2="528.9296" y1="73" y2="73"/><line style="stroke:#181818;stroke-width:0.5;" x1="253.08" x2="528.9296" y1="81" y2="81"/><ellipse cx="263.08" cy="94.6484" fill="#84BE84" rx="3" ry="3" style="stroke:#038048;stroke-width:1.0;"/><text fill="#000000" font-family="sans-serif" font-size="14" lengthAdjust="spacing" textLength="95.9287" x="272.08" y="97.9951">ControlBase()</text><ellipse cx="263.08" cy="110.9453" fill="#84BE84" rx="3" ry="3" style="stroke:#038048;stroke-width:1.0;"/><text fill="#000000" font-family="sans-serif" font-size="14" lengthAdjust="spacing" textLength="107.6592" x="272.08" y="114.292">~ControlBase()</text><ellipse cx="263.08" cy="127.2422" fill="#84BE84" rx="3" ry="3" style="stroke:#038048;stroke-width:1.0;"/><text fill="#000000" font-family="sans-serif" font-size="14" lengthAdjust="spacing" textLength="69.2754" x="272.08" y="130.5889">initialize()</text><ellipse cx="263.08" cy="143.5391" fill="#84BE84" rx="3" ry="3" style="stroke:#038048;stroke-width:1.0;"/><text fill="#000000" font-family="sans-serif" font-size="14" lengthAdjust="spacing" textLength="60.252" x="272.08" y="146.8857">update()</text><ellipse cx="263.08" cy="159.8359" fill="#84BE84" rx="3" ry="3" style="stroke:#038048;stroke-width:1.0;"/><text fill="#000000" font-family="sans-serif" font-size="14" lengthAdjust="spacing" textLength="67.5459" x="272.08" y="163.1826">activate()</text><ellipse cx="263.08" cy="176.1328" fill="#84BE84" rx="3" ry="3" style="stroke:#038048;stroke-width:1.0;"/><text fill="#000000" font-family="sans-serif" font-size="14" lengthAdjust="spacing" textLength="46.6895" x="272.08" y="179.4795">reset()</text><polygon fill="#FFFF44" points="263.08,187.4297,267.08,191.4297,263.08,195.4297,259.08,191.4297" style="stroke:#B38D22;stroke-width:1.0;"/><text fill="#000000" font-family="sans-serif" font-size="14" lengthAdjust="spacing" textLength="251.8496" x="272.08" y="195.7764">template&lt;class T&gt; void getParam()</text></g><!--class BaseMPC--><g id="elem_BaseMPC"><rect codeLine="15" fill="#F1F1F1" height="194.6719" id="BaseMPC" rx="2.5" ry="2.5" style="stroke:#181818;stroke-width:0.5;" width="167.2852" x="307.36" y="263.08"/><ellipse cx="354.5587" cy="279.08" fill="#A9DCDF" rx="11" ry="11" style="stroke:#181818;stroke-width:1.0;"/><path d="M354.6681,274.4237 L353.5119,279.5019 L355.84,279.5019 L354.6681,274.4237 Z M353.1837,272.1894 L356.1681,272.1894 L359.5275,284.58 L357.0744,284.58 L356.3087,281.5175 L353.0275,281.5175 L352.2775,284.58 L349.84,284.58 L353.1837,272.1894 Z " fill="#000000"/><text fill="#000000" font-family="sans-serif" font-size="14" font-style="italic" lengthAdjust="spacing" textLength="64.3877" x="375.0587" y="283.9267">BaseMPC</text><line style="stroke:#181818;stroke-width:0.5;" x1="308.36" x2="473.6452" y1="295.08" y2="295.08"/><polygon fill="none" points="318.36,303.7284,322.36,307.7284,318.36,311.7284,314.36,307.7284" style="stroke:#B38D22;stroke-width:1.0;"/><text fill="#000000" font-family="sans-serif" font-size="14" lengthAdjust="spacing" textLength="113.7568" x="327.36" y="312.0751">mpc_solver_ptr_</text><line style="stroke:#181818;stroke-width:0.5;" x1="308.36" x2="473.6452" y1="319.3769" y2="319.3769"/><polygon fill="#FFFF44" points="318.36,328.0253,322.36,332.0253,318.36,336.0253,314.36,332.0253" style="stroke:#B38D22;stroke-width:1.0;"/><text fill="#000000" font-family="sans-serif" font-size="14" lengthAdjust="spacing" textLength="84.6016" x="327.36" y="336.372">initPredXU()</text><polygon fill="#FFFF44" points="318.36,344.3222,322.36,348.3222,318.36,352.3222,314.36,348.3222" style="stroke:#B38D22;stroke-width:1.0;"/><text fill="#000000" font-family="sans-serif" font-size="14" lengthAdjust="spacing" textLength="127.0459" x="327.36" y="352.6689">initMPCSolverPtr()</text><polygon fill="#FFFF44" points="318.36,360.6191,322.36,364.6191,318.36,368.6191,314.36,364.6191" style="stroke:#B38D22;stroke-width:1.0;"/><text fill="#000000" font-family="sans-serif" font-size="14" lengthAdjust="spacing" textLength="141.2852" x="327.36" y="368.9657">callbackSetRefTraj()</text><polygon fill="#FFFF44" points="318.36,376.9159,322.36,380.9159,318.36,384.9159,314.36,380.9159" style="stroke:#B38D22;stroke-width:1.0;"/><text fill="#000000" font-family="sans-serif" font-size="14" lengthAdjust="spacing" textLength="107.0098" x="327.36" y="385.2626">rosXU2VecXU()</text><polygon fill="#FFFF44" points="318.36,393.2128,322.36,397.2128,318.36,401.2128,314.36,397.2128" style="stroke:#B38D22;stroke-width:1.0;"/><text fill="#000000" font-family="sans-serif" font-size="14" lengthAdjust="spacing" textLength="93.4336" x="327.36" y="401.5595">meas2VecX()</text><polygon fill="#FFFF44" points="318.36,409.5097,322.36,413.5097,318.36,417.5097,314.36,413.5097" style="stroke:#B38D22;stroke-width:1.0;"/><text fill="#000000" font-family="sans-serif" font-size="14" lengthAdjust="spacing" textLength="92.4697" x="327.36" y="417.8564">controlCore()</text><polygon fill="#FFFF44" points="318.36,425.8066,322.36,429.8066,318.36,433.8066,314.36,429.8066" style="stroke:#B38D22;stroke-width:1.0;"/><text fill="#000000" font-family="sans-serif" font-size="14" lengthAdjust="spacing" textLength="76.8906" x="327.36" y="434.1532">sendCmd()</text><polygon fill="#FFFF44" points="318.36,442.1034,322.36,446.1034,318.36,450.1034,314.36,446.1034" style="stroke:#B38D22;stroke-width:1.0;"/><text fill="#000000" font-family="sans-serif" font-size="14" lengthAdjust="spacing" textLength="89.0654" x="327.36" y="450.4501">callbackViz()</text></g><!--class FixQdNMPC--><g id="elem_FixQdNMPC"><rect codeLine="27" fill="#F1F1F1" height="145.7813" id="FixQdNMPC" rx="2.5" ry="2.5" style="stroke:#181818;stroke-width:0.5;" width="129.5576" x="230.22" y="672.57"/><ellipse cx="252.7144" cy="688.57" fill="#ADD1B2" rx="11" ry="11" style="stroke:#181818;stroke-width:1.0;"/><path d="M255.6832,694.2106 Q255.1051,694.5075 254.4644,694.6481 Q253.8238,694.8044 253.1207,694.8044 Q250.6207,694.8044 249.2926,693.1637 Q247.9801,691.5075 247.9801,688.3825 Q247.9801,685.2575 249.2926,683.6012 Q250.6207,681.945 253.1207,681.945 Q253.8238,681.945 254.4644,682.1012 Q255.1207,682.2575 255.6832,682.5544 L255.6832,685.2731 Q255.0582,684.695 254.4644,684.4294 Q253.8707,684.1481 253.2457,684.1481 Q251.9019,684.1481 251.2144,685.2262 Q250.5269,686.2887 250.5269,688.3825 Q250.5269,690.4762 251.2144,691.5544 Q251.9019,692.6169 253.2457,692.6169 Q253.8707,692.6169 254.4644,692.3512 Q255.0582,692.07 255.6832,691.4919 L255.6832,694.2106 Z " fill="#000000"/><text fill="#000000" font-family="sans-serif" font-size="14" lengthAdjust="spacing" textLength="80.9033" x="268.3799" y="693.4167">FixQdNMPC</text><line style="stroke:#181818;stroke-width:0.5;" x1="231.22" x2="358.7776" y1="704.57" y2="704.57"/><text fill="#000000" font-family="sans-serif" font-size="14" lengthAdjust="spacing" textLength="72.9941" x="236.22" y="721.5651">unfinished</text><line style="stroke:#181818;stroke-width:0.5;" x1="231.22" x2="358.7776" y1="728.8669" y2="728.8669"/><ellipse cx="241.22" cy="742.5153" fill="#84BE84" rx="3" ry="3" style="stroke:#038048;stroke-width:1.0;"/><text fill="#000000" font-family="sans-serif" font-size="14" lengthAdjust="spacing" textLength="91.8271" x="250.22" y="745.862">FixQdNMPC()</text><ellipse cx="241.22" cy="758.8122" fill="#84BE84" rx="3" ry="3" style="stroke:#038048;stroke-width:1.0;"/><text fill="#000000" font-family="sans-serif" font-size="14" lengthAdjust="spacing" textLength="103.5576" x="250.22" y="762.1589">~FixQdNMPC()</text><ellipse cx="241.22" cy="775.1091" fill="#84BE84" rx="3" ry="3" style="stroke:#038048;stroke-width:1.0;"/><text fill="#000000" font-family="sans-serif" font-size="14" lengthAdjust="spacing" textLength="69.2754" x="250.22" y="778.4557">initialize()</text><ellipse cx="241.22" cy="791.4059" fill="#84BE84" rx="3" ry="3" style="stroke:#038048;stroke-width:1.0;"/><text fill="#000000" font-family="sans-serif" font-size="14" lengthAdjust="spacing" textLength="60.252" x="250.22" y="794.7526">update()</text><ellipse cx="241.22" cy="807.7028" fill="#84BE84" rx="3" ry="3" style="stroke:#038048;stroke-width:1.0;"/><text fill="#000000" font-family="sans-serif" font-size="14" lengthAdjust="spacing" textLength="46.6895" x="250.22" y="811.0495">reset()</text></g><!--class TiltQdServoNMPC--><g id="elem_TiltQdServoNMPC"><rect codeLine="46" fill="#F1F1F1" height="455.4219" id="TiltQdServoNMPC" rx="2.5" ry="2.5" style="stroke:#181818;stroke-width:0.5;" width="185.0723" x="394.46" y="517.75"/><ellipse cx="423.1714" cy="533.75" fill="#ADD1B2" rx="11" ry="11" style="stroke:#181818;stroke-width:1.0;"/><path d="M426.1401,539.3906 Q425.562,539.6875 424.9214,539.8281 Q424.2808,539.9844 423.5776,539.9844 Q421.0776,539.9844 419.7495,538.3437 Q418.437,536.6875 418.437,533.5625 Q418.437,530.4375 419.7495,528.7812 Q421.0776,527.125 423.5776,527.125 Q424.2808,527.125 424.9214,527.2812 Q425.5776,527.4375 426.1401,527.7344 L426.1401,530.4531 Q425.5151,529.875 424.9214,529.6094 Q424.3276,529.3281 423.7026,529.3281 Q422.3589,529.3281 421.6714,530.4062 Q420.9839,531.4687 420.9839,533.5625 Q420.9839,535.6562 421.6714,536.7344 Q422.3589,537.7969 423.7026,537.7969 Q424.3276,537.7969 424.9214,537.5312 Q425.5151,537.25 426.1401,536.6719 L426.1401,539.3906 Z " fill="#000000"/><text fill="#000000" font-family="sans-serif" font-size="14" lengthAdjust="spacing" textLength="122.6025" x="440.2183" y="538.5967">TiltQdServoNMPC</text><line style="stroke:#181818;stroke-width:0.5;" x1="395.46" x2="578.5323" y1="549.75" y2="549.75"/><line style="stroke:#181818;stroke-width:0.5;" x1="395.46" x2="578.5323" y1="557.75" y2="557.75"/><ellipse cx="405.46" cy="571.3984" fill="#84BE84" rx="3" ry="3" style="stroke:#038048;stroke-width:1.0;"/><text fill="#000000" font-family="sans-serif" font-size="14" lengthAdjust="spacing" textLength="133.5264" x="414.46" y="574.7451">TiltQdServoNMPC()</text><ellipse cx="405.46" cy="587.6953" fill="#84BE84" rx="3" ry="3" style="stroke:#038048;stroke-width:1.0;"/><text fill="#000000" font-family="sans-serif" font-size="14" lengthAdjust="spacing" textLength="145.2568" x="414.46" y="591.042">~TiltQdServoNMPC()</text><ellipse cx="405.46" cy="603.9922" fill="#84BE84" rx="3" ry="3" style="stroke:#038048;stroke-width:1.0;"/><text fill="#000000" font-family="sans-serif" font-size="14" lengthAdjust="spacing" textLength="69.2754" x="414.46" y="607.3389">initialize()</text><ellipse cx="405.46" cy="620.2891" fill="#84BE84" rx="3" ry="3" style="stroke:#038048;stroke-width:1.0;"/><text fill="#000000" font-family="sans-serif" font-size="14" lengthAdjust="spacing" textLength="60.252" x="414.46" y="623.6357">update()</text><ellipse cx="405.46" cy="636.5859" fill="#84BE84" rx="3" ry="3" style="stroke:#038048;stroke-width:1.0;"/><text fill="#000000" font-family="sans-serif" font-size="14" lengthAdjust="spacing" textLength="46.6895" x="414.46" y="639.9326">reset()</text><polygon fill="#FFFF44" points="405.46,647.8828,409.46,651.8828,405.46,655.8828,401.46,651.8828" style="stroke:#B38D22;stroke-width:1.0;"/><text fill="#000000" font-family="sans-serif" font-size="14" lengthAdjust="spacing" textLength="127.0459" x="414.46" y="656.2295">initMPCSolverPtr()</text><polygon fill="#FFFF44" points="405.46,664.1797,409.46,668.1797,405.46,672.1797,401.46,668.1797" style="stroke:#B38D22;stroke-width:1.0;"/><text fill="#000000" font-family="sans-serif" font-size="14" lengthAdjust="spacing" textLength="92.832" x="414.46" y="672.5264">initAllocMat()</text><polygon fill="#FFFF44" points="405.46,680.4766,409.46,684.4766,405.46,688.4766,401.46,684.4766" style="stroke:#B38D22;stroke-width:1.0;"/><text fill="#000000" font-family="sans-serif" font-size="14" lengthAdjust="spacing" textLength="85.3535" x="414.46" y="688.8232">initParams()</text><polygon fill="#FFFF44" points="405.46,696.7734,409.46,700.7734,405.46,704.7734,401.46,700.7734" style="stroke:#B38D22;stroke-width:1.0;"/><text fill="#000000" font-family="sans-serif" font-size="14" lengthAdjust="spacing" textLength="78.0322" x="414.46" y="705.1201">initCostW()</text><polygon fill="#FFFF44" points="405.46,713.0703,409.46,717.0703,405.46,721.0703,401.46,717.0703" style="stroke:#B38D22;stroke-width:1.0;"/><text fill="#000000" font-family="sans-serif" font-size="14" lengthAdjust="spacing" textLength="121.3789" x="414.46" y="721.417">setControlMode()</text><polygon fill="#FFFF44" points="405.46,729.3672,409.46,733.3672,405.46,737.3672,401.46,733.3672" style="stroke:#B38D22;stroke-width:1.0;"/><text fill="#000000" font-family="sans-serif" font-size="14" lengthAdjust="spacing" textLength="108.3633" x="414.46" y="737.7139">initJointStates()</text><polygon fill="#FFFF44" points="405.46,745.6641,409.46,749.6641,405.46,753.6641,401.46,749.6641" style="stroke:#B38D22;stroke-width:1.0;"/><text fill="#000000" font-family="sans-serif" font-size="14" lengthAdjust="spacing" textLength="92.4697" x="414.46" y="754.0107">controlCore()</text><polygon fill="#FFFF44" points="405.46,761.9609,409.46,765.9609,405.46,769.9609,401.46,765.9609" style="stroke:#B38D22;stroke-width:1.0;"/><text fill="#000000" font-family="sans-serif" font-size="14" lengthAdjust="spacing" textLength="76.8906" x="414.46" y="770.3076">sendCmd()</text><polygon fill="#FFFF44" points="405.46,778.2578,409.46,782.2578,405.46,786.2578,401.46,782.2578" style="stroke:#B38D22;stroke-width:1.0;"/><text fill="#000000" font-family="sans-serif" font-size="14" lengthAdjust="spacing" textLength="130.0537" x="414.46" y="786.6045">prepareNMPCRef()</text><polygon fill="#FFFF44" points="405.46,794.5547,409.46,798.5547,405.46,802.5547,401.46,798.5547" style="stroke:#B38D22;stroke-width:1.0;"/><text fill="#000000" font-family="sans-serif" font-size="14" lengthAdjust="spacing" textLength="159.0723" x="414.46" y="802.9014">prepareNMPCParams()</text><polygon fill="#FFFF44" points="405.46,810.8516,409.46,814.8516,405.46,818.8516,401.46,814.8516" style="stroke:#B38D22;stroke-width:1.0;"/><text fill="#000000" font-family="sans-serif" font-size="14" lengthAdjust="spacing" textLength="89.0654" x="414.46" y="819.1982">callbackViz()</text><polygon fill="#FFFF44" points="405.46,827.1484,409.46,831.1484,405.46,835.1484,401.46,831.1484" style="stroke:#B38D22;stroke-width:1.0;"/><text fill="#000000" font-family="sans-serif" font-size="14" lengthAdjust="spacing" textLength="143.5479" x="414.46" y="835.4951">callbackJointStates()</text><polygon fill="#FFFF44" points="405.46,843.4453,409.46,847.4453,405.46,851.4453,401.46,847.4453" style="stroke:#B38D22;stroke-width:1.0;"/><text fill="#000000" font-family="sans-serif" font-size="14" lengthAdjust="spacing" textLength="117.9609" x="414.46" y="851.792">callbackSetRPY()</text><polygon fill="#FFFF44" points="405.46,859.7422,409.46,863.7422,405.46,867.7422,401.46,863.7422" style="stroke:#B38D22;stroke-width:1.0;"/><text fill="#000000" font-family="sans-serif" font-size="14" lengthAdjust="spacing" textLength="141.2852" x="414.46" y="868.0889">callbackSetRefTraj()</text><polygon fill="#FFFF44" points="405.46,876.0391,409.46,880.0391,405.46,884.0391,401.46,880.0391" style="stroke:#B38D22;stroke-width:1.0;"/><text fill="#000000" font-family="sans-serif" font-size="14" lengthAdjust="spacing" textLength="132.6104" x="414.46" y="884.3857">cfgNMPCCallback()</text><polygon fill="#FFFF44" points="405.46,892.3359,409.46,896.3359,405.46,900.3359,401.46,896.3359" style="stroke:#B38D22;stroke-width:1.0;"/><text fill="#000000" font-family="sans-serif" font-size="14" lengthAdjust="spacing" textLength="76.0225" x="414.46" y="900.6826">getOdom()</text><polygon fill="#FFFF44" points="405.46,908.6328,409.46,912.6328,405.46,916.6328,401.46,912.6328" style="stroke:#B38D22;stroke-width:1.0;"/><text fill="#000000" font-family="sans-serif" font-size="14" lengthAdjust="spacing" textLength="105.8682" x="414.46" y="916.9795">getCommand()</text><polygon fill="#FFFF44" points="405.46,924.9297,409.46,928.9297,405.46,932.9297,401.46,928.9297" style="stroke:#B38D22;stroke-width:1.0;"/><text fill="#000000" font-family="sans-serif" font-size="14" lengthAdjust="spacing" textLength="93.4336" x="414.46" y="933.2764">meas2VecX()</text><polygon fill="#FFFF44" points="405.46,941.2266,409.46,945.2266,405.46,949.2266,401.46,945.2266" style="stroke:#B38D22;stroke-width:1.0;"/><text fill="#000000" font-family="sans-serif" font-size="14" lengthAdjust="spacing" textLength="153.0566" x="414.46" y="949.5732">printPhysicalParams()</text><polygon fill="#FFFF44" points="405.46,957.5234,409.46,961.5234,405.46,965.5234,401.46,961.5234" style="stroke:#B38D22;stroke-width:1.0;"/><text fill="#000000" font-family="sans-serif" font-size="14" lengthAdjust="spacing" textLength="85.709" x="414.46" y="965.8701">calXrUrRef()</text></g><!--class TiltQdServoNMPCwITerm--><g id="elem_TiltQdServoNMPCwITerm"><rect codeLine="75" fill="#F1F1F1" height="162.0781" id="TiltQdServoNMPCwITerm" rx="2.5" ry="2.5" style="stroke:#181818;stroke-width:0.5;" width="206.7402" x="45.63" y="1033.17"/><ellipse cx="60.63" cy="1049.17" fill="#ADD1B2" rx="11" ry="11" style="stroke:#181818;stroke-width:1.0;"/><path d="M63.5988,1054.8106 Q63.0206,1055.1075 62.38,1055.2481 Q61.7394,1055.4044 61.0363,1055.4044 Q58.5363,1055.4044 57.2081,1053.7637 Q55.8956,1052.1075 55.8956,1048.9825 Q55.8956,1045.8575 57.2081,1044.2012 Q58.5363,1042.545 61.0363,1042.545 Q61.7394,1042.545 62.38,1042.7012 Q63.0363,1042.8575 63.5988,1043.1544 L63.5988,1045.8731 Q62.9738,1045.295 62.38,1045.0294 Q61.7863,1044.7481 61.1613,1044.7481 Q59.8175,1044.7481 59.13,1045.8262 Q58.4425,1046.8887 58.4425,1048.9825 Q58.4425,1051.0762 59.13,1052.1544 Q59.8175,1053.2169 61.1613,1053.2169 Q61.7863,1053.2169 62.38,1052.9512 Q62.9738,1052.67 63.5988,1052.0919 L63.5988,1054.8106 Z " fill="#000000"/><text fill="#000000" font-family="sans-serif" font-size="14" lengthAdjust="spacing" textLength="174.7402" x="74.63" y="1054.0167">TiltQdServoNMPCwITerm</text><line style="stroke:#181818;stroke-width:0.5;" x1="46.63" x2="251.3702" y1="1065.17" y2="1065.17"/><line style="stroke:#181818;stroke-width:0.5;" x1="46.63" x2="251.3702" y1="1073.17" y2="1073.17"/><ellipse cx="56.63" cy="1086.8184" fill="#84BE84" rx="3" ry="3" style="stroke:#038048;stroke-width:1.0;"/><text fill="#000000" font-family="sans-serif" font-size="14" lengthAdjust="spacing" textLength="69.2754" x="65.63" y="1090.1651">initialize()</text><polygon fill="#FFFF44" points="56.63,1098.1153,60.63,1102.1153,56.63,1106.1153,52.63,1102.1153" style="stroke:#B38D22;stroke-width:1.0;"/><text fill="#000000" font-family="sans-serif" font-size="14" lengthAdjust="spacing" textLength="85.3535" x="65.63" y="1106.462">initParams()</text><polygon fill="#FFFF44" points="56.63,1114.4122,60.63,1118.4122,56.63,1122.4122,52.63,1118.4122" style="stroke:#B38D22;stroke-width:1.0;"/><text fill="#000000" font-family="sans-serif" font-size="14" lengthAdjust="spacing" textLength="127.0459" x="65.63" y="1122.7589">initMPCSolverPtr()</text><polygon fill="#FFFF44" points="56.63,1130.7091,60.63,1134.7091,56.63,1138.7091,52.63,1134.7091" style="stroke:#B38D22;stroke-width:1.0;"/><text fill="#000000" font-family="sans-serif" font-size="14" lengthAdjust="spacing" textLength="159.0723" x="65.63" y="1139.0557">prepareNMPCParams()</text><polygon fill="#FFFF44" points="56.63,1147.0059,60.63,1151.0059,56.63,1155.0059,52.63,1151.0059" style="stroke:#B38D22;stroke-width:1.0;"/><text fill="#000000" font-family="sans-serif" font-size="14" lengthAdjust="spacing" textLength="143.4111" x="65.63" y="1155.3526">calcDisturbWrench()</text><polygon fill="#FFFF44" points="56.63,1163.3028,60.63,1167.3028,56.63,1171.3028,52.63,1167.3028" style="stroke:#B38D22;stroke-width:1.0;"/><text fill="#000000" font-family="sans-serif" font-size="14" lengthAdjust="spacing" textLength="89.0654" x="65.63" y="1171.6495">callbackViz()</text><polygon fill="#FFFF44" points="56.63,1179.5997,60.63,1183.5997,56.63,1187.5997,52.63,1183.5997" style="stroke:#B38D22;stroke-width:1.0;"/><text fill="#000000" font-family="sans-serif" font-size="14" lengthAdjust="spacing" textLength="132.6104" x="65.63" y="1187.9464">cfgNMPCCallback()</text></g><!--class TiltQdServoNMPCwEKF--><g id="elem_TiltQdServoNMPCwEKF"><rect codeLine="86" fill="#F1F1F1" height="113.1875" id="TiltQdServoNMPCwEKF" rx="2.5" ry="2.5" style="stroke:#181818;stroke-width:0.5;" width="192.1318" x="286.93" y="1057.62"/><ellipse cx="301.93" cy="1073.62" fill="#ADD1B2" rx="11" ry="11" style="stroke:#181818;stroke-width:1.0;"/><path d="M304.8988,1079.2606 Q304.3206,1079.5575 303.68,1079.6981 Q303.0394,1079.8544 302.3363,1079.8544 Q299.8363,1079.8544 298.5081,1078.2138 Q297.1956,1076.5575 297.1956,1073.4325 Q297.1956,1070.3075 298.5081,1068.6513 Q299.8363,1066.995 302.3363,1066.995 Q303.0394,1066.995 303.68,1067.1513 Q304.3363,1067.3075 304.8988,1067.6044 L304.8988,1070.3231 Q304.2738,1069.745 303.68,1069.4794 Q303.0863,1069.1981 302.4613,1069.1981 Q301.1175,1069.1981 300.43,1070.2763 Q299.7425,1071.3388 299.7425,1073.4325 Q299.7425,1075.5263 300.43,1076.6044 Q301.1175,1077.6669 302.4613,1077.6669 Q303.0863,1077.6669 303.68,1077.4013 Q304.2738,1077.12 304.8988,1076.5419 L304.8988,1079.2606 Z " fill="#000000"/><text fill="#000000" font-family="sans-serif" font-size="14" lengthAdjust="spacing" textLength="160.1318" x="315.93" y="1078.4667">TiltQdServoNMPCwEKF</text><line style="stroke:#181818;stroke-width:0.5;" x1="287.93" x2="478.0618" y1="1089.62" y2="1089.62"/><text fill="#000000" font-family="sans-serif" font-size="14" lengthAdjust="spacing" textLength="72.9941" x="292.93" y="1106.6151">unfinished</text><line style="stroke:#181818;stroke-width:0.5;" x1="287.93" x2="478.0618" y1="1113.9169" y2="1113.9169"/><ellipse cx="297.93" cy="1127.5653" fill="#84BE84" rx="3" ry="3" style="stroke:#038048;stroke-width:1.0;"/><text fill="#000000" font-family="sans-serif" font-size="14" lengthAdjust="spacing" textLength="69.2754" x="306.93" y="1130.912">initialize()</text><ellipse cx="297.93" cy="1143.8622" fill="#84BE84" rx="3" ry="3" style="stroke:#038048;stroke-width:1.0;"/><text fill="#000000" font-family="sans-serif" font-size="14" lengthAdjust="spacing" textLength="60.252" x="306.93" y="1147.2089">update()</text><ellipse cx="297.93" cy="1160.1591" fill="#84BE84" rx="3" ry="3" style="stroke:#038048;stroke-width:1.0;"/><text fill="#000000" font-family="sans-serif" font-size="14" lengthAdjust="spacing" textLength="46.6895" x="306.93" y="1163.5057">reset()</text></g><!--class TiltQdServoNMPCwMHE--><g id="elem_TiltQdServoNMPCwMHE"><rect codeLine="94" fill="#F1F1F1" height="145.7813" id="TiltQdServoNMPCwMHE" rx="2.5" ry="2.5" style="stroke:#181818;stroke-width:0.5;" width="214.1592" x="90.92" y="1263.4"/><ellipse cx="113.4144" cy="1279.4" fill="#ADD1B2" rx="11" ry="11" style="stroke:#181818;stroke-width:1.0;"/><path d="M116.3832,1285.0406 Q115.8051,1285.3375 115.1644,1285.4781 Q114.5238,1285.6344 113.8207,1285.6344 Q111.3207,1285.6344 109.9926,1283.9937 Q108.6801,1282.3375 108.6801,1279.2125 Q108.6801,1276.0875 109.9926,1274.4312 Q111.3207,1272.775 113.8207,1272.775 Q114.5238,1272.775 115.1644,1272.9312 Q115.8207,1273.0875 116.3832,1273.3844 L116.3832,1276.1031 Q115.7582,1275.525 115.1644,1275.2594 Q114.5707,1274.9781 113.9457,1274.9781 Q112.6019,1274.9781 111.9144,1276.0562 Q111.2269,1277.1187 111.2269,1279.2125 Q111.2269,1281.3062 111.9144,1282.3844 Q112.6019,1283.4469 113.9457,1283.4469 Q114.5707,1283.4469 115.1644,1283.1812 Q115.7582,1282.9 116.3832,1282.3219 L116.3832,1285.0406 Z " fill="#000000"/><text fill="#000000" font-family="sans-serif" font-size="14" lengthAdjust="spacing" textLength="165.5049" x="129.0799" y="1284.2467">TiltQdServoNMPCwMHE</text><line style="stroke:#181818;stroke-width:0.5;" x1="91.92" x2="304.0792" y1="1295.4" y2="1295.4"/><text fill="#000000" font-family="sans-serif" font-size="14" lengthAdjust="spacing" textLength="72.9941" x="96.92" y="1312.3951">unfinished</text><line style="stroke:#181818;stroke-width:0.5;" x1="91.92" x2="304.0792" y1="1319.6969" y2="1319.6969"/><ellipse cx="101.92" cy="1333.3453" fill="#84BE84" rx="3" ry="3" style="stroke:#038048;stroke-width:1.0;"/><text fill="#000000" font-family="sans-serif" font-size="14" lengthAdjust="spacing" textLength="176.4287" x="110.92" y="1336.692">TiltQdServoNMPCwMHE()</text><ellipse cx="101.92" cy="1349.6422" fill="#84BE84" rx="3" ry="3" style="stroke:#038048;stroke-width:1.0;"/><text fill="#000000" font-family="sans-serif" font-size="14" lengthAdjust="spacing" textLength="188.1592" x="110.92" y="1352.9889">~TiltQdServoNMPCwMHE()</text><ellipse cx="101.92" cy="1365.9391" fill="#84BE84" rx="3" ry="3" style="stroke:#038048;stroke-width:1.0;"/><text fill="#000000" font-family="sans-serif" font-size="14" lengthAdjust="spacing" textLength="69.2754" x="110.92" y="1369.2857">initialize()</text><ellipse cx="101.92" cy="1382.2359" fill="#84BE84" rx="3" ry="3" style="stroke:#038048;stroke-width:1.0;"/><text fill="#000000" font-family="sans-serif" font-size="14" lengthAdjust="spacing" textLength="60.252" x="110.92" y="1385.5826">update()</text><ellipse cx="101.92" cy="1398.5328" fill="#84BE84" rx="3" ry="3" style="stroke:#038048;stroke-width:1.0;"/><text fill="#000000" font-family="sans-serif" font-size="14" lengthAdjust="spacing" textLength="46.6895" x="110.92" y="1401.8795">reset()</text></g><!--class TiltQdServoThrustNMPCwEKF--><g id="elem_TiltQdServoThrustNMPCwEKF"><rect codeLine="104" fill="#F1F1F1" height="145.7813" id="TiltQdServoThrustNMPCwEKF" rx="2.5" ry="2.5" style="stroke:#181818;stroke-width:0.5;" width="253.623" x="340.19" y="1263.4"/><ellipse cx="362.6844" cy="1279.4" fill="#ADD1B2" rx="11" ry="11" style="stroke:#181818;stroke-width:1.0;"/><path d="M365.6532,1285.0406 Q365.0751,1285.3375 364.4344,1285.4781 Q363.7938,1285.6344 363.0907,1285.6344 Q360.5907,1285.6344 359.2626,1283.9937 Q357.9501,1282.3375 357.9501,1279.2125 Q357.9501,1276.0875 359.2626,1274.4312 Q360.5907,1272.775 363.0907,1272.775 Q363.7938,1272.775 364.4344,1272.9312 Q365.0907,1273.0875 365.6532,1273.3844 L365.6532,1276.1031 Q365.0282,1275.525 364.4344,1275.2594 Q363.8407,1274.9781 363.2157,1274.9781 Q361.8719,1274.9781 361.1844,1276.0562 Q360.4969,1277.1187 360.4969,1279.2125 Q360.4969,1281.3062 361.1844,1282.3844 Q361.8719,1283.4469 363.2157,1283.4469 Q363.8407,1283.4469 364.4344,1283.1812 Q365.0282,1282.9 365.6532,1282.3219 L365.6532,1285.0406 Z " fill="#000000"/><text fill="#000000" font-family="sans-serif" font-size="14" lengthAdjust="spacing" textLength="204.9688" x="378.3499" y="1284.2467">TiltQdServoThrustNMPCwEKF</text><line style="stroke:#181818;stroke-width:0.5;" x1="341.19" x2="592.813" y1="1295.4" y2="1295.4"/><text fill="#000000" font-family="sans-serif" font-size="14" lengthAdjust="spacing" textLength="72.9941" x="346.19" y="1312.3951">unfinished</text><line style="stroke:#181818;stroke-width:0.5;" x1="341.19" x2="592.813" y1="1319.6969" y2="1319.6969"/><ellipse cx="351.19" cy="1333.3453" fill="#84BE84" rx="3" ry="3" style="stroke:#038048;stroke-width:1.0;"/><text fill="#000000" font-family="sans-serif" font-size="14" lengthAdjust="spacing" textLength="215.8926" x="360.19" y="1336.692">TiltQdServoThrustNMPCwEKF()</text><ellipse cx="351.19" cy="1349.6422" fill="#84BE84" rx="3" ry="3" style="stroke:#038048;stroke-width:1.0;"/><text fill="#000000" font-family="sans-serif" font-size="14" lengthAdjust="spacing" textLength="227.623" x="360.19" y="1352.9889">~TiltQdServoThrustNMPCwEKF()</text><ellipse cx="351.19" cy="1365.9391" fill="#84BE84" rx="3" ry="3" style="stroke:#038048;stroke-width:1.0;"/><text fill="#000000" font-family="sans-serif" font-size="14" lengthAdjust="spacing" textLength="69.2754" x="360.19" y="1369.2857">initialize()</text><ellipse cx="351.19" cy="1382.2359" fill="#84BE84" rx="3" ry="3" style="stroke:#038048;stroke-width:1.0;"/><text fill="#000000" font-family="sans-serif" font-size="14" lengthAdjust="spacing" textLength="60.252" x="360.19" y="1385.5826">update()</text><ellipse cx="351.19" cy="1398.5328" fill="#84BE84" rx="3" ry="3" style="stroke:#038048;stroke-width:1.0;"/><text fill="#000000" font-family="sans-serif" font-size="14" lengthAdjust="spacing" textLength="46.6895" x="360.19" y="1401.8795">reset()</text></g><!--class TiltTriServoNMPC--><g id="elem_TiltTriServoNMPC"><rect codeLine="114" fill="#F1F1F1" height="96.8906" id="TiltTriServoNMPC" rx="2.5" ry="2.5" style="stroke:#181818;stroke-width:0.5;" width="153.0459" x="514.48" y="1065.77"/><ellipse cx="529.5486" cy="1081.77" fill="#ADD1B2" rx="11" ry="11" style="stroke:#181818;stroke-width:1.0;"/><path d="M532.5173,1087.4106 Q531.9392,1087.7075 531.2986,1087.8481 Q530.6579,1088.0044 529.9548,1088.0044 Q527.4548,1088.0044 526.1267,1086.3638 Q524.8142,1084.7075 524.8142,1081.5825 Q524.8142,1078.4575 526.1267,1076.8013 Q527.4548,1075.145 529.9548,1075.145 Q530.6579,1075.145 531.2986,1075.3013 Q531.9548,1075.4575 532.5173,1075.7544 L532.5173,1078.4731 Q531.8923,1077.895 531.2986,1077.6294 Q530.7048,1077.3481 530.0798,1077.3481 Q528.7361,1077.3481 528.0486,1078.4263 Q527.3611,1079.4888 527.3611,1081.5825 Q527.3611,1083.6763 528.0486,1084.7544 Q528.7361,1085.8169 530.0798,1085.8169 Q530.7048,1085.8169 531.2986,1085.5513 Q531.8923,1085.27 532.5173,1084.6919 L532.5173,1087.4106 Z " fill="#000000"/><text fill="#000000" font-family="sans-serif" font-size="14" lengthAdjust="spacing" textLength="120.8936" x="543.5638" y="1086.6167">TiltTriServoNMPC</text><line style="stroke:#181818;stroke-width:0.5;" x1="515.48" x2="666.5259" y1="1097.77" y2="1097.77"/><line style="stroke:#181818;stroke-width:0.5;" x1="515.48" x2="666.5259" y1="1105.77" y2="1105.77"/><polygon fill="#FFFF44" points="525.48,1114.4184,529.48,1118.4184,525.48,1122.4184,521.48,1118.4184" style="stroke:#B38D22;stroke-width:1.0;"/><text fill="#000000" font-family="sans-serif" font-size="14" lengthAdjust="spacing" textLength="127.0459" x="534.48" y="1122.7651">initMPCSolverPtr()</text><polygon fill="#FFFF44" points="525.48,1130.7153,529.48,1134.7153,525.48,1138.7153,521.48,1134.7153" style="stroke:#B38D22;stroke-width:1.0;"/><text fill="#000000" font-family="sans-serif" font-size="14" lengthAdjust="spacing" textLength="92.832" x="534.48" y="1139.062">initAllocMat()</text><polygon fill="#FFFF44" points="525.48,1147.0122,529.48,1151.0122,525.48,1155.0122,521.48,1151.0122" style="stroke:#B38D22;stroke-width:1.0;"/><text fill="#000000" font-family="sans-serif" font-size="14" lengthAdjust="spacing" textLength="85.709" x="534.48" y="1155.3589">calXrUrRef()</text></g><!--class TiltBiServoNMPC--><g id="elem_TiltBiServoNMPC"><rect codeLine="121" fill="#F1F1F1" height="96.8906" id="TiltBiServoNMPC" rx="2.5" ry="2.5" style="stroke:#181818;stroke-width:0.5;" width="153.0459" x="702.48" y="1065.77"/><ellipse cx="719.665" cy="1081.77" fill="#ADD1B2" rx="11" ry="11" style="stroke:#181818;stroke-width:1.0;"/><path d="M722.6337,1087.4106 Q722.0556,1087.7075 721.415,1087.8481 Q720.7743,1088.0044 720.0712,1088.0044 Q717.5712,1088.0044 716.2431,1086.3638 Q714.9306,1084.7075 714.9306,1081.5825 Q714.9306,1078.4575 716.2431,1076.8013 Q717.5712,1075.145 720.0712,1075.145 Q720.7743,1075.145 721.415,1075.3013 Q722.0712,1075.4575 722.6337,1075.7544 L722.6337,1078.4731 Q722.0087,1077.895 721.415,1077.6294 Q720.8212,1077.3481 720.1962,1077.3481 Q718.8525,1077.3481 718.165,1078.4263 Q717.4775,1079.4888 717.4775,1081.5825 Q717.4775,1083.6763 718.165,1084.7544 Q718.8525,1085.8169 720.1962,1085.8169 Q720.8212,1085.8169 721.415,1085.5513 Q722.0087,1085.27 722.6337,1084.6919 L722.6337,1087.4106 Z " fill="#000000"/><text fill="#000000" font-family="sans-serif" font-size="14" lengthAdjust="spacing" textLength="116.1904" x="734.1505" y="1086.6167">TiltBiServoNMPC</text><line style="stroke:#181818;stroke-width:0.5;" x1="703.48" x2="854.5259" y1="1097.77" y2="1097.77"/><line style="stroke:#181818;stroke-width:0.5;" x1="703.48" x2="854.5259" y1="1105.77" y2="1105.77"/><polygon fill="#FFFF44" points="713.48,1114.4184,717.48,1118.4184,713.48,1122.4184,709.48,1118.4184" style="stroke:#B38D22;stroke-width:1.0;"/><text fill="#000000" font-family="sans-serif" font-size="14" lengthAdjust="spacing" textLength="127.0459" x="722.48" y="1122.7651">initMPCSolverPtr()</text><polygon fill="#FFFF44" points="713.48,1130.7153,717.48,1134.7153,713.48,1138.7153,709.48,1134.7153" style="stroke:#B38D22;stroke-width:1.0;"/><text fill="#000000" font-family="sans-serif" font-size="14" lengthAdjust="spacing" textLength="92.832" x="722.48" y="1139.062">initAllocMat()</text><polygon fill="#FFFF44" points="713.48,1147.0122,717.48,1151.0122,713.48,1155.0122,709.48,1151.0122" style="stroke:#B38D22;stroke-width:1.0;"/><text fill="#000000" font-family="sans-serif" font-size="14" lengthAdjust="spacing" textLength="85.709" x="722.48" y="1155.3589">calXrUrRef()</text></g><!--class TiltBi2OrdServoNMPC--><g id="elem_TiltBi2OrdServoNMPC"><rect codeLine="128" fill="#F1F1F1" height="162.0781" id="TiltBi2OrdServoNMPC" rx="2.5" ry="2.5" style="stroke:#181818;stroke-width:0.5;" width="182.7598" x="673.62" y="1255.25"/><ellipse cx="688.62" cy="1271.25" fill="#ADD1B2" rx="11" ry="11" style="stroke:#181818;stroke-width:1.0;"/><path d="M691.5888,1276.8906 Q691.0106,1277.1875 690.37,1277.3281 Q689.7294,1277.4844 689.0263,1277.4844 Q686.5263,1277.4844 685.1981,1275.8438 Q683.8856,1274.1875 683.8856,1271.0625 Q683.8856,1267.9375 685.1981,1266.2813 Q686.5263,1264.625 689.0263,1264.625 Q689.7294,1264.625 690.37,1264.7813 Q691.0263,1264.9375 691.5888,1265.2344 L691.5888,1267.9531 Q690.9638,1267.375 690.37,1267.1094 Q689.7763,1266.8281 689.1513,1266.8281 Q687.8075,1266.8281 687.12,1267.9063 Q686.4325,1268.9688 686.4325,1271.0625 Q686.4325,1273.1563 687.12,1274.2344 Q687.8075,1275.2969 689.1513,1275.2969 Q689.7763,1275.2969 690.37,1275.0313 Q690.9638,1274.75 691.5888,1274.1719 L691.5888,1276.8906 Z " fill="#000000"/><text fill="#000000" font-family="sans-serif" font-size="14" lengthAdjust="spacing" textLength="150.7598" x="702.62" y="1276.0967">TiltBi2OrdServoNMPC</text><line style="stroke:#181818;stroke-width:0.5;" x1="674.62" x2="855.3798" y1="1287.25" y2="1287.25"/><line style="stroke:#181818;stroke-width:0.5;" x1="674.62" x2="855.3798" y1="1295.25" y2="1295.25"/><polygon fill="#FFFF44" points="684.62,1303.8984,688.62,1307.8984,684.62,1311.8984,680.62,1307.8984" style="stroke:#B38D22;stroke-width:1.0;"/><text fill="#000000" font-family="sans-serif" font-size="14" lengthAdjust="spacing" textLength="127.0459" x="693.62" y="1312.2451">initMPCSolverPtr()</text><polygon fill="#FFFF44" points="684.62,1320.1953,688.62,1324.1953,684.62,1328.1953,680.62,1324.1953" style="stroke:#B38D22;stroke-width:1.0;"/><text fill="#000000" font-family="sans-serif" font-size="14" lengthAdjust="spacing" textLength="78.0322" x="693.62" y="1328.542">initCostW()</text><polygon fill="#FFFF44" points="684.62,1336.4922,688.62,1340.4922,684.62,1344.4922,680.62,1340.4922" style="stroke:#B38D22;stroke-width:1.0;"/><text fill="#000000" font-family="sans-serif" font-size="14" lengthAdjust="spacing" textLength="108.3633" x="693.62" y="1344.8389">initJointStates()</text><polygon fill="#FFFF44" points="684.62,1352.7891,688.62,1356.7891,684.62,1360.7891,680.62,1356.7891" style="stroke:#B38D22;stroke-width:1.0;"/><text fill="#000000" font-family="sans-serif" font-size="14" lengthAdjust="spacing" textLength="93.4336" x="693.62" y="1361.1357">meas2VecX()</text><polygon fill="#FFFF44" points="684.62,1369.0859,688.62,1373.0859,684.62,1377.0859,680.62,1373.0859" style="stroke:#B38D22;stroke-width:1.0;"/><text fill="#000000" font-family="sans-serif" font-size="14" lengthAdjust="spacing" textLength="143.5479" x="693.62" y="1377.4326">callbackJointStates()</text><polygon fill="#FFFF44" points="684.62,1385.3828,688.62,1389.3828,684.62,1393.3828,680.62,1389.3828" style="stroke:#B38D22;stroke-width:1.0;"/><text fill="#000000" font-family="sans-serif" font-size="14" lengthAdjust="spacing" textLength="132.6104" x="693.62" y="1393.7295">cfgNMPCCallback()</text><polygon fill="#FFFF44" points="684.62,1401.6797,688.62,1405.6797,684.62,1409.6797,680.62,1405.6797" style="stroke:#B38D22;stroke-width:1.0;"/><text fill="#000000" font-family="sans-serif" font-size="14" lengthAdjust="spacing" textLength="85.709" x="693.62" y="1410.0264">calXrUrRef()</text></g><!--reverse link ControlBase to BaseMPC--><g id="link_ControlBase_BaseMPC"><path d="M391,221.4 C391,240.54 391,243.15 391,262.93 " fill="none" id="ControlBase-backto-BaseMPC" style="stroke:#181818;stroke-width:1.0;"/><polygon fill="none" points="391,203.4,385,221.4,397,221.4,391,203.4" style="stroke:#181818;stroke-width:1.0;"/></g><!--reverse link BaseMPC to FixQdNMPC--><g id="link_BaseMPC_FixQdNMPC"><path d="M362.402,475.5295 C345.702,542.1295 328.26,611.75 313.08,672.32 " fill="none" id="BaseMPC-backto-FixQdNMPC" style="stroke:#181818;stroke-width:1.0;"/><polygon fill="none" points="366.78,458.07,356.5822,474.0702,368.2218,476.9888,366.78,458.07" style="stroke:#181818;stroke-width:1.0;"/></g><!--reverse link BaseMPC to TiltQdServoNMPC--><g id="link_BaseMPC_TiltQdServoNMPC"><path d="M419.5967,475.5298 C424.2367,494.0398 424.9,496.67 430.07,517.33 " fill="none" id="BaseMPC-backto-TiltQdServoNMPC" style="stroke:#181818;stroke-width:1.0;"/><polygon fill="none" points="415.22,458.07,413.7768,476.9887,425.4167,474.0709,415.22,458.07" style="stroke:#181818;stroke-width:1.0;"/></g><!--reverse link TiltQdServoNMPC to TiltQdServoNMPCwITerm--><g id="link_TiltQdServoNMPC_TiltQdServoNMPCwITerm"><path d="M382.9508,967.4863 C377.5308,974.4263 382.94,966.9 377,973.17 C339.26,1013.06 315.88,1004.58 269,1033.17 C263.66,1036.43 258.21,1039.82 252.73,1043.28 " fill="none" id="TiltQdServoNMPC-backto-TiltQdServoNMPCwITerm" style="stroke:#181818;stroke-width:1.0;"/><polygon fill="none" points="394.03,953.3,378.222,963.7932,387.6796,971.1794,394.03,953.3" style="stroke:#181818;stroke-width:1.0;"/></g><!--reverse link TiltQdServoNMPC to TiltQdServoNMPCwEKF--><g id="link_TiltQdServoNMPC_TiltQdServoNMPCwEKF"><path d="M417.7035,990.8284 C408.9435,1021.7484 405.58,1033.59 398.89,1057.19 " fill="none" id="TiltQdServoNMPC-backto-TiltQdServoNMPCwEKF" style="stroke:#181818;stroke-width:1.0;"/><polygon fill="none" points="422.61,973.51,411.9307,989.1929,423.4763,992.4639,422.61,973.51" style="stroke:#181818;stroke-width:1.0;"/></g><!--reverse link TiltQdServoNMPCwEKF to TiltQdServoNMPCwMHE--><g id="link_TiltQdServoNMPCwEKF_TiltQdServoNMPCwMHE"><path d="M324.4987,1184.8095 C300.9487,1212.8295 283.72,1233.32 258.53,1263.29 " fill="none" id="TiltQdServoNMPCwEKF-backto-TiltQdServoNMPCwMHE" style="stroke:#181818;stroke-width:1.0;"/><polygon fill="none" points="336.08,1171.03,319.9056,1180.9491,329.0919,1188.6699,336.08,1171.03" style="stroke:#181818;stroke-width:1.0;"/></g><!--reverse link TiltQdServoNMPCwEKF to TiltQdServoThrustNMPCwEKF--><g id="link_TiltQdServoNMPCwEKF_TiltQdServoThrustNMPCwEKF"><path d="M410.7262,1187.8476 C421.4162,1215.8676 428.08,1233.32 439.52,1263.29 " fill="none" id="TiltQdServoNMPCwEKF-backto-TiltQdServoThrustNMPCwEKF" style="stroke:#181818;stroke-width:1.0;"/><polygon fill="none" points="404.31,1171.03,405.1203,1189.9864,416.332,1185.7089,404.31,1171.03" style="stroke:#181818;stroke-width:1.0;"/></g><!--reverse link TiltQdServoNMPC to TiltTriServoNMPC--><g id="link_TiltQdServoNMPC_TiltTriServoNMPC"><path d="M556.2966,990.8283 C566.0966,1025.4183 570.38,1040.48 577.43,1065.34 " fill="none" id="TiltQdServoNMPC-backto-TiltTriServoNMPC" style="stroke:#181818;stroke-width:1.0;"/><polygon fill="none" points="551.39,973.51,550.5238,992.4639,562.0694,989.1928,551.39,973.51" style="stroke:#181818;stroke-width:1.0;"/></g><!--reverse link TiltQdServoNMPC to TiltBiServoNMPC--><g id="link_TiltQdServoNMPC_TiltBiServoNMPC"><path d="M591.2021,877.3415 C645.6321,945.7015 700.22,1014.26 740.84,1065.28 " fill="none" id="TiltQdServoNMPC-backto-TiltBiServoNMPC" style="stroke:#181818;stroke-width:1.0;"/><polygon fill="none" points="579.99,863.26,586.5082,881.0789,595.8959,873.6042,579.99,863.26" style="stroke:#181818;stroke-width:1.0;"/></g><!--reverse link TiltBiServoNMPC to TiltBi2OrdServoNMPC--><g id="link_TiltBiServoNMPC_TiltBi2OrdServoNMPC"><path d="M774.8189,1180.9338 C773.1089,1207.8538 772.06,1224.24 770.1,1255.17 " fill="none" id="TiltBiServoNMPC-backto-TiltBi2OrdServoNMPC" style="stroke:#181818;stroke-width:1.0;"/><polygon fill="none" points="775.96,1162.97,768.831,1180.5534,780.8068,1181.3142,775.96,1162.97" style="stroke:#181818;stroke-width:1.0;"/></g><!--SRC=[lLRTRjCm5BxFKrZQHK0CnZhOK0H8B6nYeB92kn-kAjTsMqCSHyTkAPlO4_18l1ElWDDaIRmaRTCoSkLyTdpEzvs_k6Ej8-Njx4G13lL414-853iam4ezfXoF00l7KKoZ40kc8anObqKOi9Q0FCzny41fm4IZ-IS8C-0uw8CSIDqdCjGW0y_payKXLWnTEyWyZr01U_0mnMwgG1voRUxaLpaqYIZM-QinpwT509ZnE7tRGfe9GqwpbucBlTTeAZb58wOxXeWmvtwko2CK4V6ysBjsnqTifbb8L-UyXSpdVIM3AOD-fA6VeZ713Z1wUPQv74F6H7T-jgCXso0u20QOVEio_PaDUu2_PbiWrULPwvoHmZs2OJM7yWiIjtm9BCEKeU4BMZ9opgyISPPhSindd-Z7vQhO2buxxgnFkK2lqExUDfgawsVRABfTkiua71evr9ZHDBgPhJnloj3ohBbD4iFFNKwmnmFTW66kX-5OIVA5wxY98_dLnfiKkwa2BKxk7LAkpSfTAMo9bIw3gTmeU0S5NbRmYWmpCtdSwZPMZzwIUeattWI196ridvwNlh8WNofzKIWAdPPmMr9c7NmlUQYxshYZ6jLL177hP35JKxnLy1slx4AqiKed2jsXysMLfa66ezYkdvx8SDCSJwaKnNTV2e53kg2tH61Swen_A6uibgbSmXaalDV9pUydFGPYfGozczLrcVhdzwyiLtUVkdMvLvimbHctC9haBLTw0eCBO24PBuvpAJ9hgNRquNXJpLfxTTLTQisDkcvpCkrtH-kGcOkm7g4A3sgxbxLvVqhqnZ1HUfFWblGuM4SFsuzALMgEt8CsFU3DfjYY7h6Vox5VccPDXyrwZU_m7z9vNlTdzJ_fj4w1DgTKbA6cYpUcP8_vkdbUyUUyQF3MZ55RhRy0]--></g></svg>