<svg xmlns="http://www.w3.org/2000/svg" xmlns:xlink="http://www.w3.org/1999/xlink" contentStyleType="text/css" height="287px" preserveAspectRatio="none" style="width:793px;height:287px;background:#FFFFFF;" version="1.1" viewBox="0 0 793 287" width="793px" zoomAndPan="magnify"><defs/><g><!--cluster aerial_robot_control--><g id="cluster_aerial_robot_control"><path d="M8.5,6 L167.1436,6 A3.75,3.75 0 0 1 169.6436,8.5 L176.6436,28.2969 L783.5,28.2969 A2.5,2.5 0 0 1 786,30.7969 L786,277.5 A2.5,2.5 0 0 1 783.5,280 L8.5,280 A2.5,2.5 0 0 1 6,277.5 L6,8.5 A2.5,2.5 0 0 1 8.5,6 " fill="none" style="stroke:#000000;stroke-width:1.5;"/><line style="stroke:#000000;stroke-width:1.5;" x1="6" x2="176.6436" y1="28.2969" y2="28.2969"/><text fill="#000000" font-family="sans-serif" font-size="14" font-weight="bold" lengthAdjust="spacing" textLength="157.6436" x="10" y="20.9951">aerial_robot_control</text></g><!--cluster nmpc--><g id="cluster_nmpc"><path d="M32.5,49 L76.375,49 A3.75,3.75 0 0 1 78.875,51.5 L85.875,71.2969 L759.5,71.2969 A2.5,2.5 0 0 1 762,73.7969 L762,253.5 A2.5,2.5 0 0 1 759.5,256 L32.5,256 A2.5,2.5 0 0 1 30,253.5 L30,51.5 A2.5,2.5 0 0 1 32.5,49 " fill="none" style="stroke:#000000;stroke-width:1.5;"/><line style="stroke:#000000;stroke-width:1.5;" x1="30" x2="85.875" y1="71.2969" y2="71.2969"/><text fill="#000000" font-family="sans-serif" font-size="14" font-weight="bold" lengthAdjust="spacing" textLength="42.875" x="34" y="63.9951">nmpc</text></g><!--class BaseMPCSolver--><g id="elem_BaseMPCSolver"><rect codeLine="5" fill="#F1F1F1" height="48" id="BaseMPCSolver" rx="2.5" ry="2.5" style="stroke:#181818;stroke-width:0.5;" width="140.3838" x="328.81" y="84"/><ellipse cx="343.81" cy="100" fill="#A9DCDF" rx="11" ry="11" style="stroke:#181818;stroke-width:1.0;"/><path d="M343.9194,95.3438 L342.7631,100.4219 L345.0913,100.4219 L343.9194,95.3438 Z M342.435,93.1094 L345.4194,93.1094 L348.7788,105.5 L346.3256,105.5 L345.56,102.4375 L342.2788,102.4375 L341.5288,105.5 L339.0913,105.5 L342.435,93.1094 Z " fill="#000000"/><text fill="#000000" font-family="sans-serif" font-size="14" font-style="italic" lengthAdjust="spacing" textLength="108.3838" x="357.81" y="104.8467">BaseMPCSolver</text><line style="stroke:#181818;stroke-width:0.5;" x1="329.81" x2="468.1938" y1="116" y2="116"/><line style="stroke:#181818;stroke-width:0.5;" x1="329.81" x2="468.1938" y1="124" y2="124"/></g><!--class TiltQdServoMdlMPCSolver--><g id="elem_TiltQdServoMdlMPCSolver"><rect codeLine="9" fill="#F1F1F1" height="48" id="TiltQdServoMdlMPCSolver" rx="2.5" ry="2.5" style="stroke:#181818;stroke-width:0.5;" width="212.9814" x="45.51" y="192"/><ellipse cx="60.51" cy="208" fill="#ADD1B2" rx="11" ry="11" style="stroke:#181818;stroke-width:1.0;"/><path d="M63.4788,213.6406 Q62.9006,213.9375 62.26,214.0781 Q61.6194,214.2344 60.9163,214.2344 Q58.4163,214.2344 57.0881,212.5938 Q55.7756,210.9375 55.7756,207.8125 Q55.7756,204.6875 57.0881,203.0313 Q58.4163,201.375 60.9163,201.375 Q61.6194,201.375 62.26,201.5313 Q62.9163,201.6875 63.4788,201.9844 L63.4788,204.7031 Q62.8538,204.125 62.26,203.8594 Q61.6663,203.5781 61.0413,203.5781 Q59.6975,203.5781 59.01,204.6563 Q58.3225,205.7188 58.3225,207.8125 Q58.3225,209.9063 59.01,210.9844 Q59.6975,212.0469 61.0413,212.0469 Q61.6663,212.0469 62.26,211.7813 Q62.8538,211.5 63.4788,210.9219 L63.4788,213.6406 Z " fill="#000000"/><text fill="#000000" font-family="sans-serif" font-size="14" lengthAdjust="spacing" textLength="180.9814" x="74.51" y="212.8467">TiltQdServoMdlMPCSolver</text><line style="stroke:#181818;stroke-width:0.5;" x1="46.51" x2="257.4914" y1="224" y2="224"/><line style="stroke:#181818;stroke-width:0.5;" x1="46.51" x2="257.4914" y1="232" y2="232"/></g><!--class TiltTriServoMdlMPCSolver--><g id="elem_TiltTriServoMdlMPCSolver"><rect codeLine="12" fill="#F1F1F1" height="48" id="TiltTriServoMdlMPCSolver" rx="2.5" ry="2.5" style="stroke:#181818;stroke-width:0.5;" width="211.2725" x="293.36" y="192"/><ellipse cx="308.36" cy="208" fill="#ADD1B2" rx="11" ry="11" style="stroke:#181818;stroke-width:1.0;"/><path d="M311.3288,213.6406 Q310.7506,213.9375 310.11,214.0781 Q309.4694,214.2344 308.7663,214.2344 Q306.2663,214.2344 304.9381,212.5938 Q303.6256,210.9375 303.6256,207.8125 Q303.6256,204.6875 304.9381,203.0313 Q306.2663,201.375 308.7663,201.375 Q309.4694,201.375 310.11,201.5313 Q310.7663,201.6875 311.3288,201.9844 L311.3288,204.7031 Q310.7038,204.125 310.11,203.8594 Q309.5163,203.5781 308.8913,203.5781 Q307.5475,203.5781 306.86,204.6563 Q306.1725,205.7188 306.1725,207.8125 Q306.1725,209.9063 306.86,210.9844 Q307.5475,212.0469 308.8913,212.0469 Q309.5163,212.0469 310.11,211.7813 Q310.7038,211.5 311.3288,210.9219 L311.3288,213.6406 Z " fill="#000000"/><text fill="#000000" font-family="sans-serif" font-size="14" lengthAdjust="spacing" textLength="179.2725" x="322.36" y="212.8467">TiltTriServoMdlMPCSolver</text><line style="stroke:#181818;stroke-width:0.5;" x1="294.36" x2="503.6325" y1="224" y2="224"/><line style="stroke:#181818;stroke-width:0.5;" x1="294.36" x2="503.6325" y1="232" y2="232"/></g><!--class TiltBiServoMdlMPCSolver--><g id="elem_TiltBiServoMdlMPCSolver"><rect codeLine="15" fill="#F1F1F1" height="48" id="TiltBiServoMdlMPCSolver" rx="2.5" ry="2.5" style="stroke:#181818;stroke-width:0.5;" width="206.5693" x="539.72" y="192"/><ellipse cx="554.72" cy="208" fill="#ADD1B2" rx="11" ry="11" style="stroke:#181818;stroke-width:1.0;"/><path d="M557.6888,213.6406 Q557.1106,213.9375 556.47,214.0781 Q555.8294,214.2344 555.1263,214.2344 Q552.6263,214.2344 551.2981,212.5938 Q549.9856,210.9375 549.9856,207.8125 Q549.9856,204.6875 551.2981,203.0313 Q552.6263,201.375 555.1263,201.375 Q555.8294,201.375 556.47,201.5313 Q557.1263,201.6875 557.6888,201.9844 L557.6888,204.7031 Q557.0638,204.125 556.47,203.8594 Q555.8763,203.5781 555.2513,203.5781 Q553.9075,203.5781 553.22,204.6563 Q552.5325,205.7188 552.5325,207.8125 Q552.5325,209.9063 553.22,210.9844 Q553.9075,212.0469 555.2513,212.0469 Q555.8763,212.0469 556.47,211.7813 Q557.0638,211.5 557.6888,210.9219 L557.6888,213.6406 Z " fill="#000000"/><text fill="#000000" font-family="sans-serif" font-size="14" lengthAdjust="spacing" textLength="174.5693" x="568.72" y="212.8467">TiltBiServoMdlMPCSolver</text><line style="stroke:#181818;stroke-width:0.5;" x1="540.72" x2="745.2893" y1="224" y2="224"/><line style="stroke:#181818;stroke-width:0.5;" x1="540.72" x2="745.2893" y1="232" y2="232"/></g><!--reverse link BaseMPCSolver to TiltQdServoMdlMPCSolver--><g id="link_BaseMPCSolver_TiltQdServoMdlMPCSolver"><path codeLine="18" d="M327.9487,139.4883 C286.8887,157.1083 247.4,174.06 206.37,191.67 " fill="none" id="BaseMPCSolver-backto-TiltQdServoMdlMPCSolver" style="stroke:#181818;stroke-width:1.0;"/><polygon fill="none" points="344.49,132.39,325.5826,133.9746,330.3148,145.0021,344.49,132.39" style="stroke:#181818;stroke-width:1.0;"/></g><!--reverse link BaseMPCSolver to TiltTriServoMdlMPCSolver--><g id="link_BaseMPCSolver_TiltTriServoMdlMPCSolver"><path codeLine="19" d="M399,150.26 C399,167.94 399,174.13 399,191.79 " fill="none" id="BaseMPCSolver-backto-TiltTriServoMdlMPCSolver" style="stroke:#181818;stroke-width:1.0;"/><polygon fill="none" points="399,132.26,393,150.26,405,150.26,399,132.26" style="stroke:#181818;stroke-width:1.0;"/></g><!--reverse link BaseMPCSolver to TiltBiServoMdlMPCSolver--><g id="link_BaseMPCSolver_TiltBiServoMdlMPCSolver"><path codeLine="20" d="M469.3595,139.562 C509.9195,157.182 548.76,174.06 589.29,191.67 " fill="none" id="BaseMPCSolver-backto-TiltBiServoMdlMPCSolver" style="stroke:#181818;stroke-width:1.0;"/><polygon fill="none" points="452.85,132.39,466.9688,145.0652,471.7501,134.0589,452.85,132.39" style="stroke:#181818;stroke-width:1.0;"/></g><!--SRC=[fO-nYiD034HxVOMwL8xxvQfS7KXmUYElnSMWNIrQNPgx_7kC0u50p1sa7StJp6pExgM6jYr2sR-JRAEcDWhLsemJVHabWCgEcHBNGf4xBcJaQXW200tLZQBZWY2nJIIzwQ3UHyrkAY7aL688EwgyFtnsAXSsW0s9e9yPwoBCh34EisT4pVV37Baez-S0VsUS9l7ZsB5TT3_A8mr_uFfV_6JJM_nk3N_QZn-_JOChTTUihwgjUL_Kk040]--></g></svg>