<svg xmlns="http://www.w3.org/2000/svg" xmlns:xlink="http://www.w3.org/1999/xlink" contentStyleType="text/css" height="287px" preserveAspectRatio="none" style="width:1537px;height:287px;background:#FFFFFF;" version="1.1" viewBox="0 0 1537 287" width="1537px" zoomAndPan="magnify"><defs/><g><!--cluster aerial_robot_control--><g id="cluster_aerial_robot_control"><path d="M8.5,6 L167.1436,6 A3.75,3.75 0 0 1 169.6436,8.5 L176.6436,28.2969 L1527.5,28.2969 A2.5,2.5 0 0 1 1530,30.7969 L1530,277.5 A2.5,2.5 0 0 1 1527.5,280 L8.5,280 A2.5,2.5 0 0 1 6,277.5 L6,8.5 A2.5,2.5 0 0 1 8.5,6 " fill="none" style="stroke:#000000;stroke-width:1.5;"/><line style="stroke:#000000;stroke-width:1.5;" x1="6" x2="176.6436" y1="28.2969" y2="28.2969"/><text fill="#000000" font-family="sans-serif" font-size="14" font-weight="bold" lengthAdjust="spacing" textLength="157.6436" x="10" y="20.9951">aerial_robot_control</text></g><!--cluster mpc_solver--><g id="cluster_mpc_solver"><path d="M32.5,49 L121.6836,49 A3.75,3.75 0 0 1 124.1836,51.5 L131.1836,71.2969 L1503.5,71.2969 A2.5,2.5 0 0 1 1506,73.7969 L1506,253.5 A2.5,2.5 0 0 1 1503.5,256 L32.5,256 A2.5,2.5 0 0 1 30,253.5 L30,51.5 A2.5,2.5 0 0 1 32.5,49 " fill="none" style="stroke:#000000;stroke-width:1.5;"/><line style="stroke:#000000;stroke-width:1.5;" x1="30" x2="131.1836" y1="71.2969" y2="71.2969"/><text fill="#000000" font-family="sans-serif" font-size="14" font-weight="bold" lengthAdjust="spacing" textLength="88.1836" x="34" y="63.9951">mpc_solver</text></g><!--class BaseMPCSolver--><g id="elem_BaseMPCSolver"><rect codeLine="5" fill="#F1F1F1" height="48" id="BaseMPCSolver" rx="2.5" ry="2.5" style="stroke:#181818;stroke-width:0.5;" width="140.3838" x="726.81" y="84"/><ellipse cx="741.81" cy="100" fill="#A9DCDF" rx="11" ry="11" style="stroke:#181818;stroke-width:1.0;"/><path d="M741.9194,95.3438 L740.7631,100.4219 L743.0913,100.4219 L741.9194,95.3438 Z M740.435,93.1094 L743.4194,93.1094 L746.7788,105.5 L744.3256,105.5 L743.56,102.4375 L740.2788,102.4375 L739.5288,105.5 L737.0913,105.5 L740.435,93.1094 Z " fill="#000000"/><text fill="#000000" font-family="sans-serif" font-size="14" font-style="italic" lengthAdjust="spacing" textLength="108.3838" x="755.81" y="104.8467">BaseMPCSolver</text><line style="stroke:#181818;stroke-width:0.5;" x1="727.81" x2="866.1938" y1="116" y2="116"/><line style="stroke:#181818;stroke-width:0.5;" x1="727.81" x2="866.1938" y1="124" y2="124"/></g><!--class TiltQdServoMdlMPCSolver--><g id="elem_TiltQdServoMdlMPCSolver"><rect codeLine="9" fill="#F1F1F1" height="48" id="TiltQdServoMdlMPCSolver" rx="2.5" ry="2.5" style="stroke:#181818;stroke-width:0.5;" width="212.9814" x="45.51" y="192"/><ellipse cx="60.51" cy="208" fill="#ADD1B2" rx="11" ry="11" style="stroke:#181818;stroke-width:1.0;"/><path d="M63.4788,213.6406 Q62.9006,213.9375 62.26,214.0781 Q61.6194,214.2344 60.9163,214.2344 Q58.4163,214.2344 57.0881,212.5938 Q55.7756,210.9375 55.7756,207.8125 Q55.7756,204.6875 57.0881,203.0313 Q58.4163,201.375 60.9163,201.375 Q61.6194,201.375 62.26,201.5313 Q62.9163,201.6875 63.4788,201.9844 L63.4788,204.7031 Q62.8538,204.125 62.26,203.8594 Q61.6663,203.5781 61.0413,203.5781 Q59.6975,203.5781 59.01,204.6563 Q58.3225,205.7188 58.3225,207.8125 Q58.3225,209.9063 59.01,210.9844 Q59.6975,212.0469 61.0413,212.0469 Q61.6663,212.0469 62.26,211.7813 Q62.8538,211.5 63.4788,210.9219 L63.4788,213.6406 Z " fill="#000000"/><text fill="#000000" font-family="sans-serif" font-size="14" lengthAdjust="spacing" textLength="180.9814" x="74.51" y="212.8467">TiltQdServoMdlMPCSolver</text><line style="stroke:#181818;stroke-width:0.5;" x1="46.51" x2="257.4914" y1="224" y2="224"/><line style="stroke:#181818;stroke-width:0.5;" x1="46.51" x2="257.4914" y1="232" y2="232"/></g><!--class TiltQdServoDistMdlMPCSolver--><g id="elem_TiltQdServoDistMdlMPCSolver"><rect codeLine="12" fill="#F1F1F1" height="48" id="TiltQdServoDistMdlMPCSolver" rx="2.5" ry="2.5" style="stroke:#181818;stroke-width:0.5;" width="240.4346" x="293.78" y="192"/><ellipse cx="308.78" cy="208" fill="#ADD1B2" rx="11" ry="11" style="stroke:#181818;stroke-width:1.0;"/><path d="M311.7488,213.6406 Q311.1706,213.9375 310.53,214.0781 Q309.8894,214.2344 309.1863,214.2344 Q306.6863,214.2344 305.3581,212.5938 Q304.0456,210.9375 304.0456,207.8125 Q304.0456,204.6875 305.3581,203.0313 Q306.6863,201.375 309.1863,201.375 Q309.8894,201.375 310.53,201.5313 Q311.1863,201.6875 311.7488,201.9844 L311.7488,204.7031 Q311.1238,204.125 310.53,203.8594 Q309.9363,203.5781 309.3113,203.5781 Q307.9675,203.5781 307.28,204.6563 Q306.5925,205.7188 306.5925,207.8125 Q306.5925,209.9063 307.28,210.9844 Q307.9675,212.0469 309.3113,212.0469 Q309.9363,212.0469 310.53,211.7813 Q311.1238,211.5 311.7488,210.9219 L311.7488,213.6406 Z " fill="#000000"/><text fill="#000000" font-family="sans-serif" font-size="14" lengthAdjust="spacing" textLength="208.4346" x="322.78" y="212.8467">TiltQdServoDistMdlMPCSolver</text><line style="stroke:#181818;stroke-width:0.5;" x1="294.78" x2="533.2146" y1="224" y2="224"/><line style="stroke:#181818;stroke-width:0.5;" x1="294.78" x2="533.2146" y1="232" y2="232"/></g><!--class TiltTriServoMdlMPCSolver--><g id="elem_TiltTriServoMdlMPCSolver"><rect codeLine="15" fill="#F1F1F1" height="48" id="TiltTriServoMdlMPCSolver" rx="2.5" ry="2.5" style="stroke:#181818;stroke-width:0.5;" width="211.2725" x="569.36" y="192"/><ellipse cx="584.36" cy="208" fill="#ADD1B2" rx="11" ry="11" style="stroke:#181818;stroke-width:1.0;"/><path d="M587.3288,213.6406 Q586.7506,213.9375 586.11,214.0781 Q585.4694,214.2344 584.7663,214.2344 Q582.2663,214.2344 580.9381,212.5938 Q579.6256,210.9375 579.6256,207.8125 Q579.6256,204.6875 580.9381,203.0313 Q582.2663,201.375 584.7663,201.375 Q585.4694,201.375 586.11,201.5313 Q586.7663,201.6875 587.3288,201.9844 L587.3288,204.7031 Q586.7038,204.125 586.11,203.8594 Q585.5163,203.5781 584.8913,203.5781 Q583.5475,203.5781 582.86,204.6563 Q582.1725,205.7188 582.1725,207.8125 Q582.1725,209.9063 582.86,210.9844 Q583.5475,212.0469 584.8913,212.0469 Q585.5163,212.0469 586.11,211.7813 Q586.7038,211.5 587.3288,210.9219 L587.3288,213.6406 Z " fill="#000000"/><text fill="#000000" font-family="sans-serif" font-size="14" lengthAdjust="spacing" textLength="179.2725" x="598.36" y="212.8467">TiltTriServoMdlMPCSolver</text><line style="stroke:#181818;stroke-width:0.5;" x1="570.36" x2="779.6325" y1="224" y2="224"/><line style="stroke:#181818;stroke-width:0.5;" x1="570.36" x2="779.6325" y1="232" y2="232"/></g><!--class TiltBiServoMdlMPCSolver--><g id="elem_TiltBiServoMdlMPCSolver"><rect codeLine="18" fill="#F1F1F1" height="48" id="TiltBiServoMdlMPCSolver" rx="2.5" ry="2.5" style="stroke:#181818;stroke-width:0.5;" width="206.5693" x="815.72" y="192"/><ellipse cx="830.72" cy="208" fill="#ADD1B2" rx="11" ry="11" style="stroke:#181818;stroke-width:1.0;"/><path d="M833.6888,213.6406 Q833.1106,213.9375 832.47,214.0781 Q831.8294,214.2344 831.1263,214.2344 Q828.6263,214.2344 827.2981,212.5938 Q825.9856,210.9375 825.9856,207.8125 Q825.9856,204.6875 827.2981,203.0313 Q828.6263,201.375 831.1263,201.375 Q831.8294,201.375 832.47,201.5313 Q833.1263,201.6875 833.6888,201.9844 L833.6888,204.7031 Q833.0638,204.125 832.47,203.8594 Q831.8763,203.5781 831.2513,203.5781 Q829.9075,203.5781 829.22,204.6563 Q828.5325,205.7188 828.5325,207.8125 Q828.5325,209.9063 829.22,210.9844 Q829.9075,212.0469 831.2513,212.0469 Q831.8763,212.0469 832.47,211.7813 Q833.0638,211.5 833.6888,210.9219 L833.6888,213.6406 Z " fill="#000000"/><text fill="#000000" font-family="sans-serif" font-size="14" lengthAdjust="spacing" textLength="174.5693" x="844.72" y="212.8467">TiltBiServoMdlMPCSolver</text><line style="stroke:#181818;stroke-width:0.5;" x1="816.72" x2="1021.2893" y1="224" y2="224"/><line style="stroke:#181818;stroke-width:0.5;" x1="816.72" x2="1021.2893" y1="232" y2="232"/></g><!--class TiltBi2OrdServoMdlMPCSolver--><g id="elem_TiltBi2OrdServoMdlMPCSolver"><rect codeLine="21" fill="#F1F1F1" height="48" id="TiltBi2OrdServoMdlMPCSolver" rx="2.5" ry="2.5" style="stroke:#181818;stroke-width:0.5;" width="241.1387" x="1057.43" y="192"/><ellipse cx="1072.43" cy="208" fill="#ADD1B2" rx="11" ry="11" style="stroke:#181818;stroke-width:1.0;"/><path d="M1075.3988,213.6406 Q1074.8206,213.9375 1074.18,214.0781 Q1073.5394,214.2344 1072.8363,214.2344 Q1070.3363,214.2344 1069.0081,212.5938 Q1067.6956,210.9375 1067.6956,207.8125 Q1067.6956,204.6875 1069.0081,203.0313 Q1070.3363,201.375 1072.8363,201.375 Q1073.5394,201.375 1074.18,201.5313 Q1074.8363,201.6875 1075.3988,201.9844 L1075.3988,204.7031 Q1074.7738,204.125 1074.18,203.8594 Q1073.5863,203.5781 1072.9613,203.5781 Q1071.6175,203.5781 1070.93,204.6563 Q1070.2425,205.7188 1070.2425,207.8125 Q1070.2425,209.9063 1070.93,210.9844 Q1071.6175,212.0469 1072.9613,212.0469 Q1073.5863,212.0469 1074.18,211.7813 Q1074.7738,211.5 1075.3988,210.9219 L1075.3988,213.6406 Z " fill="#000000"/><text fill="#000000" font-family="sans-serif" font-size="14" lengthAdjust="spacing" textLength="209.1387" x="1086.43" y="212.8467">TiltBi2OrdServoMdlMPCSolver</text><line style="stroke:#181818;stroke-width:0.5;" x1="1058.43" x2="1297.5687" y1="224" y2="224"/><line style="stroke:#181818;stroke-width:0.5;" x1="1058.43" x2="1297.5687" y1="232" y2="232"/></g><!--class FixQdNMPCSolver--><g id="elem_FixQdNMPCSolver"><rect codeLine="24" fill="#F1F1F1" height="48" id="FixQdNMPCSolver" rx="2.5" ry="2.5" style="stroke:#181818;stroke-width:0.5;" width="156.8994" x="1333.55" y="192"/><ellipse cx="1348.55" cy="208" fill="#ADD1B2" rx="11" ry="11" style="stroke:#181818;stroke-width:1.0;"/><path d="M1351.5188,213.6406 Q1350.9406,213.9375 1350.3,214.0781 Q1349.6594,214.2344 1348.9563,214.2344 Q1346.4563,214.2344 1345.1281,212.5938 Q1343.8156,210.9375 1343.8156,207.8125 Q1343.8156,204.6875 1345.1281,203.0313 Q1346.4563,201.375 1348.9563,201.375 Q1349.6594,201.375 1350.3,201.5313 Q1350.9563,201.6875 1351.5188,201.9844 L1351.5188,204.7031 Q1350.8938,204.125 1350.3,203.8594 Q1349.7063,203.5781 1349.0813,203.5781 Q1347.7375,203.5781 1347.05,204.6563 Q1346.3625,205.7188 1346.3625,207.8125 Q1346.3625,209.9063 1347.05,210.9844 Q1347.7375,212.0469 1349.0813,212.0469 Q1349.7063,212.0469 1350.3,211.7813 Q1350.8938,211.5 1351.5188,210.9219 L1351.5188,213.6406 Z " fill="#000000"/><text fill="#000000" font-family="sans-serif" font-size="14" lengthAdjust="spacing" textLength="124.8994" x="1362.55" y="212.8467">FixQdNMPCSolver</text><line style="stroke:#181818;stroke-width:0.5;" x1="1334.55" x2="1489.4494" y1="224" y2="224"/><line style="stroke:#181818;stroke-width:0.5;" x1="1334.55" x2="1489.4494" y1="232" y2="232"/></g><!--reverse link BaseMPCSolver to TiltQdServoMdlMPCSolver--><g id="link_BaseMPCSolver_TiltQdServoMdlMPCSolver"><path codeLine="27" d="M708.7454,122.3513 C608.5254,137.6213 436.89,164.27 276,192 C270.39,192.97 264.64,193.97 258.84,195.01 " fill="none" id="BaseMPCSolver-backto-TiltQdServoMdlMPCSolver" style="stroke:#181818;stroke-width:1.0;"/><polygon fill="none" points="726.54,119.64,707.8416,116.4197,709.6491,128.2828,726.54,119.64" style="stroke:#181818;stroke-width:1.0;"/></g><!--reverse link BaseMPCSolver to TiltQdServoDistMdlMPCSolver--><g id="link_BaseMPCSolver_TiltQdServoDistMdlMPCSolver"><path codeLine="28" d="M709.4022,133.2414 C645.1622,151.0214 567.33,172.56 498.86,191.52 " fill="none" id="BaseMPCSolver-backto-TiltQdServoDistMdlMPCSolver" style="stroke:#181818;stroke-width:1.0;"/><polygon fill="none" points="726.75,128.44,707.8017,127.4588,711.0027,139.024,726.75,128.44" style="stroke:#181818;stroke-width:1.0;"/></g><!--reverse link BaseMPCSolver to TiltTriServoMdlMPCSolver--><g id="link_BaseMPCSolver_TiltTriServoMdlMPCSolver"><path codeLine="29" d="M756.6448,144.0686 C736.3048,161.7486 722.04,174.13 701.71,191.79 " fill="none" id="BaseMPCSolver-backto-TiltTriServoMdlMPCSolver" style="stroke:#181818;stroke-width:1.0;"/><polygon fill="none" points="770.23,132.26,752.7086,139.5402,760.581,148.597,770.23,132.26" style="stroke:#181818;stroke-width:1.0;"/></g><!--reverse link BaseMPCSolver to TiltBiServoMdlMPCSolver--><g id="link_BaseMPCSolver_TiltBiServoMdlMPCSolver"><path codeLine="30" d="M837.3552,144.0686 C857.6952,161.7486 871.96,174.13 892.29,191.79 " fill="none" id="BaseMPCSolver-backto-TiltBiServoMdlMPCSolver" style="stroke:#181818;stroke-width:1.0;"/><polygon fill="none" points="823.77,132.26,833.419,148.597,841.2914,139.5402,823.77,132.26" style="stroke:#181818;stroke-width:1.0;"/></g><!--reverse link BaseMPCSolver to TiltBi2OrdServoMdlMPCSolver--><g id="link_BaseMPCSolver_TiltBi2OrdServoMdlMPCSolver"><path codeLine="31" d="M884.6717,133.3935 C948.6317,151.1835 1025.81,172.66 1093.79,191.57 " fill="none" id="BaseMPCSolver-backto-TiltBi2OrdServoMdlMPCSolver" style="stroke:#181818;stroke-width:1.0;"/><polygon fill="none" points="867.33,128.57,883.0639,139.174,886.2795,127.6129,867.33,128.57" style="stroke:#181818;stroke-width:1.0;"/></g><!--reverse link BaseMPCSolver to FixQdNMPCSolver--><g id="link_BaseMPCSolver_FixQdNMPCSolver"><path codeLine="32" d="M885.2282,120.9912 C985.3182,134.9212 1156.49,160.19 1316,192 C1321.63,193.12 1327.43,194.35 1333.26,195.62 " fill="none" id="BaseMPCSolver-backto-FixQdNMPCSolver" style="stroke:#181818;stroke-width:1.0;"/><polygon fill="none" points="867.4,118.51,884.4011,126.934,886.0552,115.0485,867.4,118.51" style="stroke:#181818;stroke-width:1.0;"/></g><!--SRC=[hP5FQyCm3CNl_XIwzPG5TZGxPMEtRYlfFIYsM0rAR6Ij5BfzzuK41Wi9-zCU9VtqddZQ75HJjcMP67jzw_Z6nQvqZ3aNFk2hO6TC9eKUEye97TMKK52ZWBN6O9jLq2cCAu0a0RcHs4PjNEnL8blR9TVao4SIQolCj7svhyVIc0qoWnu8flcW80Jjm7Y8_JGOZCVEP67CRvtsWNNdQv9Zt7h-yeIp-VYNo4F8UfdGNi8Lpgck8tBxB9U6ynXEE_yqM_xsOBXxBmfO-SGFw3plDNmfrJMs-WkwcD0IFilX4m00]--></g></svg>