<svg xmlns="http://www.w3.org/2000/svg" xmlns:xlink="http://www.w3.org/1999/xlink" contentStyleType="text/css" height="1197px" preserveAspectRatio="none" style="width:680px;height:1197px;background:#FFFFFF;" version="1.1" viewBox="0 0 680 1197" width="680px" zoomAndPan="magnify"><defs/><g><!--cluster aerial_robot_control--><g id="cluster_aerial_robot_control"><path d="M8.5,6 L167.1436,6 A3.75,3.75 0 0 1 169.6436,8.5 L176.6436,28.2969 L670.5,28.2969 A2.5,2.5 0 0 1 673,30.7969 L673,1188 A2.5,2.5 0 0 1 670.5,1190.5 L8.5,1190.5 A2.5,2.5 0 0 1 6,1188 L6,8.5 A2.5,2.5 0 0 1 8.5,6 " fill="none" style="stroke:#000000;stroke-width:1.5;"/><line style="stroke:#000000;stroke-width:1.5;" x1="6" x2="176.6436" y1="28.2969" y2="28.2969"/><text fill="#000000" font-family="sans-serif" font-size="14" font-weight="bold" lengthAdjust="spacing" textLength="157.6436" x="10" y="20.9951">aerial_robot_control</text></g><!--cluster nmpc--><g id="cluster_nmpc"><path d="M32.5,211.78 L76.375,211.78 A3.75,3.75 0 0 1 78.875,214.28 L85.875,234.0769 L646.5,234.0769 A2.5,2.5 0 0 1 649,236.5769 L649,1164 A2.5,2.5 0 0 1 646.5,1166.5 L32.5,1166.5 A2.5,2.5 0 0 1 30,1164 L30,214.28 A2.5,2.5 0 0 1 32.5,211.78 " fill="none" style="stroke:#000000;stroke-width:1.5;"/><line style="stroke:#000000;stroke-width:1.5;" x1="30" x2="85.875" y1="234.0769" y2="234.0769"/><text fill="#000000" font-family="sans-serif" font-size="14" font-weight="bold" lengthAdjust="spacing" textLength="42.875" x="34" y="226.7751">nmpc</text></g><!--class ControlBase--><g id="elem_ControlBase"><rect codeLine="5" fill="#F1F1F1" height="145.7813" id="ControlBase" rx="2.5" ry="2.5" style="stroke:#181818;stroke-width:0.5;" width="133.6592" x="306.17" y="41"/><ellipse cx="328.6644" cy="57" fill="#A9DCDF" rx="11" ry="11" style="stroke:#181818;stroke-width:1.0;"/><path d="M328.7738,52.3438 L327.6176,57.4219 L329.9457,57.4219 L328.7738,52.3438 Z M327.2894,50.1094 L330.2738,50.1094 L333.6332,62.5 L331.1801,62.5 L330.4144,59.4375 L327.1332,59.4375 L326.3832,62.5 L323.9457,62.5 L327.2894,50.1094 Z " fill="#000000"/><text fill="#000000" font-family="sans-serif" font-size="14" font-style="italic" lengthAdjust="spacing" textLength="85.0049" x="344.3299" y="61.8467">ControlBase</text><line style="stroke:#181818;stroke-width:0.5;" x1="307.17" x2="438.8292" y1="73" y2="73"/><line style="stroke:#181818;stroke-width:0.5;" x1="307.17" x2="438.8292" y1="81" y2="81"/><ellipse cx="317.17" cy="94.6484" fill="#84BE84" rx="3" ry="3" style="stroke:#038048;stroke-width:1.0;"/><text fill="#000000" font-family="sans-serif" font-size="14" lengthAdjust="spacing" textLength="95.9287" x="326.17" y="97.9951">ControlBase()</text><ellipse cx="317.17" cy="110.9453" fill="#84BE84" rx="3" ry="3" style="stroke:#038048;stroke-width:1.0;"/><text fill="#000000" font-family="sans-serif" font-size="14" lengthAdjust="spacing" textLength="107.6592" x="326.17" y="114.292">~ControlBase()</text><ellipse cx="317.17" cy="127.2422" fill="#84BE84" rx="3" ry="3" style="stroke:#038048;stroke-width:1.0;"/><text fill="#000000" font-family="sans-serif" font-size="14" lengthAdjust="spacing" textLength="69.2754" x="326.17" y="130.5889">initialize()</text><ellipse cx="317.17" cy="143.5391" fill="#84BE84" rx="3" ry="3" style="stroke:#038048;stroke-width:1.0;"/><text fill="#000000" font-family="sans-serif" font-size="14" lengthAdjust="spacing" textLength="60.252" x="326.17" y="146.8857">update()</text><ellipse cx="317.17" cy="159.8359" fill="#84BE84" rx="3" ry="3" style="stroke:#038048;stroke-width:1.0;"/><text fill="#000000" font-family="sans-serif" font-size="14" lengthAdjust="spacing" textLength="67.5459" x="326.17" y="163.1826">activate()</text><ellipse cx="317.17" cy="176.1328" fill="#84BE84" rx="3" ry="3" style="stroke:#038048;stroke-width:1.0;"/><text fill="#000000" font-family="sans-serif" font-size="14" lengthAdjust="spacing" textLength="46.6895" x="326.17" y="179.4795">reset()</text></g><!--class BaseMPC--><g id="elem_BaseMPC"><rect codeLine="14" fill="#F1F1F1" height="145.7813" id="BaseMPC" rx="2.5" ry="2.5" style="stroke:#181818;stroke-width:0.5;" width="149.3887" x="298.31" y="246.78"/><ellipse cx="337.1604" cy="262.78" fill="#A9DCDF" rx="11" ry="11" style="stroke:#181818;stroke-width:1.0;"/><path d="M337.2698,258.1238 L336.1136,263.2019 L338.4417,263.2019 L337.2698,258.1238 Z M335.7854,255.8894 L338.7698,255.8894 L342.1292,268.28 L339.6761,268.28 L338.9104,265.2175 L335.6292,265.2175 L334.8792,268.28 L332.4417,268.28 L335.7854,255.8894 Z " fill="#000000"/><text fill="#000000" font-family="sans-serif" font-size="14" font-style="italic" lengthAdjust="spacing" textLength="64.3877" x="356.4605" y="267.6267">BaseMPC</text><line style="stroke:#181818;stroke-width:0.5;" x1="299.31" x2="446.6987" y1="278.78" y2="278.78"/><ellipse cx="309.31" cy="292.4284" fill="none" rx="3" ry="3" style="stroke:#038048;stroke-width:1.0;"/><text fill="#000000" font-family="sans-serif" font-size="14" lengthAdjust="spacing" textLength="123.3887" x="318.31" y="295.7751">disturb_estimator</text><line style="stroke:#181818;stroke-width:0.5;" x1="299.31" x2="446.6987" y1="303.0769" y2="303.0769"/><ellipse cx="309.31" cy="316.7253" fill="#84BE84" rx="3" ry="3" style="stroke:#038048;stroke-width:1.0;"/><text fill="#000000" font-family="sans-serif" font-size="14" lengthAdjust="spacing" textLength="75.3115" x="318.31" y="320.072">BaseMPC()</text><ellipse cx="309.31" cy="333.0222" fill="#84BE84" rx="3" ry="3" style="stroke:#038048;stroke-width:1.0;"/><text fill="#000000" font-family="sans-serif" font-size="14" lengthAdjust="spacing" textLength="87.042" x="318.31" y="336.3689">~BaseMPC()</text><ellipse cx="309.31" cy="349.3191" fill="#84BE84" rx="3" ry="3" style="stroke:#038048;stroke-width:1.0;"/><text fill="#000000" font-family="sans-serif" font-size="14" lengthAdjust="spacing" textLength="69.2754" x="318.31" y="352.6657">initialize()</text><ellipse cx="309.31" cy="365.6159" fill="#84BE84" rx="3" ry="3" style="stroke:#038048;stroke-width:1.0;"/><text fill="#000000" font-family="sans-serif" font-size="14" lengthAdjust="spacing" textLength="60.252" x="318.31" y="368.9626">update()</text><ellipse cx="309.31" cy="381.9128" fill="#84BE84" rx="3" ry="3" style="stroke:#038048;stroke-width:1.0;"/><text fill="#000000" font-family="sans-serif" font-size="14" lengthAdjust="spacing" textLength="46.6895" x="318.31" y="385.2595">reset()</text></g><!--class FixQdNMPC--><g id="elem_FixQdNMPC"><rect codeLine="23" fill="#F1F1F1" height="129.4844" id="FixQdNMPC" rx="2.5" ry="2.5" style="stroke:#181818;stroke-width:0.5;" width="129.5576" x="308.22" y="452.56"/><ellipse cx="330.7144" cy="468.56" fill="#ADD1B2" rx="11" ry="11" style="stroke:#181818;stroke-width:1.0;"/><path d="M333.6832,474.2006 Q333.1051,474.4975 332.4644,474.6381 Q331.8238,474.7944 331.1207,474.7944 Q328.6207,474.7944 327.2926,473.1537 Q325.9801,471.4975 325.9801,468.3725 Q325.9801,465.2475 327.2926,463.5912 Q328.6207,461.935 331.1207,461.935 Q331.8238,461.935 332.4644,462.0912 Q333.1207,462.2475 333.6832,462.5444 L333.6832,465.2631 Q333.0582,464.685 332.4644,464.4194 Q331.8707,464.1381 331.2457,464.1381 Q329.9019,464.1381 329.2144,465.2162 Q328.5269,466.2787 328.5269,468.3725 Q328.5269,470.4662 329.2144,471.5444 Q329.9019,472.6069 331.2457,472.6069 Q331.8707,472.6069 332.4644,472.3412 Q333.0582,472.06 333.6832,471.4819 L333.6832,474.2006 Z " fill="#000000"/><text fill="#000000" font-family="sans-serif" font-size="14" lengthAdjust="spacing" textLength="80.9033" x="346.3799" y="473.4067">FixQdNMPC</text><line style="stroke:#181818;stroke-width:0.5;" x1="309.22" x2="436.7776" y1="484.56" y2="484.56"/><line style="stroke:#181818;stroke-width:0.5;" x1="309.22" x2="436.7776" y1="492.56" y2="492.56"/><ellipse cx="319.22" cy="506.2084" fill="#84BE84" rx="3" ry="3" style="stroke:#038048;stroke-width:1.0;"/><text fill="#000000" font-family="sans-serif" font-size="14" lengthAdjust="spacing" textLength="91.8271" x="328.22" y="509.5551">FixQdNMPC()</text><ellipse cx="319.22" cy="522.5053" fill="#84BE84" rx="3" ry="3" style="stroke:#038048;stroke-width:1.0;"/><text fill="#000000" font-family="sans-serif" font-size="14" lengthAdjust="spacing" textLength="103.5576" x="328.22" y="525.852">~FixQdNMPC()</text><ellipse cx="319.22" cy="538.8022" fill="#84BE84" rx="3" ry="3" style="stroke:#038048;stroke-width:1.0;"/><text fill="#000000" font-family="sans-serif" font-size="14" lengthAdjust="spacing" textLength="69.2754" x="328.22" y="542.1489">initialize()</text><ellipse cx="319.22" cy="555.0991" fill="#84BE84" rx="3" ry="3" style="stroke:#038048;stroke-width:1.0;"/><text fill="#000000" font-family="sans-serif" font-size="14" lengthAdjust="spacing" textLength="60.252" x="328.22" y="558.4457">update()</text><ellipse cx="319.22" cy="571.3959" fill="#84BE84" rx="3" ry="3" style="stroke:#038048;stroke-width:1.0;"/><text fill="#000000" font-family="sans-serif" font-size="14" lengthAdjust="spacing" textLength="46.6895" x="328.22" y="574.7426">reset()</text></g><!--class TiltQdServoNMPC--><g id="elem_TiltQdServoNMPC"><rect codeLine="41" fill="#F1F1F1" height="129.4844" id="TiltQdServoNMPC" rx="2.5" ry="2.5" style="stroke:#181818;stroke-width:0.5;" width="171.2568" x="287.37" y="642.05"/><ellipse cx="309.8644" cy="658.05" fill="#ADD1B2" rx="11" ry="11" style="stroke:#181818;stroke-width:1.0;"/><path d="M312.8332,663.6906 Q312.2551,663.9875 311.6144,664.1281 Q310.9738,664.2844 310.2707,664.2844 Q307.7707,664.2844 306.4426,662.6438 Q305.1301,660.9875 305.1301,657.8625 Q305.1301,654.7375 306.4426,653.0813 Q307.7707,651.425 310.2707,651.425 Q310.9738,651.425 311.6144,651.5813 Q312.2707,651.7375 312.8332,652.0344 L312.8332,654.7531 Q312.2082,654.175 311.6144,653.9094 Q311.0207,653.6281 310.3957,653.6281 Q309.0519,653.6281 308.3644,654.7063 Q307.6769,655.7688 307.6769,657.8625 Q307.6769,659.9563 308.3644,661.0344 Q309.0519,662.0969 310.3957,662.0969 Q311.0207,662.0969 311.6144,661.8313 Q312.2082,661.55 312.8332,660.9719 L312.8332,663.6906 Z " fill="#000000"/><text fill="#000000" font-family="sans-serif" font-size="14" lengthAdjust="spacing" textLength="122.6025" x="325.5299" y="662.8967">TiltQdServoNMPC</text><line style="stroke:#181818;stroke-width:0.5;" x1="288.37" x2="457.6268" y1="674.05" y2="674.05"/><line style="stroke:#181818;stroke-width:0.5;" x1="288.37" x2="457.6268" y1="682.05" y2="682.05"/><ellipse cx="298.37" cy="695.6984" fill="#84BE84" rx="3" ry="3" style="stroke:#038048;stroke-width:1.0;"/><text fill="#000000" font-family="sans-serif" font-size="14" lengthAdjust="spacing" textLength="133.5264" x="307.37" y="699.0451">TiltQdServoNMPC()</text><ellipse cx="298.37" cy="711.9953" fill="#84BE84" rx="3" ry="3" style="stroke:#038048;stroke-width:1.0;"/><text fill="#000000" font-family="sans-serif" font-size="14" lengthAdjust="spacing" textLength="145.2568" x="307.37" y="715.342">~TiltQdServoNMPC()</text><ellipse cx="298.37" cy="728.2922" fill="#84BE84" rx="3" ry="3" style="stroke:#038048;stroke-width:1.0;"/><text fill="#000000" font-family="sans-serif" font-size="14" lengthAdjust="spacing" textLength="69.2754" x="307.37" y="731.6389">initialize()</text><ellipse cx="298.37" cy="744.5891" fill="#84BE84" rx="3" ry="3" style="stroke:#038048;stroke-width:1.0;"/><text fill="#000000" font-family="sans-serif" font-size="14" lengthAdjust="spacing" textLength="60.252" x="307.37" y="747.9357">update()</text><ellipse cx="298.37" cy="760.8859" fill="#84BE84" rx="3" ry="3" style="stroke:#038048;stroke-width:1.0;"/><text fill="#000000" font-family="sans-serif" font-size="14" lengthAdjust="spacing" textLength="46.6895" x="307.37" y="764.2326">reset()</text></g><!--class TiltQdServoThrustNMPC--><g id="elem_TiltQdServoThrustNMPC"><rect codeLine="50" fill="#F1F1F1" height="129.4844" id="TiltQdServoThrustNMPC" rx="2.5" ry="2.5" style="stroke:#181818;stroke-width:0.5;" width="216.0938" x="45.95" y="831.53"/><ellipse cx="68.4444" cy="847.53" fill="#ADD1B2" rx="11" ry="11" style="stroke:#181818;stroke-width:1.0;"/><path d="M71.4132,853.1706 Q70.8351,853.4675 70.1944,853.6081 Q69.5538,853.7644 68.8507,853.7644 Q66.3507,853.7644 65.0226,852.1238 Q63.7101,850.4675 63.7101,847.3425 Q63.7101,844.2175 65.0226,842.5613 Q66.3507,840.905 68.8507,840.905 Q69.5538,840.905 70.1944,841.0613 Q70.8507,841.2175 71.4132,841.5144 L71.4132,844.2331 Q70.7882,843.655 70.1944,843.3894 Q69.6007,843.1081 68.9757,843.1081 Q67.6319,843.1081 66.9444,844.1863 Q66.2569,845.2488 66.2569,847.3425 Q66.2569,849.4363 66.9444,850.5144 Q67.6319,851.5769 68.9757,851.5769 Q69.6007,851.5769 70.1944,851.3113 Q70.7882,851.03 71.4132,850.4519 L71.4132,853.1706 Z " fill="#000000"/><text fill="#000000" font-family="sans-serif" font-size="14" lengthAdjust="spacing" textLength="167.4395" x="84.1099" y="852.3767">TiltQdServoThrustNMPC</text><line style="stroke:#181818;stroke-width:0.5;" x1="46.95" x2="261.0438" y1="863.53" y2="863.53"/><line style="stroke:#181818;stroke-width:0.5;" x1="46.95" x2="261.0438" y1="871.53" y2="871.53"/><ellipse cx="56.95" cy="885.1784" fill="#84BE84" rx="3" ry="3" style="stroke:#038048;stroke-width:1.0;"/><text fill="#000000" font-family="sans-serif" font-size="14" lengthAdjust="spacing" textLength="178.3633" x="65.95" y="888.5251">TiltQdServoThrustNMPC()</text><ellipse cx="56.95" cy="901.4753" fill="#84BE84" rx="3" ry="3" style="stroke:#038048;stroke-width:1.0;"/><text fill="#000000" font-family="sans-serif" font-size="14" lengthAdjust="spacing" textLength="190.0938" x="65.95" y="904.822">~TiltQdServoThrustNMPC()</text><ellipse cx="56.95" cy="917.7722" fill="#84BE84" rx="3" ry="3" style="stroke:#038048;stroke-width:1.0;"/><text fill="#000000" font-family="sans-serif" font-size="14" lengthAdjust="spacing" textLength="69.2754" x="65.95" y="921.1189">initialize()</text><ellipse cx="56.95" cy="934.0691" fill="#84BE84" rx="3" ry="3" style="stroke:#038048;stroke-width:1.0;"/><text fill="#000000" font-family="sans-serif" font-size="14" lengthAdjust="spacing" textLength="60.252" x="65.95" y="937.4157">update()</text><ellipse cx="56.95" cy="950.3659" fill="#84BE84" rx="3" ry="3" style="stroke:#038048;stroke-width:1.0;"/><text fill="#000000" font-family="sans-serif" font-size="14" lengthAdjust="spacing" textLength="46.6895" x="65.95" y="953.7126">reset()</text></g><!--class TiltTriServoNMPC--><g id="elem_TiltTriServoNMPC"><rect codeLine="59" fill="#F1F1F1" height="129.4844" id="TiltTriServoNMPC" rx="2.5" ry="2.5" style="stroke:#181818;stroke-width:0.5;" width="152.8936" x="296.55" y="831.53"/><ellipse cx="311.55" cy="847.53" fill="#ADD1B2" rx="11" ry="11" style="stroke:#181818;stroke-width:1.0;"/><path d="M314.5188,853.1706 Q313.9406,853.4675 313.3,853.6081 Q312.6594,853.7644 311.9563,853.7644 Q309.4563,853.7644 308.1281,852.1238 Q306.8156,850.4675 306.8156,847.3425 Q306.8156,844.2175 308.1281,842.5613 Q309.4563,840.905 311.9563,840.905 Q312.6594,840.905 313.3,841.0613 Q313.9563,841.2175 314.5188,841.5144 L314.5188,844.2331 Q313.8938,843.655 313.3,843.3894 Q312.7063,843.1081 312.0813,843.1081 Q310.7375,843.1081 310.05,844.1863 Q309.3625,845.2488 309.3625,847.3425 Q309.3625,849.4363 310.05,850.5144 Q310.7375,851.5769 312.0813,851.5769 Q312.7063,851.5769 313.3,851.3113 Q313.8938,851.03 314.5188,850.4519 L314.5188,853.1706 Z " fill="#000000"/><text fill="#000000" font-family="sans-serif" font-size="14" lengthAdjust="spacing" textLength="120.8936" x="325.55" y="852.3767">TiltTriServoNMPC</text><line style="stroke:#181818;stroke-width:0.5;" x1="297.55" x2="448.4436" y1="863.53" y2="863.53"/><line style="stroke:#181818;stroke-width:0.5;" x1="297.55" x2="448.4436" y1="871.53" y2="871.53"/><ellipse cx="307.55" cy="885.1784" fill="#84BE84" rx="3" ry="3" style="stroke:#038048;stroke-width:1.0;"/><text fill="#000000" font-family="sans-serif" font-size="14" lengthAdjust="spacing" textLength="91.7109" x="316.55" y="888.5251">TiltTriNMPC()</text><ellipse cx="307.55" cy="901.4753" fill="#84BE84" rx="3" ry="3" style="stroke:#038048;stroke-width:1.0;"/><text fill="#000000" font-family="sans-serif" font-size="14" lengthAdjust="spacing" textLength="103.4414" x="316.55" y="904.822">~TiltTriNMPC()</text><ellipse cx="307.55" cy="917.7722" fill="#84BE84" rx="3" ry="3" style="stroke:#038048;stroke-width:1.0;"/><text fill="#000000" font-family="sans-serif" font-size="14" lengthAdjust="spacing" textLength="69.2754" x="316.55" y="921.1189">initialize()</text><ellipse cx="307.55" cy="934.0691" fill="#84BE84" rx="3" ry="3" style="stroke:#038048;stroke-width:1.0;"/><text fill="#000000" font-family="sans-serif" font-size="14" lengthAdjust="spacing" textLength="60.252" x="316.55" y="937.4157">update()</text><ellipse cx="307.55" cy="950.3659" fill="#84BE84" rx="3" ry="3" style="stroke:#038048;stroke-width:1.0;"/><text fill="#000000" font-family="sans-serif" font-size="14" lengthAdjust="spacing" textLength="46.6895" x="316.55" y="953.7126">reset()</text></g><!--class TiltBiServoNMPC--><g id="elem_TiltBiServoNMPC"><rect codeLine="68" fill="#F1F1F1" height="129.4844" id="TiltBiServoNMPC" rx="2.5" ry="2.5" style="stroke:#181818;stroke-width:0.5;" width="148.1904" x="484.9" y="831.53"/><ellipse cx="499.9" cy="847.53" fill="#ADD1B2" rx="11" ry="11" style="stroke:#181818;stroke-width:1.0;"/><path d="M502.8688,853.1706 Q502.2906,853.4675 501.65,853.6081 Q501.0094,853.7644 500.3063,853.7644 Q497.8063,853.7644 496.4781,852.1238 Q495.1656,850.4675 495.1656,847.3425 Q495.1656,844.2175 496.4781,842.5613 Q497.8063,840.905 500.3063,840.905 Q501.0094,840.905 501.65,841.0613 Q502.3063,841.2175 502.8688,841.5144 L502.8688,844.2331 Q502.2438,843.655 501.65,843.3894 Q501.0563,843.1081 500.4313,843.1081 Q499.0875,843.1081 498.4,844.1863 Q497.7125,845.2488 497.7125,847.3425 Q497.7125,849.4363 498.4,850.5144 Q499.0875,851.5769 500.4313,851.5769 Q501.0563,851.5769 501.65,851.3113 Q502.2438,851.03 502.8688,850.4519 L502.8688,853.1706 Z " fill="#000000"/><text fill="#000000" font-family="sans-serif" font-size="14" lengthAdjust="spacing" textLength="116.1904" x="513.9" y="852.3767">TiltBiServoNMPC</text><line style="stroke:#181818;stroke-width:0.5;" x1="485.9" x2="632.0904" y1="863.53" y2="863.53"/><line style="stroke:#181818;stroke-width:0.5;" x1="485.9" x2="632.0904" y1="871.53" y2="871.53"/><ellipse cx="495.9" cy="885.1784" fill="#84BE84" rx="3" ry="3" style="stroke:#038048;stroke-width:1.0;"/><text fill="#000000" font-family="sans-serif" font-size="14" lengthAdjust="spacing" textLength="87.0078" x="504.9" y="888.5251">TiltBiNMPC()</text><ellipse cx="495.9" cy="901.4753" fill="#84BE84" rx="3" ry="3" style="stroke:#038048;stroke-width:1.0;"/><text fill="#000000" font-family="sans-serif" font-size="14" lengthAdjust="spacing" textLength="98.7383" x="504.9" y="904.822">~TiltBiNMPC()</text><ellipse cx="495.9" cy="917.7722" fill="#84BE84" rx="3" ry="3" style="stroke:#038048;stroke-width:1.0;"/><text fill="#000000" font-family="sans-serif" font-size="14" lengthAdjust="spacing" textLength="69.2754" x="504.9" y="921.1189">initialize()</text><ellipse cx="495.9" cy="934.0691" fill="#84BE84" rx="3" ry="3" style="stroke:#038048;stroke-width:1.0;"/><text fill="#000000" font-family="sans-serif" font-size="14" lengthAdjust="spacing" textLength="60.252" x="504.9" y="937.4157">update()</text><ellipse cx="495.9" cy="950.3659" fill="#84BE84" rx="3" ry="3" style="stroke:#038048;stroke-width:1.0;"/><text fill="#000000" font-family="sans-serif" font-size="14" lengthAdjust="spacing" textLength="46.6895" x="504.9" y="953.7126">reset()</text></g><!--class TiltBi2OrdServoNMPC--><g id="elem_TiltBi2OrdServoNMPC"><rect codeLine="77" fill="#F1F1F1" height="129.4844" id="TiltBi2OrdServoNMPC" rx="2.5" ry="2.5" style="stroke:#181818;stroke-width:0.5;" width="182.7598" x="450.62" y="1021.02"/><ellipse cx="465.62" cy="1037.02" fill="#ADD1B2" rx="11" ry="11" style="stroke:#181818;stroke-width:1.0;"/><path d="M468.5888,1042.6606 Q468.0106,1042.9575 467.37,1043.0981 Q466.7294,1043.2544 466.0263,1043.2544 Q463.5263,1043.2544 462.1981,1041.6138 Q460.8856,1039.9575 460.8856,1036.8325 Q460.8856,1033.7075 462.1981,1032.0513 Q463.5263,1030.395 466.0263,1030.395 Q466.7294,1030.395 467.37,1030.5513 Q468.0263,1030.7075 468.5888,1031.0044 L468.5888,1033.7231 Q467.9638,1033.145 467.37,1032.8794 Q466.7763,1032.5981 466.1513,1032.5981 Q464.8075,1032.5981 464.12,1033.6763 Q463.4325,1034.7388 463.4325,1036.8325 Q463.4325,1038.9263 464.12,1040.0044 Q464.8075,1041.0669 466.1513,1041.0669 Q466.7763,1041.0669 467.37,1040.8013 Q467.9638,1040.52 468.5888,1039.9419 L468.5888,1042.6606 Z " fill="#000000"/><text fill="#000000" font-family="sans-serif" font-size="14" lengthAdjust="spacing" textLength="150.7598" x="479.62" y="1041.8667">TiltBi2OrdServoNMPC</text><line style="stroke:#181818;stroke-width:0.5;" x1="451.62" x2="632.3798" y1="1053.02" y2="1053.02"/><line style="stroke:#181818;stroke-width:0.5;" x1="451.62" x2="632.3798" y1="1061.02" y2="1061.02"/><ellipse cx="461.62" cy="1074.6684" fill="#84BE84" rx="3" ry="3" style="stroke:#038048;stroke-width:1.0;"/><text fill="#000000" font-family="sans-serif" font-size="14" lengthAdjust="spacing" textLength="121.5771" x="470.62" y="1078.0151">TiltBi2OrdNMPC()</text><ellipse cx="461.62" cy="1090.9653" fill="#84BE84" rx="3" ry="3" style="stroke:#038048;stroke-width:1.0;"/><text fill="#000000" font-family="sans-serif" font-size="14" lengthAdjust="spacing" textLength="133.3076" x="470.62" y="1094.312">~TiltBi2OrdNMPC()</text><ellipse cx="461.62" cy="1107.2622" fill="#84BE84" rx="3" ry="3" style="stroke:#038048;stroke-width:1.0;"/><text fill="#000000" font-family="sans-serif" font-size="14" lengthAdjust="spacing" textLength="69.2754" x="470.62" y="1110.6089">initialize()</text><ellipse cx="461.62" cy="1123.5591" fill="#84BE84" rx="3" ry="3" style="stroke:#038048;stroke-width:1.0;"/><text fill="#000000" font-family="sans-serif" font-size="14" lengthAdjust="spacing" textLength="60.252" x="470.62" y="1126.9057">update()</text><ellipse cx="461.62" cy="1139.8559" fill="#84BE84" rx="3" ry="3" style="stroke:#038048;stroke-width:1.0;"/><text fill="#000000" font-family="sans-serif" font-size="14" lengthAdjust="spacing" textLength="46.6895" x="470.62" y="1143.2026">reset()</text></g><!--reverse link ControlBase to BaseMPC--><g id="link_ControlBase_BaseMPC"><path d="M373,205.02 C373,224.26 373,227.04 373,246.29 " fill="none" id="ControlBase-backto-BaseMPC" style="stroke:#181818;stroke-width:1.0;"/><polygon fill="none" points="373,187.02,367,205.02,379,205.02,373,187.02" style="stroke:#181818;stroke-width:1.0;"/></g><!--reverse link BaseMPC to FixQdNMPC--><g id="link_BaseMPC_FixQdNMPC"><path d="M373,410.96 C373,430.45 373,433.38 373,452.37 " fill="none" id="BaseMPC-backto-FixQdNMPC" style="stroke:#181818;stroke-width:1.0;"/><polygon fill="none" points="373,392.96,367,410.96,379,410.96,373,392.96" style="stroke:#181818;stroke-width:1.0;"/></g><!--reverse link FixQdNMPC to TiltQdServoNMPC--><g id="link_FixQdNMPC_TiltQdServoNMPC"><path d="M373,600.3 C373,619.5 373,622.56 373,641.76 " fill="none" id="FixQdNMPC-backto-TiltQdServoNMPC" style="stroke:#181818;stroke-width:1.0;"/><polygon fill="none" points="373,582.3,367,600.3,379,600.3,373,582.3" style="stroke:#181818;stroke-width:1.0;"/></g><!--reverse link TiltQdServoNMPC to TiltQdServoThrustNMPC--><g id="link_TiltQdServoNMPC_TiltQdServoThrustNMPC"><path d="M284.5756,783.4952 C262.1456,802.6952 251.22,812.04 228.79,831.25 " fill="none" id="TiltQdServoNMPC-backto-TiltQdServoThrustNMPC" style="stroke:#181818;stroke-width:1.0;"/><polygon fill="none" points="298.25,771.79,280.6739,778.9371,288.4774,788.0533,298.25,771.79" style="stroke:#181818;stroke-width:1.0;"/></g><!--reverse link TiltQdServoNMPC to TiltTriServoNMPC--><g id="link_TiltQdServoNMPC_TiltTriServoNMPC"><path d="M373,789.79 C373,808.99 373,812.04 373,831.25 " fill="none" id="TiltQdServoNMPC-backto-TiltTriServoNMPC" style="stroke:#181818;stroke-width:1.0;"/><polygon fill="none" points="373,771.79,367,789.79,379,789.79,373,771.79" style="stroke:#181818;stroke-width:1.0;"/></g><!--reverse link TiltQdServoNMPC to TiltBiServoNMPC--><g id="link_TiltQdServoNMPC_TiltBiServoNMPC"><path d="M449.1679,784.5677 C468.2179,803.7677 476.43,812.04 495.48,831.25 " fill="none" id="TiltQdServoNMPC-backto-TiltBiServoNMPC" style="stroke:#181818;stroke-width:1.0;"/><polygon fill="none" points="436.49,771.79,444.9087,788.7937,453.4272,780.3418,436.49,771.79" style="stroke:#181818;stroke-width:1.0;"/></g><!--reverse link TiltBiServoNMPC to TiltBi2OrdServoNMPC--><g id="link_TiltBiServoNMPC_TiltBi2OrdServoNMPC"><path d="M551.5754,979.1965 C549.8354,998.3965 549.55,1001.53 547.81,1020.73 " fill="none" id="TiltBiServoNMPC-backto-TiltBi2OrdServoNMPC" style="stroke:#181818;stroke-width:1.0;"/><polygon fill="none" points="553.2,961.27,545.5999,978.655,557.5509,979.7381,553.2,961.27" style="stroke:#181818;stroke-width:1.0;"/></g><!--SRC=[lTHRRu8m50VmTpv5txfb5wFRT6co5qtsjblqdHoXcKqeaFPWpCpyxAk3s79HPD7n17_2EUVN0dI1c6hMwwKHn9Z9w3P8P2-8GEkRKC2d0kbvcYE9GNATGi2dF0K5c2Z2cEV1NAE20Cdl8mIu4X3vAfadw0T9Z2g969la9sFGdAmzOeuhucGNbqMsQGf5BD3K55ysoj8Gq5wQzcBf1egRYStLzv7pnJ8D6DjsVNcV4Bv27eTTBA7GcAcvppKAkLsQ8YygMbyrQBSvb7R1irXzXA_jXh9txT6L7mf9daZ_xffanVazBKROLRMEUjH9GjifCn5X1ukL6qqZvv5wD1_4bZRJ5DccAIoPQ0L5oofwr0RbNQPSBPE_qNQoKKdcmdRLxNRjkt7YryzfCrkeJEFHnkgwED91_x3KTchqDjm-WtgcHBTDFG3k3oruw89Dapgp6fu1DpwXxQ7X_vBtgDF6_o0RlAcmkyvTaJqVPKMtxTCahEKTb3y0]--></g></svg>