<svg xmlns="http://www.w3.org/2000/svg" xmlns:xlink="http://www.w3.org/1999/xlink" contentStyleType="text/css" height="1653px" preserveAspectRatio="none" style="width:857px;height:1653px;background:#FFFFFF;" version="1.1" viewBox="0 0 857 1653" width="857px" zoomAndPan="magnify"><defs/><g><!--cluster aerial_robot_control--><g id="cluster_aerial_robot_control"><path d="M8.5,6 L167.1436,6 A3.75,3.75 0 0 1 169.6436,8.5 L176.6436,28.2969 L847.5,28.2969 A2.5,2.5 0 0 1 850,30.7969 L850,1644.31 A2.5,2.5 0 0 1 847.5,1646.81 L8.5,1646.81 A2.5,2.5 0 0 1 6,1644.31 L6,8.5 A2.5,2.5 0 0 1 8.5,6 " fill="none" style="stroke:#000000;stroke-width:1.5;"/><line style="stroke:#000000;stroke-width:1.5;" x1="6" x2="176.6436" y1="28.2969" y2="28.2969"/><text fill="#000000" font-family="sans-serif" font-size="14" font-weight="bold" lengthAdjust="spacing" textLength="157.6436" x="10" y="20.9951">aerial_robot_control</text></g><!--cluster nmpc--><g id="cluster_nmpc"><path d="M32.5,228.08 L76.375,228.08 A3.75,3.75 0 0 1 78.875,230.58 L85.875,250.3769 L823.5,250.3769 A2.5,2.5 0 0 1 826,252.8769 L826,1620.31 A2.5,2.5 0 0 1 823.5,1622.81 L32.5,1622.81 A2.5,2.5 0 0 1 30,1620.31 L30,230.58 A2.5,2.5 0 0 1 32.5,228.08 " fill="none" style="stroke:#000000;stroke-width:1.5;"/><line style="stroke:#000000;stroke-width:1.5;" x1="30" x2="85.875" y1="250.3769" y2="250.3769"/><text fill="#000000" font-family="sans-serif" font-size="14" font-weight="bold" lengthAdjust="spacing" textLength="42.875" x="34" y="243.0751">nmpc</text></g><!--class ControlBase--><g id="elem_ControlBase"><rect codeLine="5" fill="#F1F1F1" height="162.0781" id="ControlBase" rx="2.5" ry="2.5" style="stroke:#181818;stroke-width:0.5;" width="277.8496" x="300.08" y="41"/><ellipse cx="392.2524" cy="57" fill="#A9DCDF" rx="11" ry="11" style="stroke:#181818;stroke-width:1.0;"/><path d="M392.3617,52.3438 L391.2055,57.4219 L393.5336,57.4219 L392.3617,52.3438 Z M390.8774,50.1094 L393.8617,50.1094 L397.2211,62.5 L394.768,62.5 L394.0024,59.4375 L390.7211,59.4375 L389.9711,62.5 L387.5336,62.5 L390.8774,50.1094 Z " fill="#000000"/><text fill="#000000" font-family="sans-serif" font-size="14" font-style="italic" lengthAdjust="spacing" textLength="85.0049" x="412.7524" y="61.8467">ControlBase</text><line style="stroke:#181818;stroke-width:0.5;" x1="301.08" x2="576.9296" y1="73" y2="73"/><line style="stroke:#181818;stroke-width:0.5;" x1="301.08" x2="576.9296" y1="81" y2="81"/><ellipse cx="311.08" cy="94.6484" fill="#84BE84" rx="3" ry="3" style="stroke:#038048;stroke-width:1.0;"/><text fill="#000000" font-family="sans-serif" font-size="14" lengthAdjust="spacing" textLength="95.9287" x="320.08" y="97.9951">ControlBase()</text><ellipse cx="311.08" cy="110.9453" fill="#84BE84" rx="3" ry="3" style="stroke:#038048;stroke-width:1.0;"/><text fill="#000000" font-family="sans-serif" font-size="14" lengthAdjust="spacing" textLength="107.6592" x="320.08" y="114.292">~ControlBase()</text><ellipse cx="311.08" cy="127.2422" fill="#84BE84" rx="3" ry="3" style="stroke:#038048;stroke-width:1.0;"/><text fill="#000000" font-family="sans-serif" font-size="14" lengthAdjust="spacing" textLength="69.2754" x="320.08" y="130.5889">initialize()</text><ellipse cx="311.08" cy="143.5391" fill="#84BE84" rx="3" ry="3" style="stroke:#038048;stroke-width:1.0;"/><text fill="#000000" font-family="sans-serif" font-size="14" lengthAdjust="spacing" textLength="60.252" x="320.08" y="146.8857">update()</text><ellipse cx="311.08" cy="159.8359" fill="#84BE84" rx="3" ry="3" style="stroke:#038048;stroke-width:1.0;"/><text fill="#000000" font-family="sans-serif" font-size="14" lengthAdjust="spacing" textLength="67.5459" x="320.08" y="163.1826">activate()</text><ellipse cx="311.08" cy="176.1328" fill="#84BE84" rx="3" ry="3" style="stroke:#038048;stroke-width:1.0;"/><text fill="#000000" font-family="sans-serif" font-size="14" lengthAdjust="spacing" textLength="46.6895" x="320.08" y="179.4795">reset()</text><polygon fill="#FFFF44" points="311.08,187.4297,315.08,191.4297,311.08,195.4297,307.08,191.4297" style="stroke:#B38D22;stroke-width:1.0;"/><text fill="#000000" font-family="sans-serif" font-size="14" lengthAdjust="spacing" textLength="251.8496" x="320.08" y="195.7764">template&lt;class T&gt; void getParam()</text></g><!--class BaseMPC--><g id="elem_BaseMPC"><rect codeLine="15" fill="#F1F1F1" height="194.6719" id="BaseMPC" rx="2.5" ry="2.5" style="stroke:#181818;stroke-width:0.5;" width="196.8232" x="340.59" y="263.08"/><ellipse cx="402.5578" cy="279.08" fill="#A9DCDF" rx="11" ry="11" style="stroke:#181818;stroke-width:1.0;"/><path d="M402.6671,274.4237 L401.5109,279.5019 L403.839,279.5019 L402.6671,274.4237 Z M401.1828,272.1894 L404.1671,272.1894 L407.5265,284.58 L405.0734,284.58 L404.3078,281.5175 L401.0265,281.5175 L400.2765,284.58 L397.839,284.58 L401.1828,272.1894 Z " fill="#000000"/><text fill="#000000" font-family="sans-serif" font-size="14" font-style="italic" lengthAdjust="spacing" textLength="64.3877" x="423.0578" y="283.9267">BaseMPC</text><line style="stroke:#181818;stroke-width:0.5;" x1="341.59" x2="536.4132" y1="295.08" y2="295.08"/><polygon fill="none" points="351.59,303.7284,355.59,307.7284,351.59,311.7284,347.59,307.7284" style="stroke:#B38D22;stroke-width:1.0;"/><text fill="#000000" font-family="sans-serif" font-size="14" lengthAdjust="spacing" textLength="113.7568" x="360.59" y="312.0751">mpc_solver_ptr_</text><line style="stroke:#181818;stroke-width:0.5;" x1="341.59" x2="536.4132" y1="319.3769" y2="319.3769"/><polygon fill="#FFFF44" points="351.59,328.0253,355.59,332.0253,351.59,336.0253,347.59,332.0253" style="stroke:#B38D22;stroke-width:1.0;"/><text fill="#000000" font-family="sans-serif" font-size="14" lengthAdjust="spacing" textLength="84.6016" x="360.59" y="336.372">initPredXU()</text><polygon fill="#FFFF44" points="351.59,344.3222,355.59,348.3222,351.59,352.3222,347.59,348.3222" style="stroke:#B38D22;stroke-width:1.0;"/><text fill="#000000" font-family="sans-serif" font-size="14" lengthAdjust="spacing" textLength="156.584" x="360.59" y="352.6689">initMPCSolverPtr() = 0</text><polygon fill="#FFFF44" points="351.59,360.6191,355.59,364.6191,351.59,368.6191,347.59,364.6191" style="stroke:#B38D22;stroke-width:1.0;"/><text fill="#000000" font-family="sans-serif" font-size="14" lengthAdjust="spacing" textLength="170.8232" x="360.59" y="368.9657">callbackSetRefTraj() = 0</text><polygon fill="#FFFF44" points="351.59,376.9159,355.59,380.9159,351.59,384.9159,347.59,380.9159" style="stroke:#B38D22;stroke-width:1.0;"/><text fill="#000000" font-family="sans-serif" font-size="14" lengthAdjust="spacing" textLength="107.0098" x="360.59" y="385.2626">rosXU2VecXU()</text><polygon fill="#FFFF44" points="351.59,393.2128,355.59,397.2128,351.59,401.2128,347.59,397.2128" style="stroke:#B38D22;stroke-width:1.0;"/><text fill="#000000" font-family="sans-serif" font-size="14" lengthAdjust="spacing" textLength="122.9717" x="360.59" y="401.5595">meas2VecX() = 0</text><polygon fill="#FFFF44" points="351.59,409.5097,355.59,413.5097,351.59,417.5097,347.59,413.5097" style="stroke:#B38D22;stroke-width:1.0;"/><text fill="#000000" font-family="sans-serif" font-size="14" lengthAdjust="spacing" textLength="122.0078" x="360.59" y="417.8564">controlCore() = 0</text><polygon fill="#FFFF44" points="351.59,425.8066,355.59,429.8066,351.59,433.8066,347.59,429.8066" style="stroke:#B38D22;stroke-width:1.0;"/><text fill="#000000" font-family="sans-serif" font-size="14" lengthAdjust="spacing" textLength="106.4287" x="360.59" y="434.1532">sendCmd() = 0</text><polygon fill="#FFFF44" points="351.59,442.1034,355.59,446.1034,351.59,450.1034,347.59,446.1034" style="stroke:#B38D22;stroke-width:1.0;"/><text fill="#000000" font-family="sans-serif" font-size="14" lengthAdjust="spacing" textLength="118.6035" x="360.59" y="450.4501">callbackViz() = 0</text></g><!--class FixQdNMPC--><g id="elem_FixQdNMPC"><rect codeLine="27" fill="#F1F1F1" height="80.5938" id="FixQdNMPC" rx="2.5" ry="2.5" style="stroke:#181818;stroke-width:0.5;" width="153.0459" x="46.48" y="1090.21"/><ellipse cx="79.5442" cy="1106.21" fill="#ADD1B2" rx="11" ry="11" style="stroke:#181818;stroke-width:1.0;"/><path d="M82.5129,1111.8506 Q81.9348,1112.1475 81.2942,1112.2881 Q80.6535,1112.4444 79.9504,1112.4444 Q77.4504,1112.4444 76.1223,1110.8038 Q74.8098,1109.1475 74.8098,1106.0225 Q74.8098,1102.8975 76.1223,1101.2413 Q77.4504,1099.585 79.9504,1099.585 Q80.6535,1099.585 81.2942,1099.7413 Q81.9504,1099.8975 82.5129,1100.1944 L82.5129,1102.9131 Q81.8879,1102.335 81.2942,1102.0694 Q80.7004,1101.7881 80.0754,1101.7881 Q78.7317,1101.7881 78.0442,1102.8663 Q77.3567,1103.9288 77.3567,1106.0225 Q77.3567,1108.1163 78.0442,1109.1944 Q78.7317,1110.2569 80.0754,1110.2569 Q80.7004,1110.2569 81.2942,1109.9913 Q81.8879,1109.71 82.5129,1109.1319 L82.5129,1111.8506 Z " fill="#000000"/><text fill="#000000" font-family="sans-serif" font-size="14" lengthAdjust="spacing" textLength="80.9033" x="97.5584" y="1111.0567">FixQdNMPC</text><line style="stroke:#181818;stroke-width:0.5;" x1="47.48" x2="198.5259" y1="1122.21" y2="1122.21"/><line style="stroke:#181818;stroke-width:0.5;" x1="47.48" x2="198.5259" y1="1130.21" y2="1130.21"/><polygon fill="#FFFF44" points="57.48,1138.8584,61.48,1142.8584,57.48,1146.8584,53.48,1142.8584" style="stroke:#B38D22;stroke-width:1.0;"/><text fill="#000000" font-family="sans-serif" font-size="14" lengthAdjust="spacing" textLength="127.0459" x="66.48" y="1147.2051">initMPCSolverPtr()</text><polygon fill="#FFFF44" points="57.48,1155.1553,61.48,1159.1553,57.48,1163.1553,53.48,1159.1553" style="stroke:#B38D22;stroke-width:1.0;"/><text fill="#000000" font-family="sans-serif" font-size="14" lengthAdjust="spacing" textLength="92.832" x="66.48" y="1163.502">initAllocMat()</text></g><!--class TiltQdServoNMPC--><g id="elem_TiltQdServoNMPC"><rect codeLine="42" fill="#F1F1F1" height="488.0156" id="TiltQdServoNMPC" rx="2.5" ry="2.5" style="stroke:#181818;stroke-width:0.5;" width="185.0723" x="346.46" y="517.75"/><ellipse cx="375.1714" cy="533.75" fill="#ADD1B2" rx="11" ry="11" style="stroke:#181818;stroke-width:1.0;"/><path d="M378.1401,539.3906 Q377.562,539.6875 376.9214,539.8281 Q376.2808,539.9844 375.5776,539.9844 Q373.0776,539.9844 371.7495,538.3438 Q370.437,536.6875 370.437,533.5625 Q370.437,530.4375 371.7495,528.7813 Q373.0776,527.125 375.5776,527.125 Q376.2808,527.125 376.9214,527.2813 Q377.5776,527.4375 378.1401,527.7344 L378.1401,530.4531 Q377.5151,529.875 376.9214,529.6094 Q376.3276,529.3281 375.7026,529.3281 Q374.3589,529.3281 373.6714,530.4063 Q372.9839,531.4688 372.9839,533.5625 Q372.9839,535.6563 373.6714,536.7344 Q374.3589,537.7969 375.7026,537.7969 Q376.3276,537.7969 376.9214,537.5313 Q377.5151,537.25 378.1401,536.6719 L378.1401,539.3906 Z " fill="#000000"/><text fill="#000000" font-family="sans-serif" font-size="14" lengthAdjust="spacing" textLength="122.6025" x="392.2183" y="538.5967">TiltQdServoNMPC</text><line style="stroke:#181818;stroke-width:0.5;" x1="347.46" x2="530.5323" y1="549.75" y2="549.75"/><line style="stroke:#181818;stroke-width:0.5;" x1="347.46" x2="530.5323" y1="557.75" y2="557.75"/><ellipse cx="357.46" cy="571.3984" fill="#84BE84" rx="3" ry="3" style="stroke:#038048;stroke-width:1.0;"/><text fill="#000000" font-family="sans-serif" font-size="14" lengthAdjust="spacing" textLength="133.5264" x="366.46" y="574.7451">TiltQdServoNMPC()</text><ellipse cx="357.46" cy="587.6953" fill="#84BE84" rx="3" ry="3" style="stroke:#038048;stroke-width:1.0;"/><text fill="#000000" font-family="sans-serif" font-size="14" lengthAdjust="spacing" textLength="145.2568" x="366.46" y="591.042">~TiltQdServoNMPC()</text><ellipse cx="357.46" cy="603.9922" fill="#84BE84" rx="3" ry="3" style="stroke:#038048;stroke-width:1.0;"/><text fill="#000000" font-family="sans-serif" font-size="14" lengthAdjust="spacing" textLength="69.2754" x="366.46" y="607.3389">initialize()</text><ellipse cx="357.46" cy="620.2891" fill="#84BE84" rx="3" ry="3" style="stroke:#038048;stroke-width:1.0;"/><text fill="#000000" font-family="sans-serif" font-size="14" lengthAdjust="spacing" textLength="60.252" x="366.46" y="623.6357">update()</text><ellipse cx="357.46" cy="636.5859" fill="#84BE84" rx="3" ry="3" style="stroke:#038048;stroke-width:1.0;"/><text fill="#000000" font-family="sans-serif" font-size="14" lengthAdjust="spacing" textLength="46.6895" x="366.46" y="639.9326">reset()</text><polygon fill="#FFFF44" points="357.46,647.8828,361.46,651.8828,357.46,655.8828,353.46,651.8828" style="stroke:#B38D22;stroke-width:1.0;"/><text fill="#000000" font-family="sans-serif" font-size="14" lengthAdjust="spacing" textLength="127.0459" x="366.46" y="656.2295">initMPCSolverPtr()</text><polygon fill="#FFFF44" points="357.46,664.1797,361.46,668.1797,357.46,672.1797,353.46,668.1797" style="stroke:#B38D22;stroke-width:1.0;"/><text fill="#000000" font-family="sans-serif" font-size="14" lengthAdjust="spacing" textLength="92.832" x="366.46" y="672.5264">initAllocMat()</text><polygon fill="#FFFF44" points="357.46,680.4766,361.46,684.4766,357.46,688.4766,353.46,684.4766" style="stroke:#B38D22;stroke-width:1.0;"/><text fill="#000000" font-family="sans-serif" font-size="14" lengthAdjust="spacing" textLength="85.3535" x="366.46" y="688.8232">initParams()</text><polygon fill="#FFFF44" points="357.46,696.7734,361.46,700.7734,357.46,704.7734,353.46,700.7734" style="stroke:#B38D22;stroke-width:1.0;"/><text fill="#000000" font-family="sans-serif" font-size="14" lengthAdjust="spacing" textLength="78.0322" x="366.46" y="705.1201">initCostW()</text><polygon fill="#FFFF44" points="357.46,713.0703,361.46,717.0703,357.46,721.0703,353.46,717.0703" style="stroke:#B38D22;stroke-width:1.0;"/><text fill="#000000" font-family="sans-serif" font-size="14" lengthAdjust="spacing" textLength="121.3789" x="366.46" y="721.417">setControlMode()</text><polygon fill="#FFFF44" points="357.46,729.3672,361.46,733.3672,357.46,737.3672,353.46,733.3672" style="stroke:#B38D22;stroke-width:1.0;"/><text fill="#000000" font-family="sans-serif" font-size="14" lengthAdjust="spacing" textLength="108.3633" x="366.46" y="737.7139">initJointStates()</text><polygon fill="#FFFF44" points="357.46,745.6641,361.46,749.6641,357.46,753.6641,353.46,749.6641" style="stroke:#B38D22;stroke-width:1.0;"/><text fill="#000000" font-family="sans-serif" font-size="14" lengthAdjust="spacing" textLength="92.4697" x="366.46" y="754.0107">controlCore()</text><polygon fill="#FFFF44" points="357.46,761.9609,361.46,765.9609,357.46,769.9609,353.46,765.9609" style="stroke:#B38D22;stroke-width:1.0;"/><text fill="#000000" font-family="sans-serif" font-size="14" lengthAdjust="spacing" textLength="76.8906" x="366.46" y="770.3076">sendCmd()</text><polygon fill="#FFFF44" points="357.46,778.2578,361.46,782.2578,357.46,786.2578,353.46,782.2578" style="stroke:#B38D22;stroke-width:1.0;"/><text fill="#000000" font-family="sans-serif" font-size="14" lengthAdjust="spacing" textLength="130.0537" x="366.46" y="786.6045">prepareNMPCRef()</text><polygon fill="#FFFF44" points="357.46,794.5547,361.46,798.5547,357.46,802.5547,353.46,798.5547" style="stroke:#B38D22;stroke-width:1.0;"/><text fill="#000000" font-family="sans-serif" font-size="14" lengthAdjust="spacing" textLength="159.0723" x="366.46" y="802.9014">prepareNMPCParams()</text><polygon fill="#FFFF44" points="357.46,810.8516,361.46,814.8516,357.46,818.8516,353.46,814.8516" style="stroke:#B38D22;stroke-width:1.0;"/><text fill="#000000" font-family="sans-serif" font-size="14" lengthAdjust="spacing" textLength="89.0654" x="366.46" y="819.1982">callbackViz()</text><polygon fill="#FFFF44" points="357.46,827.1484,361.46,831.1484,357.46,835.1484,353.46,831.1484" style="stroke:#B38D22;stroke-width:1.0;"/><text fill="#000000" font-family="sans-serif" font-size="14" lengthAdjust="spacing" textLength="143.5479" x="366.46" y="835.4951">callbackJointStates()</text><polygon fill="#FFFF44" points="357.46,843.4453,361.46,847.4453,357.46,851.4453,353.46,847.4453" style="stroke:#B38D22;stroke-width:1.0;"/><text fill="#000000" font-family="sans-serif" font-size="14" lengthAdjust="spacing" textLength="117.9609" x="366.46" y="851.792">callbackSetRPY()</text><polygon fill="#FFFF44" points="357.46,859.7422,361.46,863.7422,357.46,867.7422,353.46,863.7422" style="stroke:#B38D22;stroke-width:1.0;"/><text fill="#000000" font-family="sans-serif" font-size="14" lengthAdjust="spacing" textLength="134.3467" x="366.46" y="868.0889">callbackSetRefXU()</text><polygon fill="#FFFF44" points="357.46,876.0391,361.46,880.0391,357.46,884.0391,353.46,880.0391" style="stroke:#B38D22;stroke-width:1.0;"/><text fill="#000000" font-family="sans-serif" font-size="14" lengthAdjust="spacing" textLength="141.2852" x="366.46" y="884.3857">callbackSetRefTraj()</text><polygon fill="#FFFF44" points="357.46,892.3359,361.46,896.3359,357.46,900.3359,353.46,896.3359" style="stroke:#B38D22;stroke-width:1.0;"/><text fill="#000000" font-family="sans-serif" font-size="14" lengthAdjust="spacing" textLength="132.6104" x="366.46" y="900.6826">cfgNMPCCallback()</text><polygon fill="#FFFF44" points="357.46,908.6328,361.46,912.6328,357.46,916.6328,353.46,912.6328" style="stroke:#B38D22;stroke-width:1.0;"/><text fill="#000000" font-family="sans-serif" font-size="14" lengthAdjust="spacing" textLength="76.0225" x="366.46" y="916.9795">getOdom()</text><polygon fill="#FFFF44" points="357.46,924.9297,361.46,928.9297,357.46,932.9297,353.46,928.9297" style="stroke:#B38D22;stroke-width:1.0;"/><text fill="#000000" font-family="sans-serif" font-size="14" lengthAdjust="spacing" textLength="105.8682" x="366.46" y="933.2764">getCommand()</text><polygon fill="#FFFF44" points="357.46,941.2266,361.46,945.2266,357.46,949.2266,353.46,945.2266" style="stroke:#B38D22;stroke-width:1.0;"/><text fill="#000000" font-family="sans-serif" font-size="14" lengthAdjust="spacing" textLength="93.4336" x="366.46" y="949.5732">meas2VecX()</text><polygon fill="#FFFF44" points="357.46,957.5234,361.46,961.5234,357.46,965.5234,353.46,961.5234" style="stroke:#B38D22;stroke-width:1.0;"/><text fill="#000000" font-family="sans-serif" font-size="14" lengthAdjust="spacing" textLength="153.0566" x="366.46" y="965.8701">printPhysicalParams()</text><polygon fill="#FFFF44" points="357.46,973.8203,361.46,977.8203,357.46,981.8203,353.46,977.8203" style="stroke:#B38D22;stroke-width:1.0;"/><text fill="#000000" font-family="sans-serif" font-size="14" lengthAdjust="spacing" textLength="86.9395" x="366.46" y="982.167">setXrUrRef()</text><polygon fill="#FFFF44" points="357.46,990.1172,361.46,994.1172,357.46,998.1172,353.46,994.1172" style="stroke:#B38D22;stroke-width:1.0;"/><text fill="#000000" font-family="sans-serif" font-size="14" lengthAdjust="spacing" textLength="103.1816" x="366.46" y="998.4639">allocateToXU()</text></g><!--class TiltQdServoDistNMPC--><g id="elem_TiltQdServoDistNMPC"><rect codeLine="73" fill="#F1F1F1" height="129.4844" id="TiltMtServoDistNMPC" rx="2.5" ry="2.5" style="stroke:#181818;stroke-width:0.5;" width="198.9492" x="234.53" y="1065.76"/><ellipse cx="257.1321" cy="1081.76" fill="#A9DCDF" rx="11" ry="11" style="stroke:#181818;stroke-width:1.0;"/><path d="M257.2415,1077.1038 L256.0852,1082.1819 L258.4133,1082.1819 L257.2415,1077.1038 Z M255.7571,1074.8694 L258.7415,1074.8694 L262.1008,1087.26 L259.6477,1087.26 L258.8821,1084.1975 L255.6008,1084.1975 L254.8508,1087.26 L252.4133,1087.26 L255.7571,1074.8694 Z " fill="#000000"/><text fill="#000000" font-family="sans-serif" font-size="14" font-style="italic" lengthAdjust="spacing" textLength="150.0557" x="272.8215" y="1086.6067">TiltMtServoDistNMPC</text><line style="stroke:#181818;stroke-width:0.5;" x1="235.53" x2="432.4792" y1="1097.76" y2="1097.76"/><line style="stroke:#181818;stroke-width:0.5;" x1="235.53" x2="432.4792" y1="1105.76" y2="1105.76"/><ellipse cx="245.53" cy="1119.4084" fill="#84BE84" rx="3" ry="3" style="stroke:#038048;stroke-width:1.0;"/><text fill="#000000" font-family="sans-serif" font-size="14" lengthAdjust="spacing" textLength="69.2754" x="254.53" y="1122.7551">initialize()</text><polygon fill="#FFFF44" points="245.53,1130.7053,249.53,1134.7053,245.53,1138.7053,241.53,1134.7053" style="stroke:#B38D22;stroke-width:1.0;"/><text fill="#000000" font-family="sans-serif" font-size="14" lengthAdjust="spacing" textLength="127.0459" x="254.53" y="1139.052">initMPCSolverPtr()</text><polygon fill="#FFFF44" points="245.53,1147.0022,249.53,1151.0022,245.53,1155.0022,241.53,1151.0022" style="stroke:#B38D22;stroke-width:1.0;"/><text fill="#000000" font-family="sans-serif" font-size="14" lengthAdjust="spacing" textLength="93.4336" x="254.53" y="1155.3489">meas2VecX()</text><polygon fill="#FFFF44" points="245.53,1163.2991,249.53,1167.2991,245.53,1171.2991,241.53,1167.2991" style="stroke:#B38D22;stroke-width:1.0;"/><text fill="#000000" font-family="sans-serif" font-size="14" lengthAdjust="spacing" textLength="172.9492" x="254.53" y="1171.6457">calcDisturbWrench() = 0</text><polygon fill="#FFFF44" points="245.53,1179.5959,249.53,1183.5959,245.53,1187.5959,241.53,1183.5959" style="stroke:#B38D22;stroke-width:1.0;"/><text fill="#000000" font-family="sans-serif" font-size="14" lengthAdjust="spacing" textLength="89.0654" x="254.53" y="1187.9426">callbackViz()</text></g><!--class TiltQdServoNMPCwITerm--><g id="elem_TiltQdServoNMPCwITerm"><rect codeLine="82" fill="#F1F1F1" height="96.8906" id="TiltQdServoNMPCwITerm" rx="2.5" ry="2.5" style="stroke:#181818;stroke-width:0.5;" width="206.7402" x="112.63" y="1279.69"/><ellipse cx="127.63" cy="1295.69" fill="#ADD1B2" rx="11" ry="11" style="stroke:#181818;stroke-width:1.0;"/><path d="M130.5988,1301.3306 Q130.0206,1301.6275 129.38,1301.7681 Q128.7394,1301.9244 128.0363,1301.9244 Q125.5363,1301.9244 124.2081,1300.2838 Q122.8956,1298.6275 122.8956,1295.5025 Q122.8956,1292.3775 124.2081,1290.7213 Q125.5363,1289.065 128.0363,1289.065 Q128.7394,1289.065 129.38,1289.2213 Q130.0363,1289.3775 130.5988,1289.6744 L130.5988,1292.3931 Q129.9738,1291.815 129.38,1291.5494 Q128.7863,1291.2681 128.1613,1291.2681 Q126.8175,1291.2681 126.13,1292.3463 Q125.4425,1293.4088 125.4425,1295.5025 Q125.4425,1297.5963 126.13,1298.6744 Q126.8175,1299.7369 128.1613,1299.7369 Q128.7863,1299.7369 129.38,1299.4713 Q129.9738,1299.19 130.5988,1298.6119 L130.5988,1301.3306 Z " fill="#000000"/><text fill="#000000" font-family="sans-serif" font-size="14" lengthAdjust="spacing" textLength="174.7402" x="141.63" y="1300.5367">TiltQdServoNMPCwITerm</text><line style="stroke:#181818;stroke-width:0.5;" x1="113.63" x2="318.3702" y1="1311.69" y2="1311.69"/><line style="stroke:#181818;stroke-width:0.5;" x1="113.63" x2="318.3702" y1="1319.69" y2="1319.69"/><polygon fill="#FFFF44" points="123.63,1328.3384,127.63,1332.3384,123.63,1336.3384,119.63,1332.3384" style="stroke:#B38D22;stroke-width:1.0;"/><text fill="#000000" font-family="sans-serif" font-size="14" lengthAdjust="spacing" textLength="85.3535" x="132.63" y="1336.6851">initParams()</text><polygon fill="#FFFF44" points="123.63,1344.6353,127.63,1348.6353,123.63,1352.6353,119.63,1348.6353" style="stroke:#B38D22;stroke-width:1.0;"/><text fill="#000000" font-family="sans-serif" font-size="14" lengthAdjust="spacing" textLength="143.4111" x="132.63" y="1352.982">calcDisturbWrench()</text><polygon fill="#FFFF44" points="123.63,1360.9322,127.63,1364.9322,123.63,1368.9322,119.63,1364.9322" style="stroke:#B38D22;stroke-width:1.0;"/><text fill="#000000" font-family="sans-serif" font-size="14" lengthAdjust="spacing" textLength="132.6104" x="132.63" y="1369.2789">cfgNMPCCallback()</text></g><!--class TiltQdServoNMPCwEKF--><g id="elem_TiltQdServoNMPCwEKF"><rect codeLine="89" fill="#F1F1F1" height="113.1875" id="TiltQdServoNMPCwEKF" rx="2.5" ry="2.5" style="stroke:#181818;stroke-width:0.5;" width="192.1318" x="353.93" y="1271.54"/><ellipse cx="368.93" cy="1287.54" fill="#ADD1B2" rx="11" ry="11" style="stroke:#181818;stroke-width:1.0;"/><path d="M371.8988,1293.1806 Q371.3206,1293.4775 370.68,1293.6181 Q370.0394,1293.7744 369.3363,1293.7744 Q366.8363,1293.7744 365.5081,1292.1338 Q364.1956,1290.4775 364.1956,1287.3525 Q364.1956,1284.2275 365.5081,1282.5713 Q366.8363,1280.915 369.3363,1280.915 Q370.0394,1280.915 370.68,1281.0713 Q371.3363,1281.2275 371.8988,1281.5244 L371.8988,1284.2431 Q371.2738,1283.665 370.68,1283.3994 Q370.0863,1283.1181 369.4613,1283.1181 Q368.1175,1283.1181 367.43,1284.1963 Q366.7425,1285.2588 366.7425,1287.3525 Q366.7425,1289.4463 367.43,1290.5244 Q368.1175,1291.5869 369.4613,1291.5869 Q370.0863,1291.5869 370.68,1291.3213 Q371.2738,1291.04 371.8988,1290.4619 L371.8988,1293.1806 Z " fill="#000000"/><text fill="#000000" font-family="sans-serif" font-size="14" lengthAdjust="spacing" textLength="160.1318" x="382.93" y="1292.3867">TiltQdServoNMPCwEKF</text><line style="stroke:#181818;stroke-width:0.5;" x1="354.93" x2="545.0618" y1="1303.54" y2="1303.54"/><text fill="#000000" font-family="sans-serif" font-size="14" lengthAdjust="spacing" textLength="72.9941" x="359.93" y="1320.5351">unfinished</text><line style="stroke:#181818;stroke-width:0.5;" x1="354.93" x2="545.0618" y1="1327.8369" y2="1327.8369"/><polygon fill="#FFFF44" points="364.93,1336.4853,368.93,1340.4853,364.93,1344.4853,360.93,1340.4853" style="stroke:#B38D22;stroke-width:1.0;"/><text fill="#000000" font-family="sans-serif" font-size="14" lengthAdjust="spacing" textLength="85.3535" x="373.93" y="1344.832">initParams()</text><polygon fill="#FFFF44" points="364.93,1352.7822,368.93,1356.7822,364.93,1360.7822,360.93,1356.7822" style="stroke:#B38D22;stroke-width:1.0;"/><text fill="#000000" font-family="sans-serif" font-size="14" lengthAdjust="spacing" textLength="143.4111" x="373.93" y="1361.1289">calcDisturbWrench()</text><polygon fill="#FFFF44" points="364.93,1369.0791,368.93,1373.0791,364.93,1377.0791,360.93,1373.0791" style="stroke:#B38D22;stroke-width:1.0;"/><text fill="#000000" font-family="sans-serif" font-size="14" lengthAdjust="spacing" textLength="132.6104" x="373.93" y="1377.4257">cfgNMPCCallback()</text></g><!--class TiltQdServoNMPCwMHE--><g id="elem_TiltQdServoNMPCwMHE"><rect codeLine="97" fill="#F1F1F1" height="145.7813" id="TiltQdServoNMPCwMHE" rx="2.5" ry="2.5" style="stroke:#181818;stroke-width:0.5;" width="214.1592" x="92.92" y="1461.03"/><ellipse cx="115.4144" cy="1477.03" fill="#ADD1B2" rx="11" ry="11" style="stroke:#181818;stroke-width:1.0;"/><path d="M118.3832,1482.6706 Q117.8051,1482.9675 117.1644,1483.1081 Q116.5238,1483.2644 115.8207,1483.2644 Q113.3207,1483.2644 111.9926,1481.6238 Q110.6801,1479.9675 110.6801,1476.8425 Q110.6801,1473.7175 111.9926,1472.0613 Q113.3207,1470.405 115.8207,1470.405 Q116.5238,1470.405 117.1644,1470.5613 Q117.8207,1470.7175 118.3832,1471.0144 L118.3832,1473.7331 Q117.7582,1473.155 117.1644,1472.8894 Q116.5707,1472.6081 115.9457,1472.6081 Q114.6019,1472.6081 113.9144,1473.6863 Q113.2269,1474.7488 113.2269,1476.8425 Q113.2269,1478.9363 113.9144,1480.0144 Q114.6019,1481.0769 115.9457,1481.0769 Q116.5707,1481.0769 117.1644,1480.8113 Q117.7582,1480.53 118.3832,1479.9519 L118.3832,1482.6706 Z " fill="#000000"/><text fill="#000000" font-family="sans-serif" font-size="14" lengthAdjust="spacing" textLength="165.5049" x="131.0799" y="1481.8767">TiltQdServoNMPCwMHE</text><line style="stroke:#181818;stroke-width:0.5;" x1="93.92" x2="306.0792" y1="1493.03" y2="1493.03"/><text fill="#000000" font-family="sans-serif" font-size="14" lengthAdjust="spacing" textLength="72.9941" x="98.92" y="1510.0251">unfinished</text><line style="stroke:#181818;stroke-width:0.5;" x1="93.92" x2="306.0792" y1="1517.3269" y2="1517.3269"/><ellipse cx="103.92" cy="1530.9753" fill="#84BE84" rx="3" ry="3" style="stroke:#038048;stroke-width:1.0;"/><text fill="#000000" font-family="sans-serif" font-size="14" lengthAdjust="spacing" textLength="176.4287" x="112.92" y="1534.322">TiltQdServoNMPCwMHE()</text><ellipse cx="103.92" cy="1547.2722" fill="#84BE84" rx="3" ry="3" style="stroke:#038048;stroke-width:1.0;"/><text fill="#000000" font-family="sans-serif" font-size="14" lengthAdjust="spacing" textLength="188.1592" x="112.92" y="1550.6189">~TiltQdServoNMPCwMHE()</text><ellipse cx="103.92" cy="1563.5691" fill="#84BE84" rx="3" ry="3" style="stroke:#038048;stroke-width:1.0;"/><text fill="#000000" font-family="sans-serif" font-size="14" lengthAdjust="spacing" textLength="69.2754" x="112.92" y="1566.9157">initialize()</text><ellipse cx="103.92" cy="1579.8659" fill="#84BE84" rx="3" ry="3" style="stroke:#038048;stroke-width:1.0;"/><text fill="#000000" font-family="sans-serif" font-size="14" lengthAdjust="spacing" textLength="60.252" x="112.92" y="1583.2126">update()</text><ellipse cx="103.92" cy="1596.1628" fill="#84BE84" rx="3" ry="3" style="stroke:#038048;stroke-width:1.0;"/><text fill="#000000" font-family="sans-serif" font-size="14" lengthAdjust="spacing" textLength="46.6895" x="112.92" y="1599.5095">reset()</text></g><!--class TiltQdServoThrustNMPCwEKF--><g id="elem_TiltQdServoThrustNMPCwEKF"><rect codeLine="107" fill="#F1F1F1" height="145.7813" id="TiltQdServoThrustNMPCwEKF" rx="2.5" ry="2.5" style="stroke:#181818;stroke-width:0.5;" width="253.623" x="342.19" y="1461.03"/><ellipse cx="364.6844" cy="1477.03" fill="#ADD1B2" rx="11" ry="11" style="stroke:#181818;stroke-width:1.0;"/><path d="M367.6532,1482.6706 Q367.0751,1482.9675 366.4344,1483.1081 Q365.7938,1483.2644 365.0907,1483.2644 Q362.5907,1483.2644 361.2626,1481.6238 Q359.9501,1479.9675 359.9501,1476.8425 Q359.9501,1473.7175 361.2626,1472.0613 Q362.5907,1470.405 365.0907,1470.405 Q365.7938,1470.405 366.4344,1470.5613 Q367.0907,1470.7175 367.6532,1471.0144 L367.6532,1473.7331 Q367.0282,1473.155 366.4344,1472.8894 Q365.8407,1472.6081 365.2157,1472.6081 Q363.8719,1472.6081 363.1844,1473.6863 Q362.4969,1474.7488 362.4969,1476.8425 Q362.4969,1478.9363 363.1844,1480.0144 Q363.8719,1481.0769 365.2157,1481.0769 Q365.8407,1481.0769 366.4344,1480.8113 Q367.0282,1480.53 367.6532,1479.9519 L367.6532,1482.6706 Z " fill="#000000"/><text fill="#000000" font-family="sans-serif" font-size="14" lengthAdjust="spacing" textLength="204.9688" x="380.3499" y="1481.8767">TiltQdServoThrustNMPCwEKF</text><line style="stroke:#181818;stroke-width:0.5;" x1="343.19" x2="594.813" y1="1493.03" y2="1493.03"/><text fill="#000000" font-family="sans-serif" font-size="14" lengthAdjust="spacing" textLength="72.9941" x="348.19" y="1510.0251">unfinished</text><line style="stroke:#181818;stroke-width:0.5;" x1="343.19" x2="594.813" y1="1517.3269" y2="1517.3269"/><ellipse cx="353.19" cy="1530.9753" fill="#84BE84" rx="3" ry="3" style="stroke:#038048;stroke-width:1.0;"/><text fill="#000000" font-family="sans-serif" font-size="14" lengthAdjust="spacing" textLength="215.8926" x="362.19" y="1534.322">TiltQdServoThrustNMPCwEKF()</text><ellipse cx="353.19" cy="1547.2722" fill="#84BE84" rx="3" ry="3" style="stroke:#038048;stroke-width:1.0;"/><text fill="#000000" font-family="sans-serif" font-size="14" lengthAdjust="spacing" textLength="227.623" x="362.19" y="1550.6189">~TiltQdServoThrustNMPCwEKF()</text><ellipse cx="353.19" cy="1563.5691" fill="#84BE84" rx="3" ry="3" style="stroke:#038048;stroke-width:1.0;"/><text fill="#000000" font-family="sans-serif" font-size="14" lengthAdjust="spacing" textLength="69.2754" x="362.19" y="1566.9157">initialize()</text><ellipse cx="353.19" cy="1579.8659" fill="#84BE84" rx="3" ry="3" style="stroke:#038048;stroke-width:1.0;"/><text fill="#000000" font-family="sans-serif" font-size="14" lengthAdjust="spacing" textLength="60.252" x="362.19" y="1583.2126">update()</text><ellipse cx="353.19" cy="1596.1628" fill="#84BE84" rx="3" ry="3" style="stroke:#038048;stroke-width:1.0;"/><text fill="#000000" font-family="sans-serif" font-size="14" lengthAdjust="spacing" textLength="46.6895" x="362.19" y="1599.5095">reset()</text></g><!--class TiltTriServoNMPC--><g id="elem_TiltTriServoNMPC"><rect codeLine="117" fill="#F1F1F1" height="80.5938" id="TiltTriServoNMPC" rx="2.5" ry="2.5" style="stroke:#181818;stroke-width:0.5;" width="153.0459" x="468.48" y="1090.21"/><ellipse cx="483.5486" cy="1106.21" fill="#ADD1B2" rx="11" ry="11" style="stroke:#181818;stroke-width:1.0;"/><path d="M486.5173,1111.8506 Q485.9392,1112.1475 485.2986,1112.2881 Q484.6579,1112.4444 483.9548,1112.4444 Q481.4548,1112.4444 480.1267,1110.8038 Q478.8142,1109.1475 478.8142,1106.0225 Q478.8142,1102.8975 480.1267,1101.2413 Q481.4548,1099.585 483.9548,1099.585 Q484.6579,1099.585 485.2986,1099.7413 Q485.9548,1099.8975 486.5173,1100.1944 L486.5173,1102.9131 Q485.8923,1102.335 485.2986,1102.0694 Q484.7048,1101.7881 484.0798,1101.7881 Q482.7361,1101.7881 482.0486,1102.8663 Q481.3611,1103.9288 481.3611,1106.0225 Q481.3611,1108.1163 482.0486,1109.1944 Q482.7361,1110.2569 484.0798,1110.2569 Q484.7048,1110.2569 485.2986,1109.9913 Q485.8923,1109.71 486.5173,1109.1319 L486.5173,1111.8506 Z " fill="#000000"/><text fill="#000000" font-family="sans-serif" font-size="14" lengthAdjust="spacing" textLength="120.8936" x="497.5638" y="1111.0567">TiltTriServoNMPC</text><line style="stroke:#181818;stroke-width:0.5;" x1="469.48" x2="620.5259" y1="1122.21" y2="1122.21"/><line style="stroke:#181818;stroke-width:0.5;" x1="469.48" x2="620.5259" y1="1130.21" y2="1130.21"/><polygon fill="#FFFF44" points="479.48,1138.8584,483.48,1142.8584,479.48,1146.8584,475.48,1142.8584" style="stroke:#B38D22;stroke-width:1.0;"/><text fill="#000000" font-family="sans-serif" font-size="14" lengthAdjust="spacing" textLength="127.0459" x="488.48" y="1147.2051">initMPCSolverPtr()</text><polygon fill="#FFFF44" points="479.48,1155.1553,483.48,1159.1553,479.48,1163.1553,475.48,1159.1553" style="stroke:#B38D22;stroke-width:1.0;"/><text fill="#000000" font-family="sans-serif" font-size="14" lengthAdjust="spacing" textLength="92.832" x="488.48" y="1163.502">initAllocMat()</text></g><!--class TiltBiServoNMPC--><g id="elem_TiltBiServoNMPC"><rect codeLine="123" fill="#F1F1F1" height="80.5938" id="TiltBiServoNMPC" rx="2.5" ry="2.5" style="stroke:#181818;stroke-width:0.5;" width="153.0459" x="656.48" y="1090.21"/><ellipse cx="673.665" cy="1106.21" fill="#ADD1B2" rx="11" ry="11" style="stroke:#181818;stroke-width:1.0;"/><path d="M676.6337,1111.8506 Q676.0556,1112.1475 675.415,1112.2881 Q674.7743,1112.4444 674.0712,1112.4444 Q671.5712,1112.4444 670.2431,1110.8038 Q668.9306,1109.1475 668.9306,1106.0225 Q668.9306,1102.8975 670.2431,1101.2413 Q671.5712,1099.585 674.0712,1099.585 Q674.7743,1099.585 675.415,1099.7413 Q676.0712,1099.8975 676.6337,1100.1944 L676.6337,1102.9131 Q676.0087,1102.335 675.415,1102.0694 Q674.8212,1101.7881 674.1962,1101.7881 Q672.8525,1101.7881 672.165,1102.8663 Q671.4775,1103.9288 671.4775,1106.0225 Q671.4775,1108.1163 672.165,1109.1944 Q672.8525,1110.2569 674.1962,1110.2569 Q674.8212,1110.2569 675.415,1109.9913 Q676.0087,1109.71 676.6337,1109.1319 L676.6337,1111.8506 Z " fill="#000000"/><text fill="#000000" font-family="sans-serif" font-size="14" lengthAdjust="spacing" textLength="116.1904" x="688.1505" y="1111.0567">TiltBiServoNMPC</text><line style="stroke:#181818;stroke-width:0.5;" x1="657.48" x2="808.5259" y1="1122.21" y2="1122.21"/><line style="stroke:#181818;stroke-width:0.5;" x1="657.48" x2="808.5259" y1="1130.21" y2="1130.21"/><polygon fill="#FFFF44" points="667.48,1138.8584,671.48,1142.8584,667.48,1146.8584,663.48,1142.8584" style="stroke:#B38D22;stroke-width:1.0;"/><text fill="#000000" font-family="sans-serif" font-size="14" lengthAdjust="spacing" textLength="127.0459" x="676.48" y="1147.2051">initMPCSolverPtr()</text><polygon fill="#FFFF44" points="667.48,1155.1553,671.48,1159.1553,667.48,1163.1553,663.48,1159.1553" style="stroke:#B38D22;stroke-width:1.0;"/><text fill="#000000" font-family="sans-serif" font-size="14" lengthAdjust="spacing" textLength="92.832" x="676.48" y="1163.502">initAllocMat()</text></g><!--class TiltBi2OrdServoNMPC--><g id="elem_TiltBi2OrdServoNMPC"><rect codeLine="129" fill="#F1F1F1" height="145.7813" id="TiltBi2OrdServoNMPC" rx="2.5" ry="2.5" style="stroke:#181818;stroke-width:0.5;" width="182.7598" x="627.62" y="1255.25"/><ellipse cx="642.62" cy="1271.25" fill="#ADD1B2" rx="11" ry="11" style="stroke:#181818;stroke-width:1.0;"/><path d="M645.5888,1276.8906 Q645.0106,1277.1875 644.37,1277.3281 Q643.7294,1277.4844 643.0263,1277.4844 Q640.5263,1277.4844 639.1981,1275.8438 Q637.8856,1274.1875 637.8856,1271.0625 Q637.8856,1267.9375 639.1981,1266.2813 Q640.5263,1264.625 643.0263,1264.625 Q643.7294,1264.625 644.37,1264.7813 Q645.0263,1264.9375 645.5888,1265.2344 L645.5888,1267.9531 Q644.9638,1267.375 644.37,1267.1094 Q643.7763,1266.8281 643.1513,1266.8281 Q641.8075,1266.8281 641.12,1267.9063 Q640.4325,1268.9688 640.4325,1271.0625 Q640.4325,1273.1563 641.12,1274.2344 Q641.8075,1275.2969 643.1513,1275.2969 Q643.7763,1275.2969 644.37,1275.0313 Q644.9638,1274.75 645.5888,1274.1719 L645.5888,1276.8906 Z " fill="#000000"/><text fill="#000000" font-family="sans-serif" font-size="14" lengthAdjust="spacing" textLength="150.7598" x="656.62" y="1276.0967">TiltBi2OrdServoNMPC</text><line style="stroke:#181818;stroke-width:0.5;" x1="628.62" x2="809.3798" y1="1287.25" y2="1287.25"/><line style="stroke:#181818;stroke-width:0.5;" x1="628.62" x2="809.3798" y1="1295.25" y2="1295.25"/><polygon fill="#FFFF44" points="638.62,1303.8984,642.62,1307.8984,638.62,1311.8984,634.62,1307.8984" style="stroke:#B38D22;stroke-width:1.0;"/><text fill="#000000" font-family="sans-serif" font-size="14" lengthAdjust="spacing" textLength="127.0459" x="647.62" y="1312.2451">initMPCSolverPtr()</text><polygon fill="#FFFF44" points="638.62,1320.1953,642.62,1324.1953,638.62,1328.1953,634.62,1324.1953" style="stroke:#B38D22;stroke-width:1.0;"/><text fill="#000000" font-family="sans-serif" font-size="14" lengthAdjust="spacing" textLength="78.0322" x="647.62" y="1328.542">initCostW()</text><polygon fill="#FFFF44" points="638.62,1336.4922,642.62,1340.4922,638.62,1344.4922,634.62,1340.4922" style="stroke:#B38D22;stroke-width:1.0;"/><text fill="#000000" font-family="sans-serif" font-size="14" lengthAdjust="spacing" textLength="108.3633" x="647.62" y="1344.8389">initJointStates()</text><polygon fill="#FFFF44" points="638.62,1352.7891,642.62,1356.7891,638.62,1360.7891,634.62,1356.7891" style="stroke:#B38D22;stroke-width:1.0;"/><text fill="#000000" font-family="sans-serif" font-size="14" lengthAdjust="spacing" textLength="93.4336" x="647.62" y="1361.1357">meas2VecX()</text><polygon fill="#FFFF44" points="638.62,1369.0859,642.62,1373.0859,638.62,1377.0859,634.62,1373.0859" style="stroke:#B38D22;stroke-width:1.0;"/><text fill="#000000" font-family="sans-serif" font-size="14" lengthAdjust="spacing" textLength="143.5479" x="647.62" y="1377.4326">callbackJointStates()</text><polygon fill="#FFFF44" points="638.62,1385.3828,642.62,1389.3828,638.62,1393.3828,634.62,1389.3828" style="stroke:#B38D22;stroke-width:1.0;"/><text fill="#000000" font-family="sans-serif" font-size="14" lengthAdjust="spacing" textLength="132.6104" x="647.62" y="1393.7295">cfgNMPCCallback()</text></g><!--reverse link ControlBase to BaseMPC--><g id="link_ControlBase_BaseMPC"><path d="M439,221.39 C439,240.53 439,243.15 439,262.93 " fill="none" id="ControlBase-backto-BaseMPC" style="stroke:#181818;stroke-width:1.0;"/><polygon fill="none" points="439,203.39,433,221.39,445,221.39,439,203.39" style="stroke:#181818;stroke-width:1.0;"/></g><!--reverse link TiltQdServoNMPC to FixQdNMPC--><g id="link_TiltQdServoNMPC_FixQdNMPC"><path d="M334.5718,883.9475 C271.0218,957.7175 202.09,1037.71 157.17,1089.85 " fill="none" id="TiltQdServoNMPC-backto-FixQdNMPC" style="stroke:#181818;stroke-width:1.0;"/><polygon fill="none" points="346.32,870.31,330.026,880.0314,339.1177,887.8635,346.32,870.31" style="stroke:#181818;stroke-width:1.0;"/></g><!--reverse link BaseMPC to TiltQdServoNMPC--><g id="link_BaseMPC_TiltQdServoNMPC"><path d="M439,476.08 C439,494.55 439,496.63 439,517.38 " fill="none" id="BaseMPC-backto-TiltQdServoNMPC" style="stroke:#181818;stroke-width:1.0;"/><polygon fill="none" points="439,458.08,433,476.08,445,476.08,439,458.08" style="stroke:#181818;stroke-width:1.0;"/></g><!--reverse link TiltQdServoNMPC to TiltQdServoDistNMPC--><g id="link_TiltQdServoNMPC_TiltQdServoDistNMPC"><path d="M364.3733,1023.4141 C358.2233,1044.8841 357.39,1047.81 352.34,1065.45 " fill="none" id="TiltQdServoNMPC-backto-TiltMtServoDistNMPC" style="stroke:#181818;stroke-width:1.0;"/><polygon fill="none" points="369.33,1006.11,358.6053,1021.7619,370.1413,1025.0663,369.33,1006.11" style="stroke:#181818;stroke-width:1.0;"/></g><!--reverse link TiltQdServoDistNMPC to TiltQdServoNMPCwITerm--><g id="link_TiltQdServoDistNMPC_TiltQdServoNMPCwITerm"><path d="M286.0617,1210.9724 C269.5917,1238.2724 260.02,1254.17 244.8,1279.39 " fill="none" id="TiltMtServoDistNMPC-backto-TiltQdServoNMPCwITerm" style="stroke:#181818;stroke-width:1.0;"/><polygon fill="none" points="295.36,1195.56,280.9243,1207.873,291.1992,1214.0718,295.36,1195.56" style="stroke:#181818;stroke-width:1.0;"/></g><!--reverse link TiltQdServoDistNMPC to TiltQdServoNMPCwEKF--><g id="link_TiltQdServoDistNMPC_TiltQdServoNMPCwEKF"><path d="M381.1587,1211.0439 C395.6287,1235.4539 402.82,1247.57 416.81,1271.16 " fill="none" id="TiltMtServoDistNMPC-backto-TiltQdServoNMPCwEKF" style="stroke:#181818;stroke-width:1.0;"/><polygon fill="none" points="371.98,1195.56,375.9974,1214.1035,386.32,1207.9843,371.98,1195.56" style="stroke:#181818;stroke-width:1.0;"/></g><!--reverse link TiltQdServoNMPCwEKF to TiltQdServoNMPCwMHE--><g id="link_TiltQdServoNMPCwEKF_TiltQdServoNMPCwMHE"><path d="M367.4062,1396.4607 C338.7762,1419.7907 319.13,1435.81 288.67,1460.64 " fill="none" id="TiltQdServoNMPCwEKF-backto-TiltQdServoNMPCwMHE" style="stroke:#181818;stroke-width:1.0;"/><polygon fill="none" points="381.36,1385.09,363.616,1391.8094,371.1964,1401.1119,381.36,1385.09" style="stroke:#181818;stroke-width:1.0;"/></g><!--reverse link TiltQdServoNMPCwEKF to TiltQdServoThrustNMPCwEKF--><g id="link_TiltQdServoNMPCwEKF_TiltQdServoThrustNMPCwEKF"><path d="M456.887,1403.0126 C459.057,1426.3426 459.95,1435.81 462.26,1460.64 " fill="none" id="TiltQdServoNMPCwEKF-backto-TiltQdServoThrustNMPCwEKF" style="stroke:#181818;stroke-width:1.0;"/><polygon fill="none" points="455.22,1385.09,450.9128,1403.5683,462.8613,1402.457,455.22,1385.09" style="stroke:#181818;stroke-width:1.0;"/></g><!--reverse link TiltQdServoNMPC to TiltTriServoNMPC--><g id="link_TiltQdServoNMPC_TiltTriServoNMPC"><path d="M514.3296,1023.4017 C523.6396,1055.6017 527.15,1067.74 533.52,1089.78 " fill="none" id="TiltQdServoNMPC-backto-TiltTriServoNMPC" style="stroke:#181818;stroke-width:1.0;"/><polygon fill="none" points="509.33,1006.11,508.5657,1025.0683,520.0935,1021.7352,509.33,1006.11" style="stroke:#181818;stroke-width:1.0;"/></g><!--reverse link TiltQdServoNMPC to TiltBiServoNMPC--><g id="link_TiltQdServoNMPC_TiltBiServoNMPC"><path d="M543.2787,892.8443 C601.3187,965.2443 661.14,1039.86 701.33,1090 " fill="none" id="TiltQdServoNMPC-backto-TiltBiServoNMPC" style="stroke:#181818;stroke-width:1.0;"/><polygon fill="none" points="532.02,878.8,538.5973,896.5972,547.9601,889.0914,532.02,878.8" style="stroke:#181818;stroke-width:1.0;"/></g><!--reverse link TiltBiServoNMPC to TiltBi2OrdServoNMPC--><g id="link_TiltBiServoNMPC_TiltBi2OrdServoNMPC"><path d="M728.8838,1189.044 C727.1638,1213.054 726.2,1226.46 724.18,1254.77 " fill="none" id="TiltBiServoNMPC-backto-TiltBi2OrdServoNMPC" style="stroke:#181818;stroke-width:1.0;"/><polygon fill="none" points="730.17,1171.09,722.8992,1188.6153,734.8685,1189.4727,730.17,1171.09" style="stroke:#181818;stroke-width:1.0;"/></g><!--SRC=[nLRTRjCm6BtFKrZQHJOn60pOK0H8h6nYeBAEPZzSLMxyTJN4SMIxPMnYJy0ZyKwy0awJDdRhh4af8bVniMEVSxwVs1ygbSfWPoUDSQ96B7uKSROJnLZAXuJYAu6PvqbGAC4CP8eZw4AA1LPSe23mFDoNIk18eSad28EWEEu9tkUg5_542Hu7GIj_ES0IqAs7zFC06TZcLe7TkK2QKANtf3SbD4e9LkLG7q_79Y10Cov66qW1q-8KlCmfXg_Hc5E2ha1rj12cr_segIDXQHG46RjsfuNWMa52wclUGFhpdkJn64GlLQ9Ne9d0ZW1oUJQZd47wYEvaRKU9pItq2Zqk9YCSntqSVUs2-WI3KE0lrhJWyl9iznmYOpy6M4uWUwESOeiBi72fPRKOSHvwJcyAN9kstAiZUdrAFYvtAryTqbYTaYw8CPzyS-lvrpr2cJxloTDjD2hUdssZTFhgLpfcJBo9OnwriSf3xI-ddHEfpRjKgHaxAR_mFJ_FpN9hpQR0xboWbVV-NEBxTgBxjO8nRsyTQTDaDqEnR-XQ2CLKuUoOihgh9fPNk5tGTMDjb5TMwDA2MbogYncYjoyAjiq9M0lVSvgehj9qoWsiofclccASYgnHGgPKbwaBdcDbbTWSvYHXz87EPoSC0wC9kFh6T6fmbH5g5IjckEwH9uGpSzpYZE64k5hBJA7csXb-brIVEATH-tmfpeHf2Cu2feM5VCArMIysKkejbMeTdMRNBDlVltuk9lX2ljwJaelsQ5EYZEj8z2y49D6mkizwgvJrj-CG16lgmioz1auuQyiXhpB9Lf9t-E5exUAiBZPA1bgN70BvZohRxmvNIUI9EwkeN6ZR6OFArcrDrc_VJPq8XsAKHswLg3lzs5_53vk7qvMA9V_0cr3GPh_m-svLUwKTUtztgwf7_c2Dt9-lxKPOb_lkYI3D-PkQAwvHZVdRjvUgQuhpvrDzdrZiN7y0]--></g></svg>