<svg xmlns="http://www.w3.org/2000/svg" xmlns:xlink="http://www.w3.org/1999/xlink" contentStyleType="text/css" height="1370px" preserveAspectRatio="none" style="width:688px;height:1370px;background:#FFFFFF;" version="1.1" viewBox="0 0 688 1370" width="688px" zoomAndPan="magnify"><defs/><g><!--cluster aerial_robot_control--><g id="cluster_aerial_robot_control"><path d="M8.5,6 L167.1436,6 A3.75,3.75 0 0 1 169.6436,8.5 L176.6436,28.2969 L678.5,28.2969 A2.5,2.5 0 0 1 681,30.7969 L681,1361.19 A2.5,2.5 0 0 1 678.5,1363.69 L8.5,1363.69 A2.5,2.5 0 0 1 6,1361.19 L6,8.5 A2.5,2.5 0 0 1 8.5,6 " fill="none" style="stroke:#000000;stroke-width:1.5;"/><line style="stroke:#000000;stroke-width:1.5;" x1="6" x2="176.6436" y1="28.2969" y2="28.2969"/><text fill="#000000" font-family="sans-serif" font-size="14" font-weight="bold" lengthAdjust="spacing" textLength="157.6436" x="10" y="20.9951">aerial_robot_control</text></g><!--cluster nmpc--><g id="cluster_nmpc"><path d="M32.5,211.78 L76.375,211.78 A3.75,3.75 0 0 1 78.875,214.28 L85.875,234.0769 L654.5,234.0769 A2.5,2.5 0 0 1 657,236.5769 L657,1337.19 A2.5,2.5 0 0 1 654.5,1339.69 L32.5,1339.69 A2.5,2.5 0 0 1 30,1337.19 L30,214.28 A2.5,2.5 0 0 1 32.5,211.78 " fill="none" style="stroke:#000000;stroke-width:1.5;"/><line style="stroke:#000000;stroke-width:1.5;" x1="30" x2="85.875" y1="234.0769" y2="234.0769"/><text fill="#000000" font-family="sans-serif" font-size="14" font-weight="bold" lengthAdjust="spacing" textLength="42.875" x="34" y="226.7751">nmpc</text></g><!--class ControlBase--><g id="elem_ControlBase"><rect codeLine="5" fill="#F1F1F1" height="145.7813" id="ControlBase" rx="2.5" ry="2.5" style="stroke:#181818;stroke-width:0.5;" width="133.6592" x="314.17" y="41"/><ellipse cx="336.6644" cy="57" fill="#A9DCDF" rx="11" ry="11" style="stroke:#181818;stroke-width:1.0;"/><path d="M336.7738,52.3438 L335.6176,57.4219 L337.9457,57.4219 L336.7738,52.3438 Z M335.2894,50.1094 L338.2738,50.1094 L341.6332,62.5 L339.1801,62.5 L338.4144,59.4375 L335.1332,59.4375 L334.3832,62.5 L331.9457,62.5 L335.2894,50.1094 Z " fill="#000000"/><text fill="#000000" font-family="sans-serif" font-size="14" font-style="italic" lengthAdjust="spacing" textLength="85.0049" x="352.3299" y="61.8467">ControlBase</text><line style="stroke:#181818;stroke-width:0.5;" x1="315.17" x2="446.8292" y1="73" y2="73"/><line style="stroke:#181818;stroke-width:0.5;" x1="315.17" x2="446.8292" y1="81" y2="81"/><ellipse cx="325.17" cy="94.6484" fill="#84BE84" rx="3" ry="3" style="stroke:#038048;stroke-width:1.0;"/><text fill="#000000" font-family="sans-serif" font-size="14" lengthAdjust="spacing" textLength="95.9287" x="334.17" y="97.9951">ControlBase()</text><ellipse cx="325.17" cy="110.9453" fill="#84BE84" rx="3" ry="3" style="stroke:#038048;stroke-width:1.0;"/><text fill="#000000" font-family="sans-serif" font-size="14" lengthAdjust="spacing" textLength="107.6592" x="334.17" y="114.292">~ControlBase()</text><ellipse cx="325.17" cy="127.2422" fill="#84BE84" rx="3" ry="3" style="stroke:#038048;stroke-width:1.0;"/><text fill="#000000" font-family="sans-serif" font-size="14" lengthAdjust="spacing" textLength="69.2754" x="334.17" y="130.5889">initialize()</text><ellipse cx="325.17" cy="143.5391" fill="#84BE84" rx="3" ry="3" style="stroke:#038048;stroke-width:1.0;"/><text fill="#000000" font-family="sans-serif" font-size="14" lengthAdjust="spacing" textLength="60.252" x="334.17" y="146.8857">update()</text><ellipse cx="325.17" cy="159.8359" fill="#84BE84" rx="3" ry="3" style="stroke:#038048;stroke-width:1.0;"/><text fill="#000000" font-family="sans-serif" font-size="14" lengthAdjust="spacing" textLength="67.5459" x="334.17" y="163.1826">activate()</text><ellipse cx="325.17" cy="176.1328" fill="#84BE84" rx="3" ry="3" style="stroke:#038048;stroke-width:1.0;"/><text fill="#000000" font-family="sans-serif" font-size="14" lengthAdjust="spacing" textLength="46.6895" x="334.17" y="179.4795">reset()</text></g><!--class BaseMPC--><g id="elem_BaseMPC"><rect codeLine="14" fill="#F1F1F1" height="129.4844" id="BaseMPC" rx="2.5" ry="2.5" style="stroke:#181818;stroke-width:0.5;" width="113.042" x="324.48" y="246.78"/><ellipse cx="346.9744" cy="262.78" fill="#A9DCDF" rx="11" ry="11" style="stroke:#181818;stroke-width:1.0;"/><path d="M347.0838,258.1238 L345.9276,263.2019 L348.2557,263.2019 L347.0838,258.1238 Z M345.5994,255.8894 L348.5838,255.8894 L351.9432,268.28 L349.4901,268.28 L348.7244,265.2175 L345.4432,265.2175 L344.6932,268.28 L342.2557,268.28 L345.5994,255.8894 Z " fill="#000000"/><text fill="#000000" font-family="sans-serif" font-size="14" font-style="italic" lengthAdjust="spacing" textLength="64.3877" x="362.6399" y="267.6267">BaseMPC</text><line style="stroke:#181818;stroke-width:0.5;" x1="325.48" x2="436.522" y1="278.78" y2="278.78"/><line style="stroke:#181818;stroke-width:0.5;" x1="325.48" x2="436.522" y1="286.78" y2="286.78"/><ellipse cx="335.48" cy="300.4284" fill="#84BE84" rx="3" ry="3" style="stroke:#038048;stroke-width:1.0;"/><text fill="#000000" font-family="sans-serif" font-size="14" lengthAdjust="spacing" textLength="75.3115" x="344.48" y="303.7751">BaseMPC()</text><ellipse cx="335.48" cy="316.7253" fill="#84BE84" rx="3" ry="3" style="stroke:#038048;stroke-width:1.0;"/><text fill="#000000" font-family="sans-serif" font-size="14" lengthAdjust="spacing" textLength="87.042" x="344.48" y="320.072">~BaseMPC()</text><ellipse cx="335.48" cy="333.0222" fill="#84BE84" rx="3" ry="3" style="stroke:#038048;stroke-width:1.0;"/><text fill="#000000" font-family="sans-serif" font-size="14" lengthAdjust="spacing" textLength="69.2754" x="344.48" y="336.3689">initialize()</text><ellipse cx="335.48" cy="349.3191" fill="#84BE84" rx="3" ry="3" style="stroke:#038048;stroke-width:1.0;"/><text fill="#000000" font-family="sans-serif" font-size="14" lengthAdjust="spacing" textLength="60.252" x="344.48" y="352.6657">update()</text><ellipse cx="335.48" cy="365.6159" fill="#84BE84" rx="3" ry="3" style="stroke:#038048;stroke-width:1.0;"/><text fill="#000000" font-family="sans-serif" font-size="14" lengthAdjust="spacing" textLength="46.6895" x="344.48" y="368.9626">reset()</text></g><!--class FixQdNMPC--><g id="elem_FixQdNMPC"><rect codeLine="22" fill="#F1F1F1" height="129.4844" id="FixQdNMPC" rx="2.5" ry="2.5" style="stroke:#181818;stroke-width:0.5;" width="129.5576" x="316.22" y="436.27"/><ellipse cx="338.7144" cy="452.27" fill="#ADD1B2" rx="11" ry="11" style="stroke:#181818;stroke-width:1.0;"/><path d="M341.6832,457.9106 Q341.1051,458.2075 340.4644,458.3481 Q339.8238,458.5044 339.1207,458.5044 Q336.6207,458.5044 335.2926,456.8638 Q333.9801,455.2075 333.9801,452.0825 Q333.9801,448.9575 335.2926,447.3013 Q336.6207,445.645 339.1207,445.645 Q339.8238,445.645 340.4644,445.8013 Q341.1207,445.9575 341.6832,446.2544 L341.6832,448.9731 Q341.0582,448.395 340.4644,448.1294 Q339.8707,447.8481 339.2457,447.8481 Q337.9019,447.8481 337.2144,448.9263 Q336.5269,449.9888 336.5269,452.0825 Q336.5269,454.1763 337.2144,455.2544 Q337.9019,456.3169 339.2457,456.3169 Q339.8707,456.3169 340.4644,456.0513 Q341.0582,455.77 341.6832,455.1919 L341.6832,457.9106 Z " fill="#000000"/><text fill="#000000" font-family="sans-serif" font-size="14" lengthAdjust="spacing" textLength="80.9033" x="354.3799" y="457.1167">FixQdNMPC</text><line style="stroke:#181818;stroke-width:0.5;" x1="317.22" x2="444.7776" y1="468.27" y2="468.27"/><line style="stroke:#181818;stroke-width:0.5;" x1="317.22" x2="444.7776" y1="476.27" y2="476.27"/><ellipse cx="327.22" cy="489.9184" fill="#84BE84" rx="3" ry="3" style="stroke:#038048;stroke-width:1.0;"/><text fill="#000000" font-family="sans-serif" font-size="14" lengthAdjust="spacing" textLength="91.8271" x="336.22" y="493.2651">FixQdNMPC()</text><ellipse cx="327.22" cy="506.2153" fill="#84BE84" rx="3" ry="3" style="stroke:#038048;stroke-width:1.0;"/><text fill="#000000" font-family="sans-serif" font-size="14" lengthAdjust="spacing" textLength="103.5576" x="336.22" y="509.562">~FixQdNMPC()</text><ellipse cx="327.22" cy="522.5122" fill="#84BE84" rx="3" ry="3" style="stroke:#038048;stroke-width:1.0;"/><text fill="#000000" font-family="sans-serif" font-size="14" lengthAdjust="spacing" textLength="69.2754" x="336.22" y="525.8589">initialize()</text><ellipse cx="327.22" cy="538.8091" fill="#84BE84" rx="3" ry="3" style="stroke:#038048;stroke-width:1.0;"/><text fill="#000000" font-family="sans-serif" font-size="14" lengthAdjust="spacing" textLength="60.252" x="336.22" y="542.1557">update()</text><ellipse cx="327.22" cy="555.1059" fill="#84BE84" rx="3" ry="3" style="stroke:#038048;stroke-width:1.0;"/><text fill="#000000" font-family="sans-serif" font-size="14" lengthAdjust="spacing" textLength="46.6895" x="336.22" y="558.4526">reset()</text></g><!--class TiltQdServoNMPC--><g id="elem_TiltQdServoNMPC"><rect codeLine="40" fill="#F1F1F1" height="129.4844" id="TiltQdServoNMPC" rx="2.5" ry="2.5" style="stroke:#181818;stroke-width:0.5;" width="171.2568" x="295.37" y="625.75"/><ellipse cx="317.8644" cy="641.75" fill="#ADD1B2" rx="11" ry="11" style="stroke:#181818;stroke-width:1.0;"/><path d="M320.8332,647.3906 Q320.2551,647.6875 319.6144,647.8281 Q318.9738,647.9844 318.2707,647.9844 Q315.7707,647.9844 314.4426,646.3438 Q313.1301,644.6875 313.1301,641.5625 Q313.1301,638.4375 314.4426,636.7813 Q315.7707,635.125 318.2707,635.125 Q318.9738,635.125 319.6144,635.2813 Q320.2707,635.4375 320.8332,635.7344 L320.8332,638.4531 Q320.2082,637.875 319.6144,637.6094 Q319.0207,637.3281 318.3957,637.3281 Q317.0519,637.3281 316.3644,638.4063 Q315.6769,639.4688 315.6769,641.5625 Q315.6769,643.6563 316.3644,644.7344 Q317.0519,645.7969 318.3957,645.7969 Q319.0207,645.7969 319.6144,645.5313 Q320.2082,645.25 320.8332,644.6719 L320.8332,647.3906 Z " fill="#000000"/><text fill="#000000" font-family="sans-serif" font-size="14" lengthAdjust="spacing" textLength="122.6025" x="333.5299" y="646.5967">TiltQdServoNMPC</text><line style="stroke:#181818;stroke-width:0.5;" x1="296.37" x2="465.6268" y1="657.75" y2="657.75"/><line style="stroke:#181818;stroke-width:0.5;" x1="296.37" x2="465.6268" y1="665.75" y2="665.75"/><ellipse cx="306.37" cy="679.3984" fill="#84BE84" rx="3" ry="3" style="stroke:#038048;stroke-width:1.0;"/><text fill="#000000" font-family="sans-serif" font-size="14" lengthAdjust="spacing" textLength="133.5264" x="315.37" y="682.7451">TiltQdServoNMPC()</text><ellipse cx="306.37" cy="695.6953" fill="#84BE84" rx="3" ry="3" style="stroke:#038048;stroke-width:1.0;"/><text fill="#000000" font-family="sans-serif" font-size="14" lengthAdjust="spacing" textLength="145.2568" x="315.37" y="699.042">~TiltQdServoNMPC()</text><ellipse cx="306.37" cy="711.9922" fill="#84BE84" rx="3" ry="3" style="stroke:#038048;stroke-width:1.0;"/><text fill="#000000" font-family="sans-serif" font-size="14" lengthAdjust="spacing" textLength="69.2754" x="315.37" y="715.3389">initialize()</text><ellipse cx="306.37" cy="728.2891" fill="#84BE84" rx="3" ry="3" style="stroke:#038048;stroke-width:1.0;"/><text fill="#000000" font-family="sans-serif" font-size="14" lengthAdjust="spacing" textLength="60.252" x="315.37" y="731.6357">update()</text><ellipse cx="306.37" cy="744.5859" fill="#84BE84" rx="3" ry="3" style="stroke:#038048;stroke-width:1.0;"/><text fill="#000000" font-family="sans-serif" font-size="14" lengthAdjust="spacing" textLength="46.6895" x="315.37" y="747.9326">reset()</text></g><!--class TiltQdServoNMPCwITerm--><g id="elem_TiltQdServoNMPCwITerm"><rect codeLine="49" fill="#F1F1F1" height="129.4844" id="TiltQdServoNMPCwITerm" rx="2.5" ry="2.5" style="stroke:#181818;stroke-width:0.5;" width="223.3945" x="46.3" y="815.24"/><ellipse cx="68.7944" cy="831.24" fill="#ADD1B2" rx="11" ry="11" style="stroke:#181818;stroke-width:1.0;"/><path d="M71.7632,836.8806 Q71.1851,837.1775 70.5444,837.3181 Q69.9038,837.4744 69.2007,837.4744 Q66.7007,837.4744 65.3726,835.8338 Q64.0601,834.1775 64.0601,831.0525 Q64.0601,827.9275 65.3726,826.2713 Q66.7007,824.615 69.2007,824.615 Q69.9038,824.615 70.5444,824.7713 Q71.2007,824.9275 71.7632,825.2244 L71.7632,827.9431 Q71.1382,827.365 70.5444,827.0994 Q69.9507,826.8181 69.3257,826.8181 Q67.9819,826.8181 67.2944,827.8963 Q66.6069,828.9588 66.6069,831.0525 Q66.6069,833.1463 67.2944,834.2244 Q67.9819,835.2869 69.3257,835.2869 Q69.9507,835.2869 70.5444,835.0213 Q71.1382,834.74 71.7632,834.1619 L71.7632,836.8806 Z " fill="#000000"/><text fill="#000000" font-family="sans-serif" font-size="14" lengthAdjust="spacing" textLength="174.7402" x="84.4599" y="836.0867">TiltQdServoNMPCwITerm</text><line style="stroke:#181818;stroke-width:0.5;" x1="47.3" x2="268.6945" y1="847.24" y2="847.24"/><line style="stroke:#181818;stroke-width:0.5;" x1="47.3" x2="268.6945" y1="855.24" y2="855.24"/><ellipse cx="57.3" cy="868.8884" fill="#84BE84" rx="3" ry="3" style="stroke:#038048;stroke-width:1.0;"/><text fill="#000000" font-family="sans-serif" font-size="14" lengthAdjust="spacing" textLength="185.6641" x="66.3" y="872.2351">TiltQdServoNMPCwITerm()</text><ellipse cx="57.3" cy="885.1853" fill="#84BE84" rx="3" ry="3" style="stroke:#038048;stroke-width:1.0;"/><text fill="#000000" font-family="sans-serif" font-size="14" lengthAdjust="spacing" textLength="197.3945" x="66.3" y="888.532">~TiltQdServoNMPCwITerm()</text><ellipse cx="57.3" cy="901.4822" fill="#84BE84" rx="3" ry="3" style="stroke:#038048;stroke-width:1.0;"/><text fill="#000000" font-family="sans-serif" font-size="14" lengthAdjust="spacing" textLength="69.2754" x="66.3" y="904.8289">initialize()</text><ellipse cx="57.3" cy="917.7791" fill="#84BE84" rx="3" ry="3" style="stroke:#038048;stroke-width:1.0;"/><text fill="#000000" font-family="sans-serif" font-size="14" lengthAdjust="spacing" textLength="60.252" x="66.3" y="921.1257">update()</text><ellipse cx="57.3" cy="934.0759" fill="#84BE84" rx="3" ry="3" style="stroke:#038048;stroke-width:1.0;"/><text fill="#000000" font-family="sans-serif" font-size="14" lengthAdjust="spacing" textLength="46.6895" x="66.3" y="937.4226">reset()</text></g><!--class TiltQdServoNMPCwEKF--><g id="elem_TiltQdServoNMPCwEKF"><rect codeLine="58" fill="#F1F1F1" height="129.4844" id="TiltQdServoNMPCwEKF" rx="2.5" ry="2.5" style="stroke:#181818;stroke-width:0.5;" width="208.7861" x="60.61" y="1004.72"/><ellipse cx="83.1044" cy="1020.72" fill="#ADD1B2" rx="11" ry="11" style="stroke:#181818;stroke-width:1.0;"/><path d="M86.0732,1026.3606 Q85.4951,1026.6575 84.8544,1026.7981 Q84.2138,1026.9544 83.5107,1026.9544 Q81.0107,1026.9544 79.6826,1025.3138 Q78.3701,1023.6575 78.3701,1020.5325 Q78.3701,1017.4075 79.6826,1015.7513 Q81.0107,1014.095 83.5107,1014.095 Q84.2138,1014.095 84.8544,1014.2513 Q85.5107,1014.4075 86.0732,1014.7044 L86.0732,1017.4231 Q85.4482,1016.845 84.8544,1016.5794 Q84.2607,1016.2981 83.6357,1016.2981 Q82.2919,1016.2981 81.6044,1017.3763 Q80.9169,1018.4388 80.9169,1020.5325 Q80.9169,1022.6263 81.6044,1023.7044 Q82.2919,1024.7669 83.6357,1024.7669 Q84.2607,1024.7669 84.8544,1024.5013 Q85.4482,1024.22 86.0732,1023.6419 L86.0732,1026.3606 Z " fill="#000000"/><text fill="#000000" font-family="sans-serif" font-size="14" lengthAdjust="spacing" textLength="160.1318" x="98.7699" y="1025.5667">TiltQdServoNMPCwEKF</text><line style="stroke:#181818;stroke-width:0.5;" x1="61.61" x2="268.3961" y1="1036.72" y2="1036.72"/><line style="stroke:#181818;stroke-width:0.5;" x1="61.61" x2="268.3961" y1="1044.72" y2="1044.72"/><ellipse cx="71.61" cy="1058.3684" fill="#84BE84" rx="3" ry="3" style="stroke:#038048;stroke-width:1.0;"/><text fill="#000000" font-family="sans-serif" font-size="14" lengthAdjust="spacing" textLength="171.0557" x="80.61" y="1061.7151">TiltQdServoNMPCwEKF()</text><ellipse cx="71.61" cy="1074.6653" fill="#84BE84" rx="3" ry="3" style="stroke:#038048;stroke-width:1.0;"/><text fill="#000000" font-family="sans-serif" font-size="14" lengthAdjust="spacing" textLength="182.7861" x="80.61" y="1078.012">~TiltQdServoNMPCwEKF()</text><ellipse cx="71.61" cy="1090.9622" fill="#84BE84" rx="3" ry="3" style="stroke:#038048;stroke-width:1.0;"/><text fill="#000000" font-family="sans-serif" font-size="14" lengthAdjust="spacing" textLength="69.2754" x="80.61" y="1094.3089">initialize()</text><ellipse cx="71.61" cy="1107.2591" fill="#84BE84" rx="3" ry="3" style="stroke:#038048;stroke-width:1.0;"/><text fill="#000000" font-family="sans-serif" font-size="14" lengthAdjust="spacing" textLength="60.252" x="80.61" y="1110.6057">update()</text><ellipse cx="71.61" cy="1123.5559" fill="#84BE84" rx="3" ry="3" style="stroke:#038048;stroke-width:1.0;"/><text fill="#000000" font-family="sans-serif" font-size="14" lengthAdjust="spacing" textLength="46.6895" x="80.61" y="1126.9026">reset()</text></g><!--class TiltQdServoThrustNMPCwEKF--><g id="elem_TiltQdServoThrustNMPCwEKF"><rect codeLine="67" fill="#F1F1F1" height="129.4844" id="TiltQdServoThrustNMPCwEKF" rx="2.5" ry="2.5" style="stroke:#181818;stroke-width:0.5;" width="253.623" x="46.19" y="1194.21"/><ellipse cx="68.6844" cy="1210.21" fill="#ADD1B2" rx="11" ry="11" style="stroke:#181818;stroke-width:1.0;"/><path d="M71.6532,1215.8506 Q71.0751,1216.1475 70.4344,1216.2881 Q69.7938,1216.4444 69.0907,1216.4444 Q66.5907,1216.4444 65.2626,1214.8038 Q63.9501,1213.1475 63.9501,1210.0225 Q63.9501,1206.8975 65.2626,1205.2413 Q66.5907,1203.585 69.0907,1203.585 Q69.7938,1203.585 70.4344,1203.7413 Q71.0907,1203.8975 71.6532,1204.1944 L71.6532,1206.9131 Q71.0282,1206.335 70.4344,1206.0694 Q69.8407,1205.7881 69.2157,1205.7881 Q67.8719,1205.7881 67.1844,1206.8663 Q66.4969,1207.9288 66.4969,1210.0225 Q66.4969,1212.1163 67.1844,1213.1944 Q67.8719,1214.2569 69.2157,1214.2569 Q69.8407,1214.2569 70.4344,1213.9913 Q71.0282,1213.71 71.6532,1213.1319 L71.6532,1215.8506 Z " fill="#000000"/><text fill="#000000" font-family="sans-serif" font-size="14" lengthAdjust="spacing" textLength="204.9688" x="84.3499" y="1215.0567">TiltQdServoThrustNMPCwEKF</text><line style="stroke:#181818;stroke-width:0.5;" x1="47.19" x2="298.813" y1="1226.21" y2="1226.21"/><line style="stroke:#181818;stroke-width:0.5;" x1="47.19" x2="298.813" y1="1234.21" y2="1234.21"/><ellipse cx="57.19" cy="1247.8584" fill="#84BE84" rx="3" ry="3" style="stroke:#038048;stroke-width:1.0;"/><text fill="#000000" font-family="sans-serif" font-size="14" lengthAdjust="spacing" textLength="215.8926" x="66.19" y="1251.2051">TiltQdServoThrustNMPCwEKF()</text><ellipse cx="57.19" cy="1264.1553" fill="#84BE84" rx="3" ry="3" style="stroke:#038048;stroke-width:1.0;"/><text fill="#000000" font-family="sans-serif" font-size="14" lengthAdjust="spacing" textLength="227.623" x="66.19" y="1267.502">~TiltQdServoThrustNMPCwEKF()</text><ellipse cx="57.19" cy="1280.4522" fill="#84BE84" rx="3" ry="3" style="stroke:#038048;stroke-width:1.0;"/><text fill="#000000" font-family="sans-serif" font-size="14" lengthAdjust="spacing" textLength="69.2754" x="66.19" y="1283.7989">initialize()</text><ellipse cx="57.19" cy="1296.7491" fill="#84BE84" rx="3" ry="3" style="stroke:#038048;stroke-width:1.0;"/><text fill="#000000" font-family="sans-serif" font-size="14" lengthAdjust="spacing" textLength="60.252" x="66.19" y="1300.0957">update()</text><ellipse cx="57.19" cy="1313.0459" fill="#84BE84" rx="3" ry="3" style="stroke:#038048;stroke-width:1.0;"/><text fill="#000000" font-family="sans-serif" font-size="14" lengthAdjust="spacing" textLength="46.6895" x="66.19" y="1316.3926">reset()</text></g><!--class TiltTriServoNMPC--><g id="elem_TiltTriServoNMPC"><rect codeLine="76" fill="#F1F1F1" height="129.4844" id="TiltTriServoNMPC" rx="2.5" ry="2.5" style="stroke:#181818;stroke-width:0.5;" width="152.8936" x="304.55" y="815.24"/><ellipse cx="319.55" cy="831.24" fill="#ADD1B2" rx="11" ry="11" style="stroke:#181818;stroke-width:1.0;"/><path d="M322.5188,836.8806 Q321.9406,837.1775 321.3,837.3181 Q320.6594,837.4744 319.9563,837.4744 Q317.4563,837.4744 316.1281,835.8338 Q314.8156,834.1775 314.8156,831.0525 Q314.8156,827.9275 316.1281,826.2713 Q317.4563,824.615 319.9563,824.615 Q320.6594,824.615 321.3,824.7713 Q321.9563,824.9275 322.5188,825.2244 L322.5188,827.9431 Q321.8938,827.365 321.3,827.0994 Q320.7063,826.8181 320.0813,826.8181 Q318.7375,826.8181 318.05,827.8963 Q317.3625,828.9588 317.3625,831.0525 Q317.3625,833.1463 318.05,834.2244 Q318.7375,835.2869 320.0813,835.2869 Q320.7063,835.2869 321.3,835.0213 Q321.8938,834.74 322.5188,834.1619 L322.5188,836.8806 Z " fill="#000000"/><text fill="#000000" font-family="sans-serif" font-size="14" lengthAdjust="spacing" textLength="120.8936" x="333.55" y="836.0867">TiltTriServoNMPC</text><line style="stroke:#181818;stroke-width:0.5;" x1="305.55" x2="456.4436" y1="847.24" y2="847.24"/><line style="stroke:#181818;stroke-width:0.5;" x1="305.55" x2="456.4436" y1="855.24" y2="855.24"/><ellipse cx="315.55" cy="868.8884" fill="#84BE84" rx="3" ry="3" style="stroke:#038048;stroke-width:1.0;"/><text fill="#000000" font-family="sans-serif" font-size="14" lengthAdjust="spacing" textLength="91.7109" x="324.55" y="872.2351">TiltTriNMPC()</text><ellipse cx="315.55" cy="885.1853" fill="#84BE84" rx="3" ry="3" style="stroke:#038048;stroke-width:1.0;"/><text fill="#000000" font-family="sans-serif" font-size="14" lengthAdjust="spacing" textLength="103.4414" x="324.55" y="888.532">~TiltTriNMPC()</text><ellipse cx="315.55" cy="901.4822" fill="#84BE84" rx="3" ry="3" style="stroke:#038048;stroke-width:1.0;"/><text fill="#000000" font-family="sans-serif" font-size="14" lengthAdjust="spacing" textLength="69.2754" x="324.55" y="904.8289">initialize()</text><ellipse cx="315.55" cy="917.7791" fill="#84BE84" rx="3" ry="3" style="stroke:#038048;stroke-width:1.0;"/><text fill="#000000" font-family="sans-serif" font-size="14" lengthAdjust="spacing" textLength="60.252" x="324.55" y="921.1257">update()</text><ellipse cx="315.55" cy="934.0759" fill="#84BE84" rx="3" ry="3" style="stroke:#038048;stroke-width:1.0;"/><text fill="#000000" font-family="sans-serif" font-size="14" lengthAdjust="spacing" textLength="46.6895" x="324.55" y="937.4226">reset()</text></g><!--class TiltBiServoNMPC--><g id="elem_TiltBiServoNMPC"><rect codeLine="85" fill="#F1F1F1" height="129.4844" id="TiltBiServoNMPC" rx="2.5" ry="2.5" style="stroke:#181818;stroke-width:0.5;" width="148.1904" x="492.9" y="815.24"/><ellipse cx="507.9" cy="831.24" fill="#ADD1B2" rx="11" ry="11" style="stroke:#181818;stroke-width:1.0;"/><path d="M510.8688,836.8806 Q510.2906,837.1775 509.65,837.3181 Q509.0094,837.4744 508.3063,837.4744 Q505.8063,837.4744 504.4781,835.8338 Q503.1656,834.1775 503.1656,831.0525 Q503.1656,827.9275 504.4781,826.2713 Q505.8063,824.615 508.3063,824.615 Q509.0094,824.615 509.65,824.7713 Q510.3063,824.9275 510.8688,825.2244 L510.8688,827.9431 Q510.2438,827.365 509.65,827.0994 Q509.0563,826.8181 508.4313,826.8181 Q507.0875,826.8181 506.4,827.8963 Q505.7125,828.9588 505.7125,831.0525 Q505.7125,833.1463 506.4,834.2244 Q507.0875,835.2869 508.4313,835.2869 Q509.0563,835.2869 509.65,835.0213 Q510.2438,834.74 510.8688,834.1619 L510.8688,836.8806 Z " fill="#000000"/><text fill="#000000" font-family="sans-serif" font-size="14" lengthAdjust="spacing" textLength="116.1904" x="521.9" y="836.0867">TiltBiServoNMPC</text><line style="stroke:#181818;stroke-width:0.5;" x1="493.9" x2="640.0904" y1="847.24" y2="847.24"/><line style="stroke:#181818;stroke-width:0.5;" x1="493.9" x2="640.0904" y1="855.24" y2="855.24"/><ellipse cx="503.9" cy="868.8884" fill="#84BE84" rx="3" ry="3" style="stroke:#038048;stroke-width:1.0;"/><text fill="#000000" font-family="sans-serif" font-size="14" lengthAdjust="spacing" textLength="87.0078" x="512.9" y="872.2351">TiltBiNMPC()</text><ellipse cx="503.9" cy="885.1853" fill="#84BE84" rx="3" ry="3" style="stroke:#038048;stroke-width:1.0;"/><text fill="#000000" font-family="sans-serif" font-size="14" lengthAdjust="spacing" textLength="98.7383" x="512.9" y="888.532">~TiltBiNMPC()</text><ellipse cx="503.9" cy="901.4822" fill="#84BE84" rx="3" ry="3" style="stroke:#038048;stroke-width:1.0;"/><text fill="#000000" font-family="sans-serif" font-size="14" lengthAdjust="spacing" textLength="69.2754" x="512.9" y="904.8289">initialize()</text><ellipse cx="503.9" cy="917.7791" fill="#84BE84" rx="3" ry="3" style="stroke:#038048;stroke-width:1.0;"/><text fill="#000000" font-family="sans-serif" font-size="14" lengthAdjust="spacing" textLength="60.252" x="512.9" y="921.1257">update()</text><ellipse cx="503.9" cy="934.0759" fill="#84BE84" rx="3" ry="3" style="stroke:#038048;stroke-width:1.0;"/><text fill="#000000" font-family="sans-serif" font-size="14" lengthAdjust="spacing" textLength="46.6895" x="512.9" y="937.4226">reset()</text></g><!--class TiltBi2OrdServoNMPC--><g id="elem_TiltBi2OrdServoNMPC"><rect codeLine="94" fill="#F1F1F1" height="129.4844" id="TiltBi2OrdServoNMPC" rx="2.5" ry="2.5" style="stroke:#181818;stroke-width:0.5;" width="182.7598" x="458.62" y="1004.72"/><ellipse cx="473.62" cy="1020.72" fill="#ADD1B2" rx="11" ry="11" style="stroke:#181818;stroke-width:1.0;"/><path d="M476.5888,1026.3606 Q476.0106,1026.6575 475.37,1026.7981 Q474.7294,1026.9544 474.0263,1026.9544 Q471.5263,1026.9544 470.1981,1025.3138 Q468.8856,1023.6575 468.8856,1020.5325 Q468.8856,1017.4075 470.1981,1015.7513 Q471.5263,1014.095 474.0263,1014.095 Q474.7294,1014.095 475.37,1014.2513 Q476.0263,1014.4075 476.5888,1014.7044 L476.5888,1017.4231 Q475.9638,1016.845 475.37,1016.5794 Q474.7763,1016.2981 474.1513,1016.2981 Q472.8075,1016.2981 472.12,1017.3763 Q471.4325,1018.4388 471.4325,1020.5325 Q471.4325,1022.6263 472.12,1023.7044 Q472.8075,1024.7669 474.1513,1024.7669 Q474.7763,1024.7669 475.37,1024.5013 Q475.9638,1024.22 476.5888,1023.6419 L476.5888,1026.3606 Z " fill="#000000"/><text fill="#000000" font-family="sans-serif" font-size="14" lengthAdjust="spacing" textLength="150.7598" x="487.62" y="1025.5667">TiltBi2OrdServoNMPC</text><line style="stroke:#181818;stroke-width:0.5;" x1="459.62" x2="640.3798" y1="1036.72" y2="1036.72"/><line style="stroke:#181818;stroke-width:0.5;" x1="459.62" x2="640.3798" y1="1044.72" y2="1044.72"/><ellipse cx="469.62" cy="1058.3684" fill="#84BE84" rx="3" ry="3" style="stroke:#038048;stroke-width:1.0;"/><text fill="#000000" font-family="sans-serif" font-size="14" lengthAdjust="spacing" textLength="121.5771" x="478.62" y="1061.7151">TiltBi2OrdNMPC()</text><ellipse cx="469.62" cy="1074.6653" fill="#84BE84" rx="3" ry="3" style="stroke:#038048;stroke-width:1.0;"/><text fill="#000000" font-family="sans-serif" font-size="14" lengthAdjust="spacing" textLength="133.3076" x="478.62" y="1078.012">~TiltBi2OrdNMPC()</text><ellipse cx="469.62" cy="1090.9622" fill="#84BE84" rx="3" ry="3" style="stroke:#038048;stroke-width:1.0;"/><text fill="#000000" font-family="sans-serif" font-size="14" lengthAdjust="spacing" textLength="69.2754" x="478.62" y="1094.3089">initialize()</text><ellipse cx="469.62" cy="1107.2591" fill="#84BE84" rx="3" ry="3" style="stroke:#038048;stroke-width:1.0;"/><text fill="#000000" font-family="sans-serif" font-size="14" lengthAdjust="spacing" textLength="60.252" x="478.62" y="1110.6057">update()</text><ellipse cx="469.62" cy="1123.5559" fill="#84BE84" rx="3" ry="3" style="stroke:#038048;stroke-width:1.0;"/><text fill="#000000" font-family="sans-serif" font-size="14" lengthAdjust="spacing" textLength="46.6895" x="478.62" y="1126.9026">reset()</text></g><!--reverse link ControlBase to BaseMPC--><g id="link_ControlBase_BaseMPC"><path d="M381,205.18 C381,224.67 381,227.6 381,246.59 " fill="none" id="ControlBase-backto-BaseMPC" style="stroke:#181818;stroke-width:1.0;"/><polygon fill="none" points="381,187.18,375,205.18,387,205.18,381,187.18" style="stroke:#181818;stroke-width:1.0;"/></g><!--reverse link BaseMPC to FixQdNMPC--><g id="link_BaseMPC_FixQdNMPC"><path d="M381,394.52 C381,413.72 381,416.78 381,435.98 " fill="none" id="BaseMPC-backto-FixQdNMPC" style="stroke:#181818;stroke-width:1.0;"/><polygon fill="none" points="381,376.52,375,394.52,387,394.52,381,376.52" style="stroke:#181818;stroke-width:1.0;"/></g><!--reverse link FixQdNMPC to TiltQdServoNMPC--><g id="link_FixQdNMPC_TiltQdServoNMPC"><path d="M381,584.01 C381,603.21 381,606.27 381,625.47 " fill="none" id="FixQdNMPC-backto-TiltQdServoNMPC" style="stroke:#181818;stroke-width:1.0;"/><polygon fill="none" points="381,566.01,375,584.01,387,584.01,381,566.01" style="stroke:#181818;stroke-width:1.0;"/></g><!--reverse link TiltQdServoNMPC to TiltQdServoNMPCwITerm--><g id="link_TiltQdServoNMPC_TiltQdServoNMPCwITerm"><path d="M291.1016,767.0725 C268.2616,786.2725 257,795.75 234.16,814.95 " fill="none" id="TiltQdServoNMPC-backto-TiltQdServoNMPCwITerm" style="stroke:#181818;stroke-width:1.0;"/><polygon fill="none" points="304.88,755.49,287.2407,762.4797,294.9624,771.6654,304.88,755.49" style="stroke:#181818;stroke-width:1.0;"/></g><!--reverse link TiltQdServoNMPCwITerm to TiltQdServoNMPCwEKF--><g id="link_TiltQdServoNMPCwITerm_TiltQdServoNMPCwEKF"><path d="M161.0645,962.9674 C161.7845,982.1674 161.89,985.23 162.61,1004.44 " fill="none" id="TiltQdServoNMPCwITerm-backto-TiltQdServoNMPCwEKF" style="stroke:#181818;stroke-width:1.0;"/><polygon fill="none" points="160.39,944.98,155.0687,963.1922,167.0603,962.7425,160.39,944.98" style="stroke:#181818;stroke-width:1.0;"/></g><!--reverse link TiltQdServoNMPCwEKF to TiltQdServoThrustNMPCwEKF--><g id="link_TiltQdServoNMPCwEKF_TiltQdServoThrustNMPCwEKF"><path d="M168.498,1152.4436 C169.318,1171.6436 169.45,1174.72 170.27,1193.92 " fill="none" id="TiltQdServoNMPCwEKF-backto-TiltQdServoThrustNMPCwEKF" style="stroke:#181818;stroke-width:1.0;"/><polygon fill="none" points="167.73,1134.46,162.5035,1152.6996,174.4926,1152.1876,167.73,1134.46" style="stroke:#181818;stroke-width:1.0;"/></g><!--reverse link TiltQdServoNMPC to TiltTriServoNMPC--><g id="link_TiltQdServoNMPC_TiltTriServoNMPC"><path d="M381,773.49 C381,792.69 381,795.75 381,814.95 " fill="none" id="TiltQdServoNMPC-backto-TiltTriServoNMPC" style="stroke:#181818;stroke-width:1.0;"/><polygon fill="none" points="381,755.49,375,773.49,387,773.49,381,755.49" style="stroke:#181818;stroke-width:1.0;"/></g><!--reverse link TiltQdServoNMPC to TiltBiServoNMPC--><g id="link_TiltQdServoNMPC_TiltBiServoNMPC"><path d="M457.1679,768.2677 C476.2179,787.4677 484.43,795.75 503.48,814.95 " fill="none" id="TiltQdServoNMPC-backto-TiltBiServoNMPC" style="stroke:#181818;stroke-width:1.0;"/><polygon fill="none" points="444.49,755.49,452.9087,772.4937,461.4272,764.0418,444.49,755.49" style="stroke:#181818;stroke-width:1.0;"/></g><!--reverse link TiltBiServoNMPC to TiltBi2OrdServoNMPC--><g id="link_TiltBiServoNMPC_TiltBi2OrdServoNMPC"><path d="M559.5754,962.9065 C557.8354,982.1065 557.55,985.23 555.81,1004.44 " fill="none" id="TiltBiServoNMPC-backto-TiltBi2OrdServoNMPC" style="stroke:#181818;stroke-width:1.0;"/><polygon fill="none" points="561.2,944.98,553.5999,962.365,565.5509,963.4481,561.2,944.98" style="stroke:#181818;stroke-width:1.0;"/></g><!--SRC=[lPNRJi8m7CRlznIzgqOK0KMpn1k89CPu2hidPMkaoKvfEoGIUG8VoNVo5UpSfDsXR5FchjglQx__x-lQmGNd8JExtT15FeyyzyGElAxj8iQE7OAUAV8CWs4EVEHX5Y8RJt68AE811QPf66ZEE4Ks1zzJ0CAK87T6Wtd0PtRWSngufZbE6YF4C5WRG3n7GD4E3bDjKoOIdt2n9dcLKXGwYCkki2TBLQ1OL2nwRpNhyxtGDitOzUvn3F2AOzzfmfBEb1nvePf1ARcwqWbPFJdtrRLckTO6NCqSue4hq1jqG9IsppeW_6d2j9gjWKGgIesWO3MLHLpU04k68C1AoIwX0PD2vDAYcbJRb8aP9fY3WbagM6kl4fSffilWTsXRiWk5h6JFSaPovtG3U_ueSpOlDnQcNYtSV4GwwC-FzorsxrJ3dVXgwNF3BMTmVJlvJG9fTaeE_K6ZpO-DzH6eW-q5O2renFYVOeZdgI7KFm5Pyz8eDA-q48X5IRFpl-j036K6Gqq6mgzu0-J55ZX7UyGyt_s3IkoAbAD_WEm_KASvg1gEveBJWyQMPR05lG7m5m00]--></g></svg>