<svg xmlns="http://www.w3.org/2000/svg" xmlns:xlink="http://www.w3.org/1999/xlink" contentStyleType="text/css" height="1480px" preserveAspectRatio="none" style="width:1092px;height:1480px;background:#FFFFFF;" version="1.1" viewBox="0 0 1092 1480" width="1092px" zoomAndPan="magnify"><defs/><g><!--cluster aerial_robot_control--><g id="cluster_aerial_robot_control"><path d="M8.5,6 L167.1436,6 A3.75,3.75 0 0 1 169.6436,8.5 L176.6436,28.2969 L1082.5,28.2969 A2.5,2.5 0 0 1 1085,30.7969 L1085,1471.13 A2.5,2.5 0 0 1 1082.5,1473.63 L8.5,1473.63 A2.5,2.5 0 0 1 6,1471.13 L6,8.5 A2.5,2.5 0 0 1 8.5,6 " fill="none" style="stroke:#000000;stroke-width:1.5;"/><line style="stroke:#000000;stroke-width:1.5;" x1="6" x2="176.6436" y1="28.2969" y2="28.2969"/><text fill="#000000" font-family="sans-serif" font-size="14" font-weight="bold" lengthAdjust="spacing" textLength="157.6436" x="10" y="20.9951">aerial_robot_control</text></g><!--cluster nmpc--><g id="cluster_nmpc"><path d="M32.5,228.08 L76.375,228.08 A3.75,3.75 0 0 1 78.875,230.58 L85.875,250.3769 L1058.5,250.3769 A2.5,2.5 0 0 1 1061,252.8769 L1061,1447.13 A2.5,2.5 0 0 1 1058.5,1449.63 L32.5,1449.63 A2.5,2.5 0 0 1 30,1447.13 L30,230.58 A2.5,2.5 0 0 1 32.5,228.08 " fill="none" style="stroke:#000000;stroke-width:1.5;"/><line style="stroke:#000000;stroke-width:1.5;" x1="30" x2="85.875" y1="250.3769" y2="250.3769"/><text fill="#000000" font-family="sans-serif" font-size="14" font-weight="bold" lengthAdjust="spacing" textLength="42.875" x="34" y="243.0751">nmpc</text></g><!--class ControlBase--><g id="elem_ControlBase"><rect codeLine="5" fill="#F1F1F1" height="162.0781" id="ControlBase" rx="2.5" ry="2.5" style="stroke:#181818;stroke-width:0.5;" width="277.8496" x="433.08" y="41"/><ellipse cx="525.2524" cy="57" fill="#A9DCDF" rx="11" ry="11" style="stroke:#181818;stroke-width:1.0;"/><path d="M525.3617,52.3438 L524.2055,57.4219 L526.5336,57.4219 L525.3617,52.3438 Z M523.8774,50.1094 L526.8617,50.1094 L530.2211,62.5 L527.768,62.5 L527.0024,59.4375 L523.7211,59.4375 L522.9711,62.5 L520.5336,62.5 L523.8774,50.1094 Z " fill="#000000"/><text fill="#000000" font-family="sans-serif" font-size="14" font-style="italic" lengthAdjust="spacing" textLength="85.0049" x="545.7524" y="61.8467">ControlBase</text><line style="stroke:#181818;stroke-width:0.5;" x1="434.08" x2="709.9296" y1="73" y2="73"/><line style="stroke:#181818;stroke-width:0.5;" x1="434.08" x2="709.9296" y1="81" y2="81"/><ellipse cx="444.08" cy="94.6484" fill="#84BE84" rx="3" ry="3" style="stroke:#038048;stroke-width:1.0;"/><text fill="#000000" font-family="sans-serif" font-size="14" lengthAdjust="spacing" textLength="95.9287" x="453.08" y="97.9951">ControlBase()</text><ellipse cx="444.08" cy="110.9453" fill="#84BE84" rx="3" ry="3" style="stroke:#038048;stroke-width:1.0;"/><text fill="#000000" font-family="sans-serif" font-size="14" lengthAdjust="spacing" textLength="107.6592" x="453.08" y="114.292">~ControlBase()</text><ellipse cx="444.08" cy="127.2422" fill="#84BE84" rx="3" ry="3" style="stroke:#038048;stroke-width:1.0;"/><text fill="#000000" font-family="sans-serif" font-size="14" lengthAdjust="spacing" textLength="69.2754" x="453.08" y="130.5889">initialize()</text><ellipse cx="444.08" cy="143.5391" fill="#84BE84" rx="3" ry="3" style="stroke:#038048;stroke-width:1.0;"/><text fill="#000000" font-family="sans-serif" font-size="14" lengthAdjust="spacing" textLength="60.252" x="453.08" y="146.8857">update()</text><ellipse cx="444.08" cy="159.8359" fill="#84BE84" rx="3" ry="3" style="stroke:#038048;stroke-width:1.0;"/><text fill="#000000" font-family="sans-serif" font-size="14" lengthAdjust="spacing" textLength="67.5459" x="453.08" y="163.1826">activate()</text><ellipse cx="444.08" cy="176.1328" fill="#84BE84" rx="3" ry="3" style="stroke:#038048;stroke-width:1.0;"/><text fill="#000000" font-family="sans-serif" font-size="14" lengthAdjust="spacing" textLength="46.6895" x="453.08" y="179.4795">reset()</text><polygon fill="#FFFF44" points="444.08,187.4297,448.08,191.4297,444.08,195.4297,440.08,191.4297" style="stroke:#B38D22;stroke-width:1.0;"/><text fill="#000000" font-family="sans-serif" font-size="14" lengthAdjust="spacing" textLength="251.8496" x="453.08" y="195.7764">template&lt;class T&gt; void getParam()</text></g><!--class BaseMPC--><g id="elem_BaseMPC"><rect codeLine="15" fill="#F1F1F1" height="194.6719" id="BaseMPC" rx="2.5" ry="2.5" style="stroke:#181818;stroke-width:0.5;" width="167.2852" x="488.36" y="263.08"/><ellipse cx="535.5587" cy="279.08" fill="#A9DCDF" rx="11" ry="11" style="stroke:#181818;stroke-width:1.0;"/><path d="M535.6681,274.4238 L534.5119,279.5019 L536.84,279.5019 L535.6681,274.4238 Z M534.1837,272.1894 L537.1681,272.1894 L540.5275,284.58 L538.0744,284.58 L537.3087,281.5175 L534.0275,281.5175 L533.2775,284.58 L530.84,284.58 L534.1837,272.1894 Z " fill="#000000"/><text fill="#000000" font-family="sans-serif" font-size="14" font-style="italic" lengthAdjust="spacing" textLength="64.3877" x="556.0587" y="283.9267">BaseMPC</text><line style="stroke:#181818;stroke-width:0.5;" x1="489.36" x2="654.6452" y1="295.08" y2="295.08"/><polygon fill="none" points="499.36,303.7284,503.36,307.7284,499.36,311.7284,495.36,307.7284" style="stroke:#B38D22;stroke-width:1.0;"/><text fill="#000000" font-family="sans-serif" font-size="14" lengthAdjust="spacing" textLength="113.7568" x="508.36" y="312.0751">mpc_solver_ptr_</text><line style="stroke:#181818;stroke-width:0.5;" x1="489.36" x2="654.6452" y1="319.3769" y2="319.3769"/><polygon fill="#FFFF44" points="499.36,328.0253,503.36,332.0253,499.36,336.0253,495.36,332.0253" style="stroke:#B38D22;stroke-width:1.0;"/><text fill="#000000" font-family="sans-serif" font-size="14" lengthAdjust="spacing" textLength="84.6016" x="508.36" y="336.372">initPredXU()</text><polygon fill="#FFFF44" points="499.36,344.3222,503.36,348.3222,499.36,352.3222,495.36,348.3222" style="stroke:#B38D22;stroke-width:1.0;"/><text fill="#000000" font-family="sans-serif" font-size="14" lengthAdjust="spacing" textLength="127.0459" x="508.36" y="352.6689">initMPCSolverPtr()</text><polygon fill="#FFFF44" points="499.36,360.6191,503.36,364.6191,499.36,368.6191,495.36,364.6191" style="stroke:#B38D22;stroke-width:1.0;"/><text fill="#000000" font-family="sans-serif" font-size="14" lengthAdjust="spacing" textLength="141.2852" x="508.36" y="368.9657">callbackSetRefTraj()</text><polygon fill="#FFFF44" points="499.36,376.9159,503.36,380.9159,499.36,384.9159,495.36,380.9159" style="stroke:#B38D22;stroke-width:1.0;"/><text fill="#000000" font-family="sans-serif" font-size="14" lengthAdjust="spacing" textLength="107.0098" x="508.36" y="385.2626">rosXU2VecXU()</text><polygon fill="#FFFF44" points="499.36,393.2128,503.36,397.2128,499.36,401.2128,495.36,397.2128" style="stroke:#B38D22;stroke-width:1.0;"/><text fill="#000000" font-family="sans-serif" font-size="14" lengthAdjust="spacing" textLength="93.4336" x="508.36" y="401.5595">meas2VecX()</text><polygon fill="#FFFF44" points="499.36,409.5097,503.36,413.5097,499.36,417.5097,495.36,413.5097" style="stroke:#B38D22;stroke-width:1.0;"/><text fill="#000000" font-family="sans-serif" font-size="14" lengthAdjust="spacing" textLength="92.4697" x="508.36" y="417.8564">controlCore()</text><polygon fill="#FFFF44" points="499.36,425.8066,503.36,429.8066,499.36,433.8066,495.36,429.8066" style="stroke:#B38D22;stroke-width:1.0;"/><text fill="#000000" font-family="sans-serif" font-size="14" lengthAdjust="spacing" textLength="76.8906" x="508.36" y="434.1532">sendCmd()</text><polygon fill="#FFFF44" points="499.36,442.1034,503.36,446.1034,499.36,450.1034,495.36,446.1034" style="stroke:#B38D22;stroke-width:1.0;"/><text fill="#000000" font-family="sans-serif" font-size="14" lengthAdjust="spacing" textLength="89.0654" x="508.36" y="450.4501">callbackViz()</text></g><!--class FixQdNMPC--><g id="elem_FixQdNMPC"><rect codeLine="27" fill="#F1F1F1" height="80.5938" id="FixQdNMPC" rx="2.5" ry="2.5" style="stroke:#181818;stroke-width:0.5;" width="153.0459" x="46.48" y="1106.51"/><ellipse cx="79.5442" cy="1122.51" fill="#ADD1B2" rx="11" ry="11" style="stroke:#181818;stroke-width:1.0;"/><path d="M82.5129,1128.1506 Q81.9348,1128.4475 81.2942,1128.5881 Q80.6535,1128.7444 79.9504,1128.7444 Q77.4504,1128.7444 76.1223,1127.1038 Q74.8098,1125.4475 74.8098,1122.3225 Q74.8098,1119.1975 76.1223,1117.5413 Q77.4504,1115.885 79.9504,1115.885 Q80.6535,1115.885 81.2942,1116.0413 Q81.9504,1116.1975 82.5129,1116.4944 L82.5129,1119.2131 Q81.8879,1118.635 81.2942,1118.3694 Q80.7004,1118.0881 80.0754,1118.0881 Q78.7317,1118.0881 78.0442,1119.1663 Q77.3567,1120.2288 77.3567,1122.3225 Q77.3567,1124.4163 78.0442,1125.4944 Q78.7317,1126.5569 80.0754,1126.5569 Q80.7004,1126.5569 81.2942,1126.2913 Q81.8879,1126.01 82.5129,1125.4319 L82.5129,1128.1506 Z " fill="#000000"/><text fill="#000000" font-family="sans-serif" font-size="14" lengthAdjust="spacing" textLength="80.9033" x="97.5584" y="1127.3567">FixQdNMPC</text><line style="stroke:#181818;stroke-width:0.5;" x1="47.48" x2="198.5259" y1="1138.51" y2="1138.51"/><line style="stroke:#181818;stroke-width:0.5;" x1="47.48" x2="198.5259" y1="1146.51" y2="1146.51"/><polygon fill="#FFFF44" points="57.48,1155.1584,61.48,1159.1584,57.48,1163.1584,53.48,1159.1584" style="stroke:#B38D22;stroke-width:1.0;"/><text fill="#000000" font-family="sans-serif" font-size="14" lengthAdjust="spacing" textLength="127.0459" x="66.48" y="1163.5051">initMPCSolverPtr()</text><polygon fill="#FFFF44" points="57.48,1171.4553,61.48,1175.4553,57.48,1179.4553,53.48,1175.4553" style="stroke:#B38D22;stroke-width:1.0;"/><text fill="#000000" font-family="sans-serif" font-size="14" lengthAdjust="spacing" textLength="92.832" x="66.48" y="1179.802">initAllocMat()</text></g><!--class TiltQdServoNMPC--><g id="elem_TiltQdServoNMPC"><rect codeLine="42" fill="#F1F1F1" height="488.0156" id="TiltQdServoNMPC" rx="2.5" ry="2.5" style="stroke:#181818;stroke-width:0.5;" width="185.0723" x="479.46" y="517.75"/><ellipse cx="508.1714" cy="533.75" fill="#ADD1B2" rx="11" ry="11" style="stroke:#181818;stroke-width:1.0;"/><path d="M511.1401,539.3906 Q510.562,539.6875 509.9214,539.8281 Q509.2808,539.9844 508.5776,539.9844 Q506.0776,539.9844 504.7495,538.3438 Q503.437,536.6875 503.437,533.5625 Q503.437,530.4375 504.7495,528.7813 Q506.0776,527.125 508.5776,527.125 Q509.2808,527.125 509.9214,527.2813 Q510.5776,527.4375 511.1401,527.7344 L511.1401,530.4531 Q510.5151,529.875 509.9214,529.6094 Q509.3276,529.3281 508.7026,529.3281 Q507.3589,529.3281 506.6714,530.4063 Q505.9839,531.4688 505.9839,533.5625 Q505.9839,535.6563 506.6714,536.7344 Q507.3589,537.7969 508.7026,537.7969 Q509.3276,537.7969 509.9214,537.5313 Q510.5151,537.25 511.1401,536.6719 L511.1401,539.3906 Z " fill="#000000"/><text fill="#000000" font-family="sans-serif" font-size="14" lengthAdjust="spacing" textLength="122.6025" x="525.2183" y="538.5967">TiltQdServoNMPC</text><line style="stroke:#181818;stroke-width:0.5;" x1="480.46" x2="663.5323" y1="549.75" y2="549.75"/><line style="stroke:#181818;stroke-width:0.5;" x1="480.46" x2="663.5323" y1="557.75" y2="557.75"/><ellipse cx="490.46" cy="571.3984" fill="#84BE84" rx="3" ry="3" style="stroke:#038048;stroke-width:1.0;"/><text fill="#000000" font-family="sans-serif" font-size="14" lengthAdjust="spacing" textLength="133.5264" x="499.46" y="574.7451">TiltQdServoNMPC()</text><ellipse cx="490.46" cy="587.6953" fill="#84BE84" rx="3" ry="3" style="stroke:#038048;stroke-width:1.0;"/><text fill="#000000" font-family="sans-serif" font-size="14" lengthAdjust="spacing" textLength="145.2568" x="499.46" y="591.042">~TiltQdServoNMPC()</text><ellipse cx="490.46" cy="603.9922" fill="#84BE84" rx="3" ry="3" style="stroke:#038048;stroke-width:1.0;"/><text fill="#000000" font-family="sans-serif" font-size="14" lengthAdjust="spacing" textLength="69.2754" x="499.46" y="607.3389">initialize()</text><ellipse cx="490.46" cy="620.2891" fill="#84BE84" rx="3" ry="3" style="stroke:#038048;stroke-width:1.0;"/><text fill="#000000" font-family="sans-serif" font-size="14" lengthAdjust="spacing" textLength="60.252" x="499.46" y="623.6357">update()</text><ellipse cx="490.46" cy="636.5859" fill="#84BE84" rx="3" ry="3" style="stroke:#038048;stroke-width:1.0;"/><text fill="#000000" font-family="sans-serif" font-size="14" lengthAdjust="spacing" textLength="46.6895" x="499.46" y="639.9326">reset()</text><polygon fill="#FFFF44" points="490.46,647.8828,494.46,651.8828,490.46,655.8828,486.46,651.8828" style="stroke:#B38D22;stroke-width:1.0;"/><text fill="#000000" font-family="sans-serif" font-size="14" lengthAdjust="spacing" textLength="127.0459" x="499.46" y="656.2295">initMPCSolverPtr()</text><polygon fill="#FFFF44" points="490.46,664.1797,494.46,668.1797,490.46,672.1797,486.46,668.1797" style="stroke:#B38D22;stroke-width:1.0;"/><text fill="#000000" font-family="sans-serif" font-size="14" lengthAdjust="spacing" textLength="92.832" x="499.46" y="672.5264">initAllocMat()</text><polygon fill="#FFFF44" points="490.46,680.4766,494.46,684.4766,490.46,688.4766,486.46,684.4766" style="stroke:#B38D22;stroke-width:1.0;"/><text fill="#000000" font-family="sans-serif" font-size="14" lengthAdjust="spacing" textLength="85.3535" x="499.46" y="688.8232">initParams()</text><polygon fill="#FFFF44" points="490.46,696.7734,494.46,700.7734,490.46,704.7734,486.46,700.7734" style="stroke:#B38D22;stroke-width:1.0;"/><text fill="#000000" font-family="sans-serif" font-size="14" lengthAdjust="spacing" textLength="78.0322" x="499.46" y="705.1201">initCostW()</text><polygon fill="#FFFF44" points="490.46,713.0703,494.46,717.0703,490.46,721.0703,486.46,717.0703" style="stroke:#B38D22;stroke-width:1.0;"/><text fill="#000000" font-family="sans-serif" font-size="14" lengthAdjust="spacing" textLength="121.3789" x="499.46" y="721.417">setControlMode()</text><polygon fill="#FFFF44" points="490.46,729.3672,494.46,733.3672,490.46,737.3672,486.46,733.3672" style="stroke:#B38D22;stroke-width:1.0;"/><text fill="#000000" font-family="sans-serif" font-size="14" lengthAdjust="spacing" textLength="108.3633" x="499.46" y="737.7139">initJointStates()</text><polygon fill="#FFFF44" points="490.46,745.6641,494.46,749.6641,490.46,753.6641,486.46,749.6641" style="stroke:#B38D22;stroke-width:1.0;"/><text fill="#000000" font-family="sans-serif" font-size="14" lengthAdjust="spacing" textLength="92.4697" x="499.46" y="754.0107">controlCore()</text><polygon fill="#FFFF44" points="490.46,761.9609,494.46,765.9609,490.46,769.9609,486.46,765.9609" style="stroke:#B38D22;stroke-width:1.0;"/><text fill="#000000" font-family="sans-serif" font-size="14" lengthAdjust="spacing" textLength="76.8906" x="499.46" y="770.3076">sendCmd()</text><polygon fill="#FFFF44" points="490.46,778.2578,494.46,782.2578,490.46,786.2578,486.46,782.2578" style="stroke:#B38D22;stroke-width:1.0;"/><text fill="#000000" font-family="sans-serif" font-size="14" lengthAdjust="spacing" textLength="130.0537" x="499.46" y="786.6045">prepareNMPCRef()</text><polygon fill="#FFFF44" points="490.46,794.5547,494.46,798.5547,490.46,802.5547,486.46,798.5547" style="stroke:#B38D22;stroke-width:1.0;"/><text fill="#000000" font-family="sans-serif" font-size="14" lengthAdjust="spacing" textLength="159.0723" x="499.46" y="802.9014">prepareNMPCParams()</text><polygon fill="#FFFF44" points="490.46,810.8516,494.46,814.8516,490.46,818.8516,486.46,814.8516" style="stroke:#B38D22;stroke-width:1.0;"/><text fill="#000000" font-family="sans-serif" font-size="14" lengthAdjust="spacing" textLength="89.0654" x="499.46" y="819.1982">callbackViz()</text><polygon fill="#FFFF44" points="490.46,827.1484,494.46,831.1484,490.46,835.1484,486.46,831.1484" style="stroke:#B38D22;stroke-width:1.0;"/><text fill="#000000" font-family="sans-serif" font-size="14" lengthAdjust="spacing" textLength="143.5479" x="499.46" y="835.4951">callbackJointStates()</text><polygon fill="#FFFF44" points="490.46,843.4453,494.46,847.4453,490.46,851.4453,486.46,847.4453" style="stroke:#B38D22;stroke-width:1.0;"/><text fill="#000000" font-family="sans-serif" font-size="14" lengthAdjust="spacing" textLength="117.9609" x="499.46" y="851.792">callbackSetRPY()</text><polygon fill="#FFFF44" points="490.46,859.7422,494.46,863.7422,490.46,867.7422,486.46,863.7422" style="stroke:#B38D22;stroke-width:1.0;"/><text fill="#000000" font-family="sans-serif" font-size="14" lengthAdjust="spacing" textLength="134.3467" x="499.46" y="868.0889">callbackSetRefXU()</text><polygon fill="#FFFF44" points="490.46,876.0391,494.46,880.0391,490.46,884.0391,486.46,880.0391" style="stroke:#B38D22;stroke-width:1.0;"/><text fill="#000000" font-family="sans-serif" font-size="14" lengthAdjust="spacing" textLength="141.2852" x="499.46" y="884.3857">callbackSetRefTraj()</text><polygon fill="#FFFF44" points="490.46,892.3359,494.46,896.3359,490.46,900.3359,486.46,896.3359" style="stroke:#B38D22;stroke-width:1.0;"/><text fill="#000000" font-family="sans-serif" font-size="14" lengthAdjust="spacing" textLength="132.6104" x="499.46" y="900.6826">cfgNMPCCallback()</text><polygon fill="#FFFF44" points="490.46,908.6328,494.46,912.6328,490.46,916.6328,486.46,912.6328" style="stroke:#B38D22;stroke-width:1.0;"/><text fill="#000000" font-family="sans-serif" font-size="14" lengthAdjust="spacing" textLength="76.0225" x="499.46" y="916.9795">getOdom()</text><polygon fill="#FFFF44" points="490.46,924.9297,494.46,928.9297,490.46,932.9297,486.46,928.9297" style="stroke:#B38D22;stroke-width:1.0;"/><text fill="#000000" font-family="sans-serif" font-size="14" lengthAdjust="spacing" textLength="105.8682" x="499.46" y="933.2764">getCommand()</text><polygon fill="#FFFF44" points="490.46,941.2266,494.46,945.2266,490.46,949.2266,486.46,945.2266" style="stroke:#B38D22;stroke-width:1.0;"/><text fill="#000000" font-family="sans-serif" font-size="14" lengthAdjust="spacing" textLength="93.4336" x="499.46" y="949.5732">meas2VecX()</text><polygon fill="#FFFF44" points="490.46,957.5234,494.46,961.5234,490.46,965.5234,486.46,961.5234" style="stroke:#B38D22;stroke-width:1.0;"/><text fill="#000000" font-family="sans-serif" font-size="14" lengthAdjust="spacing" textLength="153.0566" x="499.46" y="965.8701">printPhysicalParams()</text><polygon fill="#FFFF44" points="490.46,973.8203,494.46,977.8203,490.46,981.8203,486.46,977.8203" style="stroke:#B38D22;stroke-width:1.0;"/><text fill="#000000" font-family="sans-serif" font-size="14" lengthAdjust="spacing" textLength="86.9395" x="499.46" y="982.167">setXrUrRef()</text><polygon fill="#FFFF44" points="490.46,990.1172,494.46,994.1172,490.46,998.1172,486.46,994.1172" style="stroke:#B38D22;stroke-width:1.0;"/><text fill="#000000" font-family="sans-serif" font-size="14" lengthAdjust="spacing" textLength="103.1816" x="499.46" y="998.4639">allocateToXU()</text></g><!--class TiltQdServoNMPCwITerm--><g id="elem_TiltQdServoNMPCwITerm"><rect codeLine="73" fill="#F1F1F1" height="162.0781" id="TiltQdServoNMPCwITerm" rx="2.5" ry="2.5" style="stroke:#181818;stroke-width:0.5;" width="206.7402" x="234.63" y="1065.77"/><ellipse cx="249.63" cy="1081.77" fill="#ADD1B2" rx="11" ry="11" style="stroke:#181818;stroke-width:1.0;"/><path d="M252.5988,1087.4106 Q252.0206,1087.7075 251.38,1087.8481 Q250.7394,1088.0044 250.0363,1088.0044 Q247.5363,1088.0044 246.2081,1086.3638 Q244.8956,1084.7075 244.8956,1081.5825 Q244.8956,1078.4575 246.2081,1076.8013 Q247.5363,1075.145 250.0363,1075.145 Q250.7394,1075.145 251.38,1075.3013 Q252.0363,1075.4575 252.5988,1075.7544 L252.5988,1078.4731 Q251.9738,1077.895 251.38,1077.6294 Q250.7863,1077.3481 250.1613,1077.3481 Q248.8175,1077.3481 248.13,1078.4263 Q247.4425,1079.4888 247.4425,1081.5825 Q247.4425,1083.6763 248.13,1084.7544 Q248.8175,1085.8169 250.1613,1085.8169 Q250.7863,1085.8169 251.38,1085.5513 Q251.9738,1085.27 252.5988,1084.6919 L252.5988,1087.4106 Z " fill="#000000"/><text fill="#000000" font-family="sans-serif" font-size="14" lengthAdjust="spacing" textLength="174.7402" x="263.63" y="1086.6167">TiltQdServoNMPCwITerm</text><line style="stroke:#181818;stroke-width:0.5;" x1="235.63" x2="440.3702" y1="1097.77" y2="1097.77"/><line style="stroke:#181818;stroke-width:0.5;" x1="235.63" x2="440.3702" y1="1105.77" y2="1105.77"/><ellipse cx="245.63" cy="1119.4184" fill="#84BE84" rx="3" ry="3" style="stroke:#038048;stroke-width:1.0;"/><text fill="#000000" font-family="sans-serif" font-size="14" lengthAdjust="spacing" textLength="69.2754" x="254.63" y="1122.7651">initialize()</text><polygon fill="#FFFF44" points="245.63,1130.7153,249.63,1134.7153,245.63,1138.7153,241.63,1134.7153" style="stroke:#B38D22;stroke-width:1.0;"/><text fill="#000000" font-family="sans-serif" font-size="14" lengthAdjust="spacing" textLength="85.3535" x="254.63" y="1139.062">initParams()</text><polygon fill="#FFFF44" points="245.63,1147.0122,249.63,1151.0122,245.63,1155.0122,241.63,1151.0122" style="stroke:#B38D22;stroke-width:1.0;"/><text fill="#000000" font-family="sans-serif" font-size="14" lengthAdjust="spacing" textLength="127.0459" x="254.63" y="1155.3589">initMPCSolverPtr()</text><polygon fill="#FFFF44" points="245.63,1163.3091,249.63,1167.3091,245.63,1171.3091,241.63,1167.3091" style="stroke:#B38D22;stroke-width:1.0;"/><text fill="#000000" font-family="sans-serif" font-size="14" lengthAdjust="spacing" textLength="159.0723" x="254.63" y="1171.6557">prepareNMPCParams()</text><polygon fill="#FFFF44" points="245.63,1179.6059,249.63,1183.6059,245.63,1187.6059,241.63,1183.6059" style="stroke:#B38D22;stroke-width:1.0;"/><text fill="#000000" font-family="sans-serif" font-size="14" lengthAdjust="spacing" textLength="143.4111" x="254.63" y="1187.9526">calcDisturbWrench()</text><polygon fill="#FFFF44" points="245.63,1195.9028,249.63,1199.9028,245.63,1203.9028,241.63,1199.9028" style="stroke:#B38D22;stroke-width:1.0;"/><text fill="#000000" font-family="sans-serif" font-size="14" lengthAdjust="spacing" textLength="89.0654" x="254.63" y="1204.2495">callbackViz()</text><polygon fill="#FFFF44" points="245.63,1212.1997,249.63,1216.1997,245.63,1220.1997,241.63,1216.1997" style="stroke:#B38D22;stroke-width:1.0;"/><text fill="#000000" font-family="sans-serif" font-size="14" lengthAdjust="spacing" textLength="132.6104" x="254.63" y="1220.5464">cfgNMPCCallback()</text></g><!--class TiltQdServoNMPCwEKF--><g id="elem_TiltQdServoNMPCwEKF"><rect codeLine="84" fill="#F1F1F1" height="113.1875" id="TiltQdServoNMPCwEKF" rx="2.5" ry="2.5" style="stroke:#181818;stroke-width:0.5;" width="192.1318" x="475.93" y="1090.22"/><ellipse cx="490.93" cy="1106.22" fill="#ADD1B2" rx="11" ry="11" style="stroke:#181818;stroke-width:1.0;"/><path d="M493.8988,1111.8606 Q493.3206,1112.1575 492.68,1112.2981 Q492.0394,1112.4544 491.3363,1112.4544 Q488.8363,1112.4544 487.5081,1110.8138 Q486.1956,1109.1575 486.1956,1106.0325 Q486.1956,1102.9075 487.5081,1101.2513 Q488.8363,1099.595 491.3363,1099.595 Q492.0394,1099.595 492.68,1099.7513 Q493.3363,1099.9075 493.8988,1100.2044 L493.8988,1102.9231 Q493.2738,1102.345 492.68,1102.0794 Q492.0863,1101.7981 491.4613,1101.7981 Q490.1175,1101.7981 489.43,1102.8763 Q488.7425,1103.9388 488.7425,1106.0325 Q488.7425,1108.1263 489.43,1109.2044 Q490.1175,1110.2669 491.4613,1110.2669 Q492.0863,1110.2669 492.68,1110.0013 Q493.2738,1109.72 493.8988,1109.1419 L493.8988,1111.8606 Z " fill="#000000"/><text fill="#000000" font-family="sans-serif" font-size="14" lengthAdjust="spacing" textLength="160.1318" x="504.93" y="1111.0667">TiltQdServoNMPCwEKF</text><line style="stroke:#181818;stroke-width:0.5;" x1="476.93" x2="667.0618" y1="1122.22" y2="1122.22"/><text fill="#000000" font-family="sans-serif" font-size="14" lengthAdjust="spacing" textLength="72.9941" x="481.93" y="1139.2151">unfinished</text><line style="stroke:#181818;stroke-width:0.5;" x1="476.93" x2="667.0618" y1="1146.5169" y2="1146.5169"/><ellipse cx="486.93" cy="1160.1653" fill="#84BE84" rx="3" ry="3" style="stroke:#038048;stroke-width:1.0;"/><text fill="#000000" font-family="sans-serif" font-size="14" lengthAdjust="spacing" textLength="69.2754" x="495.93" y="1163.512">initialize()</text><ellipse cx="486.93" cy="1176.4622" fill="#84BE84" rx="3" ry="3" style="stroke:#038048;stroke-width:1.0;"/><text fill="#000000" font-family="sans-serif" font-size="14" lengthAdjust="spacing" textLength="60.252" x="495.93" y="1179.8089">update()</text><ellipse cx="486.93" cy="1192.7591" fill="#84BE84" rx="3" ry="3" style="stroke:#038048;stroke-width:1.0;"/><text fill="#000000" font-family="sans-serif" font-size="14" lengthAdjust="spacing" textLength="46.6895" x="495.93" y="1196.1057">reset()</text></g><!--class TiltQdServoNMPCwMHE--><g id="elem_TiltQdServoNMPCwMHE"><rect codeLine="92" fill="#F1F1F1" height="145.7813" id="TiltQdServoNMPCwMHE" rx="2.5" ry="2.5" style="stroke:#181818;stroke-width:0.5;" width="214.1592" x="259.92" y="1287.85"/><ellipse cx="282.4144" cy="1303.85" fill="#ADD1B2" rx="11" ry="11" style="stroke:#181818;stroke-width:1.0;"/><path d="M285.3832,1309.4906 Q284.8051,1309.7875 284.1644,1309.9281 Q283.5238,1310.0844 282.8207,1310.0844 Q280.3207,1310.0844 278.9926,1308.4438 Q277.6801,1306.7875 277.6801,1303.6625 Q277.6801,1300.5375 278.9926,1298.8813 Q280.3207,1297.225 282.8207,1297.225 Q283.5238,1297.225 284.1644,1297.3813 Q284.8207,1297.5375 285.3832,1297.8344 L285.3832,1300.5531 Q284.7582,1299.975 284.1644,1299.7094 Q283.5707,1299.4281 282.9457,1299.4281 Q281.6019,1299.4281 280.9144,1300.5063 Q280.2269,1301.5688 280.2269,1303.6625 Q280.2269,1305.7563 280.9144,1306.8344 Q281.6019,1307.8969 282.9457,1307.8969 Q283.5707,1307.8969 284.1644,1307.6313 Q284.7582,1307.35 285.3832,1306.7719 L285.3832,1309.4906 Z " fill="#000000"/><text fill="#000000" font-family="sans-serif" font-size="14" lengthAdjust="spacing" textLength="165.5049" x="298.0799" y="1308.6967">TiltQdServoNMPCwMHE</text><line style="stroke:#181818;stroke-width:0.5;" x1="260.92" x2="473.0792" y1="1319.85" y2="1319.85"/><text fill="#000000" font-family="sans-serif" font-size="14" lengthAdjust="spacing" textLength="72.9941" x="265.92" y="1336.8451">unfinished</text><line style="stroke:#181818;stroke-width:0.5;" x1="260.92" x2="473.0792" y1="1344.1469" y2="1344.1469"/><ellipse cx="270.92" cy="1357.7953" fill="#84BE84" rx="3" ry="3" style="stroke:#038048;stroke-width:1.0;"/><text fill="#000000" font-family="sans-serif" font-size="14" lengthAdjust="spacing" textLength="176.4287" x="279.92" y="1361.142">TiltQdServoNMPCwMHE()</text><ellipse cx="270.92" cy="1374.0922" fill="#84BE84" rx="3" ry="3" style="stroke:#038048;stroke-width:1.0;"/><text fill="#000000" font-family="sans-serif" font-size="14" lengthAdjust="spacing" textLength="188.1592" x="279.92" y="1377.4389">~TiltQdServoNMPCwMHE()</text><ellipse cx="270.92" cy="1390.3891" fill="#84BE84" rx="3" ry="3" style="stroke:#038048;stroke-width:1.0;"/><text fill="#000000" font-family="sans-serif" font-size="14" lengthAdjust="spacing" textLength="69.2754" x="279.92" y="1393.7357">initialize()</text><ellipse cx="270.92" cy="1406.6859" fill="#84BE84" rx="3" ry="3" style="stroke:#038048;stroke-width:1.0;"/><text fill="#000000" font-family="sans-serif" font-size="14" lengthAdjust="spacing" textLength="60.252" x="279.92" y="1410.0326">update()</text><ellipse cx="270.92" cy="1422.9828" fill="#84BE84" rx="3" ry="3" style="stroke:#038048;stroke-width:1.0;"/><text fill="#000000" font-family="sans-serif" font-size="14" lengthAdjust="spacing" textLength="46.6895" x="279.92" y="1426.3295">reset()</text></g><!--class TiltQdServoThrustNMPCwEKF--><g id="elem_TiltQdServoThrustNMPCwEKF"><rect codeLine="102" fill="#F1F1F1" height="145.7813" id="TiltQdServoThrustNMPCwEKF" rx="2.5" ry="2.5" style="stroke:#181818;stroke-width:0.5;" width="253.623" x="509.19" y="1287.85"/><ellipse cx="531.6844" cy="1303.85" fill="#ADD1B2" rx="11" ry="11" style="stroke:#181818;stroke-width:1.0;"/><path d="M534.6532,1309.4906 Q534.0751,1309.7875 533.4344,1309.9281 Q532.7938,1310.0844 532.0907,1310.0844 Q529.5907,1310.0844 528.2626,1308.4438 Q526.9501,1306.7875 526.9501,1303.6625 Q526.9501,1300.5375 528.2626,1298.8813 Q529.5907,1297.225 532.0907,1297.225 Q532.7938,1297.225 533.4344,1297.3813 Q534.0907,1297.5375 534.6532,1297.8344 L534.6532,1300.5531 Q534.0282,1299.975 533.4344,1299.7094 Q532.8407,1299.4281 532.2157,1299.4281 Q530.8719,1299.4281 530.1844,1300.5063 Q529.4969,1301.5688 529.4969,1303.6625 Q529.4969,1305.7563 530.1844,1306.8344 Q530.8719,1307.8969 532.2157,1307.8969 Q532.8407,1307.8969 533.4344,1307.6313 Q534.0282,1307.35 534.6532,1306.7719 L534.6532,1309.4906 Z " fill="#000000"/><text fill="#000000" font-family="sans-serif" font-size="14" lengthAdjust="spacing" textLength="204.9688" x="547.3499" y="1308.6967">TiltQdServoThrustNMPCwEKF</text><line style="stroke:#181818;stroke-width:0.5;" x1="510.19" x2="761.813" y1="1319.85" y2="1319.85"/><text fill="#000000" font-family="sans-serif" font-size="14" lengthAdjust="spacing" textLength="72.9941" x="515.19" y="1336.8451">unfinished</text><line style="stroke:#181818;stroke-width:0.5;" x1="510.19" x2="761.813" y1="1344.1469" y2="1344.1469"/><ellipse cx="520.19" cy="1357.7953" fill="#84BE84" rx="3" ry="3" style="stroke:#038048;stroke-width:1.0;"/><text fill="#000000" font-family="sans-serif" font-size="14" lengthAdjust="spacing" textLength="215.8926" x="529.19" y="1361.142">TiltQdServoThrustNMPCwEKF()</text><ellipse cx="520.19" cy="1374.0922" fill="#84BE84" rx="3" ry="3" style="stroke:#038048;stroke-width:1.0;"/><text fill="#000000" font-family="sans-serif" font-size="14" lengthAdjust="spacing" textLength="227.623" x="529.19" y="1377.4389">~TiltQdServoThrustNMPCwEKF()</text><ellipse cx="520.19" cy="1390.3891" fill="#84BE84" rx="3" ry="3" style="stroke:#038048;stroke-width:1.0;"/><text fill="#000000" font-family="sans-serif" font-size="14" lengthAdjust="spacing" textLength="69.2754" x="529.19" y="1393.7357">initialize()</text><ellipse cx="520.19" cy="1406.6859" fill="#84BE84" rx="3" ry="3" style="stroke:#038048;stroke-width:1.0;"/><text fill="#000000" font-family="sans-serif" font-size="14" lengthAdjust="spacing" textLength="60.252" x="529.19" y="1410.0326">update()</text><ellipse cx="520.19" cy="1422.9828" fill="#84BE84" rx="3" ry="3" style="stroke:#038048;stroke-width:1.0;"/><text fill="#000000" font-family="sans-serif" font-size="14" lengthAdjust="spacing" textLength="46.6895" x="529.19" y="1426.3295">reset()</text></g><!--class TiltTriServoNMPC--><g id="elem_TiltTriServoNMPC"><rect codeLine="112" fill="#F1F1F1" height="80.5938" id="TiltTriServoNMPC" rx="2.5" ry="2.5" style="stroke:#181818;stroke-width:0.5;" width="153.0459" x="703.48" y="1106.51"/><ellipse cx="718.5486" cy="1122.51" fill="#ADD1B2" rx="11" ry="11" style="stroke:#181818;stroke-width:1.0;"/><path d="M721.5173,1128.1506 Q720.9392,1128.4475 720.2986,1128.5881 Q719.6579,1128.7444 718.9548,1128.7444 Q716.4548,1128.7444 715.1267,1127.1038 Q713.8142,1125.4475 713.8142,1122.3225 Q713.8142,1119.1975 715.1267,1117.5413 Q716.4548,1115.885 718.9548,1115.885 Q719.6579,1115.885 720.2986,1116.0413 Q720.9548,1116.1975 721.5173,1116.4944 L721.5173,1119.2131 Q720.8923,1118.635 720.2986,1118.3694 Q719.7048,1118.0881 719.0798,1118.0881 Q717.7361,1118.0881 717.0486,1119.1663 Q716.3611,1120.2288 716.3611,1122.3225 Q716.3611,1124.4163 717.0486,1125.4944 Q717.7361,1126.5569 719.0798,1126.5569 Q719.7048,1126.5569 720.2986,1126.2913 Q720.8923,1126.01 721.5173,1125.4319 L721.5173,1128.1506 Z " fill="#000000"/><text fill="#000000" font-family="sans-serif" font-size="14" lengthAdjust="spacing" textLength="120.8936" x="732.5638" y="1127.3567">TiltTriServoNMPC</text><line style="stroke:#181818;stroke-width:0.5;" x1="704.48" x2="855.5259" y1="1138.51" y2="1138.51"/><line style="stroke:#181818;stroke-width:0.5;" x1="704.48" x2="855.5259" y1="1146.51" y2="1146.51"/><polygon fill="#FFFF44" points="714.48,1155.1584,718.48,1159.1584,714.48,1163.1584,710.48,1159.1584" style="stroke:#B38D22;stroke-width:1.0;"/><text fill="#000000" font-family="sans-serif" font-size="14" lengthAdjust="spacing" textLength="127.0459" x="723.48" y="1163.5051">initMPCSolverPtr()</text><polygon fill="#FFFF44" points="714.48,1171.4553,718.48,1175.4553,714.48,1179.4553,710.48,1175.4553" style="stroke:#B38D22;stroke-width:1.0;"/><text fill="#000000" font-family="sans-serif" font-size="14" lengthAdjust="spacing" textLength="92.832" x="723.48" y="1179.802">initAllocMat()</text></g><!--class TiltBiServoNMPC--><g id="elem_TiltBiServoNMPC"><rect codeLine="118" fill="#F1F1F1" height="80.5938" id="TiltBiServoNMPC" rx="2.5" ry="2.5" style="stroke:#181818;stroke-width:0.5;" width="153.0459" x="891.48" y="1106.51"/><ellipse cx="908.665" cy="1122.51" fill="#ADD1B2" rx="11" ry="11" style="stroke:#181818;stroke-width:1.0;"/><path d="M911.6337,1128.1506 Q911.0556,1128.4475 910.415,1128.5881 Q909.7743,1128.7444 909.0712,1128.7444 Q906.5712,1128.7444 905.2431,1127.1038 Q903.9306,1125.4475 903.9306,1122.3225 Q903.9306,1119.1975 905.2431,1117.5413 Q906.5712,1115.885 909.0712,1115.885 Q909.7743,1115.885 910.415,1116.0413 Q911.0712,1116.1975 911.6337,1116.4944 L911.6337,1119.2131 Q911.0087,1118.635 910.415,1118.3694 Q909.8212,1118.0881 909.1962,1118.0881 Q907.8525,1118.0881 907.165,1119.1663 Q906.4775,1120.2288 906.4775,1122.3225 Q906.4775,1124.4163 907.165,1125.4944 Q907.8525,1126.5569 909.1962,1126.5569 Q909.8212,1126.5569 910.415,1126.2913 Q911.0087,1126.01 911.6337,1125.4319 L911.6337,1128.1506 Z " fill="#000000"/><text fill="#000000" font-family="sans-serif" font-size="14" lengthAdjust="spacing" textLength="116.1904" x="923.1505" y="1127.3567">TiltBiServoNMPC</text><line style="stroke:#181818;stroke-width:0.5;" x1="892.48" x2="1043.5259" y1="1138.51" y2="1138.51"/><line style="stroke:#181818;stroke-width:0.5;" x1="892.48" x2="1043.5259" y1="1146.51" y2="1146.51"/><polygon fill="#FFFF44" points="902.48,1155.1584,906.48,1159.1584,902.48,1163.1584,898.48,1159.1584" style="stroke:#B38D22;stroke-width:1.0;"/><text fill="#000000" font-family="sans-serif" font-size="14" lengthAdjust="spacing" textLength="127.0459" x="911.48" y="1163.5051">initMPCSolverPtr()</text><polygon fill="#FFFF44" points="902.48,1171.4553,906.48,1175.4553,902.48,1179.4553,898.48,1175.4553" style="stroke:#B38D22;stroke-width:1.0;"/><text fill="#000000" font-family="sans-serif" font-size="14" lengthAdjust="spacing" textLength="92.832" x="911.48" y="1179.802">initAllocMat()</text></g><!--class TiltBi2OrdServoNMPC--><g id="elem_TiltBi2OrdServoNMPC"><rect codeLine="124" fill="#F1F1F1" height="145.7813" id="TiltBi2OrdServoNMPC" rx="2.5" ry="2.5" style="stroke:#181818;stroke-width:0.5;" width="182.7598" x="862.62" y="1287.85"/><ellipse cx="877.62" cy="1303.85" fill="#ADD1B2" rx="11" ry="11" style="stroke:#181818;stroke-width:1.0;"/><path d="M880.5888,1309.4906 Q880.0106,1309.7875 879.37,1309.9281 Q878.7294,1310.0844 878.0263,1310.0844 Q875.5263,1310.0844 874.1981,1308.4438 Q872.8856,1306.7875 872.8856,1303.6625 Q872.8856,1300.5375 874.1981,1298.8813 Q875.5263,1297.225 878.0263,1297.225 Q878.7294,1297.225 879.37,1297.3813 Q880.0263,1297.5375 880.5888,1297.8344 L880.5888,1300.5531 Q879.9638,1299.975 879.37,1299.7094 Q878.7763,1299.4281 878.1513,1299.4281 Q876.8075,1299.4281 876.12,1300.5063 Q875.4325,1301.5688 875.4325,1303.6625 Q875.4325,1305.7563 876.12,1306.8344 Q876.8075,1307.8969 878.1513,1307.8969 Q878.7763,1307.8969 879.37,1307.6313 Q879.9638,1307.35 880.5888,1306.7719 L880.5888,1309.4906 Z " fill="#000000"/><text fill="#000000" font-family="sans-serif" font-size="14" lengthAdjust="spacing" textLength="150.7598" x="891.62" y="1308.6967">TiltBi2OrdServoNMPC</text><line style="stroke:#181818;stroke-width:0.5;" x1="863.62" x2="1044.3798" y1="1319.85" y2="1319.85"/><line style="stroke:#181818;stroke-width:0.5;" x1="863.62" x2="1044.3798" y1="1327.85" y2="1327.85"/><polygon fill="#FFFF44" points="873.62,1336.4984,877.62,1340.4984,873.62,1344.4984,869.62,1340.4984" style="stroke:#B38D22;stroke-width:1.0;"/><text fill="#000000" font-family="sans-serif" font-size="14" lengthAdjust="spacing" textLength="127.0459" x="882.62" y="1344.8451">initMPCSolverPtr()</text><polygon fill="#FFFF44" points="873.62,1352.7953,877.62,1356.7953,873.62,1360.7953,869.62,1356.7953" style="stroke:#B38D22;stroke-width:1.0;"/><text fill="#000000" font-family="sans-serif" font-size="14" lengthAdjust="spacing" textLength="78.0322" x="882.62" y="1361.142">initCostW()</text><polygon fill="#FFFF44" points="873.62,1369.0922,877.62,1373.0922,873.62,1377.0922,869.62,1373.0922" style="stroke:#B38D22;stroke-width:1.0;"/><text fill="#000000" font-family="sans-serif" font-size="14" lengthAdjust="spacing" textLength="108.3633" x="882.62" y="1377.4389">initJointStates()</text><polygon fill="#FFFF44" points="873.62,1385.3891,877.62,1389.3891,873.62,1393.3891,869.62,1389.3891" style="stroke:#B38D22;stroke-width:1.0;"/><text fill="#000000" font-family="sans-serif" font-size="14" lengthAdjust="spacing" textLength="93.4336" x="882.62" y="1393.7357">meas2VecX()</text><polygon fill="#FFFF44" points="873.62,1401.6859,877.62,1405.6859,873.62,1409.6859,869.62,1405.6859" style="stroke:#B38D22;stroke-width:1.0;"/><text fill="#000000" font-family="sans-serif" font-size="14" lengthAdjust="spacing" textLength="143.5479" x="882.62" y="1410.0326">callbackJointStates()</text><polygon fill="#FFFF44" points="873.62,1417.9828,877.62,1421.9828,873.62,1425.9828,869.62,1421.9828" style="stroke:#B38D22;stroke-width:1.0;"/><text fill="#000000" font-family="sans-serif" font-size="14" lengthAdjust="spacing" textLength="132.6104" x="882.62" y="1426.3295">cfgNMPCCallback()</text></g><!--reverse link ControlBase to BaseMPC--><g id="link_ControlBase_BaseMPC"><path d="M572,221.4 C572,240.54 572,243.16 572,262.94 " fill="none" id="ControlBase-backto-BaseMPC" style="stroke:#181818;stroke-width:1.0;"/><polygon fill="none" points="572,203.4,566,221.4,578,221.4,572,203.4" style="stroke:#181818;stroke-width:1.0;"/></g><!--reverse link TiltQdServoNMPC to FixQdNMPC--><g id="link_TiltQdServoNMPC_FixQdNMPC"><path d="M465.2759,853.8121 C370.8759,934.3421 242.29,1044.04 169.5,1106.14 " fill="none" id="TiltQdServoNMPC-backto-FixQdNMPC" style="stroke:#181818;stroke-width:1.0;"/><polygon fill="none" points="478.97,842.13,461.3818,849.2474,469.1699,858.3768,478.97,842.13" style="stroke:#181818;stroke-width:1.0;"/></g><!--reverse link BaseMPC to TiltQdServoNMPC--><g id="link_BaseMPC_TiltQdServoNMPC"><path d="M572,476.09 C572,494.56 572,496.64 572,517.39 " fill="none" id="BaseMPC-backto-TiltQdServoNMPC" style="stroke:#181818;stroke-width:1.0;"/><polygon fill="none" points="572,458.09,566,476.09,578,476.09,572,458.09" style="stroke:#181818;stroke-width:1.0;"/></g><!--reverse link TiltQdServoNMPC to TiltQdServoNMPCwITerm--><g id="link_TiltQdServoNMPC_TiltQdServoNMPCwITerm"><path d="M469.6278,930.3414 C438.1978,981.8014 413.73,1021.85 387.07,1065.48 " fill="none" id="TiltQdServoNMPC-backto-TiltQdServoNMPCwITerm" style="stroke:#181818;stroke-width:1.0;"/><polygon fill="none" points="479.01,914.98,464.5073,927.214,474.7482,933.4688,479.01,914.98" style="stroke:#181818;stroke-width:1.0;"/></g><!--reverse link TiltQdServoNMPC to TiltQdServoNMPCwEKF--><g id="link_TiltQdServoNMPC_TiltQdServoNMPCwEKF"><path d="M572,1024.17 C572,1055.2 572,1066.27 572,1089.76 " fill="none" id="TiltQdServoNMPC-backto-TiltQdServoNMPCwEKF" style="stroke:#181818;stroke-width:1.0;"/><polygon fill="none" points="572,1006.17,566,1024.17,578,1024.17,572,1006.17" style="stroke:#181818;stroke-width:1.0;"/></g><!--reverse link TiltQdServoNMPCwEKF to TiltQdServoNMPCwMHE--><g id="link_TiltQdServoNMPCwEKF_TiltQdServoNMPCwMHE"><path d="M505.3559,1216.7082 C480.5659,1242.3382 463.39,1260.09 436.93,1287.45 " fill="none" id="TiltQdServoNMPCwEKF-backto-TiltQdServoNMPCwMHE" style="stroke:#181818;stroke-width:1.0;"/><polygon fill="none" points="517.87,1203.77,501.0431,1212.5368,509.6686,1220.8796,517.87,1203.77" style="stroke:#181818;stroke-width:1.0;"/></g><!--reverse link TiltQdServoNMPCwEKF to TiltQdServoThrustNMPCwEKF--><g id="link_TiltQdServoNMPCwEKF_TiltQdServoThrustNMPCwEKF"><path d="M594.1037,1221.0014 C601.8437,1246.6314 605.91,1260.09 614.17,1287.45 " fill="none" id="TiltQdServoNMPCwEKF-backto-TiltQdServoThrustNMPCwEKF" style="stroke:#181818;stroke-width:1.0;"/><polygon fill="none" points="588.9,1203.77,588.3599,1222.736,599.8475,1219.2668,588.9,1203.77" style="stroke:#181818;stroke-width:1.0;"/></g><!--reverse link TiltQdServoNMPC to TiltTriServoNMPC--><g id="link_TiltQdServoNMPC_TiltTriServoNMPC"><path d="M673.4901,949.6581 C708.2401,1013.6481 736.07,1064.9 758.4,1106.04 " fill="none" id="TiltQdServoNMPC-backto-TiltTriServoNMPC" style="stroke:#181818;stroke-width:1.0;"/><polygon fill="none" points="664.9,933.84,668.2174,952.5214,678.7627,946.7947,664.9,933.84" style="stroke:#181818;stroke-width:1.0;"/></g><!--reverse link TiltQdServoNMPC to TiltBiServoNMPC--><g id="link_TiltQdServoNMPC_TiltBiServoNMPC"><path d="M677.7782,865.0841 C760.7682,945.3541 865.53,1046.69 927,1106.15 " fill="none" id="TiltQdServoNMPC-backto-TiltBiServoNMPC" style="stroke:#181818;stroke-width:1.0;"/><polygon fill="none" points="664.84,852.57,673.6068,869.3969,681.9496,860.7714,664.84,852.57" style="stroke:#181818;stroke-width:1.0;"/></g><!--reverse link TiltBiServoNMPC to TiltBi2OrdServoNMPC--><g id="link_TiltBiServoNMPC_TiltBi2OrdServoNMPC"><path d="M964.2124,1205.1408 C962.3524,1233.2708 960.99,1253.97 958.77,1287.57 " fill="none" id="TiltBiServoNMPC-backto-TiltBi2OrdServoNMPC" style="stroke:#181818;stroke-width:1.0;"/><polygon fill="none" points="965.4,1187.18,958.2255,1204.7449,970.1993,1205.5366,965.4,1187.18" style="stroke:#181818;stroke-width:1.0;"/></g><!--SRC=[jLRTRjCm6BtFKrZQHK0CnZROK0H8B6pYHsKTpNwugbpRRGrn77rsIzd4de17ufru1PmcIvmsQTDsorLoxDZddE_7TeTQnyhRsOb37EcH29yHANP8Y9LwIZaU01QEevX64HPCnPYm3einO2q1UPxZu9xIW8b6qryGPi1ns0NPaxfBPAH1Xfxdfoz7M35quo3pF44MzkXnXjrMWJpYsgp9hmje55EiYq-pFH_R0333EFlQGfe98qwprod5u2qQIqxHWEcs4IBClDyDTKGY9fwNi6krVSGccaMqkUOjP7xlAXcE6NHZ3TqCJGIsWT6hyvno0fajEjEvRGtv0C5XsCFaHuVfhwmV0FwU3u5KL-Tx5unOwmY6rHGg5aXf-H9OZYaZmnTqRfCBVfsQizoJ4puver-MkvBE3dYepsY7mLXE_xbnt4cNSe7UeDtzRJJAtbzie_ZkrLtcJ3BmBWmbQM6TidQNqqw9DEPTg3ICAoc_SXqtpS5YQSCcmswhm59-kpC9xfOJscqKZ5bxcqYxIsex58UMhhbGt2dCjocgk6vWUIMN2xTfhAqoIWfQbI1VAdrffRhE2hCbAIjD_2Hvf3lQq54hLKiCIKDaYL9JabNm3AjoUPMnIX9MpRU_rRG2g-WNz0ZI7oI4_6n6ZfjUU4gbiBzzAGIEw89M4eFXsXx-KjpiEAFH-7m5vs0RWfE06M61d79T9vD_VWmOY8rRZ9tN__x-oJDxzxbRbwcrwLMPdmjZJzvpfKVGkmGMaU7Yh9WBrrgk7Ny-sTIplVswNZ2A-iO7DMHqvIfVIqphm_4wOgOch2UeWa5jhoiDFfmJmH16IcyIt3a_3jVneyoZqfMQAG_WJG1yjJDlKOyuAEmusEmQqepyqJroVtblLwYctFTEWQxEtzPSqvzNvby-xklEzOfxyQ83UBuD_mS0]--></g></svg>