<?xml version="1.0" encoding="us-ascii" standalone="no"?><svg xmlns="http://www.w3.org/2000/svg" xmlns:xlink="http://www.w3.org/1999/xlink" contentStyleType="text/css" height="771px" preserveAspectRatio="none" style="width:1901px;height:771px;background:#FFFFFF;" version="1.1" viewBox="0 0 1901 771" width="1901px" zoomAndPan="magnify"><defs/><g><!--cluster Class Member as Plugins--><g id="cluster_Class Member as Plugins"><path d="M8.5,6 L209.5,6 A3.75,3.75 0 0 1 212,8.5 L219,28.2969 L421.5,28.2969 A2.5,2.5 0 0 1 424,30.7969 L424,421 A2.5,2.5 0 0 1 421.5,423.5 L8.5,423.5 A2.5,2.5 0 0 1 6,421 L6,8.5 A2.5,2.5 0 0 1 8.5,6 " fill="none" style="stroke:#000000;stroke-width:1.5;"/><line style="stroke:#000000;stroke-width:1.5;" x1="6" x2="219" y1="28.2969" y2="28.2969"/><text fill="#000000" font-family="sans-serif" font-size="14" font-weight="bold" lengthAdjust="spacing" textLength="200" x="10" y="20.9951">Class Member as Plugins</text></g><!--cluster Load as Plugin--><g id="cluster_Load as Plugin"><path d="M48.5,455 L167.5,455 A3.75,3.75 0 0 1 170,457.5 L177,477.2969 L421.5,477.2969 A2.5,2.5 0 0 1 424,479.7969 L424,722 A2.5,2.5 0 0 1 421.5,724.5 L48.5,724.5 A2.5,2.5 0 0 1 46,722 L46,457.5 A2.5,2.5 0 0 1 48.5,455 " fill="none" style="stroke:#000000;stroke-width:1.5;"/><line style="stroke:#000000;stroke-width:1.5;" x1="46" x2="177" y1="477.2969" y2="477.2969"/><text fill="#000000" font-family="sans-serif" font-size="14" font-weight="bold" lengthAdjust="spacing" textLength="118" x="50" y="469.9951">Load as Plugin</text></g><!--cluster base--><g id="cluster_base"><rect fill="none" height="637" rx="2.5" ry="2.5" style="stroke:#181818;stroke-width:1.0;" width="686" x="456" y="128"/><rect fill="none" height="10" style="stroke:#181818;stroke-width:1.0;" width="15" x="1122" y="133"/><rect fill="none" height="2" style="stroke:#181818;stroke-width:1.0;" width="4" x="1120" y="135"/><rect fill="none" height="2" style="stroke:#181818;stroke-width:1.0;" width="4" x="1120" y="139"/><text fill="#000000" font-family="sans-serif" font-size="14" font-weight="bold" lengthAdjust="spacing" textLength="143" x="727.5" y="153.9951">aerial_robot_base</text></g><!--cluster Instance--><g id="cluster_Instance"><path d="M498.5,187 L569.5,187 A3.75,3.75 0 0 1 572,189.5 L579,209.2969 L741.5,209.2969 A2.5,2.5 0 0 1 744,211.7969 L744,721.5 A2.5,2.5 0 0 1 741.5,724 L498.5,724 A2.5,2.5 0 0 1 496,721.5 L496,189.5 A2.5,2.5 0 0 1 498.5,187 " fill="none" style="stroke:#000000;stroke-width:1.5;"/><line style="stroke:#000000;stroke-width:1.5;" x1="496" x2="579" y1="209.2969" y2="209.2969"/><text fill="#000000" font-family="sans-serif" font-size="14" font-weight="bold" lengthAdjust="spacing" textLength="70" x="500" y="201.9951">Instance</text></g><!--cluster Simulation (Gazebo)--><g id="cluster_Simulation (Gazebo)"><path d="M1650.5,455.5 L1817.5,455.5 A3.75,3.75 0 0 1 1820,458 L1827,477.7969 L1891.5,477.7969 A2.5,2.5 0 0 1 1894,480.2969 L1894,721.5 A2.5,2.5 0 0 1 1891.5,724 L1650.5,724 A2.5,2.5 0 0 1 1648,721.5 L1648,458 A2.5,2.5 0 0 1 1650.5,455.5 " fill="none" style="stroke:#000000;stroke-width:1.5;"/><line style="stroke:#000000;stroke-width:1.5;" x1="1648" x2="1827" y1="477.7969" y2="477.7969"/><text fill="#000000" font-family="sans-serif" font-size="14" font-weight="bold" lengthAdjust="spacing" textLength="166" x="1652" y="470.4951">Simulation (Gazebo)</text></g><!--cluster Real Machine--><g id="cluster_Real Machine"><path d="M1176.5,318 L1284.5,318 A3.75,3.75 0 0 1 1287,320.5 L1294,340.2969 L1568.5,340.2969 A2.5,2.5 0 0 1 1571,342.7969 L1571,558 A2.5,2.5 0 0 1 1568.5,560.5 L1176.5,560.5 A2.5,2.5 0 0 1 1174,558 L1174,320.5 A2.5,2.5 0 0 1 1176.5,318 " fill="none" style="stroke:#000000;stroke-width:1.5;"/><line style="stroke:#000000;stroke-width:1.5;" x1="1174" x2="1294" y1="340.2969" y2="340.2969"/><text fill="#000000" font-family="sans-serif" font-size="14" font-weight="bold" lengthAdjust="spacing" textLength="107" x="1178" y="332.9951">Real Machine</text></g><!--entity model_plugin--><g id="elem_model_plugin"><rect fill="#F1F1F1" height="62.5938" rx="2.5" ry="2.5" style="stroke:#181818;stroke-width:0.5;" width="354" x="46" y="41"/><rect fill="#F1F1F1" height="10" style="stroke:#181818;stroke-width:0.5;" width="15" x="380" y="46"/><rect fill="#F1F1F1" height="2" style="stroke:#181818;stroke-width:0.5;" width="4" x="378" y="48"/><rect fill="#F1F1F1" height="2" style="stroke:#181818;stroke-width:0.5;" width="4" x="378" y="52"/><text fill="#000000" font-family="sans-serif" font-size="14" lengthAdjust="spacing" textLength="314" x="61" y="73.9951">robot_model_loader_("aerial_robot_model",</text><text fill="#000000" font-family="sans-serif" font-size="14" lengthAdjust="spacing" textLength="256" x="65" y="90.292">"aerial_robot_model::RobotModel")</text></g><!--entity sensor_plugin--><g id="elem_sensor_plugin"><rect fill="#F1F1F1" height="62.5938" rx="2.5" ry="2.5" style="stroke:#181818;stroke-width:0.5;" width="385" x="22.5" y="221.5"/><rect fill="#F1F1F1" height="10" style="stroke:#181818;stroke-width:0.5;" width="15" x="387.5" y="226.5"/><rect fill="#F1F1F1" height="2" style="stroke:#181818;stroke-width:0.5;" width="4" x="385.5" y="228.5"/><rect fill="#F1F1F1" height="2" style="stroke:#181818;stroke-width:0.5;" width="4" x="385.5" y="232.5"/><text fill="#000000" font-family="sans-serif" font-size="14" lengthAdjust="spacing" textLength="345" x="37.5" y="254.4951">pluginlib::ClassLoader(aerial_robot_estimation",</text><text fill="#000000" font-family="sans-serif" font-size="14" lengthAdjust="spacing" textLength="210" x="41.5" y="270.792">"sensor_plugin::SensorBase")</text></g><!--entity kf_plugin--><g id="elem_kf_plugin"><rect fill="#F1F1F1" height="62.5938" rx="2.5" ry="2.5" style="stroke:#181818;stroke-width:0.5;" width="315" x="77.5" y="344.5"/><rect fill="#F1F1F1" height="10" style="stroke:#181818;stroke-width:0.5;" width="15" x="372.5" y="349.5"/><rect fill="#F1F1F1" height="2" style="stroke:#181818;stroke-width:0.5;" width="4" x="370.5" y="351.5"/><rect fill="#F1F1F1" height="2" style="stroke:#181818;stroke-width:0.5;" width="4" x="370.5" y="355.5"/><text fill="#000000" font-family="sans-serif" font-size="14" lengthAdjust="spacing" textLength="275" x="92.5" y="377.4951">pluginlib::ClassLoader("kalman_filter",</text><text fill="#000000" font-family="sans-serif" font-size="14" lengthAdjust="spacing" textLength="191" x="96.5" y="393.792">"kf_plugin::KalmanFilter"))</text></g><!--entity navigator_plugin--><g id="elem_navigator_plugin"><rect fill="#F1F1F1" height="62.5938" rx="2.5" ry="2.5" style="stroke:#181818;stroke-width:0.5;" width="345" x="62.5" y="490"/><rect fill="#F1F1F1" height="10" style="stroke:#181818;stroke-width:0.5;" width="15" x="387.5" y="495"/><rect fill="#F1F1F1" height="2" style="stroke:#181818;stroke-width:0.5;" width="4" x="385.5" y="497"/><rect fill="#F1F1F1" height="2" style="stroke:#181818;stroke-width:0.5;" width="4" x="385.5" y="501"/><text fill="#000000" font-family="sans-serif" font-size="14" lengthAdjust="spacing" textLength="296" x="77.5" y="522.9951">navigator_loader_("aerial_robot_control",</text><text fill="#000000" font-family="sans-serif" font-size="14" lengthAdjust="spacing" textLength="301" x="81.5" y="539.292">"aerial_robot_navigation::BaseNavigator")</text></g><!--entity controller_plugin--><g id="elem_controller_plugin"><rect fill="#F1F1F1" height="62.5938" rx="2.5" ry="2.5" style="stroke:#181818;stroke-width:0.5;" width="339" x="66.5" y="645.5"/><rect fill="#F1F1F1" height="10" style="stroke:#181818;stroke-width:0.5;" width="15" x="385.5" y="650.5"/><rect fill="#F1F1F1" height="2" style="stroke:#181818;stroke-width:0.5;" width="4" x="383.5" y="652.5"/><rect fill="#F1F1F1" height="2" style="stroke:#181818;stroke-width:0.5;" width="4" x="383.5" y="656.5"/><text fill="#000000" font-family="sans-serif" font-size="14" lengthAdjust="spacing" textLength="299" x="81.5" y="678.4951">controller_loader_("aerial_robot_control",</text><text fill="#000000" font-family="sans-serif" font-size="14" lengthAdjust="spacing" textLength="263" x="85.5" y="694.792">"aerial_robot_control::ControlBase")</text></g><!--entity ROS_Spinal--><g id="elem_ROS_Spinal"><rect fill="#F1F1F1" height="62.5938" rx="2.5" ry="2.5" style="stroke:#181818;stroke-width:0.5;" width="261" x="768.5" y="344.5"/><rect fill="#F1F1F1" height="10" style="stroke:#181818;stroke-width:0.5;" width="15" x="1009.5" y="349.5"/><rect fill="#F1F1F1" height="2" style="stroke:#181818;stroke-width:0.5;" width="4" x="1007.5" y="351.5"/><rect fill="#F1F1F1" height="2" style="stroke:#181818;stroke-width:0.5;" width="4" x="1007.5" y="355.5"/><text fill="#000000" font-family="sans-serif" font-size="14" lengthAdjust="spacing" textLength="220" x="783.5" y="377.4951">ROS spinal (ros::AsyncSpinner)</text><text fill="#000000" font-family="sans-serif" font-size="14" lengthAdjust="spacing" textLength="221" x="783.5" y="393.792">4 multi-thread to call callbacks</text></g><!--entity TimerLoop--><g id="elem_TimerLoop"><rect fill="#F1F1F1" height="127.7813" rx="2.5" ry="2.5" style="stroke:#181818;stroke-width:0.5;" width="342" x="768" y="613"/><rect fill="#F1F1F1" height="10" style="stroke:#181818;stroke-width:0.5;" width="15" x="1090" y="618"/><rect fill="#F1F1F1" height="2" style="stroke:#181818;stroke-width:0.5;" width="4" x="1088" y="620"/><rect fill="#F1F1F1" height="2" style="stroke:#181818;stroke-width:0.5;" width="4" x="1088" y="624"/><ellipse cx="788.5" cy="641.7969" fill="#000000" rx="2.5" ry="2.5" style="stroke:#000000;stroke-width:0.0;"/><text fill="#000000" font-family="sans-serif" font-size="14" lengthAdjust="spacing" textLength="82" x="795" y="645.9951">Timer Loop</text><text fill="#000000" font-family="sans-serif" font-size="14" lengthAdjust="spacing" textLength="302" x="783" y="662.292">Void mainFunc(const ros::TimerEvent &amp; e)</text><text fill="#000000" font-family="sans-serif" font-size="14" lengthAdjust="spacing" textLength="9" x="783" y="678.5889">{</text><text fill="#000000" font-family="sans-serif" font-size="14" lengthAdjust="spacing" textLength="158" x="815" y="694.8857">navigator_-&gt;update();</text><text fill="#000000" font-family="sans-serif" font-size="14" lengthAdjust="spacing" textLength="161" x="815" y="711.1826">controller_-&gt;update();</text><text fill="#000000" font-family="sans-serif" font-size="14" lengthAdjust="spacing" textLength="9" x="787" y="727.4795">}</text></g><!--entity robot_model_ros_--><g id="elem_robot_model_ros_"><rect fill="#F1F1F1" height="46.2969" rx="2.5" ry="2.5" style="stroke:#181818;stroke-width:0.5;" width="169" x="525.5" y="230"/><rect fill="#F1F1F1" height="10" style="stroke:#181818;stroke-width:0.5;" width="15" x="674.5" y="235"/><rect fill="#F1F1F1" height="2" style="stroke:#181818;stroke-width:0.5;" width="4" x="672.5" y="237"/><rect fill="#F1F1F1" height="2" style="stroke:#181818;stroke-width:0.5;" width="4" x="672.5" y="241"/><text fill="#000000" font-family="sans-serif" font-size="14" lengthAdjust="spacing" textLength="129" x="540.5" y="262.9951">robot_model_ros_</text></g><!--entity estimator_--><g id="elem_estimator_"><rect fill="#F1F1F1" height="46.2969" rx="2.5" ry="2.5" style="stroke:#181818;stroke-width:0.5;" width="118" x="520" y="353"/><rect fill="#F1F1F1" height="10" style="stroke:#181818;stroke-width:0.5;" width="15" x="618" y="358"/><rect fill="#F1F1F1" height="2" style="stroke:#181818;stroke-width:0.5;" width="4" x="616" y="360"/><rect fill="#F1F1F1" height="2" style="stroke:#181818;stroke-width:0.5;" width="4" x="616" y="364"/><text fill="#000000" font-family="sans-serif" font-size="14" lengthAdjust="spacing" textLength="78" x="535" y="385.9951">estimator_</text></g><!--entity navigator_--><g id="elem_navigator_"><rect fill="#F1F1F1" height="46.2969" rx="2.5" ry="2.5" style="stroke:#181818;stroke-width:0.5;" width="115" x="596.5" y="498.5"/><rect fill="#F1F1F1" height="10" style="stroke:#181818;stroke-width:0.5;" width="15" x="691.5" y="503.5"/><rect fill="#F1F1F1" height="2" style="stroke:#181818;stroke-width:0.5;" width="4" x="689.5" y="505.5"/><rect fill="#F1F1F1" height="2" style="stroke:#181818;stroke-width:0.5;" width="4" x="689.5" y="509.5"/><text fill="#000000" font-family="sans-serif" font-size="14" lengthAdjust="spacing" textLength="75" x="611.5" y="531.4951">navigator_</text></g><!--entity controller_--><g id="elem_controller_"><rect fill="#F1F1F1" height="46.2969" rx="2.5" ry="2.5" style="stroke:#181818;stroke-width:0.5;" width="118" x="520" y="654"/><rect fill="#F1F1F1" height="10" style="stroke:#181818;stroke-width:0.5;" width="15" x="618" y="659"/><rect fill="#F1F1F1" height="2" style="stroke:#181818;stroke-width:0.5;" width="4" x="616" y="661"/><rect fill="#F1F1F1" height="2" style="stroke:#181818;stroke-width:0.5;" width="4" x="616" y="665"/><text fill="#000000" font-family="sans-serif" font-size="14" lengthAdjust="spacing" textLength="78" x="535" y="686.9951">controller_</text></g><!--entity "Hardware interface"--><g id="elem_&quot;Hardware interface&quot;"><rect fill="#F1F1F1" height="46.2969" rx="2.5" ry="2.5" style="stroke:#181818;stroke-width:0.5;" width="177" x="1691.5" y="498.5"/><rect fill="#F1F1F1" height="10" style="stroke:#181818;stroke-width:0.5;" width="15" x="1848.5" y="503.5"/><rect fill="#F1F1F1" height="2" style="stroke:#181818;stroke-width:0.5;" width="4" x="1846.5" y="505.5"/><rect fill="#F1F1F1" height="2" style="stroke:#181818;stroke-width:0.5;" width="4" x="1846.5" y="509.5"/><text fill="#000000" font-family="sans-serif" font-size="14" lengthAdjust="spacing" textLength="137" x="1706.5" y="531.4951">Hardware interface</text></g><!--entity "Controller interfaces"--><g id="elem_&quot;Controller interfaces&quot;"><rect fill="#F1F1F1" height="46.2969" rx="2.5" ry="2.5" style="stroke:#181818;stroke-width:0.5;" width="190" x="1680" y="654"/><rect fill="#F1F1F1" height="10" style="stroke:#181818;stroke-width:0.5;" width="15" x="1850" y="659"/><rect fill="#F1F1F1" height="2" style="stroke:#181818;stroke-width:0.5;" width="4" x="1848" y="661"/><rect fill="#F1F1F1" height="2" style="stroke:#181818;stroke-width:0.5;" width="4" x="1848" y="665"/><text fill="#000000" font-family="sans-serif" font-size="14" lengthAdjust="spacing" textLength="150" x="1695" y="686.9951">Controller interfaces</text></g><!--entity spinal_ros_bridge--><g id="elem_spinal_ros_bridge"><rect fill="#F1F1F1" height="46.2969" rx="2.5" ry="2.5" style="stroke:#181818;stroke-width:0.5;" width="165" x="1389.5" y="353"/><rect fill="#F1F1F1" height="10" style="stroke:#181818;stroke-width:0.5;" width="15" x="1534.5" y="358"/><rect fill="#F1F1F1" height="2" style="stroke:#181818;stroke-width:0.5;" width="4" x="1532.5" y="360"/><rect fill="#F1F1F1" height="2" style="stroke:#181818;stroke-width:0.5;" width="4" x="1532.5" y="364"/><text fill="#000000" font-family="sans-serif" font-size="14" lengthAdjust="spacing" textLength="125" x="1404.5" y="385.9951">spinal_ros_bridge</text></g><!--entity sensor interfaces--><g id="elem_sensor interfaces"><rect fill="#F1F1F1" height="46.2969" rx="2.5" ry="2.5" style="stroke:#181818;stroke-width:0.5;" width="164" x="1190" y="353"/><rect fill="#F1F1F1" height="10" style="stroke:#181818;stroke-width:0.5;" width="15" x="1334" y="358"/><rect fill="#F1F1F1" height="2" style="stroke:#181818;stroke-width:0.5;" width="4" x="1332" y="360"/><rect fill="#F1F1F1" height="2" style="stroke:#181818;stroke-width:0.5;" width="4" x="1332" y="364"/><text fill="#000000" font-family="sans-serif" font-size="14" lengthAdjust="spacing" textLength="124" x="1205" y="385.9951">sensor interfaces</text></g><!--entity spinal--><g id="elem_spinal"><rect fill="#F1F1F1" height="46.2969" rx="2.5" ry="2.5" style="stroke:#181818;stroke-width:0.5;" width="82" x="1431" y="498.5"/><rect fill="#F1F1F1" height="10" style="stroke:#181818;stroke-width:0.5;" width="15" x="1493" y="503.5"/><rect fill="#F1F1F1" height="2" style="stroke:#181818;stroke-width:0.5;" width="4" x="1491" y="505.5"/><rect fill="#F1F1F1" height="2" style="stroke:#181818;stroke-width:0.5;" width="4" x="1491" y="509.5"/><text fill="#000000" font-family="sans-serif" font-size="14" lengthAdjust="spacing" textLength="42" x="1446" y="531.4951">spinal</text></g><!--entity servo_bridge--><g id="elem_servo_bridge"><rect fill="#F1F1F1" height="46.2969" rx="2.5" ry="2.5" style="stroke:#181818;stroke-width:0.5;" width="133" x="1589.5" y="353"/><rect fill="#F1F1F1" height="10" style="stroke:#181818;stroke-width:0.5;" width="15" x="1702.5" y="358"/><rect fill="#F1F1F1" height="2" style="stroke:#181818;stroke-width:0.5;" width="4" x="1700.5" y="360"/><rect fill="#F1F1F1" height="2" style="stroke:#181818;stroke-width:0.5;" width="4" x="1700.5" y="364"/><text fill="#000000" font-family="sans-serif" font-size="14" lengthAdjust="spacing" textLength="93" x="1604.5" y="385.9951">servo_bridge</text></g><!--link model_plugin to sensor_plugin--><!--link sensor_plugin to kf_plugin--><!--link navigator_plugin to controller_plugin--><!--link "Hardware interface" to "Controller interfaces"--><!--link model_plugin to robot_model_ros_--><g id="link_model_plugin_robot_model_ros_"><path d="M400.082,102.624 C408.272,105.464 416.285,108.58 424,112 C490.324,141.399 550.7548,194.2467 583.5358,225.6887 " fill="none" id="model_plugin-to-robot_model_ros_" style="stroke:#181818;stroke-width:1.0;"/><polygon fill="#181818" points="587.866,229.842,584.1396,220.7253,584.2575,226.3809,578.6019,226.4988,587.866,229.842" style="stroke:#181818;stroke-width:1.0;"/></g><!--link sensor_plugin to estimator_--><g id="link_sensor_plugin_estimator_"><path d="M339.887,284.501 C367.785,292.134 397.075,300.794 424,310 C460.584,322.508 495.3378,337.0449 525.6448,350.5099 " fill="none" id="sensor_plugin-to-estimator_" style="stroke:#181818;stroke-width:1.0;"/><polygon fill="#181818" points="531.128,352.946,524.5273,345.6364,526.5587,350.9159,521.2791,352.9473,531.128,352.946" style="stroke:#181818;stroke-width:1.0;"/></g><!--link kf_plugin to estimator_--><g id="link_kf_plugin_estimator_"><path d="M392.555,376 C434.918,376 471.28,376 513.643,376 " fill="none" id="kf_plugin-to-estimator_" style="stroke:#181818;stroke-width:1.0;"/><polygon fill="#181818" points="519.643,376,510.643,372,514.643,376,510.643,380,519.643,376" style="stroke:#181818;stroke-width:1.0;"/></g><!--link navigator_plugin to navigator_--><g id="link_navigator_plugin_navigator_"><path d="M407.674,521.5 C470.538,521.5 527.403,521.5 590.267,521.5 " fill="none" id="navigator_plugin-to-navigator_" style="stroke:#181818;stroke-width:1.0;"/><polygon fill="#181818" points="596.267,521.5,587.267,517.5,591.267,521.5,587.267,525.5,596.267,521.5" style="stroke:#181818;stroke-width:1.0;"/></g><!--link controller_plugin to controller_--><g id="link_controller_plugin_controller_"><path d="M405.825,677 C443.82,677 475.815,677 513.809,677 " fill="none" id="controller_plugin-to-controller_" style="stroke:#181818;stroke-width:1.0;"/><polygon fill="#181818" points="519.809,677,510.809,673,514.809,677,510.809,681,519.809,677" style="stroke:#181818;stroke-width:1.0;"/></g><!--link robot_model_ros_ to estimator_--><g id="link_robot_model_ros__estimator_"><path d="M604.314,276.193 C598.721,298.026 591.7202,325.3517 586.1392,347.1347 " fill="none" id="robot_model_ros_-to-estimator_" style="stroke:#181818;stroke-width:1.0;"/><polygon fill="#181818" points="584.65,352.947,590.7586,345.2214,585.891,348.1034,583.0089,343.2358,584.65,352.947" style="stroke:#181818;stroke-width:1.0;"/></g><!--link robot_model_ros_ to navigator_--><g id="link_robot_model_ros__navigator_"><path d="M651.953,276.165 C664.256,284.934 676.217,296.248 683,310 C714.005,372.861 685.4835,452.8977 667.4425,492.8077 " fill="none" id="robot_model_ros_-to-navigator_" style="stroke:#181818;stroke-width:1.0;"/><polygon fill="#181818" points="664.971,498.275,672.3231,491.7216,667.0306,493.7189,665.0333,488.4263,664.971,498.275" style="stroke:#181818;stroke-width:1.0;"/></g><!--link robot_model_ros_ to controller_--><g id="link_robot_model_ros__controller_"><path d="M633.484,276.036 C641.981,285.563 650.569,297.412 655,310 C672.93,360.936 691.13,391.367 655,431.5 C643.638,444.121 590.362,426.879 579,439.5 C551.116,470.473 566.5583,595.1032 574.5193,647.8362 " fill="none" id="robot_model_ros_-to-controller_" style="stroke:#181818;stroke-width:1.0;"/><polygon fill="#181818" points="575.415,653.769,578.0267,644.2727,574.6686,648.825,570.1163,645.4669,575.415,653.769" style="stroke:#181818;stroke-width:1.0;"/></g><!--link estimator_ to navigator_--><g id="link_estimator__navigator_"><path d="M590.554,399.107 C604.607,425.995 625.4158,465.8085 639.5298,492.8135 " fill="none" id="estimator_-to-navigator_" style="stroke:#181818;stroke-width:1.0;"/><polygon fill="#181818" points="642.309,498.131,641.6853,488.3019,639.993,493.6997,634.5952,492.0075,642.309,498.131" style="stroke:#181818;stroke-width:1.0;"/></g><!--link estimator_ to controller_--><g id="link_estimator__controller_"><path d="M566.362,399.074 C560.427,410.699 554.007,425.431 551,439.5 C539.015,495.567 543.715,511.631 551,568.5 C554.847,598.533 562.6761,626.4472 569.5711,647.9652 " fill="none" id="estimator_-to-controller_" style="stroke:#181818;stroke-width:1.0;"/><polygon fill="#181818" points="571.402,653.679,572.4649,643.8877,569.8763,648.9175,564.8465,646.3288,571.402,653.679" style="stroke:#181818;stroke-width:1.0;"/></g><!--link navigator_ to controller_--><g id="link_navigator__controller_"><path d="M643.094,544.82 C628.834,574.006 606.6369,619.435 592.4309,648.511 " fill="none" id="navigator_-to-controller_" style="stroke:#181818;stroke-width:1.0;"/><polygon fill="#181818" points="589.797,653.902,597.3419,647.5715,591.9919,649.4095,590.1539,644.0596,589.797,653.902" style="stroke:#181818;stroke-width:1.0;"/></g><!--link navigator_ to TimerLoop--><g id="link_navigator__TimerLoop"><path d="M695.137,544.656 C728.357,562.548 771.5315,585.8018 816.5135,610.0298 " fill="none" id="navigator_-to-TimerLoop" style="stroke:#181818;stroke-width:1.0;"/><polygon fill="#181818" points="821.796,612.875,815.7691,605.0855,817.3939,610.504,811.9754,612.1288,821.796,612.875" style="stroke:#181818;stroke-width:1.0;"/></g><!--link controller_ to TimerLoop--><g id="link_controller__TimerLoop"><path d="M638.062,677 C681.361,677 718.66,677 761.959,677 " fill="none" id="controller_-to-TimerLoop" style="stroke:#181818;stroke-width:1.0;"/><polygon fill="#181818" points="767.959,677,758.959,673,762.959,677,758.959,681,767.959,677" style="stroke:#181818;stroke-width:1.0;"/></g><!--link Instance to ROS_Spinal--><g id="link_Instance_ROS_Spinal"><path d="M744.0919,290.2293 C744.1666,290.3279 744.2413,290.4264 744.3163,290.5248 C744.6159,290.9183 744.9179,291.3102 745.2221,291.7006 C745.8306,292.4812 746.4482,293.2553 747.0746,294.0231 C749.5801,297.0942 752.2258,300.0627 754.991,302.9313 C760.5213,308.6683 766.5294,314.0053 772.8483,318.9618 C785.486,328.8747 794.0211,334.5417 807.8101,341.5687 " fill="none" id="Instance-to-ROS_Spinal" style="stroke:#181818;stroke-width:1.0;"/><polygon fill="#181818" points="813.156,344.293,806.9534,336.6426,808.7011,342.0228,803.321,343.7705,813.156,344.293" style="stroke:#181818;stroke-width:1.0;"/></g><!--link base to servo_bridge--><g id="link_base_servo_bridge"><path d="M1148.5066,254.8398 C1150.4831,254.957 1148.1752,254.8241 1150.6831,254.9773 C1160.7146,255.5904 1174.8536,256.4914 1191.9509,257.6799 C1226.1456,260.0569 1272.1738,263.5839 1320.8425,268.2563 C1418.18,277.601 1526.08,291.5275 1571,310 C1594.88,319.821 1613.4657,334.0872 1629.5057,348.7802 " fill="none" id="base-servo_bridge" style="stroke:#181818;stroke-width:1.0;"/><polygon fill="#181818" points="1142.517,254.4871,1151.2663,259.0092,1147.5083,254.781,1151.7365,251.023,1142.517,254.4871" style="stroke:#181818;stroke-width:1.0;"/><polygon fill="#181818" points="1633.93,352.833,1629.9953,343.8042,1630.243,349.4557,1624.5916,349.7034,1633.93,352.833" style="stroke:#181818;stroke-width:1.0;"/></g><!--link base to spinal_ros_bridge--><g id="link_base_spinal_ros_bridge"><path d="M1148.2375,255.6309 C1148.8246,255.7011 1144.3406,255.1716 1144.9793,255.2495 C1146.2567,255.4051 1147.6361,255.5761 1149.1123,255.7629 C1152.0647,256.1364 1155.4045,256.573 1159.0908,257.0762 C1173.8359,259.089 1194.1256,262.1671 1217.3488,266.5344 C1263.795,275.269 1321.975,289.1605 1371,310 C1397.1,321.094 1419.1126,335.2228 1438.5726,349.3338 " fill="none" id="base-spinal_ros_bridge" style="stroke:#181818;stroke-width:1.0;"/><polygon fill="#181818" points="1142.2792,254.9249,1150.746,259.9561,1147.2445,255.5132,1151.6873,252.0117,1142.2792,254.9249" style="stroke:#181818;stroke-width:1.0;"/><polygon fill="#181818" points="1443.43,352.856,1438.4921,344.3344,1439.3822,349.9208,1433.7958,350.8109,1443.43,352.856" style="stroke:#181818;stroke-width:1.0;"/></g><!--link servo_bridge to spinal_ros_bridge--><g id="link_servo_bridge_spinal_ros_bridge"><path d="M1583.49,376 C1571.88,376 1572.27,376 1560.66,376 " fill="none" id="servo_bridge-spinal_ros_bridge" style="stroke:#181818;stroke-width:1.0;"/><polygon fill="#181818" points="1589.49,376,1580.49,372,1584.49,376,1580.49,380,1589.49,376" style="stroke:#181818;stroke-width:1.0;"/><polygon fill="#181818" points="1554.66,376,1563.66,380,1559.66,376,1563.66,372,1554.66,376" style="stroke:#181818;stroke-width:1.0;"/></g><!--link servo_bridge to Simulation (Gazebo)--><g id="link_servo_bridge_Simulation (Gazebo)"><path d="M1656,405.107 C1656,415.013 1656,421.3952 1656,434.4349 C1656,440.9547 1656,447.639 1656,454.2602 C1656,454.4672 1656,448.674 1656,448.8808 " fill="none" id="servo_bridge-Simulation (Gazebo)" style="stroke:#181818;stroke-width:1.0;"/><polygon fill="#181818" points="1656,399.107,1652,408.107,1656,404.107,1660,408.107,1656,399.107" style="stroke:#181818;stroke-width:1.0;"/><polygon fill="#181818" points="1656,454.8808,1660,445.8808,1656,449.8808,1652,445.8808,1656,454.8808" style="stroke:#181818;stroke-width:1.0;"/></g><!--link spinal_ros_bridge to spinal--><g id="link_spinal_ros_bridge_spinal"><path d="M1472,405.107 C1472,431.995 1472,465.126 1472,492.131 " fill="none" id="spinal_ros_bridge-spinal" style="stroke:#181818;stroke-width:1.0;"/><polygon fill="#181818" points="1472,399.107,1468,408.107,1472,404.107,1476,408.107,1472,399.107" style="stroke:#181818;stroke-width:1.0;"/><polygon fill="#181818" points="1472,498.131,1476,489.131,1472,493.131,1468,489.131,1472,498.131" style="stroke:#181818;stroke-width:1.0;"/></g><!--link sensor interfaces to base--><g id="link_sensor interfaces_base"><path d="M1246.76,352.868 C1227.275,335.7845 1199.865,311.7515 1176.9488,291.6584 C1165.4906,281.6118 1155.1559,272.5502 1147.497,265.8348 C1145.5823,264.1559 1148.3462,266.5793 1146.7902,265.215 " fill="none" id="sensor interfaces-to-base" style="stroke:#181818;stroke-width:1.0;"/><polygon fill="#181818" points="1142.2788,261.2593,1146.4088,270.2004,1146.0383,264.5557,1151.683,264.1853,1142.2788,261.2593" style="stroke:#181818;stroke-width:1.0;"/></g><!--link kf_plugin to navigator_plugin--><!--SRC=[bLHHRzCm47xthx3om5f4s0jF0LM2YG5Y0zGYNjOgkYItrffZHxOx16Z_7TlnOYSD22grIkuxVz_vxhkU7OpfT75-td4GvjZovxLip-stamA5oHi6UmKj8QI3-WxsIBCB3bhJQsmhL1Gq_SAFUoPqHdyHIc-KhAGfMzaWBxc41bMvo00L0rucMFPiA-XCl2ZMxkNQvontZh_dwhoAK-YVEAkAmfTovLKM8oxKXhLWc1Iza4QXfGeaHR7nhsz0Oz0OuNyHoUw0jo3AMyODgfxxxdRW_UZHonvSzjG3R6dJgz3yvi2Q1iKkNvteZzv7cP7k8Pc9Ao_E8en2m3tRWx4yyuEefJ1ApeqYdBJjAmhNfK-FJA5TaJbsBB1n_7-vWDXMzm_9O1BMGMggFkhFwG7Rfy7F4-7A2JaPzz0tRVrvGtN7172wK58NnMlzGzGR6n6ebblnWhP7RbXk3WfjpusaDN3kVoex3UshjYJbnfCuogTVMMjNvKhARik_ITRG5fYuF8fwOQlLXdeTd_JstXNvXE9ootzjEGsVUEDyTUmQCBXOlenmSkSn_k2hySnEtHRpw9WFLXT4tLzwihQsd7BNXyCUMU4GY9M4GABj8W-ktJSQrRqiAyMQFUuIcswORPxt5LsyWvzOoMNmQlOULFCT558cxFBSGetPpWCNWq24TC3c3etSyEVZwVQiqKxx6ke34nZgwItWM_5u3HVrQvaGxMAkfpnROty_VM0T8UDzNz5fbybaprSqDfmCcpw9arF_hnA7a9CDeEEr86HQ1it72hDueZ2BfmgHQtfqWgI7OjO9DC9MYQ6Jf3501eCxhcGVYL_rLxd_quqkJSFJqPCqyTzpPjrEJawcX6J6OVu2hZgIEYBn-DGElm40]--></g></svg>