<svg xmlns="http://www.w3.org/2000/svg" xmlns:xlink="http://www.w3.org/1999/xlink" contentStyleType="text/css" height="769px" preserveAspectRatio="none" style="width:1827px;height:769px;background:#FFFFFF;" version="1.1" viewBox="0 0 1827 769" width="1827px" zoomAndPan="magnify"><defs/><g><!--cluster Class Member as Plugins--><g id="cluster_Class Member as Plugins"><path d="M8.5,6 L205.6709,6 A3.75,3.75 0 0 1 208.1709,8.5 L215.1709,28.2969 L411.5,28.2969 A2.5,2.5 0 0 1 414,30.7969 L414,420.13 A2.5,2.5 0 0 1 411.5,422.63 L8.5,422.63 A2.5,2.5 0 0 1 6,420.13 L6,8.5 A2.5,2.5 0 0 1 8.5,6 " fill="none" style="stroke:#000000;stroke-width:1.5;"/><line style="stroke:#000000;stroke-width:1.5;" x1="6" x2="215.1709" y1="28.2969" y2="28.2969"/><text fill="#000000" font-family="sans-serif" font-size="14" font-weight="bold" lengthAdjust="spacing" textLength="196.1709" x="10" y="20.9951">Class Member as Plugins</text></g><!--cluster Load as Plugin--><g id="cluster_Load as Plugin"><path d="M44.5,454.48 L160.8496,454.48 A3.75,3.75 0 0 1 163.3496,456.98 L170.3496,476.7769 L411.5,476.7769 A2.5,2.5 0 0 1 414,479.2769 L414,720.77 A2.5,2.5 0 0 1 411.5,723.27 L44.5,723.27 A2.5,2.5 0 0 1 42,720.77 L42,456.98 A2.5,2.5 0 0 1 44.5,454.48 " fill="none" style="stroke:#000000;stroke-width:1.5;"/><line style="stroke:#000000;stroke-width:1.5;" x1="42" x2="170.3496" y1="476.7769" y2="476.7769"/><text fill="#000000" font-family="sans-serif" font-size="14" font-weight="bold" lengthAdjust="spacing" textLength="115.3496" x="46" y="469.4751">Load as Plugin</text></g><!--cluster base--><g id="cluster_base"><rect fill="none" height="636.27" rx="2.5" ry="2.5" style="stroke:#181818;stroke-width:1.0;" width="678" x="446" y="127.59"/><rect fill="none" height="10" style="stroke:#181818;stroke-width:1.0;" width="15" x="1104" y="132.59"/><rect fill="none" height="2" style="stroke:#181818;stroke-width:1.0;" width="4" x="1102" y="134.59"/><rect fill="none" height="2" style="stroke:#181818;stroke-width:1.0;" width="4" x="1102" y="138.59"/><text fill="#000000" font-family="sans-serif" font-size="14" font-weight="bold" lengthAdjust="spacing" textLength="139.043" x="715.4785" y="153.5851">aerial_robot_base</text></g><!--cluster Instance--><g id="cluster_Instance"><path d="M488.5,186.59 L556.9092,186.59 A3.75,3.75 0 0 1 559.4092,189.09 L566.4092,208.8869 L727.5,208.8869 A2.5,2.5 0 0 1 730,211.3869 L730,720.62 A2.5,2.5 0 0 1 727.5,723.12 L488.5,723.12 A2.5,2.5 0 0 1 486,720.62 L486,189.09 A2.5,2.5 0 0 1 488.5,186.59 " fill="none" style="stroke:#000000;stroke-width:1.5;"/><line style="stroke:#000000;stroke-width:1.5;" x1="486" x2="566.4092" y1="208.8869" y2="208.8869"/><text fill="#000000" font-family="sans-serif" font-size="14" font-weight="bold" lengthAdjust="spacing" textLength="67.4092" x="490" y="201.5851">Instance</text></g><!--cluster Simulation (Gazebo)--><g id="cluster_Simulation (Gazebo)"><path d="M1579.5,454.63 L1741.1514,454.63 A3.75,3.75 0 0 1 1743.6514,457.13 L1750.6514,476.9269 L1817.5,476.9269 A2.5,2.5 0 0 1 1820,479.4269 L1820,720.62 A2.5,2.5 0 0 1 1817.5,723.12 L1579.5,723.12 A2.5,2.5 0 0 1 1577,720.62 L1577,457.13 A2.5,2.5 0 0 1 1579.5,454.63 " fill="none" style="stroke:#000000;stroke-width:1.5;"/><line style="stroke:#000000;stroke-width:1.5;" x1="1577" x2="1750.6514" y1="476.9269" y2="476.9269"/><text fill="#000000" font-family="sans-serif" font-size="14" font-weight="bold" lengthAdjust="spacing" textLength="160.6514" x="1581" y="469.6251">Simulation (Gazebo)</text></g><!--cluster Real Machine--><g id="cluster_Real Machine"><path d="M1158.5,317.19 L1264.8008,317.19 A3.75,3.75 0 0 1 1267.3008,319.69 L1274.3008,339.4869 L1542.5,339.4869 A2.5,2.5 0 0 1 1545,341.9869 L1545,557.43 A2.5,2.5 0 0 1 1542.5,559.93 L1158.5,559.93 A2.5,2.5 0 0 1 1156,557.43 L1156,319.69 A2.5,2.5 0 0 1 1158.5,317.19 " fill="none" style="stroke:#000000;stroke-width:1.5;"/><line style="stroke:#000000;stroke-width:1.5;" x1="1156" x2="1274.3008" y1="339.4869" y2="339.4869"/><text fill="#000000" font-family="sans-serif" font-size="14" font-weight="bold" lengthAdjust="spacing" textLength="105.3008" x="1160" y="332.1851">Real Machine</text></g><!--entity model_plugin--><g id="elem_model_plugin"><rect fill="#F1F1F1" height="62.5938" rx="2.5" ry="2.5" style="stroke:#181818;stroke-width:0.5;" width="343.0986" x="46.45" y="41"/><rect fill="#F1F1F1" height="10" style="stroke:#181818;stroke-width:0.5;" width="15" x="369.5486" y="46"/><rect fill="#F1F1F1" height="2" style="stroke:#181818;stroke-width:0.5;" width="4" x="367.5486" y="48"/><rect fill="#F1F1F1" height="2" style="stroke:#181818;stroke-width:0.5;" width="4" x="367.5486" y="52"/><text fill="#000000" font-family="sans-serif" font-size="14" lengthAdjust="spacing" textLength="303.0986" x="61.45" y="73.9951">robot_model_loader_("aerial_robot_model",</text><text fill="#000000" font-family="sans-serif" font-size="14" lengthAdjust="spacing" textLength="245.2051" x="65.9002" y="90.292">"aerial_robot_model::RobotModel")</text></g><!--entity sensor_plugin--><g id="elem_sensor_plugin"><rect fill="#F1F1F1" height="62.5938" rx="2.5" ry="2.5" style="stroke:#181818;stroke-width:0.5;" width="375.6719" x="22.16" y="221.45"/><rect fill="#F1F1F1" height="10" style="stroke:#181818;stroke-width:0.5;" width="15" x="377.8319" y="226.45"/><rect fill="#F1F1F1" height="2" style="stroke:#181818;stroke-width:0.5;" width="4" x="375.8319" y="228.45"/><rect fill="#F1F1F1" height="2" style="stroke:#181818;stroke-width:0.5;" width="4" x="375.8319" y="232.45"/><text fill="#000000" font-family="sans-serif" font-size="14" lengthAdjust="spacing" textLength="335.6719" x="37.16" y="254.4451">pluginlib::ClassLoader(aerial_robot_estimation",</text><text fill="#000000" font-family="sans-serif" font-size="14" lengthAdjust="spacing" textLength="206.5479" x="41.6102" y="270.742">"sensor_plugin::SensorBase")</text></g><!--entity kf_plugin--><g id="elem_kf_plugin"><rect fill="#F1F1F1" height="62.5938" rx="2.5" ry="2.5" style="stroke:#181818;stroke-width:0.5;" width="308.4541" x="73.77" y="344.04"/><rect fill="#F1F1F1" height="10" style="stroke:#181818;stroke-width:0.5;" width="15" x="362.2241" y="349.04"/><rect fill="#F1F1F1" height="2" style="stroke:#181818;stroke-width:0.5;" width="4" x="360.2241" y="351.04"/><rect fill="#F1F1F1" height="2" style="stroke:#181818;stroke-width:0.5;" width="4" x="360.2241" y="355.04"/><text fill="#000000" font-family="sans-serif" font-size="14" lengthAdjust="spacing" textLength="268.4541" x="88.77" y="377.0351">pluginlib::ClassLoader("kalman_filter",</text><text fill="#000000" font-family="sans-serif" font-size="14" lengthAdjust="spacing" textLength="185.001" x="93.2202" y="393.332">"kf_plugin::KalmanFilter"))</text></g><!--entity navigator_plugin--><g id="elem_navigator_plugin"><rect fill="#F1F1F1" height="62.5938" rx="2.5" ry="2.5" style="stroke:#181818;stroke-width:0.5;" width="339.2979" x="58.35" y="489.48"/><rect fill="#F1F1F1" height="10" style="stroke:#181818;stroke-width:0.5;" width="15" x="377.6479" y="494.48"/><rect fill="#F1F1F1" height="2" style="stroke:#181818;stroke-width:0.5;" width="4" x="375.6479" y="496.48"/><rect fill="#F1F1F1" height="2" style="stroke:#181818;stroke-width:0.5;" width="4" x="375.6479" y="500.48"/><text fill="#000000" font-family="sans-serif" font-size="14" lengthAdjust="spacing" textLength="287.3896" x="73.35" y="522.4751">navigator_loader_("aerial_robot_control",</text><text fill="#000000" font-family="sans-serif" font-size="14" lengthAdjust="spacing" textLength="294.8477" x="77.8002" y="538.772">"aerial_robot_navigation::BaseNavigator")</text></g><!--entity controller_plugin--><g id="elem_controller_plugin"><rect fill="#F1F1F1" height="62.5938" rx="2.5" ry="2.5" style="stroke:#181818;stroke-width:0.5;" width="327.5811" x="67.21" y="644.67"/><rect fill="#F1F1F1" height="10" style="stroke:#181818;stroke-width:0.5;" width="15" x="374.7911" y="649.67"/><rect fill="#F1F1F1" height="2" style="stroke:#181818;stroke-width:0.5;" width="4" x="372.7911" y="651.67"/><rect fill="#F1F1F1" height="2" style="stroke:#181818;stroke-width:0.5;" width="4" x="372.7911" y="655.67"/><text fill="#000000" font-family="sans-serif" font-size="14" lengthAdjust="spacing" textLength="287.5811" x="82.21" y="677.6651">controller_loader_("aerial_robot_control",</text><text fill="#000000" font-family="sans-serif" font-size="14" lengthAdjust="spacing" textLength="252.1846" x="86.6602" y="693.962">"aerial_robot_control::ControlBase")</text></g><!--entity ROS_Spinal--><g id="elem_ROS_Spinal"><rect fill="#F1F1F1" height="62.5938" rx="2.5" ry="2.5" style="stroke:#181818;stroke-width:0.5;" width="257.4238" x="754.29" y="344.04"/><rect fill="#F1F1F1" height="10" style="stroke:#181818;stroke-width:0.5;" width="15" x="991.7138" y="349.04"/><rect fill="#F1F1F1" height="2" style="stroke:#181818;stroke-width:0.5;" width="4" x="989.7138" y="351.04"/><rect fill="#F1F1F1" height="2" style="stroke:#181818;stroke-width:0.5;" width="4" x="989.7138" y="355.04"/><text fill="#000000" font-family="sans-serif" font-size="14" lengthAdjust="spacing" textLength="217.4238" x="769.29" y="377.0351">ROS spinal (ros::AsyncSpinner)</text><text fill="#000000" font-family="sans-serif" font-size="14" lengthAdjust="spacing" textLength="216.4668" x="769.29" y="393.332">4 multi-thread to call callbacks</text></g><!--entity TimerLoop--><g id="elem_TimerLoop"><rect fill="#F1F1F1" height="127.7813" rx="2.5" ry="2.5" style="stroke:#181818;stroke-width:0.5;" width="337.1719" x="754.41" y="612.08"/><rect fill="#F1F1F1" height="10" style="stroke:#181818;stroke-width:0.5;" width="15" x="1071.5819" y="617.08"/><rect fill="#F1F1F1" height="2" style="stroke:#181818;stroke-width:0.5;" width="4" x="1069.5819" y="619.08"/><rect fill="#F1F1F1" height="2" style="stroke:#181818;stroke-width:0.5;" width="4" x="1069.5819" y="623.08"/><ellipse cx="774.91" cy="640.8769" fill="#000000" rx="2.5" ry="2.5" style="stroke:#000000;stroke-width:0.0;"/><text fill="#000000" font-family="sans-serif" font-size="14" lengthAdjust="spacing" textLength="78.7158" x="781.41" y="645.0751">Timer Loop</text><text fill="#000000" font-family="sans-serif" font-size="14" lengthAdjust="spacing" textLength="297.1719" x="769.41" y="661.372">Void mainFunc(const ros::TimerEvent &amp; e)</text><text fill="#000000" font-family="sans-serif" font-size="14" lengthAdjust="spacing" textLength="8.9072" x="769.41" y="677.6689">{</text><text fill="#000000" font-family="sans-serif" font-size="14" lengthAdjust="spacing" textLength="155.6543" x="805.0116" y="693.9657">navigator_-&gt;update();</text><text fill="#000000" font-family="sans-serif" font-size="14" lengthAdjust="spacing" textLength="155.8457" x="805.0116" y="710.2626">controller_-&gt;update();</text><text fill="#000000" font-family="sans-serif" font-size="14" lengthAdjust="spacing" textLength="8.9072" x="773.8602" y="726.5595">}</text></g><!--entity robot_model_ros_--><g id="elem_robot_model_ros_"><rect fill="#F1F1F1" height="46.2969" rx="2.5" ry="2.5" style="stroke:#181818;stroke-width:0.5;" width="163.4707" x="516.26" y="229.59"/><rect fill="#F1F1F1" height="10" style="stroke:#181818;stroke-width:0.5;" width="15" x="659.7307" y="234.59"/><rect fill="#F1F1F1" height="2" style="stroke:#181818;stroke-width:0.5;" width="4" x="657.7307" y="236.59"/><rect fill="#F1F1F1" height="2" style="stroke:#181818;stroke-width:0.5;" width="4" x="657.7307" y="240.59"/><text fill="#000000" font-family="sans-serif" font-size="14" lengthAdjust="spacing" textLength="123.4707" x="531.26" y="262.5851">robot_model_ros_</text></g><!--entity estimator_--><g id="elem_estimator_"><rect fill="#F1F1F1" height="46.2969" rx="2.5" ry="2.5" style="stroke:#181818;stroke-width:0.5;" width="114.3135" x="509.84" y="352.19"/><rect fill="#F1F1F1" height="10" style="stroke:#181818;stroke-width:0.5;" width="15" x="604.1535" y="357.19"/><rect fill="#F1F1F1" height="2" style="stroke:#181818;stroke-width:0.5;" width="4" x="602.1535" y="359.19"/><rect fill="#F1F1F1" height="2" style="stroke:#181818;stroke-width:0.5;" width="4" x="602.1535" y="363.19"/><text fill="#000000" font-family="sans-serif" font-size="14" lengthAdjust="spacing" textLength="74.3135" x="524.84" y="385.1851">estimator_</text></g><!--entity navigator_--><g id="elem_navigator_"><rect fill="#F1F1F1" height="46.2969" rx="2.5" ry="2.5" style="stroke:#181818;stroke-width:0.5;" width="113.9033" x="584.05" y="497.63"/><rect fill="#F1F1F1" height="10" style="stroke:#181818;stroke-width:0.5;" width="15" x="677.9533" y="502.63"/><rect fill="#F1F1F1" height="2" style="stroke:#181818;stroke-width:0.5;" width="4" x="675.9533" y="504.63"/><rect fill="#F1F1F1" height="2" style="stroke:#181818;stroke-width:0.5;" width="4" x="675.9533" y="508.63"/><text fill="#000000" font-family="sans-serif" font-size="14" lengthAdjust="spacing" textLength="73.9033" x="599.05" y="530.6251">navigator_</text></g><!--entity controller_--><g id="elem_controller_"><rect fill="#F1F1F1" height="46.2969" rx="2.5" ry="2.5" style="stroke:#181818;stroke-width:0.5;" width="114.0947" x="509.95" y="652.82"/><rect fill="#F1F1F1" height="10" style="stroke:#181818;stroke-width:0.5;" width="15" x="604.0447" y="657.82"/><rect fill="#F1F1F1" height="2" style="stroke:#181818;stroke-width:0.5;" width="4" x="602.0447" y="659.82"/><rect fill="#F1F1F1" height="2" style="stroke:#181818;stroke-width:0.5;" width="4" x="602.0447" y="663.82"/><text fill="#000000" font-family="sans-serif" font-size="14" lengthAdjust="spacing" textLength="74.0947" x="524.95" y="685.8151">controller_</text></g><!--entity "Hardware interface"--><g id="elem_&quot;Hardware interface&quot;"><rect fill="#F1F1F1" height="46.2969" rx="2.5" ry="2.5" style="stroke:#181818;stroke-width:0.5;" width="175.0371" x="1601.48" y="497.63"/><rect fill="#F1F1F1" height="10" style="stroke:#181818;stroke-width:0.5;" width="15" x="1756.5171" y="502.63"/><rect fill="#F1F1F1" height="2" style="stroke:#181818;stroke-width:0.5;" width="4" x="1754.5171" y="504.63"/><rect fill="#F1F1F1" height="2" style="stroke:#181818;stroke-width:0.5;" width="4" x="1754.5171" y="508.63"/><text fill="#000000" font-family="sans-serif" font-size="14" lengthAdjust="spacing" textLength="135.0371" x="1616.48" y="530.6251">Hardware interface</text></g><!--entity "Controller interfaces"--><g id="elem_&quot;Controller interfaces&quot;"><rect fill="#F1F1F1" height="46.2969" rx="2.5" ry="2.5" style="stroke:#181818;stroke-width:0.5;" width="183.3564" x="1601.32" y="652.82"/><rect fill="#F1F1F1" height="10" style="stroke:#181818;stroke-width:0.5;" width="15" x="1764.6764" y="657.82"/><rect fill="#F1F1F1" height="2" style="stroke:#181818;stroke-width:0.5;" width="4" x="1762.6764" y="659.82"/><rect fill="#F1F1F1" height="2" style="stroke:#181818;stroke-width:0.5;" width="4" x="1762.6764" y="663.82"/><text fill="#000000" font-family="sans-serif" font-size="14" lengthAdjust="spacing" textLength="143.3564" x="1616.32" y="685.8151">Controller interfaces</text></g><!--entity spinal_ros_bridge--><g id="elem_spinal_ros_bridge"><rect fill="#F1F1F1" height="46.2969" rx="2.5" ry="2.5" style="stroke:#181818;stroke-width:0.5;" width="161.9463" x="1172.03" y="352.19"/><rect fill="#F1F1F1" height="10" style="stroke:#181818;stroke-width:0.5;" width="15" x="1313.9763" y="357.19"/><rect fill="#F1F1F1" height="2" style="stroke:#181818;stroke-width:0.5;" width="4" x="1311.9763" y="359.19"/><rect fill="#F1F1F1" height="2" style="stroke:#181818;stroke-width:0.5;" width="4" x="1311.9763" y="363.19"/><text fill="#000000" font-family="sans-serif" font-size="14" lengthAdjust="spacing" textLength="121.9463" x="1187.03" y="385.1851">spinal_ros_bridge</text></g><!--entity sensor interfaces--><g id="elem_sensor interfaces"><rect fill="#F1F1F1" height="46.2969" rx="2.5" ry="2.5" style="stroke:#181818;stroke-width:0.5;" width="160.5791" x="1368.71" y="352.19"/><rect fill="#F1F1F1" height="10" style="stroke:#181818;stroke-width:0.5;" width="15" x="1509.2891" y="357.19"/><rect fill="#F1F1F1" height="2" style="stroke:#181818;stroke-width:0.5;" width="4" x="1507.2891" y="359.19"/><rect fill="#F1F1F1" height="2" style="stroke:#181818;stroke-width:0.5;" width="4" x="1507.2891" y="363.19"/><text fill="#000000" font-family="sans-serif" font-size="14" lengthAdjust="spacing" textLength="120.5791" x="1383.71" y="385.1851">sensor interfaces</text></g><!--entity spinal--><g id="elem_spinal"><rect fill="#F1F1F1" height="46.2969" rx="2.5" ry="2.5" style="stroke:#181818;stroke-width:0.5;" width="81.4121" x="1212.29" y="497.63"/><rect fill="#F1F1F1" height="10" style="stroke:#181818;stroke-width:0.5;" width="15" x="1273.7021" y="502.63"/><rect fill="#F1F1F1" height="2" style="stroke:#181818;stroke-width:0.5;" width="4" x="1271.7021" y="504.63"/><rect fill="#F1F1F1" height="2" style="stroke:#181818;stroke-width:0.5;" width="4" x="1271.7021" y="508.63"/><text fill="#000000" font-family="sans-serif" font-size="14" lengthAdjust="spacing" textLength="41.4121" x="1227.29" y="530.6251">spinal</text></g><!--entity servo_bridge--><g id="elem_servo_bridge"><rect fill="#F1F1F1" height="46.2969" rx="2.5" ry="2.5" style="stroke:#181818;stroke-width:0.5;" width="130.4326" x="1564.78" y="352.19"/><rect fill="#F1F1F1" height="10" style="stroke:#181818;stroke-width:0.5;" width="15" x="1675.2126" y="357.19"/><rect fill="#F1F1F1" height="2" style="stroke:#181818;stroke-width:0.5;" width="4" x="1673.2126" y="359.19"/><rect fill="#F1F1F1" height="2" style="stroke:#181818;stroke-width:0.5;" width="4" x="1673.2126" y="363.19"/><text fill="#000000" font-family="sans-serif" font-size="14" lengthAdjust="spacing" textLength="90.4326" x="1579.78" y="385.1851">servo_bridge</text></g><!--link model_plugin to sensor_plugin--><!--link sensor_plugin to kf_plugin--><!--link navigator_plugin to controller_plugin--><!--link "Hardware interface" to "Controller interfaces"--><!--link model_plugin to robot_model_ros_--><g id="link_model_plugin_robot_model_ros_"><path d="M389.95,102.07 C398.19,104.95 406.25,108.12 414,111.59 C479.57,141.03 539.1042,193.6415 571.5642,225.1415 " fill="none" id="model_plugin-to-robot_model_ros_" style="stroke:#181818;stroke-width:1.0;"/><polygon fill="#181818" points="575.87,229.32,572.1969,220.1817,572.2818,225.8379,566.6256,225.9228,575.87,229.32" style="stroke:#181818;stroke-width:1.0;"/></g><!--link sensor_plugin to estimator_--><g id="link_sensor_plugin_estimator_"><path d="M333.81,284.47 C360.47,291.9 388.34,300.29 414,309.19 C449.73,321.59 483.4895,335.8856 513.2795,349.3056 " fill="none" id="sensor_plugin-to-estimator_" style="stroke:#181818;stroke-width:1.0;"/><polygon fill="#181818" points="518.75,351.77,512.1871,344.4264,514.1912,349.7163,508.9013,351.7204,518.75,351.77" style="stroke:#181818;stroke-width:1.0;"/></g><!--link kf_plugin to estimator_--><g id="link_kf_plugin_estimator_"><path d="M382.6,375.34 C424.86,375.34 461.12,375.34 503.38,375.34 " fill="none" id="kf_plugin-to-estimator_" style="stroke:#181818;stroke-width:1.0;"/><polygon fill="#181818" points="509.38,375.34,500.38,371.34,504.38,375.34,500.38,379.34,509.38,375.34" style="stroke:#181818;stroke-width:1.0;"/></g><!--link navigator_plugin to navigator_--><g id="link_navigator_plugin_navigator_"><path d="M397.8,520.78 C459.87,520.78 515.93,520.78 578,520.78 " fill="none" id="navigator_plugin-to-navigator_" style="stroke:#181818;stroke-width:1.0;"/><polygon fill="#181818" points="584,520.78,575,516.78,579,520.78,575,524.78,584,520.78" style="stroke:#181818;stroke-width:1.0;"/></g><!--link controller_plugin to controller_--><g id="link_controller_plugin_controller_"><path d="M395.06,675.97 C433.23,675.97 465.4,675.97 503.58,675.97 " fill="none" id="controller_plugin-to-controller_" style="stroke:#181818;stroke-width:1.0;"/><polygon fill="#181818" points="509.58,675.97,500.58,671.97,504.58,675.97,500.58,679.97,509.58,675.97" style="stroke:#181818;stroke-width:1.0;"/></g><!--link robot_model_ros_ to estimator_--><g id="link_robot_model_ros__estimator_"><path d="M592.24,276.14 C586.67,297.8 579.7844,324.6291 574.2244,346.2491 " fill="none" id="robot_model_ros_-to-estimator_" style="stroke:#181818;stroke-width:1.0;"/><polygon fill="#181818" points="572.73,352.06,578.8455,344.3399,573.9753,347.2176,571.0976,342.3474,572.73,352.06" style="stroke:#181818;stroke-width:1.0;"/></g><!--link robot_model_ros_ to navigator_--><g id="link_robot_model_ros__navigator_"><path d="M639.57,276.38 C651.27,284.99 662.55,295.98 669,309.19 C699.65,372 672.0052,451.732 654.3152,491.762 " fill="none" id="robot_model_ros_-to-navigator_" style="stroke:#181818;stroke-width:1.0;"/><polygon fill="#181818" points="651.89,497.25,659.1865,490.6348,653.911,492.6767,651.8692,487.4012,651.89,497.25" style="stroke:#181818;stroke-width:1.0;"/></g><!--link robot_model_ros_ to controller_--><g id="link_robot_model_ros__controller_"><path d="M621.43,276.14 C629.59,285.49 637.75,297 642,309.19 C659.77,360.16 678.09,390.49 642,430.63 C630.79,443.1 578.21,426.17 567,438.63 C539.23,469.53 554.4969,593.4868 562.4669,646.4368 " fill="none" id="robot_model_ros_-to-controller_" style="stroke:#181818;stroke-width:1.0;"/><polygon fill="#181818" points="563.36,652.37,565.9759,642.8749,562.6158,647.4257,558.065,644.0656,563.36,652.37" style="stroke:#181818;stroke-width:1.0;"/></g><!--link estimator_ to navigator_--><g id="link_estimator__navigator_"><path d="M578.56,398.75 C592.46,425.7 612.8987,465.318 626.7687,492.198 " fill="none" id="estimator_-to-navigator_" style="stroke:#181818;stroke-width:1.0;"/><polygon fill="#181818" points="629.52,497.53,628.9477,487.6978,627.2272,493.0867,621.8384,491.3662,629.52,497.53" style="stroke:#181818;stroke-width:1.0;"/></g><!--link estimator_ to controller_--><g id="link_estimator__controller_"><path d="M554.07,398.91 C548.22,410.41 541.96,424.84 539,438.63 C526.95,494.82 531.67,510.93 539,567.93 C542.82,597.65 550.5443,625.1877 557.4343,646.6277 " fill="none" id="estimator_-to-controller_" style="stroke:#181818;stroke-width:1.0;"/><polygon fill="#181818" points="559.27,652.34,560.3246,642.5478,557.7402,647.5798,552.7082,644.9954,559.27,652.34" style="stroke:#181818;stroke-width:1.0;"/></g><!--link navigator_ to controller_--><g id="link_navigator__controller_"><path d="M630.08,544.39 C616.01,573.51 594.3106,618.4377 580.3306,647.3677 " fill="none" id="navigator_-to-controller_" style="stroke:#181818;stroke-width:1.0;"/><polygon fill="#181818" points="577.72,652.77,585.2374,646.4069,579.8955,648.2681,578.0343,642.9262,577.72,652.77" style="stroke:#181818;stroke-width:1.0;"/></g><!--link navigator_ to TimerLoop--><g id="link_navigator__TimerLoop"><path d="M682.61,544.39 C715.32,562.15 757.278,584.9455 801.228,608.8255 " fill="none" id="navigator_-to-TimerLoop" style="stroke:#181818;stroke-width:1.0;"/><polygon fill="#181818" points="806.5,611.69,800.5016,603.8785,802.1066,609.3029,796.6822,610.9079,806.5,611.69" style="stroke:#181818;stroke-width:1.0;"/></g><!--link controller_ to TimerLoop--><g id="link_controller__TimerLoop"><path d="M624.36,675.97 C667.62,675.97 704.88,675.97 748.14,675.97 " fill="none" id="controller_-to-TimerLoop" style="stroke:#181818;stroke-width:1.0;"/><polygon fill="#181818" points="754.14,675.97,745.14,671.97,749.14,675.97,745.14,679.97,754.14,675.97" style="stroke:#181818;stroke-width:1.0;"/></g><!--link Instance to ROS_Spinal--><g id="link_Instance_ROS_Spinal"><path d="M730.062,289.7488 C730.1361,289.847 730.2103,289.9452 730.2847,290.0432 C730.5822,290.4354 730.882,290.826 731.1841,291.215 C731.7883,291.993 732.4015,292.7646 733.0235,293.5299 C735.5113,296.591 738.1389,299.5507 740.8853,302.4114 C746.3781,308.1328 752.3462,313.4581 758.6225,318.4063 C771.175,328.3025 779.6234,333.9476 793.3034,340.9776 " fill="none" id="Instance-to-ROS_Spinal" style="stroke:#181818;stroke-width:1.0;"/><polygon fill="#181818" points="798.64,343.72,792.4634,336.0487,794.1928,341.4347,788.8068,343.1641,798.64,343.72" style="stroke:#181818;stroke-width:1.0;"/></g><!--link base to servo_bridge--><g id="link_base_servo_bridge"><path d="M1130.3514,254.5929 C1132.2918,254.71 1129.917,254.5706 1132.3791,254.7237 C1142.2275,255.336 1156.1084,256.2355 1172.8936,257.4203 C1206.4641,259.79 1251.6519,263.3013 1299.4313,267.94 C1394.99,277.2175 1500.915,291.005 1545,309.19 C1568.72,318.97 1587.145,333.0879 1603.165,347.7579 " fill="none" id="base-servo_bridge" style="stroke:#181818;stroke-width:1.0;"/><polygon fill="#181818" points="1124.3621,254.2339,1133.1067,258.7652,1129.3532,254.533,1133.5854,250.7796,1124.3621,254.2339" style="stroke:#181818;stroke-width:1.0;"/><polygon fill="#181818" points="1607.59,351.81,1603.6539,342.7819,1603.9025,348.4333,1598.2511,348.6818,1607.59,351.81" style="stroke:#181818;stroke-width:1.0;"/></g><!--link base to spinal_ros_bridge--><g id="link_base_spinal_ros_bridge"><path d="M1128.6477,264.8737 C1130.1779,266.2206 1127.3927,263.7691 1129.2761,265.4269 C1136.8097,272.0581 1146.9794,281.01 1158.2688,290.9475 C1180.8475,310.8225 1203.4011,330.6758 1222.8061,347.7558 " fill="none" id="base-spinal_ros_bridge" style="stroke:#181818;stroke-width:1.0;"/><polygon fill="#181818" points="1124.1439,260.9094,1128.2568,269.8584,1127.8971,264.213,1133.5425,263.8533,1124.1439,260.9094" style="stroke:#181818;stroke-width:1.0;"/><polygon fill="#181818" points="1227.31,351.72,1223.197,342.7711,1223.5568,348.4165,1217.9114,348.7762,1227.31,351.72" style="stroke:#181818;stroke-width:1.0;"/></g><!--link servo_bridge to spinal_ros_bridge--><g id="link_servo_bridge_spinal_ros_bridge"><path d="M1604.4607,347.4541 C1585.3907,328.2641 1559.75,307 1527.5,296.61 C1493.87,285.78 1402.26,286.2 1368.5,296.61 C1333.48,307.41 1304.1168,328.922 1282.2068,347.982 " fill="none" id="servo_bridge-spinal_ros_bridge" style="stroke:#181818;stroke-width:1.0;"/><polygon fill="#181818" points="1608.69,351.71,1605.1833,342.5066,1605.1656,348.1634,1599.5087,348.1457,1608.69,351.71" style="stroke:#181818;stroke-width:1.0;"/><polygon fill="#181818" points="1277.68,351.92,1287.0956,349.0309,1281.4524,348.6383,1281.8449,342.9951,1277.68,351.92" style="stroke:#181818;stroke-width:1.0;"/></g><!--link servo_bridge to Simulation (Gazebo)--><g id="link_servo_bridge_Simulation (Gazebo)"><path d="M1701.4933,384.9064 C1738.0833,392.5464 1775.43,406.89 1801,438.63 C1803.765,442.0625 1806.0217,445.8538 1807.8527,449.8665 C1808.3104,450.8697 1808.7416,451.8868 1809.1474,452.9155 C1809.3503,453.4299 1807.4836,470.6099 1807.674,471.1299 " fill="none" id="servo_bridge-Simulation (Gazebo)" style="stroke:#181818;stroke-width:1.0;"/><polygon fill="#181818" points="1695.62,383.68,1703.6124,389.4351,1700.5144,384.702,1705.2476,381.604,1695.62,383.68" style="stroke:#181818;stroke-width:1.0;"/><polygon fill="#181818" points="1809.7373,476.764,1810.3985,466.9373,1808.0179,472.0689,1802.8864,469.6883,1809.7373,476.764" style="stroke:#181818;stroke-width:1.0;"/></g><!--link spinal_ros_bridge to spinal--><g id="link_spinal_ros_bridge_spinal"><path d="M1253,404.75 C1253,431.7 1253,464.65 1253,491.53 " fill="none" id="spinal_ros_bridge-spinal" style="stroke:#181818;stroke-width:1.0;"/><polygon fill="#181818" points="1253,398.75,1249,407.75,1253,403.75,1257,407.75,1253,398.75" style="stroke:#181818;stroke-width:1.0;"/><polygon fill="#181818" points="1253,497.53,1257,488.53,1253,492.53,1249,488.53,1253,497.53" style="stroke:#181818;stroke-width:1.0;"/></g><!--link sensor interfaces to base--><g id="link_sensor interfaces_base"><path d="M1420.97,351.79 C1402.17,337.68 1376.3,320.16 1351,309.19 C1302.545,288.175 1244.86,274.415 1198.7688,265.8588 C1175.7231,261.5806 1155.5759,258.6034 1140.9302,256.6708 C1137.2687,256.1876 1133.9511,255.7697 1131.018,255.4131 C1129.5515,255.2348 1128.181,255.0718 1126.9118,254.9237 C1126.2772,254.8496 1125.6679,254.7792 1125.0846,254.7125 C1124.7929,254.6791 1130.4696,255.3218 1130.1909,255.2903 " fill="none" id="sensor interfaces-to-base" style="stroke:#181818;stroke-width:1.0;"/><polygon fill="#181818" points="1124.229,254.6151,1132.7218,259.6025,1129.1973,255.1778,1133.622,251.6533,1124.229,254.6151" style="stroke:#181818;stroke-width:1.0;"/></g><!--link kf_plugin to navigator_plugin--><!--SRC=[bLHHRzCm47xthx3om5f4s0jF0LM2YG5Y0zGYNjOgkYItrffZHxOx16Z_7TlnOYSD22grIkuxVz_vxhkU7OpfT75-td4GvjZovxLip-stamA5oHi6UmKj8QI3-WxsIBCB3bhJQsmhL1Gq_SAFUoPqHdyHIc-KhAGfMzaWBxc41bMvo00L0rucMFPiA-XCl2ZMxkNQvontZh_dwhoAK-YVEAkAmfTovLKM8oxKXhLWc1Iza4QXfGeaHR7nhsz0Oz0OuNyHoUw0jo3AMyODgfxxxdRW_UZHonvSzjG3R6dJgz3yvi2Q1iKkNvteZzv7cP7k8Pc9Ao_E8en2m3tRWx4yyuEefJ1ApeqYdBJjAmhNfK-FJA5TaJbsBB1n_7-vWDXMzm_9O1BMGMggFkhFwG7Rfy7F4-7A2JaPzz0tRVrvGtN7172wK58NnMlzGzGR6n6ebblnWhP7RbXk3WfjpusaDN3kVoex3UshjYJbnfCuogTVMMjNvKhARik_ITRG5fYuF8fwOQlLXdeTd_JstXNvXE9ootzjEGsVUEDyTUmQCBXOlenmSkSn_k2hySnEtHRpw9WFLXT4tLzwihQsd7BNXyCUMU4GY9M4GABj8W-ktJSQrRqiAyMQFUuIcswORPxt5LsyWvzOoMNmQlOULFCT558cxFBSGetPpWCNWq24TC3c3etSyEVZwVQiqKxx6ke34nZgwItWM_5u3HVrQvaGxMAkfpnROty_VM0T8UDzNz5fbybaprSqDfmCcpw9arF_hnA7a9CDeEEr86HQ1it72hDueZ2BfmgHQtfqWgI7OjO9DC9MYQ6Jf3501eCxhcGVYL_rLxd_quqkJSFJqPCqyTzpPjrEJawcX6J6OVu2hZgIEYBn-DGElm40]--></g></svg>