<svg xmlns="http://www.w3.org/2000/svg" xmlns:xlink="http://www.w3.org/1999/xlink" contentStyleType="text/css" height="417px" preserveAspectRatio="none" style="width:894px;height:417px;background:#FFFFFF;" version="1.1" viewBox="0 0 894 417" width="894px" zoomAndPan="magnify"><defs/><g><rect fill="#F0E68C" height="405.0547" style="stroke:#181818;stroke-width:0.5;" width="138.333" x="11" y="6"/><text fill="#000000" font-family="sans-serif" font-size="13" font-weight="bold" lengthAdjust="spacing" textLength="50.813" x="52.4971" y="18.0669">Laptop</text><rect fill="#90EE90" height="405.0547" style="stroke:#181818;stroke-width:0.5;" width="413.5806" x="161.333" y="6"/><text fill="#000000" font-family="sans-serif" font-size="13" font-weight="bold" lengthAdjust="spacing" textLength="86.6265" x="324.8101" y="18.0669">Onboard PC</text><text fill="#000000" font-family="sans-serif" font-size="13" font-weight="bold" lengthAdjust="spacing" textLength="83.1035" x="324.8101" y="33.1997">(Jetson NX)</text><rect fill="#F0F8FF" height="405.0547" style="stroke:#181818;stroke-width:0.5;" width="301.2119" x="586.9136" y="6"/><text fill="#000000" font-family="sans-serif" font-size="13" font-weight="bold" lengthAdjust="spacing" textLength="121.2847" x="674.6143" y="18.0669">Gazebo (Laptop)</text><rect fill="#ADD8E6" height="384.9219" style="stroke:#181818;stroke-width:0.5;" width="188.6807" x="586.9136" y="26.1328"/><text fill="#000000" font-family="sans-serif" font-size="13" font-weight="bold" lengthAdjust="spacing" textLength="33.0332" x="661.0874" y="38.1997">MCU</text><text fill="#000000" font-family="sans-serif" font-size="13" font-weight="bold" lengthAdjust="spacing" textLength="85.5918" x="638.458" y="53.3325">(STM32 H7)</text><rect fill="#D3D3D3" height="384.9219" style="stroke:#181818;stroke-width:0.5;" width="100.5313" x="787.5942" y="26.1328"/><text fill="#000000" font-family="sans-serif" font-size="13" font-weight="bold" lengthAdjust="spacing" textLength="36.6196" x="815.0242" y="38.1997">Body</text><line style="stroke:#181818;stroke-width:0.5;stroke-dasharray:5.0,5.0;" x1="37.2715" x2="37.2715" y1="91.6953" y2="373.7578"/><line style="stroke:#181818;stroke-width:0.5;stroke-dasharray:5.0,5.0;" x1="107.438" x2="107.438" y1="91.6953" y2="373.7578"/><line style="stroke:#181818;stroke-width:0.5;stroke-dasharray:5.0,5.0;" x1="186.0015" x2="186.0015" y1="91.6953" y2="373.7578"/><line style="stroke:#181818;stroke-width:0.5;stroke-dasharray:5.0,5.0;" x1="342.605" x2="342.605" y1="91.6953" y2="373.7578"/><line style="stroke:#181818;stroke-width:0.5;stroke-dasharray:5.0,5.0;" x1="530.1406" x2="530.1406" y1="91.6953" y2="373.7578"/><line style="stroke:#181818;stroke-width:0.5;stroke-dasharray:5.0,5.0;" x1="681.2539" x2="681.2539" y1="91.6953" y2="373.7578"/><line style="stroke:#181818;stroke-width:0.5;stroke-dasharray:5.0,5.0;" x1="837.8599" x2="837.8599" y1="91.6953" y2="373.7578"/><rect fill="#E2E2F0" height="30.2969" rx="2.5" ry="2.5" style="stroke:#181818;stroke-width:0.5;" width="44.543" x="15" y="60.3984"/><text fill="#000000" font-family="sans-serif" font-size="14" lengthAdjust="spacing" textLength="30.543" x="22" y="80.3936">RViz</text><rect fill="#E2E2F0" height="30.2969" rx="2.5" ry="2.5" style="stroke:#181818;stroke-width:0.5;" width="75.79" x="69.543" y="60.3984"/><text fill="#000000" font-family="sans-serif" font-size="14" lengthAdjust="spacing" textLength="61.79" x="76.543" y="80.3936">Terminal</text><rect fill="#E2E2F0" height="30.2969" rx="2.5" ry="2.5" style="stroke:#181818;stroke-width:0.5;" width="41.3369" x="165.333" y="60.3984"/><text fill="#000000" font-family="sans-serif" font-size="14" lengthAdjust="spacing" textLength="27.3369" x="172.333" y="80.3936">Nav</text><rect fill="#E2E2F0" height="30.2969" rx="2.5" ry="2.5" style="stroke:#181818;stroke-width:0.5;" width="64.9141" x="310.1479" y="60.3984"/><text fill="#000000" font-family="sans-serif" font-size="14" lengthAdjust="spacing" textLength="50.9141" x="317.1479" y="80.3936">Control</text><rect fill="#E2E2F0" height="30.2969" rx="2.5" ry="2.5" style="stroke:#181818;stroke-width:0.5;" width="81.5459" x="489.3677" y="60.3984"/><text fill="#000000" font-family="sans-serif" font-size="14" lengthAdjust="spacing" textLength="67.5459" x="496.3677" y="80.3936">Estimator</text><rect fill="#E2E2F0" height="30.2969" rx="2.5" ry="2.5" style="stroke:#181818;stroke-width:0.5;" width="180.6807" x="590.9136" y="60.3984"/><text fill="#000000" font-family="sans-serif" font-size="14" lengthAdjust="spacing" textLength="166.6807" x="597.9136" y="80.3936">Spinal/Control_Spawner</text><rect fill="#E2E2F0" height="30.2969" rx="2.5" ry="2.5" style="stroke:#181818;stroke-width:0.5;" width="92.5313" x="791.5942" y="60.3984"/><text fill="#000000" font-family="sans-serif" font-size="14" lengthAdjust="spacing" textLength="78.5313" x="798.5942" y="80.3936">ESC&amp;Servo</text><rect fill="#E2E2F0" height="30.2969" rx="2.5" ry="2.5" style="stroke:#181818;stroke-width:0.5;" width="44.543" x="15" y="373.7578"/><text fill="#000000" font-family="sans-serif" font-size="14" lengthAdjust="spacing" textLength="30.543" x="22" y="393.7529">RViz</text><rect fill="#E2E2F0" height="30.2969" rx="2.5" ry="2.5" style="stroke:#181818;stroke-width:0.5;" width="75.79" x="69.543" y="373.7578"/><text fill="#000000" font-family="sans-serif" font-size="14" lengthAdjust="spacing" textLength="61.79" x="76.543" y="393.7529">Terminal</text><rect fill="#E2E2F0" height="30.2969" rx="2.5" ry="2.5" style="stroke:#181818;stroke-width:0.5;" width="41.3369" x="165.333" y="373.7578"/><text fill="#000000" font-family="sans-serif" font-size="14" lengthAdjust="spacing" textLength="27.3369" x="172.333" y="393.7529">Nav</text><rect fill="#E2E2F0" height="30.2969" rx="2.5" ry="2.5" style="stroke:#181818;stroke-width:0.5;" width="64.9141" x="310.1479" y="373.7578"/><text fill="#000000" font-family="sans-serif" font-size="14" lengthAdjust="spacing" textLength="50.9141" x="317.1479" y="393.7529">Control</text><rect fill="#E2E2F0" height="30.2969" rx="2.5" ry="2.5" style="stroke:#181818;stroke-width:0.5;" width="81.5459" x="489.3677" y="373.7578"/><text fill="#000000" font-family="sans-serif" font-size="14" lengthAdjust="spacing" textLength="67.5459" x="496.3677" y="393.7529">Estimator</text><rect fill="#E2E2F0" height="30.2969" rx="2.5" ry="2.5" style="stroke:#181818;stroke-width:0.5;" width="180.6807" x="590.9136" y="373.7578"/><text fill="#000000" font-family="sans-serif" font-size="14" lengthAdjust="spacing" textLength="166.6807" x="597.9136" y="393.7529">Spinal/Control_Spawner</text><rect fill="#E2E2F0" height="30.2969" rx="2.5" ry="2.5" style="stroke:#181818;stroke-width:0.5;" width="92.5313" x="791.5942" y="373.7578"/><text fill="#000000" font-family="sans-serif" font-size="14" lengthAdjust="spacing" textLength="78.5313" x="798.5942" y="393.7529">ESC&amp;Servo</text><line style="stroke:#181818;stroke-width:1.0;" x1="530.1406" x2="572.1406" y1="120.8281" y2="120.8281"/><line style="stroke:#181818;stroke-width:1.0;" x1="572.1406" x2="572.1406" y1="120.8281" y2="133.8281"/><line style="stroke:#181818;stroke-width:1.0;" x1="530.1406" x2="572.1406" y1="133.8281" y2="133.8281"/><line style="stroke:#181818;stroke-width:1.0;" x1="531.1406" x2="541.1406" y1="133.8281" y2="129.8281"/><line style="stroke:#181818;stroke-width:1.0;" x1="531.1406" x2="541.1406" y1="133.8281" y2="137.8281"/><text fill="#000000" font-family="sans-serif" font-size="13" font-weight="bold" lengthAdjust="spacing" textLength="9.0454" x="537.1406" y="115.7622">1</text><text fill="#000000" font-family="sans-serif" font-size="13" lengthAdjust="spacing" textLength="41.4121" x="550.186" y="115.7622">100Hz</text><path d="M326.605,145.8281 L403.229,145.8281 L403.229,152.9609 L393.229,162.9609 L326.605,162.9609 L326.605,145.8281 " fill="#EEEEEE" style="stroke:#000000;stroke-width:1.5;"/><rect fill="none" height="56.2656" style="stroke:#000000;stroke-width:1.5;" width="219.5356" x="326.605" y="145.8281"/><text fill="#000000" font-family="sans-serif" font-size="13" font-weight="bold" lengthAdjust="spacing" textLength="31.624" x="341.605" y="158.895">loop</text><text fill="#000000" font-family="sans-serif" font-size="11" font-weight="bold" lengthAdjust="spacing" textLength="40.9707" x="418.229" y="158.0386">[40Hz]</text><line style="stroke:#181818;stroke-width:1.0;" x1="343.605" x2="353.605" y1="194.0938" y2="190.0938"/><line style="stroke:#181818;stroke-width:1.0;" x1="343.605" x2="353.605" y1="194.0938" y2="198.0938"/><line style="stroke:#181818;stroke-width:1.0;" x1="342.605" x2="529.1406" y1="194.0938" y2="194.0938"/><text fill="#000000" font-family="sans-serif" font-size="13" font-weight="bold" lengthAdjust="spacing" textLength="9.0454" x="359.605" y="189.0278">2</text><text fill="#000000" font-family="sans-serif" font-size="13" lengthAdjust="spacing" textLength="150.4902" x="372.6504" y="189.0278">estimator_-&gt;getState()</text><line style="stroke:#181818;stroke-width:1.0;" x1="340.605" x2="330.605" y1="237.2266" y2="233.2266"/><line style="stroke:#181818;stroke-width:1.0;" x1="340.605" x2="330.605" y1="237.2266" y2="241.2266"/><line style="stroke:#181818;stroke-width:1.0;" x1="186.0015" x2="341.605" y1="237.2266" y2="237.2266"/><text fill="#000000" font-family="sans-serif" font-size="13" font-weight="bold" lengthAdjust="spacing" textLength="9.0454" x="193.0015" y="232.1606">3</text><text fill="#000000" font-family="sans-serif" font-size="13" lengthAdjust="spacing" textLength="119.5581" x="206.0469" y="232.1606">target_pos/vel/acc</text><path d="M326.605,249.2266 L403.229,249.2266 L403.229,256.3594 L393.229,266.3594 L326.605,266.3594 L326.605,249.2266 " fill="#EEEEEE" style="stroke:#000000;stroke-width:1.5;"/><rect fill="none" height="71.3984" style="stroke:#000000;stroke-width:1.5;" width="370.6489" x="326.605" y="249.2266"/><text fill="#000000" font-family="sans-serif" font-size="13" font-weight="bold" lengthAdjust="spacing" textLength="31.624" x="341.605" y="262.2935">loop</text><text fill="#000000" font-family="sans-serif" font-size="11" font-weight="bold" lengthAdjust="spacing" textLength="40.9707" x="418.229" y="261.437">[10Hz]</text><polygon fill="#181818" points="669.2539,308.625,679.2539,312.625,669.2539,316.625,673.2539,312.625" style="stroke:#181818;stroke-width:1.0;"/><line style="stroke:#181818;stroke-width:1.0;" x1="342.605" x2="675.2539" y1="312.625" y2="312.625"/><text fill="#000000" font-family="sans-serif" font-size="13" font-weight="bold" lengthAdjust="spacing" textLength="9.0454" x="349.605" y="299.9927">4</text><text fill="#000000" font-family="sans-serif" font-size="13" lengthAdjust="spacing" textLength="72.2427" x="362.6504" y="292.4263">qd/attitude</text><text fill="#000000" font-family="sans-serif" font-size="13" lengthAdjust="spacing" textLength="217.5278" x="362.6504" y="307.5591">geometry_msgs/Vector3Stamped</text><polygon fill="#181818" points="825.8599,351.7578,835.8599,355.7578,825.8599,359.7578,829.8599,355.7578" style="stroke:#181818;stroke-width:1.0;"/><line style="stroke:#181818;stroke-width:1.0;" x1="681.2539" x2="831.8599" y1="355.7578" y2="355.7578"/><text fill="#000000" font-family="sans-serif" font-size="13" font-weight="bold" lengthAdjust="spacing" textLength="9.0454" x="688.2539" y="350.6919">5</text><text fill="#000000" font-family="sans-serif" font-size="13" lengthAdjust="spacing" textLength="31.9097" x="701.2993" y="350.6919">PWM</text><!--SRC=[RL9TJzj047o_Nx5Df98yf8PIgL8U8XKBWTe44AQq3qZHsjuwf_e-k5k79h- -Qvi4MQrVRksTcPtPyyc6sSTvalWQBJUc_b0uaqHwRiWMD2irLW6DKYUmf8fiASLiiG13Q2DeQoc044nZTO6idOMjHjXYq9ZN5DN9x81r3VyNUt-R0JklYoX3Vha0bY9J2Rdx8_ntFc1b49ZS7ZWqf1Gsx6nZSWfA2GYMw8KFusyR_AsLny2wq5x2mFsZtWy-F50mscAj94Wxe1SOtThSOIZXBdsoaw_4KQpT_9oEOBpKrOQl0f4Tw8nkS3i2Z23di94woy7LNJFbUjYyZAmDiWjTMzw6FgvmJxc3IHze2kCljIuehzlG84_djIrWbNuNfzd3wlmZN7y-6hreeMr_C3NpRUJarTawy_WYjzPPw5iTvUZaCEd2bJiuRW1t_mfVPkdxZCBMzN6oT2XqB2Hezy_8EOUpqzFhlLAraolxr9Ojvu2GZSs13bjQpnOLSSR8D9bsSYrBALdw6ven26ZjNKosL2TO5BtssK5RK89-ZJg7vp91PirDIK-s8cU8msvjOXMJHofawhaCD9xAju4zjHMHZ7Eu-x7w2m00]--></g></svg>