<svg xmlns="http://www.w3.org/2000/svg" xmlns:xlink="http://www.w3.org/1999/xlink" contentStyleType="text/css" height="417px" preserveAspectRatio="none" style="width:883px;height:417px;background:#FFFFFF;" version="1.1" viewBox="0 0 883 417" width="883px" zoomAndPan="magnify"><defs/><g><rect fill="#F0E68C" height="405.0547" style="stroke:#181818;stroke-width:0.5;" width="135" x="11" y="6"/><text fill="#000000" font-family="sans-serif" font-size="13" font-weight="bold" lengthAdjust="spacing" textLength="52" x="50" y="18.0669">Laptop</text><rect fill="#90EE90" height="405.0547" style="stroke:#181818;stroke-width:0.5;" width="409" x="158" y="6"/><text fill="#000000" font-family="sans-serif" font-size="13" font-weight="bold" lengthAdjust="spacing" textLength="89" x="318" y="18.0669">Onboard PC</text><text fill="#000000" font-family="sans-serif" font-size="13" font-weight="bold" lengthAdjust="spacing" textLength="83" x="318" y="33.1997">(Jetson NX)</text><rect fill="#F0F8FF" height="405.0547" style="stroke:#181818;stroke-width:0.5;" width="298" x="579" y="6"/><text fill="#000000" font-family="sans-serif" font-size="13" font-weight="bold" lengthAdjust="spacing" textLength="125" x="663" y="18.0669">Gazebo (Laptop)</text><rect fill="#ADD8E6" height="384.9219" style="stroke:#181818;stroke-width:0.5;" width="185" x="579" y="26.1328"/><text fill="#000000" font-family="sans-serif" font-size="13" font-weight="bold" lengthAdjust="spacing" textLength="33" x="654" y="38.1997">MCU</text><text fill="#000000" font-family="sans-serif" font-size="13" font-weight="bold" lengthAdjust="spacing" textLength="85" x="629" y="53.3325">(STM32 H7)</text><rect fill="#D3D3D3" height="384.9219" style="stroke:#181818;stroke-width:0.5;" width="101" x="776" y="26.1328"/><text fill="#000000" font-family="sans-serif" font-size="13" font-weight="bold" lengthAdjust="spacing" textLength="37" x="803" y="38.1997">Body</text><line style="stroke:#181818;stroke-width:0.5;stroke-dasharray:5.0,5.0;" x1="37" x2="37" y1="91.6953" y2="373.7578"/><line style="stroke:#181818;stroke-width:0.5;stroke-dasharray:5.0,5.0;" x1="105.5" x2="105.5" y1="91.6953" y2="373.7578"/><line style="stroke:#181818;stroke-width:0.5;stroke-dasharray:5.0,5.0;" x1="181.5" x2="181.5" y1="91.6953" y2="373.7578"/><line style="stroke:#181818;stroke-width:0.5;stroke-dasharray:5.0,5.0;" x1="335.5" x2="335.5" y1="91.6953" y2="373.7578"/><line style="stroke:#181818;stroke-width:0.5;stroke-dasharray:5.0,5.0;" x1="523.5" x2="523.5" y1="91.6953" y2="373.7578"/><line style="stroke:#181818;stroke-width:0.5;stroke-dasharray:5.0,5.0;" x1="671.5" x2="671.5" y1="91.6953" y2="373.7578"/><line style="stroke:#181818;stroke-width:0.5;stroke-dasharray:5.0,5.0;" x1="826.5" x2="826.5" y1="91.6953" y2="373.7578"/><rect fill="#E2E2F0" height="30.2969" rx="2.5" ry="2.5" style="stroke:#181818;stroke-width:0.5;" width="44" x="15" y="60.3984"/><text fill="#000000" font-family="sans-serif" font-size="14" lengthAdjust="spacing" textLength="30" x="22" y="80.3936">RViz</text><rect fill="#E2E2F0" height="30.2969" rx="2.5" ry="2.5" style="stroke:#181818;stroke-width:0.5;" width="73" x="69" y="60.3984"/><text fill="#000000" font-family="sans-serif" font-size="14" lengthAdjust="spacing" textLength="59" x="76" y="80.3936">Terminal</text><rect fill="#E2E2F0" height="30.2969" rx="2.5" ry="2.5" style="stroke:#181818;stroke-width:0.5;" width="39" x="162" y="60.3984"/><text fill="#000000" font-family="sans-serif" font-size="14" lengthAdjust="spacing" textLength="25" x="169" y="80.3936">Nav</text><rect fill="#E2E2F0" height="30.2969" rx="2.5" ry="2.5" style="stroke:#181818;stroke-width:0.5;" width="64" x="303.5" y="60.3984"/><text fill="#000000" font-family="sans-serif" font-size="14" lengthAdjust="spacing" textLength="50" x="310.5" y="80.3936">Control</text><rect fill="#E2E2F0" height="30.2969" rx="2.5" ry="2.5" style="stroke:#181818;stroke-width:0.5;" width="79" x="484" y="60.3984"/><text fill="#000000" font-family="sans-serif" font-size="14" lengthAdjust="spacing" textLength="65" x="491" y="80.3936">Estimator</text><rect fill="#E2E2F0" height="30.2969" rx="2.5" ry="2.5" style="stroke:#181818;stroke-width:0.5;" width="177" x="583" y="60.3984"/><text fill="#000000" font-family="sans-serif" font-size="14" lengthAdjust="spacing" textLength="163" x="590" y="80.3936">Spinal/Control_Spawner</text><rect fill="#E2E2F0" height="30.2969" rx="2.5" ry="2.5" style="stroke:#181818;stroke-width:0.5;" width="93" x="780" y="60.3984"/><text fill="#000000" font-family="sans-serif" font-size="14" lengthAdjust="spacing" textLength="79" x="787" y="80.3936">ESC&amp;Servo</text><rect fill="#E2E2F0" height="30.2969" rx="2.5" ry="2.5" style="stroke:#181818;stroke-width:0.5;" width="44" x="15" y="373.7578"/><text fill="#000000" font-family="sans-serif" font-size="14" lengthAdjust="spacing" textLength="30" x="22" y="393.7529">RViz</text><rect fill="#E2E2F0" height="30.2969" rx="2.5" ry="2.5" style="stroke:#181818;stroke-width:0.5;" width="73" x="69" y="373.7578"/><text fill="#000000" font-family="sans-serif" font-size="14" lengthAdjust="spacing" textLength="59" x="76" y="393.7529">Terminal</text><rect fill="#E2E2F0" height="30.2969" rx="2.5" ry="2.5" style="stroke:#181818;stroke-width:0.5;" width="39" x="162" y="373.7578"/><text fill="#000000" font-family="sans-serif" font-size="14" lengthAdjust="spacing" textLength="25" x="169" y="393.7529">Nav</text><rect fill="#E2E2F0" height="30.2969" rx="2.5" ry="2.5" style="stroke:#181818;stroke-width:0.5;" width="64" x="303.5" y="373.7578"/><text fill="#000000" font-family="sans-serif" font-size="14" lengthAdjust="spacing" textLength="50" x="310.5" y="393.7529">Control</text><rect fill="#E2E2F0" height="30.2969" rx="2.5" ry="2.5" style="stroke:#181818;stroke-width:0.5;" width="79" x="484" y="373.7578"/><text fill="#000000" font-family="sans-serif" font-size="14" lengthAdjust="spacing" textLength="65" x="491" y="393.7529">Estimator</text><rect fill="#E2E2F0" height="30.2969" rx="2.5" ry="2.5" style="stroke:#181818;stroke-width:0.5;" width="177" x="583" y="373.7578"/><text fill="#000000" font-family="sans-serif" font-size="14" lengthAdjust="spacing" textLength="163" x="590" y="393.7529">Spinal/Control_Spawner</text><rect fill="#E2E2F0" height="30.2969" rx="2.5" ry="2.5" style="stroke:#181818;stroke-width:0.5;" width="93" x="780" y="373.7578"/><text fill="#000000" font-family="sans-serif" font-size="14" lengthAdjust="spacing" textLength="79" x="787" y="393.7529">ESC&amp;Servo</text><line style="stroke:#181818;stroke-width:1.0;" x1="523.5" x2="565.5" y1="120.8281" y2="120.8281"/><line style="stroke:#181818;stroke-width:1.0;" x1="565.5" x2="565.5" y1="120.8281" y2="133.8281"/><line style="stroke:#181818;stroke-width:1.0;" x1="523.5" x2="565.5" y1="133.8281" y2="133.8281"/><line style="stroke:#181818;stroke-width:1.0;" x1="524.5" x2="534.5" y1="133.8281" y2="129.8281"/><line style="stroke:#181818;stroke-width:1.0;" x1="524.5" x2="534.5" y1="133.8281" y2="137.8281"/><text fill="#000000" font-family="sans-serif" font-size="13" font-weight="bold" lengthAdjust="spacing" textLength="9" x="530.5" y="115.7622">1</text><text fill="#000000" font-family="sans-serif" font-size="13" lengthAdjust="spacing" textLength="41" x="543.5" y="115.7622">100Hz</text><path d="M319.5,145.8281 L396.5,145.8281 L396.5,152.9609 L386.5,162.9609 L319.5,162.9609 L319.5,145.8281 " fill="#EEEEEE" style="stroke:#000000;stroke-width:1.5;"/><rect fill="none" height="56.2656" style="stroke:#000000;stroke-width:1.5;" width="220" x="319.5" y="145.8281"/><text fill="#000000" font-family="sans-serif" font-size="13" font-weight="bold" lengthAdjust="spacing" textLength="32" x="334.5" y="158.895">loop</text><text fill="#000000" font-family="sans-serif" font-size="11" font-weight="bold" lengthAdjust="spacing" textLength="42" x="411.5" y="158.0386">[40Hz]</text><line style="stroke:#181818;stroke-width:1.0;" x1="336.5" x2="346.5" y1="194.0938" y2="190.0938"/><line style="stroke:#181818;stroke-width:1.0;" x1="336.5" x2="346.5" y1="194.0938" y2="198.0938"/><line style="stroke:#181818;stroke-width:1.0;" x1="335.5" x2="522.5" y1="194.0938" y2="194.0938"/><text fill="#000000" font-family="sans-serif" font-size="13" font-weight="bold" lengthAdjust="spacing" textLength="9" x="352.5" y="189.0278">2</text><text fill="#000000" font-family="sans-serif" font-size="13" lengthAdjust="spacing" textLength="151" x="365.5" y="189.0278">estimator_-&gt;getState()</text><line style="stroke:#181818;stroke-width:1.0;" x1="333.5" x2="323.5" y1="237.2266" y2="233.2266"/><line style="stroke:#181818;stroke-width:1.0;" x1="333.5" x2="323.5" y1="237.2266" y2="241.2266"/><line style="stroke:#181818;stroke-width:1.0;" x1="181.5" x2="334.5" y1="237.2266" y2="237.2266"/><text fill="#000000" font-family="sans-serif" font-size="13" font-weight="bold" lengthAdjust="spacing" textLength="9" x="188.5" y="232.1606">3</text><text fill="#000000" font-family="sans-serif" font-size="13" lengthAdjust="spacing" textLength="117" x="201.5" y="232.1606">target_pos/vel/acc</text><path d="M319.5,249.2266 L396.5,249.2266 L396.5,256.3594 L386.5,266.3594 L319.5,266.3594 L319.5,249.2266 " fill="#EEEEEE" style="stroke:#000000;stroke-width:1.5;"/><rect fill="none" height="71.3984" style="stroke:#000000;stroke-width:1.5;" width="368" x="319.5" y="249.2266"/><text fill="#000000" font-family="sans-serif" font-size="13" font-weight="bold" lengthAdjust="spacing" textLength="32" x="334.5" y="262.2935">loop</text><text fill="#000000" font-family="sans-serif" font-size="11" font-weight="bold" lengthAdjust="spacing" textLength="42" x="411.5" y="261.437">[10Hz]</text><polygon fill="#181818" points="659.5,308.625,669.5,312.625,659.5,316.625,663.5,312.625" style="stroke:#181818;stroke-width:1.0;"/><line style="stroke:#181818;stroke-width:1.0;" x1="335.5" x2="665.5" y1="312.625" y2="312.625"/><text fill="#000000" font-family="sans-serif" font-size="13" font-weight="bold" lengthAdjust="spacing" textLength="9" x="342.5" y="299.9927">4</text><text fill="#000000" font-family="sans-serif" font-size="13" lengthAdjust="spacing" textLength="112" x="355.5" y="292.4263">angles and thrust</text><text fill="#000000" font-family="sans-serif" font-size="13" lengthAdjust="spacing" textLength="194" x="355.5" y="307.5591">spinal/FourAxisCommand.msg</text><polygon fill="#181818" points="814.5,351.7578,824.5,355.7578,814.5,359.7578,818.5,355.7578" style="stroke:#181818;stroke-width:1.0;"/><line style="stroke:#181818;stroke-width:1.0;" x1="671.5" x2="820.5" y1="355.7578" y2="355.7578"/><text fill="#000000" font-family="sans-serif" font-size="13" font-weight="bold" lengthAdjust="spacing" textLength="9" x="678.5" y="350.6919">5</text><text fill="#000000" font-family="sans-serif" font-size="13" lengthAdjust="spacing" textLength="30" x="691.5" y="350.6919">PWM</text><!--SRC=[RL9TRvj047o_Nx6rfTf-S4ZQIfNyO2b1QQBMJgAGVZn4iXROubEFEtgtqCI_lWi4HwZbvHPsPdPckTcUkGghAAeCMgvBSvAvCWhqkoQRqJBNM7WibPh1XWgokHJBzHfAGXj0MqiUX53MLcV8sbbeD4A3NcDgAAZPSi2wcl-BlRzDW5sbio13VZeFbW9J3gbx4lwRocDH8Z2v0x2lIIcisTcwJCah9I3OO2Lyc7xPuo-jAlIiCrr96BZ_fW-Z3m_aIstHA0dI3kW59hSsTUXpk8iVxVmpSH1hDpyM4vXkTB7dAqzaHpgJ6smcW07a73TYPzaxqpLZDkFcPM1T8ZlVjULjxECA3vGwcFU15Z0zDpgZrBIXGPxEQrl0DlugJfE7xVjtSFtnQFIYXRRzqTIaQYD7ByvsIOL_vAzr5lfMHpaw6IPTkFmPZXl0vt-5BvFuRKA-SNsS91uB7Gi9sjqPELTmTdfwVL3AEFbb7zgovGm8sTWAQDZIRhakY1D6flcYasjPIidINz6CNa2xoeMe8HDXblNQPuEse0Jz4dK5Q0kvbtBam7jV1twqeL_G9rVxyoSTOhcYqZufG_4wjAUtGf9p1NVVjty1]--></g></svg>