<?xml version="1.0" encoding="us-ascii" standalone="no"?><svg xmlns="http://www.w3.org/2000/svg" xmlns:xlink="http://www.w3.org/1999/xlink" contentStyleType="text/css" height="417px" preserveAspectRatio="none" style="width:900px;height:417px;background:#FFFFFF;" version="1.1" viewBox="0 0 900 417" width="900px" zoomAndPan="magnify"><defs/><g><rect fill="#F0E68C" height="405.0547" style="stroke:#181818;stroke-width:0.5;" width="141" x="11" y="6"/><text fill="#000000" font-family="sans-serif" font-size="13" font-weight="bold" lengthAdjust="spacing" textLength="53" x="52.5" y="18.0669">Laptop</text><rect fill="#90EE90" height="405.0547" style="stroke:#181818;stroke-width:0.5;" width="410.5" x="164" y="6"/><text fill="#000000" font-family="sans-serif" font-size="13" font-weight="bold" lengthAdjust="spacing" textLength="89" x="324.75" y="18.0669">Onboard PC</text><text fill="#000000" font-family="sans-serif" font-size="13" font-weight="bold" lengthAdjust="spacing" textLength="87" x="324.75" y="33.1997">(Jetson NX)</text><rect fill="#F0F8FF" height="405.0547" style="stroke:#181818;stroke-width:0.5;" width="308" x="586.5" y="6"/><text fill="#000000" font-family="sans-serif" font-size="13" font-weight="bold" lengthAdjust="spacing" textLength="126" x="675" y="18.0669">Gazebo (Laptop)</text><rect fill="#ADD8E6" height="384.9219" style="stroke:#181818;stroke-width:0.5;" width="194" x="586.5" y="26.1328"/><text fill="#000000" font-family="sans-serif" font-size="13" font-weight="bold" lengthAdjust="spacing" textLength="33" x="665" y="38.1997">MCU</text><text fill="#000000" font-family="sans-serif" font-size="13" font-weight="bold" lengthAdjust="spacing" textLength="87" x="640" y="53.3325">(STM32 H7)</text><rect fill="#D3D3D3" height="384.9219" style="stroke:#181818;stroke-width:0.5;" width="102" x="792.5" y="26.1328"/><text fill="#000000" font-family="sans-serif" font-size="13" font-weight="bold" lengthAdjust="spacing" textLength="37" x="820" y="38.1997">Body</text><line style="stroke:#181818;stroke-width:0.5;stroke-dasharray:5.0,5.0;" x1="38" x2="38" y1="91.6953" y2="373.7578"/><line style="stroke:#181818;stroke-width:0.5;stroke-dasharray:5.0,5.0;" x1="109.5" x2="109.5" y1="91.6953" y2="373.7578"/><line style="stroke:#181818;stroke-width:0.5;stroke-dasharray:5.0,5.0;" x1="188" x2="188" y1="91.6953" y2="373.7578"/><line style="stroke:#181818;stroke-width:0.5;stroke-dasharray:5.0,5.0;" x1="342" x2="342" y1="91.6953" y2="373.7578"/><line style="stroke:#181818;stroke-width:0.5;stroke-dasharray:5.0,5.0;" x1="528" x2="528" y1="91.6953" y2="373.7578"/><line style="stroke:#181818;stroke-width:0.5;stroke-dasharray:5.0,5.0;" x1="683.5" x2="683.5" y1="91.6953" y2="373.7578"/><line style="stroke:#181818;stroke-width:0.5;stroke-dasharray:5.0,5.0;" x1="843.5" x2="843.5" y1="91.6953" y2="373.7578"/><rect fill="#E2E2F0" height="30.2969" rx="2.5" ry="2.5" style="stroke:#181818;stroke-width:0.5;" width="46" x="15" y="60.3984"/><text fill="#000000" font-family="sans-serif" font-size="14" lengthAdjust="spacing" textLength="32" x="22" y="80.3936">RViz</text><rect fill="#E2E2F0" height="30.2969" rx="2.5" ry="2.5" style="stroke:#181818;stroke-width:0.5;" width="77" x="71" y="60.3984"/><text fill="#000000" font-family="sans-serif" font-size="14" lengthAdjust="spacing" textLength="63" x="78" y="80.3936">Terminal</text><rect fill="#E2E2F0" height="30.2969" rx="2.5" ry="2.5" style="stroke:#181818;stroke-width:0.5;" width="40" x="168" y="60.3984"/><text fill="#000000" font-family="sans-serif" font-size="14" lengthAdjust="spacing" textLength="26" x="175" y="80.3936">Nav</text><rect fill="#E2E2F0" height="30.2969" rx="2.5" ry="2.5" style="stroke:#181818;stroke-width:0.5;" width="68" x="308" y="60.3984"/><text fill="#000000" font-family="sans-serif" font-size="14" lengthAdjust="spacing" textLength="54" x="315" y="80.3936">Control</text><rect fill="#E2E2F0" height="30.2969" rx="2.5" ry="2.5" style="stroke:#181818;stroke-width:0.5;" width="85" x="485.5" y="60.3984"/><text fill="#000000" font-family="sans-serif" font-size="14" lengthAdjust="spacing" textLength="71" x="492.5" y="80.3936">Estimator</text><rect fill="#E2E2F0" height="30.2969" rx="2.5" ry="2.5" style="stroke:#181818;stroke-width:0.5;" width="186" x="590.5" y="60.3984"/><text fill="#000000" font-family="sans-serif" font-size="14" lengthAdjust="spacing" textLength="172" x="597.5" y="80.3936">Spinal/Control_Spawner</text><rect fill="#E2E2F0" height="30.2969" rx="2.5" ry="2.5" style="stroke:#181818;stroke-width:0.5;" width="94" x="796.5" y="60.3984"/><text fill="#000000" font-family="sans-serif" font-size="14" lengthAdjust="spacing" textLength="80" x="803.5" y="80.3936">ESC&amp;Servo</text><rect fill="#E2E2F0" height="30.2969" rx="2.5" ry="2.5" style="stroke:#181818;stroke-width:0.5;" width="46" x="15" y="373.7578"/><text fill="#000000" font-family="sans-serif" font-size="14" lengthAdjust="spacing" textLength="32" x="22" y="393.7529">RViz</text><rect fill="#E2E2F0" height="30.2969" rx="2.5" ry="2.5" style="stroke:#181818;stroke-width:0.5;" width="77" x="71" y="373.7578"/><text fill="#000000" font-family="sans-serif" font-size="14" lengthAdjust="spacing" textLength="63" x="78" y="393.7529">Terminal</text><rect fill="#E2E2F0" height="30.2969" rx="2.5" ry="2.5" style="stroke:#181818;stroke-width:0.5;" width="40" x="168" y="373.7578"/><text fill="#000000" font-family="sans-serif" font-size="14" lengthAdjust="spacing" textLength="26" x="175" y="393.7529">Nav</text><rect fill="#E2E2F0" height="30.2969" rx="2.5" ry="2.5" style="stroke:#181818;stroke-width:0.5;" width="68" x="308" y="373.7578"/><text fill="#000000" font-family="sans-serif" font-size="14" lengthAdjust="spacing" textLength="54" x="315" y="393.7529">Control</text><rect fill="#E2E2F0" height="30.2969" rx="2.5" ry="2.5" style="stroke:#181818;stroke-width:0.5;" width="85" x="485.5" y="373.7578"/><text fill="#000000" font-family="sans-serif" font-size="14" lengthAdjust="spacing" textLength="71" x="492.5" y="393.7529">Estimator</text><rect fill="#E2E2F0" height="30.2969" rx="2.5" ry="2.5" style="stroke:#181818;stroke-width:0.5;" width="186" x="590.5" y="373.7578"/><text fill="#000000" font-family="sans-serif" font-size="14" lengthAdjust="spacing" textLength="172" x="597.5" y="393.7529">Spinal/Control_Spawner</text><rect fill="#E2E2F0" height="30.2969" rx="2.5" ry="2.5" style="stroke:#181818;stroke-width:0.5;" width="94" x="796.5" y="373.7578"/><text fill="#000000" font-family="sans-serif" font-size="14" lengthAdjust="spacing" textLength="80" x="803.5" y="393.7529">ESC&amp;Servo</text><line style="stroke:#181818;stroke-width:1.0;" x1="528" x2="570" y1="120.8281" y2="120.8281"/><line style="stroke:#181818;stroke-width:1.0;" x1="570" x2="570" y1="120.8281" y2="133.8281"/><line style="stroke:#181818;stroke-width:1.0;" x1="529" x2="570" y1="133.8281" y2="133.8281"/><line style="stroke:#181818;stroke-width:1.0;" x1="529" x2="539" y1="133.8281" y2="129.8281"/><line style="stroke:#181818;stroke-width:1.0;" x1="529" x2="539" y1="133.8281" y2="137.8281"/><text fill="#000000" font-family="sans-serif" font-size="13" font-weight="bold" lengthAdjust="spacing" textLength="9" x="535" y="115.7622">1</text><text fill="#000000" font-family="sans-serif" font-size="13" lengthAdjust="spacing" textLength="40" x="548" y="115.7622">100Hz</text><path d="M326,145.8281 L404,145.8281 L404,152.9609 L394,162.9609 L326,162.9609 L326,145.8281 " fill="#EEEEEE" style="stroke:#000000;stroke-width:1.5;"/><rect fill="none" height="56.2656" style="stroke:#000000;stroke-width:1.5;" width="218" x="326" y="145.8281"/><text fill="#000000" font-family="sans-serif" font-size="13" font-weight="bold" lengthAdjust="spacing" textLength="33" x="341" y="158.895">loop</text><text fill="#000000" font-family="sans-serif" font-size="11" font-weight="bold" lengthAdjust="spacing" textLength="43" x="419" y="158.0386">[40Hz]</text><line style="stroke:#181818;stroke-width:1.0;" x1="343" x2="353" y1="194.0938" y2="190.0938"/><line style="stroke:#181818;stroke-width:1.0;" x1="343" x2="353" y1="194.0938" y2="198.0938"/><line style="stroke:#181818;stroke-width:1.0;" x1="342" x2="527" y1="194.0938" y2="194.0938"/><text fill="#000000" font-family="sans-serif" font-size="13" font-weight="bold" lengthAdjust="spacing" textLength="9" x="359" y="189.0278">2</text><text fill="#000000" font-family="sans-serif" font-size="13" lengthAdjust="spacing" textLength="149" x="372" y="189.0278">estimator_-&gt;getState()</text><line style="stroke:#181818;stroke-width:1.0;" x1="340" x2="330" y1="237.2266" y2="233.2266"/><line style="stroke:#181818;stroke-width:1.0;" x1="340" x2="330" y1="237.2266" y2="241.2266"/><line style="stroke:#181818;stroke-width:1.0;" x1="188" x2="341" y1="237.2266" y2="237.2266"/><text fill="#000000" font-family="sans-serif" font-size="13" font-weight="bold" lengthAdjust="spacing" textLength="8" x="195" y="232.1606">3</text><text fill="#000000" font-family="sans-serif" font-size="13" lengthAdjust="spacing" textLength="118" x="207" y="232.1606">target_pos/vel/acc</text><path d="M326,249.2266 L404,249.2266 L404,256.3594 L394,266.3594 L326,266.3594 L326,249.2266 " fill="#EEEEEE" style="stroke:#000000;stroke-width:1.5;"/><rect fill="none" height="71.3984" style="stroke:#000000;stroke-width:1.5;" width="373.5" x="326" y="249.2266"/><text fill="#000000" font-family="sans-serif" font-size="13" font-weight="bold" lengthAdjust="spacing" textLength="33" x="341" y="262.2935">loop</text><text fill="#000000" font-family="sans-serif" font-size="11" font-weight="bold" lengthAdjust="spacing" textLength="43" x="419" y="261.437">[10Hz]</text><polygon fill="#181818" points="671.5,308.625,681.5,312.625,671.5,316.625,675.5,312.625" style="stroke:#181818;stroke-width:1.0;"/><line style="stroke:#181818;stroke-width:1.0;" x1="342" x2="677.5" y1="312.625" y2="312.625"/><text fill="#000000" font-family="sans-serif" font-size="13" font-weight="bold" lengthAdjust="spacing" textLength="9" x="349" y="299.9927">4</text><text fill="#000000" font-family="sans-serif" font-size="13" lengthAdjust="spacing" textLength="70" x="362" y="292.4263">qd/attitude</text><text fill="#000000" font-family="sans-serif" font-size="13" lengthAdjust="spacing" textLength="217" x="362" y="307.5591">geometry_msgs/Vector3Stamped</text><polygon fill="#181818" points="831.5,351.7578,841.5,355.7578,831.5,359.7578,835.5,355.7578" style="stroke:#181818;stroke-width:1.0;"/><line style="stroke:#181818;stroke-width:1.0;" x1="683.5" x2="837.5" y1="355.7578" y2="355.7578"/><text fill="#000000" font-family="sans-serif" font-size="13" font-weight="bold" lengthAdjust="spacing" textLength="9" x="690.5" y="350.6919">5</text><text fill="#000000" font-family="sans-serif" font-size="13" lengthAdjust="spacing" textLength="31" x="703.5" y="350.6919">PWM</text><!--SRC=[RL9TJzj047o_Nx5Df98yf8PIgL8U8XKBWTe44AQq3qZHsjuwf_e-k5k79h- -Qvi4MQrVRksTcPtPyyc6sSTvalWQBJUc_b0uaqHwRiWMD2irLW6DKYUmf8fiASLiiG13Q2DeQoc044nZTO6idOMjHjXYq9ZN5DN9x81r3VyNUt-R0JklYoX3Vha0bY9J2Rdx8_ntFc1b49ZS7ZWqf1Gsx6nZSWfA2GYMw8KFusyR_AsLny2wq5x2mFsZtWy-F50mscAj94Wxe1SOtThSOIZXBdsoaw_4KQpT_9oEOBpKrOQl0f4Tw8nkS3i2Z23di94woy7LNJFbUjYyZAmDiWjTMzw6FgvmJxc3IHze2kCljIuehzlG84_djIrWbNuNfzd3wlmZN7y-6hreeMr_C3NpRUJarTawy_WYjzPPw5iTvUZaCEd2bJiuRW1t_mfVPkdxZCBMzN6oT2XqB2Hezy_8EOUpqzFhlLAraolxr9Ojvu2GZSs13bjQpnOLSSR8D9bsSYrBALdw6ven26ZjNKosL2TO5BtssK5RK89-ZJg7vp91PirDIK-s8cU8msvjOXMJHofawhaCD9xAju4zjHMHZ7Eu-x7w2m00]--></g></svg>